<svg xmlns="http://www.w3.org/2000/svg" width="100.352" height="240.917" viewBox="0 0 100.352 240.917"><defs><style>.a{fill:#223567;}</style></defs><g transform="translate(0 -0.03)"><g transform="translate(0 0.03)"><g transform="translate(0 179.994)"><path class="a" d="M.839,385.877a2.936,2.936,0,0,0,.754.236,6.843,6.843,0,0,0,.985.055,3.391,3.391,0,0,0,2.005-.653,4.737,4.737,0,0,0,1.442-1.694,9.341,9.341,0,0,0,1.065-4.192,14.093,14.093,0,0,0-.387-3.181,14.02,14.02,0,0,0-.689-2.226c-.271-.658-.653-1.5-1.141-2.493L3.3,368.437a13.569,13.569,0,0,1-.935-2.689,11.867,11.867,0,0,1-.347-2.789,4.864,4.864,0,0,1,.241-1.568,3.42,3.42,0,0,1,.859-1.417,1.825,1.825,0,0,1,1.327-.558,1.162,1.162,0,0,1,.538.161,1.483,1.483,0,0,0,.618.191c.08,0,.347-.03.347-.412,0-.266-.216-.513-.663-.764a2.283,2.283,0,0,0-1.081-.352,2.964,2.964,0,0,0-2.056.844,4.745,4.745,0,0,0-1.206,1.89,7.031,7.031,0,0,0-.377,2.267,11.4,11.4,0,0,0,.5,3.433,15.452,15.452,0,0,0,.814,2.191c.3.648.739,1.543,1.337,2.739.271.5.472.885.593,1.151A17.263,17.263,0,0,1,5.1,376.021a12.77,12.77,0,0,1,.482,3.433,10.737,10.737,0,0,1-.694,3.493,3.986,3.986,0,0,1-.965,1.593,1.881,1.881,0,0,1-1.327.593,2.117,2.117,0,0,1-.895-.271,2.854,2.854,0,0,0-1.03-.256.486.486,0,0,0-.518.553.155.155,0,0,0,.015.065,1.589,1.589,0,0,0,.694.653Z" transform="translate(-0.075 -358.205)"/><path class="a" d="M27.521,385.982c.271-.09.407-.357.407-.794,0-.221-.1-.588-.764-.588H24.007v-1.161c0-2.1-.025-3.975-.07-5.569l-.07-5.182c0-.045.005-.045.005-.04h2a.688.688,0,0,0,.5-.161.775.775,0,0,0,.161-.568c0-.231-.09-.623-.694-.623-.673,0-1.312.025-1.89.07v-7.292c-.03-.87-.04-1.87-.04-2.97,0-.176.035-.226.05-.236s.06-.05.231-.05l1.131.07h.613a1.016,1.016,0,0,0,.523-.241.694.694,0,0,0,.256-.558c0-.488-.241-.663-.447-.724a3.016,3.016,0,0,0-.774-.075H23.314a.647.647,0,0,0-.568.342,1.433,1.433,0,0,0-.2.779c.045,1.086.07,2.392.07,3.88l.035,14.459-.035,5.111v.07a4.474,4.474,0,0,0,.035.628v.663a.734.734,0,0,0,.412.734,3.085,3.085,0,0,0,1.231.171h1.473a6.847,6.847,0,0,0,1.759-.146Z" transform="translate(-11.217 -358.727)"/><path class="a" d="M48.558,370.443c.437-2.367.789-4.377,1.04-5.966.01.131.015.266.025.417.02.482.035,1.045.035,1.674,0,.724-.01,1.382-.035,1.96l-.035,1.965c0,.95.035,2.272.106,3.92,0,.794.01,1.407.035,1.824.09,2.257.141,4.2.141,5.775V385.2a1.481,1.481,0,0,0,.181.829h0a.817.817,0,0,0,.724.286.589.589,0,0,0,.508-.292,3.237,3.237,0,0,0,.116-1.07c0-.648-.025-1.794-.07-3.508-.07-1.3-.106-2.277-.106-2.9,0-1.975-.08-4.624-.246-7.885-.211-3.518-.317-6.192-.317-7.941V359.25a.875.875,0,0,0-.171-.573.56.56,0,0,0-.9.01,1.045,1.045,0,0,0-.241.613l-.176,1.045-.387,1.965-.317,1.819-1.608,8.564c-.07.241-.246,1.256-.528,3.1-.141.749-.246,1.332-.317,1.754l-.111.608c-.407-2.4-.7-4.061-.89-5.061-.422-1.885-1.06-4.558-1.89-7.951-.849-3.473-1.367-5.5-1.578-6.212a.516.516,0,0,0-.513-.367.63.63,0,0,0-.422.176.543.543,0,0,0-.2.412v3.081l-.07,4.166c-.025,1.221-.035,2.608-.035,4.136,0,1.317-.01,2.518-.035,3.573l-.035,3.538v5.85c0,1.3.387,1.955,1.151,1.955a.137.137,0,0,0,.1-.04,1.4,1.4,0,0,0,.286-1.01l-.07-1.689c-.07-.754-.106-1.292-.106-1.633,0-2.03-.01-3.905-.035-5.569s-.035-3.533-.035-5.569c0-2.241.025-4.307.075-6.172.231,1,.668,3.061,1.478,7.106,1.02,5.116,1.623,8.267,1.784,9.368a1.643,1.643,0,0,0,.271.88.719.719,0,0,0,1.211,0,1.651,1.651,0,0,0,.327-.8c.09-.628.307-1.694.628-3.181.332-1.7.754-3.955,1.261-6.689Z" transform="translate(-20.011 -358.31)"/><path class="a" d="M76.15,385.677a.569.569,0,0,0,.437-.241.751.751,0,0,0,.186-.487c0-.286-.161-.623-.94-.623H74.708c0-.276.015-.548.035-.809v-.98c0-2.226-.141-5.941-.422-11.037-.3-5.468-.452-9.162-.452-10.991l.04-.08a1.059,1.059,0,0,1,.317-.03h.744a2.829,2.829,0,0,0,.447.035.487.487,0,0,0,.432-.241.888.888,0,0,0,.126-.452.556.556,0,0,0-.231-.477.936.936,0,0,0-.533-.146c-.543,0-.975-.01-1.332-.035H72.9a3.731,3.731,0,0,0-1.367.126.679.679,0,0,0-.342.6c0,.543.3.623.482.623h1.106c.035.367.055,1.076.055,2.106v2.307l-.035,1.794c.1,1.875.186,4.468.281,7.7.161,4,.241,7.368.246,10.016H72.095c-.633,0-.729.367-.729.588a.639.639,0,0,0,.236.482.758.758,0,0,0,.528.211c.839,0,1.558.01,2.136.035h1.89Z" transform="translate(-35.411 -358.623)"/><path class="a" d="M91.314,384.7a.958.958,0,0,0,.186.6h0a.61.61,0,0,0,.508.266c1.382,0,2.337-.01,2.835-.035h.3l.226-.035a.471.471,0,0,0,.432-.261,1.1,1.1,0,0,0,.121-.538c0-.663-.367-.764-.588-.764H93.163a2.44,2.44,0,0,1-.392-.015l-.035-.015-.211-4.327c-.141-2.2-.211-3.81-.211-4.79l-.176-6.267c-.07-2.126-.106-5.388-.106-9.695,0-.246-.1-.658-.764-.658a.7.7,0,0,0-.447.151.506.506,0,0,0-.211.4c0,1.6.07,4.071.211,7.323.116,3.593.176,6.056.176,7.313,0,1.347.045,3.021.141,4.981.116,1.829.176,3.5.176,4.966v1.4Z" transform="translate(-45.071 -358.17)"/><path class="a" d="M112.353,385.535l.226-.035a.471.471,0,0,0,.432-.261,1.1,1.1,0,0,0,.121-.538c0-.663-.367-.764-.588-.764h-2.171a2.441,2.441,0,0,1-.392-.015l-.035-.015-.211-4.327c-.141-2.2-.211-3.81-.211-4.79l-.176-6.267c-.07-2.121-.106-5.383-.106-9.695,0-.246-.1-.658-.764-.658a.7.7,0,0,0-.447.151.506.506,0,0,0-.211.4c0,1.6.07,4.071.211,7.323.116,3.593.176,6.056.176,7.313,0,1.347.045,3.021.141,4.981.116,1.834.176,3.508.176,4.966v1.4a.949.949,0,0,0,.186.6h0a.61.61,0,0,0,.508.266c1.382,0,2.337-.01,2.835-.035h.3Z" transform="translate(-53.632 -358.17)"/><path class="a" d="M129.654,384.6H126.5v-1.161c0-2.091-.025-3.965-.07-5.569l-.07-5.182c0-.045.005-.045.005-.04h2a.688.688,0,0,0,.5-.161.775.775,0,0,0,.161-.568c0-.231-.09-.623-.694-.623-.673,0-1.312.025-1.89.07v-7.292c-.03-.875-.04-1.845-.04-2.97,0-.176.035-.226.05-.236s.06-.05.231-.05l1.131.07h.613a1.058,1.058,0,0,0,.523-.241.694.694,0,0,0,.256-.558c0-.488-.241-.663-.447-.724a3.016,3.016,0,0,0-.774-.075H125.8a.647.647,0,0,0-.568.342,1.433,1.433,0,0,0-.2.779c.045,1.086.07,2.392.07,3.88l.035,14.459-.035,5.111v.07a4.618,4.618,0,0,0,.035.628v.663a.734.734,0,0,0,.412.734,3.085,3.085,0,0,0,1.231.171h1.473a6.847,6.847,0,0,0,1.759-.146c.271-.09.407-.357.407-.794,0-.221-.1-.588-.764-.588Z" transform="translate(-62.197 -358.727)"/><path class="a" d="M147.443,378.391c-.92-3.679-1.633-6.443-2.116-8.232a3.96,3.96,0,0,0,.533-.91c.211-.457.387-.864.528-1.216a10.271,10.271,0,0,0,.709-3.548,7.8,7.8,0,0,0-.96-3.81,3.674,3.674,0,0,0-1.292-1.382,3.322,3.322,0,0,0-1.769-.513c-.628,0-.764.246-.764.447v4.518c0,2.85-.045,6.358-.141,10.434l-.07,3.4-.07,7.076v.523a.7.7,0,0,0,.216.518.75.75,0,0,0,.548.216c.493,0,.764-.3.764-.834l-.07-13.921.392-.181.2-.116c.266,1.015.553,2.332.864,3.915.281,1.447.518,2.588.7,3.4.3,1.493.789,3.342,1.437,5.508l.422,1.538a.961.961,0,0,0,1.005.8.539.539,0,0,0,.487-.3,1.293,1.293,0,0,0,.141-.608,1.486,1.486,0,0,0-.04-.417l-1.643-6.3Zm-1.769-13.484a10.434,10.434,0,0,1-.171,1.729,5.681,5.681,0,0,1-.4,1.422,6.451,6.451,0,0,1-.925,1.1,2.92,2.92,0,0,1-.719.583v-9.594a.025.025,0,0,0,.015-.005h.025a1.3,1.3,0,0,1,.985.5,3.408,3.408,0,0,1,.709,1.372,9.349,9.349,0,0,1,.482,2.9Z" transform="translate(-70.648 -358.473)"/><path class="a" d="M169.224,362.436a12.315,12.315,0,0,0-.5-1.558,5.278,5.278,0,0,0-.724-1.332,3.621,3.621,0,0,0-1.2-.89,3.666,3.666,0,0,0-1.6-.347,2.224,2.224,0,0,0-1.628.628,3.689,3.689,0,0,0-1.035,1.452,9.992,9.992,0,0,0-.588,2.272,33.087,33.087,0,0,0-.352,5.136v1.4c0,11.424,1.633,16.977,5,16.977a2.418,2.418,0,0,0,2.181-1.327,8.812,8.812,0,0,0,.694-1.422,8.112,8.112,0,0,0,.407-1.669,29.78,29.78,0,0,0,.387-3.694c.045-.985.07-2.071.07-3.227v-.106A77.362,77.362,0,0,0,169.5,364.1l-.281-1.654Zm-.2,11.549v.141c0,1.176-.025,2.407-.07,3.669a29.106,29.106,0,0,1-.7,4.78,4.874,4.874,0,0,1-.678,1.754h0a1.15,1.15,0,0,1-.9.593c-.553,0-1.055-.392-1.5-1.161a10.163,10.163,0,0,1-1.106-2.8,33.758,33.758,0,0,1-.7-3.94,49.247,49.247,0,0,1-.452-5.936v-1.714c0-1.2.035-2.387.106-3.533a19.594,19.594,0,0,1,.694-4.312A4.245,4.245,0,0,1,164.43,360a1.2,1.2,0,0,1,.945-.513,1.777,1.777,0,0,1,1.156.457,3.273,3.273,0,0,1,.89,1.312,18.489,18.489,0,0,1,1.146,4.342c.231,1.99.372,3.639.417,4.89l.035,3.5Z" transform="translate(-80.383 -358.24)"/><path class="a" d="M186.534,385.877a2.936,2.936,0,0,0,.754.236,6.843,6.843,0,0,0,.985.055,3.391,3.391,0,0,0,2.005-.653,4.737,4.737,0,0,0,1.442-1.694,9.341,9.341,0,0,0,1.065-4.192,14.161,14.161,0,0,0-.387-3.181,14.77,14.77,0,0,0-.689-2.226c-.271-.658-.653-1.5-1.141-2.493L189,368.437a13.567,13.567,0,0,1-.935-2.689,11.867,11.867,0,0,1-.347-2.789,5.007,5.007,0,0,1,.236-1.568,3.421,3.421,0,0,1,.859-1.417,1.825,1.825,0,0,1,1.327-.558,1.162,1.162,0,0,1,.538.161,1.483,1.483,0,0,0,.618.191c.106,0,.347-.04.347-.412,0-.266-.216-.513-.663-.764a2.283,2.283,0,0,0-1.081-.352,2.964,2.964,0,0,0-2.056.844,4.745,4.745,0,0,0-1.206,1.89,7.031,7.031,0,0,0-.377,2.267,11.4,11.4,0,0,0,.5,3.433,15.452,15.452,0,0,0,.814,2.191c.3.648.739,1.543,1.337,2.739.271.5.472.885.593,1.151a17.262,17.262,0,0,1,1.287,3.267,12.77,12.77,0,0,1,.482,3.433,10.737,10.737,0,0,1-.694,3.493,3.986,3.986,0,0,1-.965,1.593,1.881,1.881,0,0,1-1.327.593,2.117,2.117,0,0,1-.895-.271,2.877,2.877,0,0,0-1.03-.256.486.486,0,0,0-.518.553.155.155,0,0,0,.015.065,1.589,1.589,0,0,0,.694.653Z" transform="translate(-92.44 -358.205)"/><path class="a" d="M8.845,432.646A19.25,19.25,0,0,0,8,429.007a8.342,8.342,0,0,0-1.855-3.026A4.472,4.472,0,0,0,2.97,424.72H2.794c-1.88,0-2.794.317-2.794.975a3.233,3.233,0,0,0,.256,1,4.206,4.206,0,0,1,.271.839c.09.648.151,2.277.176,4.85l.07,4.237.246,9.559.106,3.1a1.042,1.042,0,0,1-.231.613,1.785,1.785,0,0,0-.3.769c0,.241.166.447.493.608a1.988,1.988,0,0,0,.9.226c.156,0,.457-.07,1.3-.673a11.837,11.837,0,0,0,1.93-1.789,10.061,10.061,0,0,0,1.648-2.553A23.237,23.237,0,0,0,8.509,441.7a21.455,21.455,0,0,0,.583-4.739v-1.091c-.07-1.442-.156-2.533-.246-3.232Zm-6.373,16.8v-3.789c0-1.674-.08-3.915-.246-6.659-.186-3.146-.281-5.393-.281-6.679,0-.784-.045-1.764-.141-2.915-.09-1.106-.141-2.081-.141-2.895,0-.166.2-.251.6-.251,3.654,0,5.5,3.392,5.5,10.092,0,.764-.035,1.573-.106,2.4a28.526,28.526,0,0,1-.488,3.086,17.332,17.332,0,0,1-.869,2.94,10.75,10.75,0,0,1-1.588,2.784,7.009,7.009,0,0,1-2.236,1.895h-.01Z" transform="translate(0 -391.273)"/><path class="a" d="M31.514,450.175H28.357v-1.161c0-2.086-.025-3.96-.07-5.569l-.07-5.182c0-.045.005-.045.005-.04h2a.688.688,0,0,0,.5-.161.783.783,0,0,0,.161-.568c0-.231-.09-.623-.694-.623-.673,0-1.312.025-1.89.07V429.65c-.03-.89-.04-1.89-.04-2.975,0-.181.04-.231.05-.236s.06-.05.231-.05l1.131.07h.613a1.062,1.062,0,0,0,.523-.241.694.694,0,0,0,.256-.558c0-.487-.241-.663-.447-.724a3.019,3.019,0,0,0-.774-.075H27.664a.654.654,0,0,0-.568.342,1.433,1.433,0,0,0-.2.779c.045,1.086.07,2.392.07,3.88l.035,14.459-.035,5.111v.07a4.474,4.474,0,0,0,.035.628v.663a.739.739,0,0,0,.407.734,3.085,3.085,0,0,0,1.231.171h1.473a6.845,6.845,0,0,0,1.759-.146c.271-.09.407-.357.407-.794,0-.221-.1-.588-.764-.588Z" transform="translate(-13.381 -391.343)"/><path class="a" d="M59.2,439.792c-.271-.658-.653-1.5-1.141-2.493l-1.573-3.292a13.568,13.568,0,0,1-.935-2.689,11.9,11.9,0,0,1-.347-2.789,4.864,4.864,0,0,1,.241-1.568,3.369,3.369,0,0,1,.859-1.417,1.825,1.825,0,0,1,1.327-.558,1.074,1.074,0,0,1,.533.161,1.483,1.483,0,0,0,.618.191c.08,0,.347-.03.347-.412,0-.266-.216-.513-.663-.764a2.283,2.283,0,0,0-1.081-.352,2.964,2.964,0,0,0-2.056.844,4.745,4.745,0,0,0-1.206,1.89,7.031,7.031,0,0,0-.377,2.267,11.449,11.449,0,0,0,.5,3.433,15.453,15.453,0,0,0,.814,2.191c.3.648.749,1.568,1.332,2.739.276.508.472.895.593,1.156A17.4,17.4,0,0,1,58.27,441.6a12.78,12.78,0,0,1,.488,3.433,10.736,10.736,0,0,1-.694,3.493,3.987,3.987,0,0,1-.965,1.593,1.881,1.881,0,0,1-1.327.593,2.117,2.117,0,0,1-.895-.271,2.83,2.83,0,0,0-1.03-.256.486.486,0,0,0-.518.553.155.155,0,0,0,.015.065,1.589,1.589,0,0,0,.694.653,3,3,0,0,0,.754.236,6.843,6.843,0,0,0,.985.055,3.4,3.4,0,0,0,2.005-.653,4.737,4.737,0,0,0,1.442-1.694,9.342,9.342,0,0,0,1.065-4.192,15.494,15.494,0,0,0-1.076-5.408Z" transform="translate(-26.527 -390.821)"/><path class="a" d="M80.364,450.18H77.207v-1.161c0-2.091-.025-3.965-.07-5.569l-.07-5.182c0-.045.005-.045.005-.04h2a.688.688,0,0,0,.5-.161.776.776,0,0,0,.161-.568c0-.231-.09-.623-.694-.623-.673,0-1.312.025-1.89.07v-7.292c-.03-.875-.04-1.845-.04-2.97,0-.181.04-.231.05-.236s.06-.05.231-.05l1.131.07h.613a1.1,1.1,0,0,0,.523-.241.694.694,0,0,0,.256-.558c0-.488-.241-.663-.447-.724a3.016,3.016,0,0,0-.774-.075H76.514a.647.647,0,0,0-.568.342,1.433,1.433,0,0,0-.2.779c.045,1.091.07,2.4.07,3.88l.035,14.459-.035,5.111v.07a4.619,4.619,0,0,0,.035.628v.663a.739.739,0,0,0,.407.734h0a3.085,3.085,0,0,0,1.231.171h1.473a6.845,6.845,0,0,0,1.759-.146c.271-.09.407-.357.407-.794,0-.221-.1-.588-.764-.588Z" transform="translate(-37.68 -391.348)"/><path class="a" d="M100.656,423.05a.837.837,0,0,0-.859.578.146.146,0,0,0-.01.045l.035,4.935V431.3c-.025.8-.035,1.724-.035,2.734l-.07,6.091c-.045,1.769-.07,3.82-.07,6.1a6.8,6.8,0,0,1-.09,1.226c-.5-1.508-1.06-3.6-1.679-6.232-1.186-4.393-2.035-7.6-2.523-9.524-.231-.839-.513-2.086-.839-3.7l-.739-3.443a1.049,1.049,0,0,0-.377-.523.911.911,0,0,0-.558-.241,1.405,1.405,0,0,0-.794.181.776.776,0,0,0-.286.689v.377a1.638,1.638,0,0,1,.035.362c0,1.226.01,2.332.035,3.292V436.6l.07,6.091.035,6.091a8.867,8.867,0,0,1-.065,1.377.309.309,0,0,0,.005.07l.106.281a.137.137,0,0,0,.126.085h.8a.131.131,0,0,0,.106-.055l.211-.281a.248.248,0,0,0,.025-.08l-.141-9.976V427.3c.613,3.121,1.02,5.081,1.206,5.83.256,1.146,1.7,6.443,4.3,15.751a2.747,2.747,0,0,0,.106.528l.106.673a1.433,1.433,0,0,0,.307.618.72.72,0,0,0,.558.291c.477,0,1.045-.2,1.045-1.146l.07-2.764c.07-1.256.106-2.186.106-2.774,0-3.061.01-5.84.035-8.262.025-2.473.035-5.267.035-8.3V425.5s.005-.065.015-.141a2.774,2.774,0,0,0,.02-.4,6.154,6.154,0,0,0,.035-.754c0-.533-.045-1.151-.412-1.151Z" transform="translate(-45.643 -390.443)"/><path class="a" d="M123.664,424.715l-3.85.035h-3.5a7.279,7.279,0,0,0-1.422.106,1.254,1.254,0,0,0-.633.211.661.661,0,0,0-.146.478.56.56,0,0,0,.292.5,1.088,1.088,0,0,0,.578.161h3.845c.02.246.045,1.07.045,3.649v2.272l-.035,1.02c0,1.231.035,3.121.106,5.6l.07,5.6v6.232a1.287,1.287,0,0,0,.2.724.712.712,0,0,0,.638.322.47.47,0,0,0,.447-.216.681.681,0,0,0,.176-.367,2.812,2.812,0,0,0,.035-.5l-.035-2.664V428.027l-.035-1.91.181-.02h3.116c.694,0,.8-.412.8-.658a.722.722,0,0,0-.2-.558,1.008,1.008,0,0,0-.668-.171Z" transform="translate(-56.761 -391.268)"/><path class="a" d="M144.759,449.895h-1.126c0-.281.015-.548.035-.809v-.98c0-2.226-.141-5.94-.422-11.037-.3-5.473-.452-9.167-.457-10.991l.04-.08a1.056,1.056,0,0,1,.317-.03h.744a2.78,2.78,0,0,0,.447.035.477.477,0,0,0,.432-.241.9.9,0,0,0,.126-.452.556.556,0,0,0-.231-.477.925.925,0,0,0-.533-.146c-.543,0-.975-.01-1.332-.035h-.98a3.731,3.731,0,0,0-1.367.126.679.679,0,0,0-.342.6c0,.543.3.623.482.623H141.7c.035.367.055,1.076.055,2.106v2.307l-.035,1.794c.09,1.845.186,4.433.281,7.7.161,4.016.241,7.383.246,10.016h-1.231c-.633,0-.729.367-.729.588a.639.639,0,0,0,.236.482.758.758,0,0,0,.528.211c.854,0,1.568.01,2.136.035h1.89a.569.569,0,0,0,.437-.241.751.751,0,0,0,.186-.487c0-.286-.161-.623-.94-.623Z" transform="translate(-69.693 -391.238)"/><path class="a" d="M166.975,432.646a19.247,19.247,0,0,0-.849-3.639,8.342,8.342,0,0,0-1.855-3.026,4.472,4.472,0,0,0-3.171-1.261h-.176c-1.88,0-2.794.317-2.794.975a3.388,3.388,0,0,0,.256,1,4.012,4.012,0,0,1,.271.839c.09.648.151,2.282.171,4.85l.07,4.237.246,9.559.106,3.1c.015.09-.015.271-.231.613a1.785,1.785,0,0,0-.3.769c0,.241.166.447.493.608a1.988,1.988,0,0,0,.9.226c.156,0,.457-.07,1.3-.673a11.836,11.836,0,0,0,1.93-1.789A10.06,10.06,0,0,0,165,446.477a23.042,23.042,0,0,0,1.638-4.775,21.454,21.454,0,0,0,.583-4.739v-1.091c-.07-1.442-.156-2.533-.246-3.232Zm-6.619,6.348c-.186-3.146-.281-5.393-.281-6.679,0-.784-.045-1.764-.141-2.915-.09-1.106-.141-2.081-.141-2.895,0-.166.2-.251.6-.251,3.654,0,5.5,3.392,5.5,10.092,0,.764-.035,1.573-.106,2.4a28.333,28.333,0,0,1-.488,3.086,17.471,17.471,0,0,1-.869,2.94,10.623,10.623,0,0,1-1.593,2.784,7.009,7.009,0,0,1-2.236,1.895h-.01v-3.789c0-1.669-.08-3.905-.246-6.659Z" transform="translate(-78.657 -391.273)"/><path class="a" d="M190.687,429.812l-.211-1.664a11.8,11.8,0,0,0-.427-1.578,5.21,5.21,0,0,0-.663-1.362,3.541,3.541,0,0,0-1.161-.94,3.678,3.678,0,0,0-1.583-.412,2.181,2.181,0,0,0-1.653.558,3.7,3.7,0,0,0-1.1,1.407,9.986,9.986,0,0,0-.684,2.247,32.854,32.854,0,0,0-.573,5.111l-.06,1.4c-.493,11.414.9,17.032,4.267,17.178h.126a2.413,2.413,0,0,0,2.111-1.231,8.4,8.4,0,0,0,.754-1.392,8.317,8.317,0,0,0,.482-1.654,30.677,30.677,0,0,0,.548-3.674c.09-.975.161-2.061.206-3.222v-.106a77.322,77.322,0,0,0-.382-10.66ZM187.9,449.95a1.172,1.172,0,0,1-.93.553c-.553-.025-1.04-.432-1.447-1.226a10.287,10.287,0,0,1-.985-2.845,33.075,33.075,0,0,1-.528-3.965,49.184,49.184,0,0,1-.2-5.951l.075-1.714c.05-1.211.141-2.4.256-3.523a19.239,19.239,0,0,1,.88-4.277,4.093,4.093,0,0,1,.774-1.493,1.214,1.214,0,0,1,.92-.472h.05a1.774,1.774,0,0,1,1.136.508,3.315,3.315,0,0,1,.834,1.347,18.852,18.852,0,0,1,.96,4.388c.146,2.005.216,3.659.211,4.9l-.116,3.5v.141c-.055,1.171-.131,2.407-.231,3.664a29.469,29.469,0,0,1-.9,4.744,4.763,4.763,0,0,1-.754,1.724Z" transform="translate(-90.768 -390.842)"/></g><g transform="translate(0.422)"><path class="a" d="M100.145,78.719a15.627,15.627,0,0,1-2.2.915c.045-.266.09-.528.136-.794.216-1.211.447-2.427.6-3.664.02-.216-.04-.392-.141-.407s-.211.141-.241.352c-.181,1.211-.432,2.417-.668,3.629-.065.342-.131.689-.191,1.03-.578.176-1.161.337-1.744.467a12.38,12.38,0,0,1-3.89.337c.291-.4.578-.8.854-1.211A47.42,47.42,0,0,0,95.345,74.8c.372-.729.729-1.463,1.06-2.211a7.666,7.666,0,0,0,2.267-.342,3.932,3.932,0,0,0,1.89-1.734c.015-.035-.04-.106-.121-.161s-.171-.085-.2-.06a3.37,3.37,0,0,1-1.774,1.317,5.678,5.678,0,0,1-1.694.075c.216-.6.4-1.206.578-1.8.975-3.372,1.744-6.78,2.724-10.127.085-.292.085-.538,0-.568s-.236.176-.332.462c-.98,2.94-1.8,5.925-2.734,8.866-.106-.1-.211-.206-.312-.322-.256-.286-.5-.6-.764-.915a8.679,8.679,0,0,0-.859-.925,2.954,2.954,0,0,1-.769-.784,6.361,6.361,0,0,1-.638-2.186h0a12.062,12.062,0,0,0,.789-1.518c.176-.493.236-.895.136-.92s-.317.312-.5.769a10.037,10.037,0,0,1-.508.98c-.06-.563-.106-1.131-.141-1.7-.01-.07-.1-.121-.2-.121s-.186.06-.191.131c0,.794.01,1.593.08,2.4a19.379,19.379,0,0,1-1.417,1.85,37.239,37.239,0,0,1-3.056,3.051c-2.141,1.935-4.438,3.7-6.74,5.463-1.151.885-2.312,1.754-3.448,2.674-.568.457-1.111.925-1.653,1.4a16.545,16.545,0,0,1,.281-2.744,5.85,5.85,0,0,1,.528-1.563,2.292,2.292,0,0,1,.488-.623c.176-.166.462-.347.668-.543a18.572,18.572,0,0,0,2.282-2.593,24.921,24.921,0,0,0,1.89-2.88c.045-.09.045-.176,0-.2s-.121.025-.171.106a24.9,24.9,0,0,1-1.93,2.814,18.406,18.406,0,0,1-2.292,2.5h0a3.649,3.649,0,0,0,.352-1.392,12.913,12.913,0,0,1-.02-2.015,14.093,14.093,0,0,1,1.89-3.553c.03-.055.03-.106,0-.121s-.07.015-.1.065c-.673,1.161-1.648,2.186-1.985,3.568a11.638,11.638,0,0,0-.025,2.046,4.24,4.24,0,0,1-.588,1.769c-.06.045-.126.1-.191.151a2.6,2.6,0,0,0-.578.709,6.17,6.17,0,0,0-.6,1.664,19.537,19.537,0,0,0-.372,3.267c-.387.347-.774.694-1.161,1.045-1.076.99-2.131,2.005-3.121,3.111a17.245,17.245,0,0,0-2.6,3.674q-.226.482-.407,1c-.271.156-.548.307-.824.457-.849.447-1.714.854-2.588,1.241a20.623,20.623,0,0,1,.724-3.578,17.51,17.51,0,0,1,1.005-2.583c.191-.4.427-.864.623-1.317s.372-.925.528-1.4a14.436,14.436,0,0,0,.457-5.88c-.025-.246-.045-.488-.07-.734a51.97,51.97,0,0,0,5.755-5.182,35.33,35.33,0,0,0,2.955-3.624,34.134,34.134,0,0,0,2.161-3.689A12.676,12.676,0,0,0,82.5,60.43c1.327-.357,2.654-.719,3.975-1.136a25.729,25.729,0,0,0,3.87-1.558c1.005-.508,1.97-1.07,2.915-1.659.774-.03,1.578.02,2.382-.03a6.4,6.4,0,0,0,2.588-.6.084.084,0,0,0,.02-.116.1.1,0,0,0-.106-.06,6.214,6.214,0,0,1-2.518.447c-.558,0-1.111-.04-1.679-.07a14.083,14.083,0,0,0,3.272-2.563,14.075,14.075,0,0,0,1.87-3.724c.09-.221.09-.422-.005-.467s-.246.1-.352.312a13.718,13.718,0,0,1-1.915,3.533,13.7,13.7,0,0,1-3.242,2.347c-.96.568-1.935,1.106-2.925,1.6A4.038,4.038,0,0,1,91.1,55.47a8.918,8.918,0,0,1,1.221-1.684c.467-.513,1.025-1.02,1.493-1.593A8.927,8.927,0,0,0,94.978,50.3c.025-.06-.025-.141-.121-.191s-.191-.045-.226.005a8.683,8.683,0,0,1-1.216,1.729c-.482.523-1.025.955-1.573,1.478A9.454,9.454,0,0,0,90.4,55.058a4.419,4.419,0,0,0-.739,2.081,25.459,25.459,0,0,1-3.473,1.236c-1.3.367-2.634.678-3.96.985a11.629,11.629,0,0,1-1.8.251c.673-1.287,1.357-2.568,2.035-3.85V55.8c.885-.156,1.744-.276,2.654-.442a2.848,2.848,0,0,0,.739-.226,2.985,2.985,0,0,0,.608-.452c.332-.291.663-.558,1.02-.824.7-.538,1.432-1.065,2.116-1.664a5.014,5.014,0,0,0,1.633-2.221.172.172,0,0,0-.146-.191.191.191,0,0,0-.226.075,4.6,4.6,0,0,1-1.6,1.935c-.689.538-1.427,1.025-2.166,1.528-.367.246-.749.518-1.1.8a1.594,1.594,0,0,1-1.02.452c-.648.085-1.322.156-2,.231.427-.8.849-1.613,1.277-2.417,1.452-2.689,2.9-5.388,4.448-8.021a6.084,6.084,0,0,1,1.332-1.739A10.6,10.6,0,0,1,91.9,41.387a24.691,24.691,0,0,0,3.99-2.337c.427-.357.618-.769.543-.824-.1-.07-.392.2-.794.523a24.06,24.06,0,0,1-3.975,2.2A11.334,11.334,0,0,0,89.676,42.2a4.25,4.25,0,0,0-.447.407l-.211.216-.186.246c-.256.327-.437.648-.648.975-1.618,2.613-3.126,5.277-4.649,7.941q-2.164,3.815-4.282,7.659c-.307-.01-.618-.03-.93-.06a26.928,26.928,0,0,0-4.2-.246,11.409,11.409,0,0,0-1.312.166c.533-.538,1.055-1.091,1.548-1.648,1.312-1.457,2.573-2.95,3.82-4.453l7.408-9.051c.216-.261.327-.518.246-.583s-.317.075-.543.332L83.263,46.4A6.227,6.227,0,0,1,82.906,43c.08-.694.216-1.392.342-2.1.065-.352.126-.714.176-1.081.045-.387.06-.719.126-1.05A3.413,3.413,0,0,1,84.394,37a11.914,11.914,0,0,1,1.613-1.332,11.458,11.458,0,0,0,3.111-3.056.21.21,0,0,0-.05-.292.228.228,0,0,0-.281.09,11.122,11.122,0,0,1-3.091,2.83,13.686,13.686,0,0,0-1.573,1.2,5.064,5.064,0,0,1,.432-1.824,18.241,18.241,0,0,0,1-2.548.086.086,0,0,0-.075-.09.093.093,0,0,0-.111.045,18.692,18.692,0,0,1-1.111,2.458,4.746,4.746,0,0,0-.548,2.417,4.26,4.26,0,0,0-.8,1.729c-.085.372-.116.759-.166,1.086-.06.342-.126.689-.2,1.035-.151.7-.312,1.407-.417,2.136a9.268,9.268,0,0,0-.1,2.247,5.031,5.031,0,0,0,.6,2.01l-4.267,4.84a4.994,4.994,0,0,1-.628-2.02,5.17,5.17,0,0,1,.6-2.779,14.347,14.347,0,0,0,1.824-5.951.186.186,0,0,0-.181-.176.19.19,0,0,0-.206.146,13.815,13.815,0,0,1-2.025,5.669,5.954,5.954,0,0,0-.819,3.141,6.024,6.024,0,0,0,.789,2.709l-.136.151c-1.3,1.447-2.608,2.89-3.955,4.282a33.772,33.772,0,0,1-3.362,3.111c-.111.045-.226.085-.332.131l.04.09c-.211.161-.417.332-.633.487s-.462.322-.694.482c.181-1.478.442-2.955.719-4.428l1.1-5.629c.065-.327.035-.6-.065-.623s-.236.216-.312.543l-1.236,5.609c-.352,1.659-.684,3.327-.91,5.021-1.126.744-2.287,1.437-3.468,2.131l-.055.03a13.179,13.179,0,0,1,.211-1.548,14.112,14.112,0,0,1,.759-2.412c.317-.8.673-1.578,1.01-2.407a11.536,11.536,0,0,0,.673-2.618c.271-1.759.246-3.523.583-5.167a4.848,4.848,0,0,1,.387-1.151,7.5,7.5,0,0,1,.663-1.055,20.32,20.32,0,0,1,1.638-1.975q.882-.942,1.844-1.809c.322-.281.648-.573.98-.819a12.663,12.663,0,0,1,1.076-.684,10.392,10.392,0,0,0,2.156-1.583,7.829,7.829,0,0,0,1.518-2.221c.709-1.432,1.287-2.9,1.95-4.327.608-.352,1.211-.714,1.8-1.1,1.025-.678,1.975-1.392,2.965-2.1.488-.357.975-.714,1.452-1.1.236-.191.472-.392.694-.6a1.8,1.8,0,0,1,.714-.362c1.121-.357,2.317-.593,3.488-.869.206-.05.347-.171.322-.271s-.2-.146-.407-.111c-1.181.256-2.362.462-3.543.814a2.273,2.273,0,0,0-.89.442c-.221.2-.447.387-.684.568-.467.367-.96.709-1.452,1.055-.99.673-1.98,1.392-2.98,2.025-.322.2-.653.387-.985.583.291-.578.6-1.151.91-1.719.211-.382.427-.754.633-1.151a2.643,2.643,0,0,0,.241-.658c.05-.226.08-.437.116-.653.045-.3.01-.548-.09-.568s-.231.2-.291.5c-.04.216-.075.432-.121.633a2.205,2.205,0,0,1-.216.563c-.2.372-.427.749-.638,1.131-.432.754-.864,1.523-1.246,2.312-.005.01-.01.025-.015.035-.467.261-.945.518-1.417.774-1.055.568-2.136,1.111-3.206,1.664A12.224,12.224,0,0,1,76.362,32.1,18.767,18.767,0,0,1,77.8,29.853c.266-.362.543-.719.824-1.065l.427-.523.261-.312A28.086,28.086,0,0,0,83.2,26.948a12.59,12.59,0,0,0,3.754-2.01.1.1,0,0,0,.03-.141.107.107,0,0,0-.146-.01,11.529,11.529,0,0,1-2.774,1.508,1.887,1.887,0,0,1-.06-1.488,5.821,5.821,0,0,1,.9-1.493,8.844,8.844,0,0,0,1.01-1.528,4.465,4.465,0,0,0,.4-1.794.1.1,0,0,0-.191-.015,4.235,4.235,0,0,1-.447,1.689A8.058,8.058,0,0,1,84.645,23.1a6.039,6.039,0,0,0-1.015,1.558,2.312,2.312,0,0,0,0,1.784,24.862,24.862,0,0,1-4.192,1.015,37.642,37.642,0,0,1,3.392-10.207c.07-.141.05-.291-.04-.342s-.221.02-.307.156A38.424,38.424,0,0,0,78.77,27.381l-.035.166a.323.323,0,0,1-.02.07l-.176.2-.447.523c-.3.352-.593.7-.874,1.07a19.154,19.154,0,0,0-1.563,2.307A12.95,12.95,0,0,0,74,36.693c-.734.387-1.463.784-2.181,1.206a13.929,13.929,0,0,1-5.795,1.689,7.771,7.771,0,0,1,.89-.734c.533-.392,1.086-.8,1.6-1.267a12.514,12.514,0,0,0,1.407-1.513,32.658,32.658,0,0,0,2.2-3.4c.673-1.156,1.317-2.332,1.945-3.508,1.256-2.357,2.448-4.749,3.593-7.162a20.127,20.127,0,0,0,.809-1.86,8.081,8.081,0,0,0,.352-2.02c.04-.548.09-1.081.181-1.608a3.509,3.509,0,0,0,1.111-.08,2.61,2.61,0,0,0,1.3-.91c.111-.146.136-.3.05-.367s-.236-.015-.347.111A2.242,2.242,0,0,1,80,16.022a2.975,2.975,0,0,1-.93.045,13.537,13.537,0,0,1,.513-1.8c.075-.216.055-.417-.04-.457s-.236.1-.327.322a13.94,13.94,0,0,0-.578,1.91h-.07a3.689,3.689,0,0,0-1.553.256,9.292,9.292,0,0,0-1.337.744,6.436,6.436,0,0,1-2.739.749c-.337.03-.684.035-1.025.04.171-.462.327-.935.472-1.407.327-1.1.6-2.2.849-3.3.206-.065.407-.126.608-.2a6.68,6.68,0,0,0,1.674-.834c.176-.136.261-.3.191-.382s-.251-.05-.417.065a6.5,6.5,0,0,1-1.588.754c-.116.04-.236.075-.357.111.191-.844.377-1.689.568-2.528.085-.367.07-.673-.03-.7s-.251.241-.347.608c-.246.93-.482,1.86-.724,2.784-.276.075-.558.146-.839.216-1.171.286-2.367.508-3.553.819a11.554,11.554,0,0,0-1.764.593,4.757,4.757,0,0,0-.839.493,1.721,1.721,0,0,0-.377.342l-.176.191-.136.181c-.442.6-.9,1.2-1.362,1.794-.06-.005-.121-.015-.186-.02.136-.467.236-.925.347-1.392.513-2.417.925-4.84,1.221-7.287.93-.6,1.844-1.231,2.729-1.895.156-.116.251-.241.221-.281s-.176.015-.332.126c-.834.588-1.694,1.141-2.568,1.669.025-.236.06-.477.085-.714.111-.985-.02-1.784-.156-1.774s-.226.749-.347,1.724c-.045.367-.1.734-.151,1.106-.824.488-1.664.96-2.508,1.412a7.96,7.96,0,0,0-.844.488,7.036,7.036,0,0,1,.291-2.94,15.8,15.8,0,0,1,1.236-3.1.1.1,0,0,0-.04-.126.09.09,0,0,0-.126.03,16.024,16.024,0,0,0-1.392,3.1,6.973,6.973,0,0,0-.387,3.337,4.651,4.651,0,0,0-1.272,1.468,15.3,15.3,0,0,0-1,3.206,6.091,6.091,0,0,1-.6,1.463c-.256.467-.553.925-.859,1.377-.613.9-1.282,1.769-1.97,2.618S53.751,22.7,53.008,23.5c-.447.472-.91.94-1.382,1.372L51.49,16.58a39.6,39.6,0,0,0,2.94-3.99,26.433,26.433,0,0,0,1.724-3.116c.266-.533.462-1.106.684-1.664a13.034,13.034,0,0,0,.452-1.769A2.747,2.747,0,0,0,57.3,4.95c-.05-.276-.136-.442-.236-.437h-.221c-.1.005-.2.161-.286.407s-.131.573-.226.95a11.513,11.513,0,0,1-.442,1.6c-.216.518-.407,1.05-.673,1.553A24.8,24.8,0,0,1,53.5,11.981c-.633.945-1.317,1.865-2.03,2.754l-.075-4.418c.684-1.272,1.357-2.558,1.98-3.865.347-.729.678-1.463.98-2.211a8.422,8.422,0,0,0,.663-2.372c0-.075-.08-.136-.181-.136s-.191.05-.206.111a8.2,8.2,0,0,1-.759,2.186c-.337.719-.7,1.422-1.086,2.116-.452.824-.93,1.638-1.412,2.448L51.238.5a.478.478,0,0,0-.955,0l-.266,15.917c-.276.3-.548.6-.834.895-.2.206-.4.4-.6.588-.216.211-.377.322-.633.548a4.032,4.032,0,0,0-.874,1c-.543-1.07-1.055-2.161-1.5-3.277a19.565,19.565,0,0,1-1.312-4.453c-.02-.146-.035-.291-.06-.437a6.456,6.456,0,0,1,.689-1.292c1.151-1.8,2.583-3.418,3.749-5.307.2-.347.181-.739.025-.759s-.342.161-.528.462C47,6.152,45.524,7.78,44.313,9.6c-.1.141-.186.286-.276.432-.126-1-.236-2.005-.322-3.01-.131-1.568-.231-3.141-.221-4.714,0-.136-.04-.246-.09-.246s-.1.106-.106.241c-.08,1.583-.05,3.166.01,4.744.055,1.3.141,2.6.261,3.9-.02.055-.05.111-.07.166-.166.538-.3,1.055-.442,1.578-.281,1.04-.588,2.066-.96,3.056A11.042,11.042,0,0,1,40.654,18.5l-.236.291-.261.261a6.579,6.579,0,0,0-.6.628c-.02.025-.035.05-.055.075-.136-.9-.332-1.784-.417-2.649a5.979,5.979,0,0,1,.085-1.87c.06-.307.161-.593.236-.96a5.086,5.086,0,0,0,.075-1.025,16.012,16.012,0,0,0-.673-3.92,22.968,22.968,0,0,0-1.352-3.714c-.055-.106-.136-.166-.181-.136s-.04.126.005.226a23.044,23.044,0,0,1,1.2,3.714A15.856,15.856,0,0,1,39,13.258a4.309,4.309,0,0,1-.1.925c-.06.276-.186.608-.266.94a6.622,6.622,0,0,0-.166,2.035c.085,1.3.367,2.518.4,3.734a3.474,3.474,0,0,0-.121.407,6.207,6.207,0,0,0,.387,3.433c.181.523.4,1.04.6,1.533a14.343,14.343,0,0,1,.5,1.488,21.69,21.69,0,0,1,.613,3.1,12.24,12.24,0,0,1,.045,3.086c-.392,2.086-.809,4.227-1.342,6.287-.065.246-.136.493-.206.739a10.988,10.988,0,0,1-3.01-3.046,5.88,5.88,0,0,1-.885-2.357c-.1-.8.01-1.754,0-2.649.035-1.814-.085-3.629-.055-5.408a7.478,7.478,0,0,1,.563-2.548,11.882,11.882,0,0,0,.784-2.628c.01-.166-.06-.3-.166-.3a.266.266,0,0,0-.221.256c-.261,1.709-1.447,3.277-1.493,5.207-.08,1.824-.005,3.619-.085,5.408l-.065,1.342a7.738,7.738,0,0,0,0,1.407,6.679,6.679,0,0,0,.93,2.689,12.11,12.11,0,0,0,3.428,3.573c-.141.457-.286.91-.452,1.357-.1.241-.186.488-.291.724L38,44.725a10.671,10.671,0,0,0-.588,1.618,11.807,11.807,0,0,0-.347,3.4q.008.543.015,1.07A22.209,22.209,0,0,0,34.6,48.373c.02-.412.035-.829.04-1.241V45.825c.015-.427.045-.864.065-1.3a11.071,11.071,0,0,0-.121-2.669,10.068,10.068,0,0,0-.839-2.533c-.07-.141-.2-.211-.286-.166a.257.257,0,0,0-.065.327,9.894,9.894,0,0,1,.744,2.448,10.874,10.874,0,0,1,.045,2.558c-.03.432-.075.869-.1,1.317l-.04,1.312c-.01.256-.03.513-.045.774-.241-.186-.493-.367-.749-.543a9.572,9.572,0,0,0-1.643-.89l-.759-.317a36.509,36.509,0,0,0-.462-6.076,13.191,13.191,0,0,0-.98-3.287c-.126-.241-.261-.477-.392-.719.508-1.96.89-3.925,1.493-5.815.156-.5.327-.99.493-1.5a7.22,7.22,0,0,0,.357-1.638,4.967,4.967,0,0,0-.045-1.251,4.086,4.086,0,0,0,.744-1.03,9.736,9.736,0,0,0,.488-1.106,14.747,14.747,0,0,0,.643-2.287,14.175,14.175,0,0,0,.276-2.352,22.56,22.56,0,0,0-.075-2.342c-.1-1.372-.266-2.739-.412-4.1.221-.4.452-.8.689-1.2a17.672,17.672,0,0,0,1.4-2.588.173.173,0,0,0-.131-.206.183.183,0,0,0-.231.075,17.707,17.707,0,0,1-1.478,2.438c-.116.171-.226.347-.342.518a38.951,38.951,0,0,1-.226-4.116.227.227,0,0,0-.186-.246c-.106-.005-.191.1-.2.231a42.469,42.469,0,0,0,.146,4.87c-.246.412-.482.834-.694,1.277-.111.226-.2.462-.292.7-.08.216-.166.427-.266.638a7.879,7.879,0,0,1-.694,1.2,6.779,6.779,0,0,1-.88,1.04,3.562,3.562,0,0,1-.5.4,1.411,1.411,0,0,1-.231.116.086.086,0,0,1-.05.015,5.812,5.812,0,0,0-.5-1.382l-.678-1.352c.025-.07.06-.136.085-.2l1.965-5.508a.176.176,0,0,0-.131-.206.188.188,0,0,0-.236.075L27.24,14.278a10.182,10.182,0,0,1-.814-2.166c-.04-.176-.151-.3-.251-.281s-.156.176-.126.362a12.131,12.131,0,0,0,.96,2.623,5.775,5.775,0,0,1-1.508,2.01,5.2,5.2,0,0,1-1.839,1.05,17.628,17.628,0,0,1,.246-2.749c.116-.749.121-1.357-.035-1.387s-.4.528-.538,1.287A15.932,15.932,0,0,0,23,18.354a19.739,19.739,0,0,0,.206,2.131,15.742,15.742,0,0,1-2-1.478c-.849-.729-1.674-1.538-2.618-2.2-.045-.025-.126.015-.186.1s-.085.171-.05.206c.859.714,1.593,1.563,2.4,2.382a16.976,16.976,0,0,0,2.608,2.176c.146,1.076.221,2.146.367,3.252a26.867,26.867,0,0,0,.638,3.272,29.4,29.4,0,0,0,2.412,6.217c.256.493.528.98.8,1.463l.256.437a1.717,1.717,0,0,1-.367-.176,5.745,5.745,0,0,1-1.025-.834,14.744,14.744,0,0,1-1.779-2.2,25.639,25.639,0,0,1-2.618-5.156c-.035-.075-.181-.1-.327-.05s-.246.151-.226.236a26.456,26.456,0,0,0,2.322,5.5,15.758,15.758,0,0,0,1.744,2.5,6.9,6.9,0,0,0,1.181,1.1,2.861,2.861,0,0,0,.839.432,1.662,1.662,0,0,0,.613.07.987.987,0,0,0,.307-.065,13.022,13.022,0,0,1,.648,2.6,32.87,32.87,0,0,1,.3,5.187c-.8-.447-1.573-.96-2.357-1.493-.482-.327-.97-.663-1.483-.975-.166-.1-.342-.2-.513-.3-.819-1.975-1.533-4.006-2.231-6.046-.362-1.055-.714-2.111-1.1-3.166-.407-1.07-.88-2.071-1.367-3.086a25.9,25.9,0,0,0-1.638-2.96,4.721,4.721,0,0,0-.558-.7l-.2-.166a.676.676,0,0,0-.1-.08l-.07-.116-.055-.146a4.674,4.674,0,0,1,.05-1.553,12.76,12.76,0,0,0,.266-3.377c-.111-1.156-.523-2.2-.613-3.287-.02-.191-.121-.332-.221-.327s-.176.166-.166.362c.075,1.141.467,2.221.543,3.292a12.288,12.288,0,0,1-.332,3.257,5.021,5.021,0,0,0-.07,1.769l.085.246c.04.08.1.161.146.241a1.954,1.954,0,0,0,.216.2l.116.106a4.67,4.67,0,0,1,.467.613,25.062,25.062,0,0,1,1.533,2.915c.457,1.005.915,2.025,1.277,3.051.362,1.04.689,2.111,1.03,3.171.548,1.7,1.1,3.413,1.729,5.1a14.2,14.2,0,0,1-2.508-1.88,17.226,17.226,0,0,1-2.287-2.553,11.068,11.068,0,0,1-.895-1.442,6.521,6.521,0,0,1-.342-.769,8.525,8.525,0,0,0-.367-.839,8.5,8.5,0,0,0-2.176-2.538c.045-.241.075-.482.1-.729a6.08,6.08,0,0,0-.116-1.457,15.17,15.17,0,0,0-2.392-5.106c-.09-.136-.231-.2-.317-.141s-.09.206-.01.347a14.832,14.832,0,0,1,2.2,4.991,5.582,5.582,0,0,1,.075,1.317c-.015.121-.04.236-.06.357-.829-.638-1.7-1.2-2.518-1.814-.322-.241-.593-.4-.673-.322s.106.367.432.623c.885.714,1.809,1.332,2.654,2.046-.035.141-.065.281-.1.422a27.523,27.523,0,0,1-.9,2.6c-.332.869-.709,1.7-1,2.644a3.558,3.558,0,0,0-.085.387l-.055.327c-.04.221-.09.447-.136.668-.02.09-.045.176-.065.266-.417-.553-.839-1.106-1.261-1.648-.96-1.236-1.895-2.483-2.789-3.764-.161-.221-.387-.322-.518-.236s-.111.337.035.568c.869,1.307,1.789,2.588,2.724,3.85.538.729,1.07,1.447,1.583,2.181-.01.04-.02.085-.03.126-.231.89-.493,1.774-.789,2.639a13.548,13.548,0,0,1-1,2.282c-.161-.151-.322-.307-.482-.457a23.06,23.06,0,0,0-4.639-3.433c-.317-.141-.608-.136-.663.01s.121.367.4.513a22.224,22.224,0,0,1,4.438,3.413c.754.724,1.493,1.473,2.2,2.247a21.893,21.893,0,0,1-2.5.955c-.4.121-.673.377-.628.578s.417.276.844.171A23.16,23.16,0,0,0,12.1,48.353c.357.412.7.824,1.03,1.251a8.774,8.774,0,0,1,.729,1.161l.7,1.241q.686,1.236,1.322,2.5c.839,1.694,1.623,3.413,2.372,5.151.2.462.392.93.583,1.4a10.974,10.974,0,0,0-1.875-1.251A12.012,12.012,0,0,0,12.2,58.38c-.593-.035-1.186-.075-1.779-.116-.03-.744-.07-1.493-.146-2.247a9.793,9.793,0,0,0-.89-3.523l-.241-.407c-.1-.131-.206-.246-.312-.372a5.2,5.2,0,0,0-.678-.618A13.37,13.37,0,0,0,6.68,50.072c-.508-.312-1.025-.593-1.528-.885a4.624,4.624,0,0,1-1.327-1.015c-.221-.281-.286-.553-.4-.563-.05,0-.09.08-.106.236a.942.942,0,0,0,.186.553,4.936,4.936,0,0,0,1.417,1.166c.5.317,1.01.608,1.493.93A11.773,11.773,0,0,1,7.805,51.52a4.788,4.788,0,0,1,.6.588c.08.106.171.2.246.312l.2.357a9.222,9.222,0,0,1,.719,3.3c.05.7.065,1.417.075,2.131-.754-.055-1.508-.121-2.257-.2a36.669,36.669,0,0,1-4.754-.729.239.239,0,0,0-.291.121c-.03.1.055.211.191.251a36.372,36.372,0,0,0,4.795.88c.774.1,1.548.191,2.327.271v.774a16.891,16.891,0,0,0,.281,3.6c.236,1.126.382,2.292.583,3.463a21.331,21.331,0,0,0,.643,2.779,10.54,10.54,0,0,0-2.84-.99c-.447-.1-.89-.166-1.337-.236-.055-.261-.111-.518-.156-.779a15.341,15.341,0,0,1-.3-3.794c.01-.221-.06-.4-.161-.412s-.2.156-.226.382A15.861,15.861,0,0,0,6.378,67.5c.035.211.075.417.116.623l-1.136-.166a9.341,9.341,0,0,1-2.814-.744c-.291-.146-.543-.241-.613-.156-.065.07.111.322.432.5a9.6,9.6,0,0,0,2.93.819c.432.07.859.136,1.287.2.186.915.412,1.819.653,2.714l.513,1.865a8.4,8.4,0,0,1,.211.91,4.972,4.972,0,0,1,.03.915A27.135,27.135,0,0,1,7.5,78.769c-.01.05-.02.1-.03.146a27.54,27.54,0,0,1-2.83-1.282A12.834,12.834,0,0,1,1.9,75.759c-.261-.276-.523-.447-.608-.382s.06.357.337.658a13.347,13.347,0,0,0,2.784,2.03c.558.322,1.131.613,1.714.89-.628.462-1.231.945-1.844,1.337a2.855,2.855,0,0,1-1.221.457A3.905,3.905,0,0,1,1.7,80.629c-.04,0-.1.07-.126.166s-.02.191.02.206a4.442,4.442,0,0,0,1.493.271,3.5,3.5,0,0,0,1.508-.4c.9-.462,1.684-1.005,2.513-1.468h0c.08.03.166.07.246.106-.206,1.005-.437,2.005-.724,2.985-.1.3-.186.608-.3.9-.1.322-.231.518-.347.92a5.09,5.09,0,0,0-.065,2.091,24.387,24.387,0,0,0,.98,3.815l.6,1.839c.141.437.281.885.382,1.307-.07-.015-.131-.04-.2-.05a8.535,8.535,0,0,1-2.538-.94,16,16,0,0,1-2.332-1.5c-.251-.2-.493-.3-.563-.226s.065.317.317.533a17.181,17.181,0,0,0,2.337,1.628,9.2,9.2,0,0,0,2.679,1.1,8.144,8.144,0,0,1,2.438,1.126c.789.482,1.563,1.005,2.347,1.523s1.563,1.045,2.377,1.538c.8.5,1.694.945,2.5,1.357.7.352,1.362.769,2.161,1.1a8.729,8.729,0,0,1-5.131,2.93,11.635,11.635,0,0,1-1.392.1,24.642,24.642,0,0,1-1.181-2.794l-.141-.387c-.06-.141-.151-.291-.226-.437l-.312-.352c-.116-.1-.231-.191-.347-.286a7.043,7.043,0,0,0-1.528-.8c-.171-.065-.342-.126-.513-.186a7.3,7.3,0,0,0-1.1-1.659A6.155,6.155,0,0,0,5.6,95.154a8.008,8.008,0,0,1-1.945-1.186c-.377-.342-.709-.618-.839-.528s.02.533.442.95A8.724,8.724,0,0,0,5.3,95.711a5.52,5.52,0,0,1,1.714,1.417,6.627,6.627,0,0,1,.643.91c-.578-.156-1.161-.286-1.744-.4a24.5,24.5,0,0,0-3.317-.4c-.2,0-.352.075-.352.176s.141.2.332.211a23.668,23.668,0,0,1,3.252.462,20.911,20.911,0,0,1,2.156.568,8.178,8.178,0,0,1,.689,2.6c.045.452.07.915.085,1.377a5.583,5.583,0,0,1-.854-.6.207.207,0,0,0-.266.02.194.194,0,0,0,0,.266,5.836,5.836,0,0,0,1.126.824c.015.925-.01,1.855-.035,2.779-.025.784-.06,1.588-.015,2.407a10.523,10.523,0,0,0,.387,2.327,23.246,23.246,0,0,1-2.337-2.674A16.052,16.052,0,0,1,5.4,105.854a7.634,7.634,0,0,1-.844-2.337c-.015-.07-.111-.116-.211-.111s-.181.075-.171.156a7.963,7.963,0,0,0,.759,2.528,16.911,16.911,0,0,0,1.292,2.277,24.345,24.345,0,0,0,2.106,2.714c-.633-.322-1.277-.724-1.92-1.091a15.1,15.1,0,0,0-2.226-1.116,5.372,5.372,0,0,0-2.5-.357c-.3.04-.508.166-.482.266s.251.151.518.121c1.593-.126,3.031.739,4.383,1.6.694.437,1.347.9,2.106,1.307a6.041,6.041,0,0,0,1.347.5.8.8,0,0,1,.065.065l.035-.04.065.015c.1.236.2.467.307.7a14.329,14.329,0,0,0,1.287,2.086c.568.794,1.176,1.538,1.8,2.272a19.9,19.9,0,0,1-3.051-.357,5.956,5.956,0,0,1-2.694-1.111,9.99,9.99,0,0,0-2.789-1.659,16.852,16.852,0,0,0-3.036-1.025c-.382-.075-.714.045-.7.2s.251.286.583.372a15.941,15.941,0,0,1,2.895,1.035,9.365,9.365,0,0,1,2.568,1.573,4.387,4.387,0,0,0,1.457.874,10.4,10.4,0,0,0,1.558.462,20.629,20.629,0,0,0,3.171.427c.256.01.508.035.764.055.171.2.342.387.513.583.94,1.065,1.9,2.111,2.789,3.176a12.779,12.779,0,0,1-2.156,2.141,8.937,8.937,0,0,1-1.865,1.1,7.609,7.609,0,0,1-1.347-1.141,6.736,6.736,0,0,0-1.312-.985,8.355,8.355,0,0,0-1.493-.653,17.5,17.5,0,0,0-3.121-.618,6.19,6.19,0,0,1-1.468-.327c-.246-.1-.513-.181-.719-.271a1.2,1.2,0,0,1-.493-.437c-.558-.829-1.04-1.789-1.558-2.689-.09-.156-.236-.241-.327-.191s-.1.216-.015.377c.5.925.94,1.849,1.523,2.769a1.655,1.655,0,0,0,.658.6c.266.126.5.2.739.3a6.44,6.44,0,0,0,1.573.392,16.786,16.786,0,0,1,3.01.663,6.434,6.434,0,0,1,2.528,1.553l.563.558a3.587,3.587,0,0,0,.442.387c-.045.015-.09.03-.141.045a20.039,20.039,0,0,1-3.247.3l-3.317.085a.189.189,0,0,0-.171.2.192.192,0,0,0,.171.2l3.327.055a20.243,20.243,0,0,0,3.377-.176,6.6,6.6,0,0,0,.7-.191l.151.106c.236.131.467.276.7.4a17.763,17.763,0,0,0,2.98,1.181c2.03.618,4.1,1.01,6.126,1.473l.02-.1c.161.181.317.367.477.548-.09.065-.181.136-.271.2-.874.648-1.744,1.307-2.628,1.915a17.336,17.336,0,0,1-2.744,1.623,4.272,4.272,0,0,1-.724.291,5.036,5.036,0,0,1-.734.211.11.11,0,0,0-.04.005c-.578-.488-1.161-.96-1.764-1.417-.658-.5-1.332-.985-2.035-1.427a12.343,12.343,0,0,0-2.226-1.171c-.3-.09-.553-.04-.588.111s.131.342.377.432a11.794,11.794,0,0,1,2.056,1.2c.663.457,1.3.96,1.92,1.473.372.307.734.623,1.1.945-.146.025-.291.055-.437.1a4.974,4.974,0,0,0-2.709,2.1c-.648.92-1.121,1.915-1.674,2.835a3.985,3.985,0,0,1-2.206,2.066c-.337.08-.623.141-.628.251-.01.1.307.206.714.126a3.066,3.066,0,0,0,1.5-.854,7.7,7.7,0,0,0,1.04-1.327c.6-.93,1.1-1.9,1.739-2.744a4.315,4.315,0,0,1,2.4-1.764,3.3,3.3,0,0,1,.734-.1c.075-.005.166-.015.251-.025q.89.829,1.719,1.7c.271.3.543.593.794.895l.362.457c.136.166.261.342.4.5a12.38,12.38,0,0,0,1.844,1.784,13.832,13.832,0,0,0,4.548,2.362,15.369,15.369,0,0,0,2.518.533c.422.07.849.09,1.277.121s.895-.005,1.342-.01a11.126,11.126,0,0,0,4.754-1.719c3.975,3.593,7.916,7.247,11.806,10.921L46.821,170.2h7.906l-.3-17.515c.714-.849,1.447-1.684,2.216-2.483a40.126,40.126,0,0,1,6.343-5.363,40.719,40.719,0,0,1,4.825-2.8c.678.663,1.362,1.337,2.071,2a24.836,24.836,0,0,0,3.272,2.644,11,11,0,0,0,3.89,1.679c.246.05.457-.03.482-.181s-.126-.322-.347-.387a10.2,10.2,0,0,1-3.5-1.849,23.791,23.791,0,0,1-2.925-2.774c-.533-.578-1.055-1.176-1.578-1.779.382-.176.764-.357,1.146-.523.638-.286,1.287-.548,1.94-.8.327-.131.648-.261.98-.382l.769-.286a12.45,12.45,0,0,0,2.845,1.327,18.226,18.226,0,0,0,3.232.744,24.142,24.142,0,0,0,6.483,0,.355.355,0,0,0,.3-.4l-.02-.221a.371.371,0,0,0-.357-.352,25.69,25.69,0,0,1-2.714-.045,4.868,4.868,0,0,1,.854-2.809,8.985,8.985,0,0,1,2.377-2.312c1.849-1.327,4.041-2.262,5.951-3.739a15.039,15.039,0,0,0,3.99-4.78,5.169,5.169,0,0,1,2.146.156c.241.065.457.045.5-.05l.04-.106c.035-.1-.141-.236-.4-.317a5.913,5.913,0,0,0-1.99-.261c.04-.08.08-.156.121-.236a22.2,22.2,0,0,0,.9-2.141,4.434,4.434,0,0,0,.814.131c.256-.005.447-.136.432-.291s-.191-.281-.4-.291a4.016,4.016,0,0,1-.643-.116,38.4,38.4,0,0,0,1.116-4c.09-.4.08-.734-.015-.754l-.111-.025c-.1-.02-.256.271-.352.663a37.849,37.849,0,0,1-1.186,3.94c-.8-.3-1.6-.764-2.458-1.106a8.558,8.558,0,0,0-4.111-.628,5.971,5.971,0,0,0-2.066.568,16.679,16.679,0,0,0-1.774,1.05c-.191.121-.382.231-.573.347.06-.085.126-.166.186-.251,1.674-2.327,3.217-4.709,4.785-7.081l.528-.8c.548-.131,1.1-.271,1.638-.427a28.825,28.825,0,0,0,4.935-1.86c.136-.075.2-.206.151-.3a.259.259,0,0,0-.332-.05,28.091,28.091,0,0,1-4.9,1.694c-.347.09-.694.171-1.045.251,1.236-1.87,2.483-3.739,3.744-5.589.558-.814.864-1.548.7-1.669l-.181-.126c-.166-.116-.749.427-1.322,1.236-1.513,2.141-3.005,4.3-4.483,6.463a22.438,22.438,0,0,1-2.513.317c-1.729.085-3.483.166-5.212.186-.784.005-1.563-.005-2.342-.045.166-.106.337-.206.5-.312l2.99-2.061,2.86-2.231c.945-.749,1.819-1.588,2.734-2.377.925-.774,1.754-1.659,2.608-2.508l1.277-1.282c.422-.427.8-.9,1.206-1.347.784-.915,1.613-1.789,2.357-2.729l2.2-2.85c.256-.332.362-.663.236-.754s-.427.08-.7.4l-2.307,2.724c-.779.9-1.638,1.729-2.453,2.593-.417.422-.809.869-1.246,1.272l-1.312,1.206c-.88.8-1.729,1.628-2.674,2.347-.93.734-1.824,1.518-2.784,2.206l-2.89,2.056-.719.452a13.529,13.529,0,0,1,1.528-5.538,14.4,14.4,0,0,1,2.086-2.835c.809-.874,1.7-1.694,2.568-2.543a23.352,23.352,0,0,0,2.473-2.739,15.363,15.363,0,0,0,1.86-3.206,20.494,20.494,0,0,0,1.483-7.187c.02-.427-.045-.764-.146-.764h-.111c-.1-.005-.2.322-.231.739A20.067,20.067,0,0,1,93.1,94.983a17.185,17.185,0,0,1-4.292,5.644c-.874.824-1.789,1.633-2.649,2.523a13.914,13.914,0,0,0-4.1,9.634l-1.2.749c-1.015.6-2.066,1.146-3.1,1.719q-2.073,1.086-4.217,2.015a27.038,27.038,0,0,1,.312-4.9A18.308,18.308,0,0,1,74.4,110.1a18.359,18.359,0,0,0,3.066-2.89,23.555,23.555,0,0,0,4-6.795,33.173,33.173,0,0,0,1.659-5.76,10.974,10.974,0,0,0,4.4-2.166c.327-.261.648-.548.945-.829l.895-.824a10.809,10.809,0,0,0,1.709-1.86,4.052,4.052,0,0,0,.563-1.2,4.807,4.807,0,0,0,.136-1.3,14.718,14.718,0,0,0-.317-2.473c-.075-.4-.156-.8-.216-1.2-.035-.206-.045-.372-.09-.613a1.643,1.643,0,0,0-.161-.472c.121-.146.241-.291.357-.442a12.062,12.062,0,0,0,4.528-.548c.523-.156,1.04-.327,1.558-.513a15.113,15.113,0,0,0-.241,2.267,13.5,13.5,0,0,0,.945,3.639,3.522,3.522,0,0,1,.2,1.689,7.279,7.279,0,0,1-.317,1.739,24.265,24.265,0,0,1-1.8,3.156c-.648,1.071-1.186,2.2-1.769,3.262-.146.266-.3.528-.457.789l-.241.4a3.152,3.152,0,0,0-.231.472,8.015,8.015,0,0,0-.482,1.895,7.131,7.131,0,0,0,.417,3.9l.849-.422a6.262,6.262,0,0,1-.4-3.362,7.239,7.239,0,0,1,.4-1.694,2.406,2.406,0,0,1,.171-.362l.231-.4c.156-.271.312-.548.457-.824.588-1.111,1.086-2.221,1.7-3.277a23.981,23.981,0,0,0,1.789-3.3,7.7,7.7,0,0,0,.317-1.895,4.726,4.726,0,0,0,.035-.5,3.34,3.34,0,0,0-.05-.508,5.6,5.6,0,0,0-.246-.94,13.271,13.271,0,0,1-.985-3.478,15.79,15.79,0,0,1,.231-2.443,15.913,15.913,0,0,0,2.362-1.131.115.115,0,0,0,.06-.146.118.118,0,0,0-.156-.025ZM29.155,18.626a2.212,2.212,0,0,0,.407-.226,4.177,4.177,0,0,0,.6-.538,7.363,7.363,0,0,0,.93-1.216,8.972,8.972,0,0,0,.694-1.347,7.092,7.092,0,0,0,.256-.714c.07-.216.146-.432.236-.648.05-.126.116-.251.171-.382.085,1.07.171,2.136.216,3.2a20.07,20.07,0,0,1,.005,2.267,13.8,13.8,0,0,1-.332,2.216,13.989,13.989,0,0,1-.668,2.131,10.553,10.553,0,0,1-.472.99c-.07.126-.151.246-.226.357a6.633,6.633,0,0,0-.387-.885A15.739,15.739,0,0,1,29.2,21.058a14.667,14.667,0,0,1-.281-2.372.937.937,0,0,0,.236-.07ZM25.2,27.933a25.984,25.984,0,0,1-.694-3.156c-.166-1.055-.271-2.166-.447-3.252-.136-.92-.307-1.824-.392-2.719a5.878,5.878,0,0,0,2.337-1.417,6.8,6.8,0,0,0,1.347-1.794l.477,1a5.379,5.379,0,0,1,.467,1.442c.186,1,.055,2.076.327,3.176A15.988,15.988,0,0,0,30,24.134a5.189,5.189,0,0,1,.578,2.88,6.339,6.339,0,0,1-.352,1.447c-.176.493-.367,1-.533,1.508-.563,1.638-.96,3.312-1.4,4.955-.206-.347-.412-.689-.608-1.04A28.316,28.316,0,0,1,25.2,27.933ZM72.9,83.2c.92-1.081,1.93-2.106,2.97-3.106s2.091-2,3.181-2.925,2.231-1.834,3.362-2.744c2.262-1.819,4.523-3.654,6.644-5.664a36.835,36.835,0,0,0,3.026-3.171q.588-.716,1.116-1.493a5.724,5.724,0,0,0,.508,1.8,2.522,2.522,0,0,0,.4.573c.191.2.3.271.437.422a8.638,8.638,0,0,1,.734.89c.236.317.467.648.729.98a4.739,4.739,0,0,0,.678.719c-.02.065-.04.126-.06.191a22.4,22.4,0,0,1-.915,2.4c-.367.774-.779,1.538-1.2,2.292a45.884,45.884,0,0,1-2.784,4.367c-.5.694-1.03,1.372-1.593,2.01-.05-.05-.1-.1-.146-.151a1.884,1.884,0,0,1-.493-.975.232.232,0,0,0-.226-.216c-.1.005-.171.131-.161.286a2.3,2.3,0,0,0,.558,1.191c.055.065.116.126.171.186a15.481,15.481,0,0,1-1.493,1.442c-.608.467-1.412.975-2.111,1.5l-2.1,1.578c-.07.055-.141.106-.216.161,0-.221.015-.442.015-.663q-.015-1.855-.106-3.709c2.4-2.623,4.679-5.332,6.921-8.076.131-.161.181-.322.121-.377s-.216.025-.357.176c-2.2,2.438-4.438,4.845-6.75,7.162-.06-.975-.136-1.95-.241-2.92-.04-.447-.156-.789-.256-.779s-.161.367-.131.814c.09,1.116.141,2.231.176,3.347q-1.259,1.251-2.548,2.463c-.035.03-.065.06-.1.09.045-1.352.085-2.709.126-4.061.01-.367-.065-.658-.166-.663s-.2.276-.221.643c-.1,1.533-.191,3.066-.3,4.6a51.912,51.912,0,0,1-4.659,3.855,17.917,17.917,0,0,1-2.885,1.744,6.086,6.086,0,0,1-1.468.477,1.633,1.633,0,0,1-1.02-.1l-.015-.06a.883.883,0,0,1-.035-.226,4.2,4.2,0,0,1,.01-.94,6.243,6.243,0,0,1,.548-1.885c.08-.171.176-.337.266-.5.126-.121.191-.236.156-.271h-.01a17.486,17.486,0,0,1,1.925-2.679ZM34.8,138.3l-1.819-1.533c-.618-.513-1.186-.99-1.769-1.518-1.156-1.04-2.277-2.131-3.382-3.237-.814-.819-1.613-1.659-2.412-2.493a24.5,24.5,0,0,1,3.794-2.136,7.77,7.77,0,0,1,2.91-.623,6.664,6.664,0,0,1,2.855.719,9.032,9.032,0,0,1,1.277.779c-.09.181-.191.357-.3.528a5.367,5.367,0,0,1-1.473,1.588,4.145,4.145,0,0,1-.975.467,2.717,2.717,0,0,1-.523.156l-.548.08a.345.345,0,0,0-.216.362.281.281,0,0,0,.271.3l.623-.06a3.31,3.31,0,0,0,.613-.151,5.009,5.009,0,0,0,1.176-.5,6.29,6.29,0,0,0,1.809-1.759c.1-.146.186-.291.276-.437q.226.2.452.407c.392.337.744.744,1.116,1.111.357.4.714.789,1.06,1.2.452.538.895,1.086,1.337,1.643-1.045,1.136-1.96,2.257-2.95,3.312a24.891,24.891,0,0,1-2.5,2.4c-.236-.206-.472-.412-.714-.613Zm6.081-7.845c-.372-.412-.764-.814-1.146-1.216-.412-.387-.794-.794-1.241-1.156-.246-.221-.513-.432-.779-.638.372-.859.663-1.744.945-2.6a9.486,9.486,0,0,1,.819-2.015,4.708,4.708,0,0,1,.694-.774,4.846,4.846,0,0,1,.839-.623,7.578,7.578,0,0,1,4.041-.869,18.988,18.988,0,0,0,2.865,1.357l-.4,16.525-2.392-2.93c-1.377-1.694-2.754-3.4-4.237-5.051Zm-8.418-28.532a13.563,13.563,0,0,0-1.1-3.1,6.9,6.9,0,0,0-2.438-2.835c-.05-.025-.131.02-.186.111s-.065.181-.03.216a6.408,6.408,0,0,1,2.04,2.789,12.424,12.424,0,0,1,.663,2.2,30.515,30.515,0,0,0-3.151-1.7,13.138,13.138,0,0,0-2.809-.965c-.251-.055-.513-.08-.769-.116a6.209,6.209,0,0,0-.809,0,3.423,3.423,0,0,0-1.633.538c-.055.04-.111.07-.166.111a19.867,19.867,0,0,1-1.121-2.628,31.479,31.479,0,0,1-.975-3.282c-.131-.553-.246-1.106-.332-1.659s-.186-1.206-.322-1.789c-.191-.885-.442-1.744-.714-2.6a35.351,35.351,0,0,0,3.493,2.644,8.269,8.269,0,0,0,1.141.613c.417.181.8.307,1.181.452.769.291,1.533.608,2.307.93a12.17,12.17,0,0,0,4.89,1.221c.337.377.684.749,1.045,1.106a21.457,21.457,0,0,0,2.292,2.02,8.725,8.725,0,0,0,2.8,1.452l.05-.2.266,1.04.794,3.2c.276,1.086.578,2.176.95,3.262.156.482.337.97.533,1.447q-1.138-.6-2.262-1.216-2.45-1.349-4.86-2.779c-.256-.151-.518-.312-.779-.467ZM15.942,79.764c-.593-2.277-1.136-4.573-1.95-6.85-.08-.211-.161-.417-.246-.628.417.553.8,1.146,1.2,1.729l.422.618a2.576,2.576,0,0,0,.251.322,2.972,2.972,0,0,0,.281.281c.377.352.764.668,1.146.99,1.538,1.267,3.046,2.558,4.463,3.945.342.332.678.673,1.01,1.015v.1c-2.1-.111-4.192-.206-6.272-.362l-.307-1.161Zm7.77,2.719c.6.684,1.186,1.382,1.734,2.111l.864,1.2.814,1.236c.533.849,1.1,1.684,1.684,2.5.638.88,1.3,1.744,2.005,2.578a13.644,13.644,0,0,1-3.774-1.015c-.774-.3-1.558-.6-2.352-.874-.4-.136-.809-.261-1.161-.407a7.9,7.9,0,0,1-1.07-.538,43.5,43.5,0,0,1-4.016-2.895l-.111-.08c-.2-.568-.412-1.126-.653-1.684-.121-.281-.246-.563-.387-.844-.075-.141-.141-.281-.226-.427-.035-.065-.09-.156-.111-.2l-.06-.131a11.318,11.318,0,0,1-.4-1.171c2.412.251,4.82.427,7.212.638ZM31.457,59.8c-.015-.392-.035-.789-.055-1.181.126.181.246.362.377.528,1.548,2.01,3.262,3.739,4.649,5.7l.9,1.347c.02.126.04.256.05.382a3.466,3.466,0,0,1-.251,2.121l-.161.291a2.507,2.507,0,0,0-.161.332,3.84,3.84,0,0,0-.186.684,5.6,5.6,0,0,0-.075,1.352,14.23,14.23,0,0,0,1.347,4.955,13.047,13.047,0,0,0,1.287,2.262,4.139,4.139,0,0,1,.6,2.046,24.812,24.812,0,0,1-.236,4.82c-.151,1.206-.332,2.412-.513,3.624-.141-.146-.312-.342-.467-.508-.2-.211-.4-.422-.6-.628-.03-.03-.06-.055-.085-.085l-.759-2.7q-.43-1.576-.839-3.156c-.276-1.081-.578-2.136-.874-3.2-1.186-4.217-2.432-8.418-3.367-12.64a29.605,29.605,0,0,1-.523-3.126c-.02-.246-.02-.482-.035-.724v-.844c.005-.558-.005-1.116-.025-1.674ZM19.425,46.333A7.414,7.414,0,0,1,22.405,48a40.013,40.013,0,0,1,5.061,5.207c.744.9,1.468,1.819,2.151,2.759.065,1.3.116,2.588.131,3.875.005.543,0,1.081-.005,1.613l-.025.8v.151c-1.442-2-2.789-4.1-4.222-6.162a46.755,46.755,0,0,0-2.87-3.8c-.518-.608-1.111-1.191-1.643-1.729-.538-.553-1.07-1.121-1.583-1.7-.759-.859-1.483-1.744-2.186-2.644a5.246,5.246,0,0,1,2.216-.045ZM41.212,59l4.176,5.639c1.231,1.674,2.5,3.362,3.669,5.031l-.171,9.9Q47.514,77.8,46.183,76,44,73.04,41.87,70.029l-2.116-3.01c-.628-.895-1.226-1.789-1.885-2.7-.025-.106-.045-.211-.065-.317a6.288,6.288,0,0,1-.186-2.287,1.165,1.165,0,0,1,.181-.407,1,1,0,0,1,.146-.146c.055-.045.171-.126.251-.186a8.9,8.9,0,0,0,.97-.859,16.555,16.555,0,0,0,1.528-1.829l.518.709Zm10.7-14.253-.1-6a7.929,7.929,0,0,0,1.87-2.558c.256-.508.482-1.025.694-1.548.106-.261.2-.523.3-.789s.186-.548.276-.739a3.663,3.663,0,0,1,1.015-1.121c.281-.226.578-.447.88-.668l.126.015a.988.988,0,0,1,.015-.121l.3-.221a13,13,0,0,0,2.468-2.292.184.184,0,0,0-.035-.256.2.2,0,0,0-.261.005,12.464,12.464,0,0,1-2.392,2.051,16.662,16.662,0,0,1,.4-2.709,7.274,7.274,0,0,1,.623-1.6,11.737,11.737,0,0,1,.965-1.473c.94-1.282,1.9-2.553,2.86-3.825a18.463,18.463,0,0,0-.111,3.332,17.351,17.351,0,0,0,.271,2.151l.432,2.081.337,1.618c-.588.684-1.206,1.307-1.834,2.076A20.758,20.758,0,0,0,57.9,38.07c-.377,1.035-.709,2.076-1.04,3.1s-.684,2.005-1.086,3a71.2,71.2,0,0,1-3.729,7.835l-.126-7.267Zm11.5-25.828c.166-.221.327-.442.493-.658h.025a20.8,20.8,0,0,0,3.041.166,22.225,22.225,0,0,1,2.95,0c.322.01.643.02.965.025-.116.241-.231.482-.357.719a14.88,14.88,0,0,1-.819,1.352l-.91,1.347c-1.206,1.794-2.407,3.588-3.679,5.317q-.769,1.04-1.578,2.04l-.211-.94-.462-2.056a17.492,17.492,0,0,1-.291-2.04,16.88,16.88,0,0,1,.181-4.121c.025-.131.05-.261.08-.392.191-.251.382-.5.568-.754Zm-.156,13.69c.251,1.382.367,2.779.528,4.166.085.694.1,1.4.151,2.1s.1,1.4.09,2.1a51.892,51.892,0,0,1-2.211,16.52l-1.251,4.046c-.05.206-.116.4-.171.6-.126-.151-.251-.3-.372-.447a8.84,8.84,0,0,1-1.1-1.628,3.042,3.042,0,0,1-.276-.864c-.045-.327-.08-.668-.111-1.01l-.176-2.051c-.025-.322-.045-.638-.07-.96A68.185,68.185,0,0,0,61.2,45.911c.07-.312.045-.573-.05-.6s-.241.2-.327.5A71.8,71.8,0,0,1,58.2,54.022c-.151-2.04-.291-4.081-.4-6.121a.195.195,0,1,0-.387.015q.075,3.709.246,7.413c-.116.261-.226.523-.347.784a17.66,17.66,0,0,1-1.322,2.347,6.758,6.758,0,0,0-1.121,2.6,12.87,12.87,0,0,0,.065,2.794,25.482,25.482,0,0,1,.02,2.7c0,1.317.035,2.628.08,3.94-.91.734-1.794,1.5-2.644,2.317L52.1,55.987A70.4,70.4,0,0,0,57.335,44.77c.372-1.025.719-2.091,1.015-3.136s.593-2.071.925-3.081a19.481,19.481,0,0,1,2.709-5.624c.327-.432.719-.88,1.111-1.342L63.26,32.6Zm-9.087,89.907c-.146.02-.291.03-.437.05l-.317-9.383a10.451,10.451,0,0,1,1.714-1.533,29.641,29.641,0,0,1,3.694-2.206c.05.96.1,1.925.166,2.885a7.5,7.5,0,0,0-3.106,2.835,12.305,12.305,0,0,0-1.714,7.358ZM40.986,80.508a7.837,7.837,0,0,0-.251-1.322,5.129,5.129,0,0,0-.246-.668,5.246,5.246,0,0,0-.387-.638A11.911,11.911,0,0,1,38.9,75.854a13.245,13.245,0,0,1-1.347-4.543,3.373,3.373,0,0,1,.4-2.116,3.153,3.153,0,0,0,.392-1.392v-.111l2.2,3.267q2.081,3.053,4.222,6.076c1.317,1.849,2.654,3.689,4.076,5.493l-.08,4.664-.211,8.7c-1.337-1.005-2.7-1.915-4.056-2.835l-2.8-1.9c-.457-.322-.915-.643-1.352-.97-.015-.01-.025-.02-.04-.03.186-1.5.4-3.015.553-4.548a25.941,25.941,0,0,0,.131-5.086Zm17.59,20.6a37.687,37.687,0,0,0-4.91,4.377c-.166.191-.327.392-.488.593L52.9,97.717,55.7,95.2c.955-.839,1.91-1.679,2.9-2.453q-.068,4.176-.02,8.358Zm-3.433-6.544-2.3,1.915-.1-2.779-.03-1.89c.146-.256.3-.508.437-.764.749-1.357,1.452-2.729,2.156-4.081.437-.834.88-1.659,1.347-2.453a9.951,9.951,0,0,0,.719.975c.432.518.89.99,1.352,1.457q-.068,2.156-.116,4.307c0,.206-.005.412-.01.623-1.211.839-2.337,1.769-3.463,2.689Zm3.634-8.9a11.3,11.3,0,0,1-1.6-2c.121-.2.246-.392.372-.578a19.04,19.04,0,0,1,1.4-1.824Q58.85,83.463,58.777,85.665Zm-2.387-4a11.105,11.105,0,0,1-.231-1.483c-.08-.869-.05-1.784-.085-2.7-.045-1.734-.136-3.463-.231-5.187,1.211-1.081,2.493-2.1,3.81-3.081-.126,1.7-.246,3.4-.347,5.1q-.136,2.2-.241,4.4a19.868,19.868,0,0,0-2.679,2.95Zm-1.126-4.171a17.149,17.149,0,0,0,.472,5.086c-.769,1.141-1.447,2.322-2.091,3.493-.332.6-.658,1.2-.99,1.8L52.45,75.764a32.189,32.189,0,0,1,2.679-2.814c.06,1.518.121,3.031.136,4.548Zm3.478,30.054a36.186,36.186,0,0,0-4.7,2.558c-.241.156-.477.327-.709.508l-.04-1.131a13.393,13.393,0,0,1,1.809-2.749,29.535,29.535,0,0,1,3.513-3.382c.03,1.4.075,2.8.131,4.2Zm1.779-16.138a5.726,5.726,0,0,1,1.035-.493c.206-.08.472-.156.7-.231s.477-.166.709-.256c.4-.156.789-.322,1.181-.487a25.013,25.013,0,0,0,.266,6.157,43.679,43.679,0,0,1-3.83,3.418q-.09-4.048-.07-8.1ZM59.461,67.26C58.2,68.11,56.953,69,55.732,69.944c-.05-1.131-.1-2.262-.106-3.387a26.667,26.667,0,0,0-.06-2.754,12.231,12.231,0,0,1-.106-2.654,6.179,6.179,0,0,1,1.005-2.387A18.311,18.311,0,0,0,57.712,56.5l.09,1.739c.02.347.045.689.08,1.045a3.728,3.728,0,0,0,.312,1.106,15.659,15.659,0,0,0,1.99,2.925c-.015.136-.03.266-.05.407-.08.714-.146,1.417-.211,2.126-.035.387-.06.774-.09,1.166-.126.085-.246.171-.372.256ZM35.287,87.514l1.176,4.619L37.6,96.6a8.654,8.654,0,0,1-2.091-1.136,20.3,20.3,0,0,1-2.211-1.9,38.573,38.573,0,0,1-3.835-4.493q-.874-1.2-1.684-2.443l-.844-1.251c-.291-.412-.6-.809-.9-1.216-.417-.538-.854-1.055-1.3-1.568q1.4.128,2.8.291c.553.07,1.111.146,1.623.256a5.034,5.034,0,0,1,1.392.563A17.386,17.386,0,0,1,33.2,85.594c.724.608,1.417,1.261,2.1,1.93ZM14.922,81.84a15.771,15.771,0,0,0,.533,1.809l.121.266.1.186c.06.111.116.241.176.362.035.075.065.151.1.226a6.141,6.141,0,0,0-1.935-.744c-.156-.02-.276.045-.286.146s.09.206.221.236a6.385,6.385,0,0,1,2.181,1c.035.02.065.05.1.07.181.477.352.96.508,1.447a27.4,27.4,0,0,1,.839,3.317c.08.412.136.814.191,1.226-.935-.583-1.849-1.211-2.739-1.865a26.443,26.443,0,0,1-3.433-2.93c-.975-1.035-1.045-2.634-1.116-4.131-.02-.593-.04-1.2-.06-1.794l.221.075a20.944,20.944,0,0,0,3.357.8c.291.04.583.07.874.106l.04.181Zm27.587,22.154c-.367-.975-.673-2-.965-3.026l-.869-3.161L38.9,91.47l-.09-.317c.156.131.312.256.467.387.457.367.915.714,1.372,1.055L43.4,94.6c1.744,1.272,3.513,2.533,5.076,3.9l-.317,13.042a23.835,23.835,0,0,1-2.714-2.377,14.852,14.852,0,0,1-2.945-5.172Zm11.434,24.863-.111-3.247c1.855-.291,3.7-.653,5.518-1.081-.015.141-.02.281-.04.422l-.05.5-.1.482-.186.965c-.065.322-.186.618-.271.93a6.537,6.537,0,0,1-.312.915,12.578,12.578,0,0,1-.849,1.734l-.5.834c-.171.276-.392.528-.583.794a23.912,23.912,0,0,1-2.438,2.729l-.1-5.986Zm2.292-6.624a10.341,10.341,0,0,1,1.256-6.071,6.159,6.159,0,0,1,1.628-1.834c.055.8.106,1.6.156,2.392.1,1.664.2,3.322.2,4.95Q57.863,121.986,56.234,122.233Zm4.629-15.721q-.128-2.435-.206-4.875c.256-.211.513-.427.764-.643a38.7,38.7,0,0,0,6.207-6.322c.447-.593.869-1.206,1.277-1.829l.583-.95.256-.462a2.8,2.8,0,0,0,.523.1,4.1,4.1,0,0,0,1.1-.08,7.62,7.62,0,0,0,1.839-.689,15.688,15.688,0,0,0,1.523-.92l-.025.06a7.606,7.606,0,0,0,2.94.533,8.284,8.284,0,0,0,1.623-.256,10.477,10.477,0,0,1-.462,1.372,7.8,7.8,0,0,1-.709,1.307c-.146.2-.317.387-.472.583l-.236.286-.271.266-.548.533-.588.5c-.387.337-.8.663-1.206.99-1.638,1.3-3.322,2.593-4.93,3.965-1.633,1.322-3.186,2.86-4.78,4.046a29.765,29.765,0,0,1-4.212,2.493ZM76.518,88.494c1.211-.985,2.352-2.03,3.453-3.106a.326.326,0,0,1-.01.1c-.09.92-.176,1.849-.307,2.759a6.639,6.639,0,0,1-2.04.377,4.777,4.777,0,0,1-1.1-.131Zm4.051-2.96c.015-.256.02-.508.03-.764.286-.286.578-.578.859-.869.638-.658,1.256-1.327,1.875-2,.015,1.055.015,2.116,0,3.171-.015.382-.04.764-.06,1.146a17.473,17.473,0,0,1-2.895,1.739c.08-.809.151-1.618.186-2.427ZM65.713,89.223c.895-.432,1.779-.89,2.644-1.382l.563-.332a5.57,5.57,0,0,0-.186.869,5.292,5.292,0,0,0-.04,1.231,1.251,1.251,0,0,0,.04.307l.055.276c.01.065.045.131-.005.186l-.472.8-.578.89c-.4.583-.814,1.156-1.256,1.709-.241.307-.5.608-.754.9a23.019,23.019,0,0,1-.156-5.388c.05-.025.1-.045.151-.07ZM68,74.131a13.384,13.384,0,0,1-.548,5.468c-.151.432-.322.854-.513,1.272s-.407.8-.638,1.261a18.519,18.519,0,0,0-1.141,2.729,21.492,21.492,0,0,0-.965,4.553c-.462.186-.93.357-1.4.523-.231.085-.467.151-.7.226s-.452.121-.714.206a5.332,5.332,0,0,0-.854.347q.038-5.624.216-11.248c.442-.387.9-.749,1.372-1.116L63.964,77c1.241-.895,2.483-1.8,3.714-2.729.111-.08.216-.171.327-.251a.412.412,0,0,0,.01.111Zm2.051-12.167c.136-.106.266-.221.4-.332l.07.151a10.884,10.884,0,0,1,3.679-1.065,25.807,25.807,0,0,1,4.006.106c.116.005.236.005.357.01a32.882,32.882,0,0,1-1.9,3.026,33.806,33.806,0,0,1-2.925,3.423,48.715,48.715,0,0,1-5,4.367c-.085-1.1-.156-2.2-.236-3.3a37.256,37.256,0,0,1-.065-5.187c.548-.387,1.086-.779,1.613-1.2ZM65.19,65.32c.839-.538,1.684-1.081,2.518-1.648a40.99,40.99,0,0,0-.015,4.714c.06,1.3.111,2.6.186,3.905-.362.271-.719.543-1.081.8-1.231.89-2.488,1.754-3.749,2.623L61.154,77.04c-.111.08-.226.171-.337.251.035-.965.07-1.935.111-2.9.09-2.131.211-4.257.342-6.383.5-.372,1.005-.744,1.5-1.091.784-.548,1.6-1.071,2.417-1.6Zm6.981-26.727c.839-.523,1.7-1.005,2.573-1.478l.106.01a.477.477,0,0,1,.005-.07c1.206-.653,2.422-1.292,3.624-1.97.206-.116.412-.236.618-.352-.573,1.236-1.1,2.488-1.714,3.684a7.33,7.33,0,0,1-1.437,2.056,9.679,9.679,0,0,1-2.066,1.473,13.122,13.122,0,0,0-1.136.7c-.377.271-.7.553-1.035.844q-1,.867-1.91,1.824a20.038,20.038,0,0,0-1.719,2.02,8.427,8.427,0,0,0-.734,1.146,5.594,5.594,0,0,0-.462,1.312c-.382,1.774-.372,3.523-.658,5.2a10.835,10.835,0,0,1-.653,2.422c-.332.779-.714,1.583-1.045,2.4a15.023,15.023,0,0,0-.834,2.553,15.376,15.376,0,0,0-.307,2.327c-.5.3-.99.6-1.483.915-.171.111-.332.221-.5.332.05-.689.106-1.387.171-2.071.035-.342.065-.709.116-.985.035-.291.161-.653.236-.975l1.181-4.061a53.1,53.1,0,0,0,2-16.48,3.86,3.86,0,0,1,.2-.814,15.154,15.154,0,0,0,6.865-1.965Zm.774-20.209a7.007,7.007,0,0,0,2.955-.89,8.286,8.286,0,0,1,1.251-.739,3.284,3.284,0,0,1,1.362-.251c-.09.528-.156,1.055-.2,1.578a7.355,7.355,0,0,1-.362,1.9,19.434,19.434,0,0,1-.819,1.789q-1.779,3.573-3.7,7.071c-.648,1.161-1.307,2.317-2,3.453a32.013,32.013,0,0,1-2.2,3.272A12.033,12.033,0,0,1,67.9,36.955c-.488.422-1.01.8-1.558,1.191A7.313,7.313,0,0,0,65,39.312c-.015-.166-.025-.337-.04-.5-.065-.709-.09-1.422-.191-2.126-.186-1.407-.332-2.825-.608-4.217l-.317-1.794.186-.231c.673-.864,1.312-1.754,1.925-2.649,1.231-1.794,2.382-3.634,3.523-5.468l.859-1.372a15.067,15.067,0,0,0,.814-1.447c.166-.342.317-.694.462-1.04.442-.005.88-.025,1.327-.07Zm-7.373-2.407a4.985,4.985,0,0,1,2.94-1.638c1.151-.332,2.342-.573,3.523-.885l.6-.166c-.266,1-.548,1.98-.869,2.95-.181.533-.377,1.06-.6,1.578-.4-.015-.809-.035-1.216-.055a23.212,23.212,0,0,0-3.021-.07,16.1,16.1,0,0,1-2.473-.181c.377-.508.749-1.015,1.111-1.533Zm-7.026,1.352a6.746,6.746,0,0,0,.6-1.618A14.767,14.767,0,0,1,60,12.585a5.169,5.169,0,0,1,2.277-2.141q1.138-.663,2.257-1.362c-.327,2.277-.754,4.548-1.272,6.785-.121.488-.241.99-.392,1.463a14.886,14.886,0,0,0-4.352.06c.01-.02.02-.035.03-.055Zm-4.88,6.79c.739-.839,1.437-1.7,2.111-2.593s1.322-1.794,1.92-2.739c.131-.211.261-.422.387-.638l.075.271a12.587,12.587,0,0,1,4.4-.291,9.61,9.61,0,0,0-.4,1.277c-1.261,1.608-2.528,3.211-3.774,4.84A12.55,12.55,0,0,0,57.335,25.8a8.1,8.1,0,0,0-.729,1.769,25.95,25.95,0,0,0-.578,3.644c-.146.1-.291.2-.437.307A4.252,4.252,0,0,0,54.355,32.8c-.156.307-.231.543-.342.8l-.322.754c-.221.5-.462.985-.724,1.457A9.273,9.273,0,0,1,51.791,37.5l-.186-11.308a21.114,21.114,0,0,0,2.061-2.076Zm-5.775-3.533a2.9,2.9,0,0,1,.824-1.161c.176-.166.482-.407.673-.608.186-.176.362-.357.538-.543L49.474,45.5l-.146,8.443a21.675,21.675,0,0,1-1.457-2.814,18.247,18.247,0,0,1-1.211-6.5,120.317,120.317,0,0,1,.447-13.846c.1-1.156.216-2.312.3-3.5.085-1.206.02-2.407.025-3.533a8.582,8.582,0,0,1,.462-3.171ZM38.629,46.659a9.194,9.194,0,0,1,.5-1.437l.322-.754c.111-.261.2-.523.3-.784a33,33,0,0,0,.915-3.176c.513-2.136.89-4.252,1.261-6.423a13.281,13.281,0,0,0-.1-3.382,22.506,22.506,0,0,0-.7-3.247,15.1,15.1,0,0,0-.558-1.578c-.216-.508-.427-.985-.608-1.478a5.386,5.386,0,0,1-.4-2.915,2.987,2.987,0,0,1,.613-1.261,5.665,5.665,0,0,1,.513-.553L41,19.349l.271-.342a11.8,11.8,0,0,0,1.513-2.99c.372-1.035.668-2.091.935-3.146a.192.192,0,0,1,.015-.05,24.038,24.038,0,0,0,1,3.629,41.261,41.261,0,0,0,1.734,4.2,11.11,11.11,0,0,0-.427,3.086c-.03,1.2.01,2.332-.09,3.448-.035.387-.075.779-.116,1.171-.161-.156-.312-.312-.452-.477a6.311,6.311,0,0,1-.92-1.452,23.387,23.387,0,0,1-1.206-3.377c-.02-.05-.111-.07-.211-.045s-.171.085-.166.136a23.668,23.668,0,0,0,.97,3.548,7.145,7.145,0,0,0,.895,1.684A12.689,12.689,0,0,0,45.7,29.5c-.04.377-.085.754-.126,1.136a122.26,122.26,0,0,0-.739,14.047,28.39,28.39,0,0,0,.271,3.6,16.724,16.724,0,0,0,.94,3.573,31.083,31.083,0,0,0,3.222,5.8l-.151,8.649c-.739-.945-1.483-1.88-2.226-2.825l-4.347-5.5-.895-1.156a10.634,10.634,0,0,0,1.307-3.242c.035-.307-.055-.553-.211-.563s-.312.186-.362.452a9.774,9.774,0,0,1-1.161,2.8L40.4,55.218c-.352-.462-.7-.925-1.03-1.382l-.5-.719c-.146-.2-.286-.4-.437-.593,0-.955-.025-1.9-.055-2.825a10.267,10.267,0,0,1,.251-3.041Zm-1.473,6.6c.166.231.322.467.482.7l.477.734c.337.508.678.98,1.02,1.463l1.131,1.553-.035.05a15.823,15.823,0,0,1-1.588,1.829,8.484,8.484,0,0,1-.9.769l-.251.181a1.6,1.6,0,0,0-.3.281,1.866,1.866,0,0,0-.342.7,4.415,4.415,0,0,0-.06,1.4c-.864-1.06-1.774-2.066-2.654-3.066-.045-1.674-.211-3.312-.226-4.935,0-.427.005-.854.04-1.272.02-.206.045-.412.08-.608l.121-.653c.136-.789.221-1.573.292-2.362a25.774,25.774,0,0,1,2.719,3.232Zm-4.664-4.9a16.9,16.9,0,0,1,1.327,1.086c-.01.085-.015.166-.025.251-.1.859-.211,1.719-.382,2.563l-.136.633c-.05.231-.08.457-.111.689-.05.452-.07.9-.08,1.347-.02,1.287.05,2.558.08,3.815-.111-.136-.231-.266-.337-.4A17.14,17.14,0,0,1,31.8,56.887c-.186-.291-.377-.568-.573-.839q-.106-1.417-.216-2.835c-.08-1.086-.181-2.191-.216-3.237-.02-.839-.01-1.7-.01-2.563.1.045.191.085.281.126a8.913,8.913,0,0,1,1.412.824Zm-19.41-9.067c.045-.231.09-.462.126-.7l.05-.362a2.715,2.715,0,0,1,.055-.292c.236-.844.6-1.724.91-2.6a27.931,27.931,0,0,0,.859-2.689c.01-.04.015-.085.025-.126a7.666,7.666,0,0,1,1.764,2.236,7.86,7.86,0,0,1,.312.779,6.919,6.919,0,0,0,.347.844,11.192,11.192,0,0,0,.9,1.563,18.209,18.209,0,0,0,2.3,2.739,14.456,14.456,0,0,0,2.845,2.231c.281.161.513.276.759.422s.482.3.719.452c.477.317.945.658,1.417,1a28.762,28.762,0,0,0,2.935,1.935c-.02,1.081-.07,2.156-.075,3.272.01,1.146.08,2.221.141,3.322.01.156.015.312.025.462-.367-.452-.744-.9-1.126-1.342a41.39,41.39,0,0,0-5.312-5.262l-.764-.568c-.261-.181-.543-.347-.814-.523-.291-.151-.578-.312-.89-.437a5.554,5.554,0,0,0-.975-.286,5.294,5.294,0,0,0-1.4-.085A16.758,16.758,0,0,0,18,41.865a19.129,19.129,0,0,0-1.246-3.694c-.025-.05-.121-.06-.216-.02s-.161.111-.146.166a18.081,18.081,0,0,1,.95,3.659A17.409,17.409,0,0,1,17.3,45.4c-.246.045-.488.106-.724.171q-1.47-1.937-2.784-4c-.291-.452-.6-.89-.915-1.327.07-.317.141-.633.2-.95Zm-2.211,6.735.06.035a13.968,13.968,0,0,0,1.111-2.669c.226-.714.417-1.427.6-2.151.166.246.327.5.488.749.794,1.317,1.648,2.608,2.548,3.865-1.211.447-2.357.99-3.5,1.508-.427-.457-.859-.9-1.307-1.342Zm2.83,3.086c-.3-.372-.6-.734-.915-1.091,1.1-.477,2.171-.96,3.267-1.332l.2-.06c.769,1.04,1.563,2.061,2.392,3.046q.769.9,1.578,1.774c.558.588,1.076,1.116,1.558,1.709a45.615,45.615,0,0,1,2.709,3.764c1.724,2.6,3.322,5.3,5.222,7.865l.176-.136c.09.633.2,1.256.312,1.88.533,2.734,1.186,5.418,1.865,8.087A15.165,15.165,0,0,1,27.944,73.1a12.788,12.788,0,0,1-3.89-3.729,26.716,26.716,0,0,1-2.669-4.89c-.754-1.734-1.493-3.5-2.282-5.232A71.739,71.739,0,0,0,13.7,49.107ZM10.419,59.556c-.01-.226-.015-.452-.025-.678.568.055,1.136.111,1.709.161a11.211,11.211,0,0,1,4.413,1.468,9.952,9.952,0,0,1,1.88,1.357,4.988,4.988,0,0,1,1.282,1.774l.151-.06c.181.442.362.89.548,1.332a27.806,27.806,0,0,0,2.694,5.151,14.052,14.052,0,0,0,4.212,4.166,18.276,18.276,0,0,0,5.187,1.94q.415,1.606.824,3.2c.266,1.055.543,2.116.784,3.161.181.779.372,1.558.558,2.332-.171-.141-.337-.286-.508-.422a18.655,18.655,0,0,0-2.935-1.96,6.393,6.393,0,0,0-1.769-.638c-.6-.106-1.171-.166-1.744-.216-1.352-.116-2.7-.2-4.051-.276-.055-.055-.111-.116-.161-.171-.146-1.362-.05-2.794-.121-4.247a4.416,4.416,0,0,0-.578-2.231c-.4-.658-.839-1.211-1.2-1.839-.035-.05-.136-.055-.226-.005s-.141.136-.116.191c.327.663.759,1.287,1.076,1.9a3.763,3.763,0,0,1,.377,1.99c-.015,1.076-.131,2.161-.161,3.277-.181-.176-.357-.357-.538-.528-1.452-1.387-3-2.674-4.548-3.925-.382-.317-.774-.628-1.131-.95a2.762,2.762,0,0,1-.462-.508l-.427-.613A22.193,22.193,0,0,0,13.6,71.271a8.256,8.256,0,0,0-.729-.668l-.085-.141q-.2-.362-.362-.739a16.887,16.887,0,0,1-.94-3.277c-.231-1.141-.412-2.307-.694-3.478a15.78,15.78,0,0,1-.367-3.413ZM7.69,71.145c-.236-.824-.457-1.648-.648-2.483.382.065.759.131,1.136.211a9.881,9.881,0,0,1,2.734.99c.151.09.3.186.452.281v.01a8.108,8.108,0,0,0,.387.854c.141.271.332.578.432.789a10.315,10.315,0,0,1,.628,1.528c.7,2.181,1.181,4.488,1.7,6.78l.161.684c-.186-.015-.377-.03-.563-.05a20.062,20.062,0,0,1-3.267-.673c-.151-.045-.3-.1-.457-.141-.03-.684-.07-1.372-.131-2.056-.015-.136-.106-.231-.211-.221a.229.229,0,0,0-.176.251c.04.628.055,1.256.065,1.89-.633-.2-1.261-.407-1.885-.638.015-.09.035-.181.05-.271a28.6,28.6,0,0,0,.422-3.89,6.376,6.376,0,0,0-.055-1.015A7.6,7.6,0,0,0,8.228,73L7.68,71.15Zm7.458,26.144c-.809-.452-1.6-.94-2.4-1.427s-1.6-.985-2.427-1.447c-.467-.256-.95-.513-1.457-.729a13.471,13.471,0,0,0-.548-1.92l-.638-1.829A23.857,23.857,0,0,1,6.66,86.283a4.513,4.513,0,0,1,.005-1.744c.045-.221.236-.593.322-.895.111-.317.2-.628.291-.945.266-.97.472-1.945.658-2.925.663.266,1.332.513,2.01.744,0,.653,0,1.312.005,1.97a15.278,15.278,0,0,0,.156,2.332,4.478,4.478,0,0,0,.985,2.226,26.648,26.648,0,0,0,3.448,3.131,41.338,41.338,0,0,0,3.392,2.407q.09.55.2,1.086a33.766,33.766,0,0,0,.93,3.513c.271.809.538,1.588.895,2.392a20.771,20.771,0,0,1-2.322-1.045c-.88-.412-1.684-.769-2.493-1.236Zm-.859,6.845a9.62,9.62,0,0,0,6.041-3.307,3.031,3.031,0,0,0,1.166-.065,5.214,5.214,0,0,0,1.452-.673,3.005,3.005,0,0,1,2.231-.136,12.179,12.179,0,0,1,2.463.96,50.422,50.422,0,0,1,4.719,2.9q2.375,1.53,4.795,3c1.568.94,3.146,1.865,4.815,2.709a13.808,13.808,0,0,0,1.251,1.648,22.766,22.766,0,0,0,2.558,2.407c.789.658,1.553,1.287,2.292,1.925l-.121,4.91a22.158,22.158,0,0,1-2.779-1.362v-.141c-.075,0-.151.005-.226.01-.558-.317-1.121-.643-1.684-.965a15.954,15.954,0,0,0-2.96-1.412,4.181,4.181,0,0,0-.9-.181,2.231,2.231,0,0,0-1.06.156c-.08.035-.151.075-.226.111-.477-.553-.955-1.116-1.528-1.684a8.686,8.686,0,0,0-2.236-1.563l-.578-.281c-.06-.03-.116-.06-.171-.085a3.342,3.342,0,0,0,.09-1.764,10.574,10.574,0,0,0-.472-1.794,14.515,14.515,0,0,0-.7-1.684,3.674,3.674,0,0,0-.231-.427,1.434,1.434,0,0,0-.417-.417,2.481,2.481,0,0,0-.965-.342,24.323,24.323,0,0,0-3.593.03,3.284,3.284,0,0,1-2.794-1.543.2.2,0,0,0-.256-.065.188.188,0,0,0-.08.256,3.771,3.771,0,0,0,3.1,1.88c.633.045,1.221-.005,1.809-.01a8.572,8.572,0,0,1,1.7.111,1.836,1.836,0,0,1,.694.266.791.791,0,0,1,.2.211,3.059,3.059,0,0,1,.176.362,13.946,13.946,0,0,1,.6,1.623,9.946,9.946,0,0,1,.372,1.659,4.8,4.8,0,0,1,.03.8,1.99,1.99,0,0,1-.08.377l-.482-.3c-.673-.432-1.357-.9-2.086-1.337a11.786,11.786,0,0,0-2.372-1.146,4.674,4.674,0,0,0-1.432-.251l-.387.01-.337.045c-.226.025-.432.075-.648.116-.849.191-1.659.427-2.448.663a15.049,15.049,0,0,1-5.006-2.242c-.915-.588-1.814-1.236-2.7-1.88a6.709,6.709,0,0,1-1.719-2.051,10.836,10.836,0,0,0,1.141-.055Zm-4.905-2.98A9.024,9.024,0,0,0,8.851,99a.071.071,0,0,1,.03.01,6.356,6.356,0,0,1,1.387.759c.1.08.2.161.286.246l.231.271.151.3.136.392a27.131,27.131,0,0,0,1.005,2.583,8.456,8.456,0,0,1-1.236-.136,6.659,6.659,0,0,1-1.312-.387c-.025-.628-.065-1.251-.141-1.885Zm1.342,2.789a10.7,10.7,0,0,0,1.638.226,7.869,7.869,0,0,0,2.056,2.654c.89.678,1.769,1.337,2.7,1.965a19.277,19.277,0,0,0,3.784,2.035c-.211.055-.422.116-.628.161a11.409,11.409,0,0,1-2.3.312c-.372.01-.844,0-1.246.035-.417.025-.834.06-1.241.1a30.131,30.131,0,0,1-4.815.266c-.07,0-.141-.015-.206-.02a10.794,10.794,0,0,1-.447-1.206,13.242,13.242,0,0,1-.462-4.528c0-.789.01-1.583-.01-2.377a7.7,7.7,0,0,0,1.181.382Zm.151,8.589a33.728,33.728,0,0,0,4.684-.075c.407-.02.809-.04,1.206-.045.412-.01.754.015,1.206.02a12.652,12.652,0,0,0,2.558-.231c1.659-.3,3.242-.809,4.764-1.076a3.33,3.33,0,0,1,2.02.131,10.3,10.3,0,0,1,1.985,1.081c.658.437,1.3.92,1.985,1.4.342.241.684.482,1.065.714.181.121.392.226.588.337l.508.276a6.643,6.643,0,0,1,1.709,1.307c.372.4.744.859,1.121,1.337a18.426,18.426,0,0,1-2.056,1.166,8.626,8.626,0,0,1-1.382.513c-.236.075-.472.116-.724.171l-.779.161a26.469,26.469,0,0,1-3.036.523,11.8,11.8,0,0,1-3.005-.1,15.985,15.985,0,0,1-2.945-.814c-1-.342-2.005-.663-3.026-.945a26.535,26.535,0,0,0-4.614-.89,25.575,25.575,0,0,1-3.83-4.965Zm6.116,14.409a15.559,15.559,0,0,1-3.2-1.241,10.017,10.017,0,0,0,1.578-.9,13.445,13.445,0,0,0,2.282-2.056c.136.176.271.352.407.533.241.322.482.648.734.96.493.628,1,1.241,1.508,1.849.558.663,1.136,1.312,1.709,1.965-1.694-.332-3.382-.648-5.021-1.106Zm4.4-1.794c-.518-.588-1.03-1.181-1.523-1.779-.251-.3-.488-.6-.724-.9-.251-.317-.5-.643-.769-.945-.91-1.065-1.86-2.066-2.794-3.066a27.111,27.111,0,0,1,3.488.794c1,.292,1.98.628,2.96.98a17.162,17.162,0,0,0,3.091.9,12.666,12.666,0,0,0,3.262.161,26.664,26.664,0,0,0,3.166-.488l.764-.146c.261-.055.548-.1.809-.176a10,10,0,0,0,1.568-.553,26.163,26.163,0,0,0,2.8-1.563,12.316,12.316,0,0,1,1.307-.694,1.737,1.737,0,0,1,1.111.09,15.024,15.024,0,0,1,2.679,1.347c.055.03.111.065.166.1a7.478,7.478,0,0,0-2.5,1.04,6.259,6.259,0,0,0-1.015.839,5.816,5.816,0,0,0-.829,1.03l-.181.322-.126.307a5.407,5.407,0,0,0-.216.6c-.131.4-.226.779-.337,1.161-.216.8-.432,1.588-.7,2.342a10.139,10.139,0,0,0-1.256-.694,8.109,8.109,0,0,0-3.463-.749,9.024,9.024,0,0,0-3.423.834,25.877,25.877,0,0,0-4.071,2.483q-1.651-1.764-3.252-3.568Zm9.051,16.264c-.367.01-.714.075-1.106.055s-.779-.015-1.166-.06a14.7,14.7,0,0,1-2.3-.382,12.446,12.446,0,0,1-4.2-1.955,11.862,11.862,0,0,1-1.744-1.548c-.136-.141-.256-.291-.382-.437l-.417-.488q-.43-.467-.874-.9c-.422-.407-.854-.8-1.287-1.186.1-.03.2-.06.3-.085a4.782,4.782,0,0,0,.8-.291,18.154,18.154,0,0,0,2.935-1.6c.935-.593,1.824-1.226,2.719-1.85.126-.09.256-.176.382-.266.839.925,1.684,1.849,2.543,2.754,1.1,1.146,2.211,2.282,3.377,3.377.573.543,1.2,1.1,1.784,1.6l1.764,1.558c.126.116.251.226.377.342a8.987,8.987,0,0,1-3.508,1.367ZM37,140.195a28.867,28.867,0,0,0,2.508-2.231c1-.98,1.935-2.015,2.865-2.955.422.553.844,1.106,1.266,1.664l3.8,4.991-.186,7.589Q42.157,144.675,37,140.2Zm24.9,3.111a42.2,42.2,0,0,0-6.735,5.5c-.3.3-.578.6-.864.9l-.085-5.091A21.209,21.209,0,0,1,57.3,141.1a9.546,9.546,0,0,1,3.086-1.95,5.109,5.109,0,0,1,3.382-.09,5.213,5.213,0,0,1,1.573.829,13.506,13.506,0,0,1,1.055.864,40.519,40.519,0,0,0-4.5,2.548Zm2.518-6.976-.015.015h0c.005-.005.015-.01.02-.015Zm-.387-.442-.005-.005-.01-.01.02.02Zm-.6-.447h0C63.4,135.425,63.406,135.43,63.426,135.44Zm10.052,1.774-.01.291v.307c0,.035-.065.035-.1.05l-.764.266c-.337.116-.673.246-1.01.377-.673.251-1.342.513-2.005.794-.563.231-1.121.482-1.679.734a17.488,17.488,0,0,0-1.5-1.483,7,7,0,0,0-1.97-1.236c-.035-.015-.07-.025-.106-.04.065-.352.131-.7.2-1.025l.015-.07h0c.015-.025.03-.045.045-.07a.443.443,0,0,0,.05-.106,3.564,3.564,0,0,0,.141-.457l.176-.769a24.877,24.877,0,0,1,.734-2.91l.266-.683c.1-.226.216-.427.322-.648s.256-.392.387-.593a3.09,3.09,0,0,1,.482-.477,1.836,1.836,0,0,1,1.231-.422,5.314,5.314,0,0,1,1.432.327.173.173,0,0,0,.211-.136.194.194,0,0,0-.09-.231,5.625,5.625,0,0,0-1.513-.488,2.45,2.45,0,0,0-1.653.4,3.8,3.8,0,0,0-.658.538c-.176.211-.362.422-.518.643-.141.231-.3.452-.427.689l-.362.719a25.332,25.332,0,0,0-1.05,2.955l-.231.709c-.02.06-.045.136-.07.191a.75.75,0,0,0-.055.065,1.2,1.2,0,0,0-.08.126l-.02.045-.04.1-.02.055-.04.116c-.111.347-.206.678-.3,1.005a7.633,7.633,0,0,0-3.166.186,11.9,11.9,0,0,0-4.031,2.1c-.553.422-1.07.869-1.568,1.332l-.035-2.03a30.655,30.655,0,0,0,4.473-4.81c.216-.312.457-.6.648-.925l.573-.99a16,16,0,0,0,.97-2.081,9.191,9.191,0,0,0,.352-1.091c.1-.367.231-.734.3-1.106l.2-1.116.1-.558.045-.558c.04-.442.07-.88.09-1.317,1.176-.322,2.337-.673,3.493-1.055,1.3-.432,2.593-.9,3.865-1.412.96.357,1.91.739,2.845,1.166a30.144,30.144,0,0,0,3.729,1.6,17.08,17.08,0,0,0-1.342,1.839,5.073,5.073,0,0,0-.482,1,2.766,2.766,0,0,0-.136.578l-.05.523c-.06.694-.1,1.4-.09,2.1a14.051,14.051,0,0,0,.528,3.83c-.045.106-.1.206-.141.312a8.827,8.827,0,0,0-.553,2.257,4.545,4.545,0,0,0-.04.583Zm6.674-9.283a13.452,13.452,0,0,0-3.609,2.654,11.918,11.918,0,0,0-1.709,2.252,14.264,14.264,0,0,1-.347-2.618,19.453,19.453,0,0,1,.02-2.025l.03-.508a1.789,1.789,0,0,1,.085-.427,4.333,4.333,0,0,1,.392-.874,17.161,17.161,0,0,1,1.392-2.015,8.6,8.6,0,0,0,1.558.176,17.8,17.8,0,0,1,1.945.141c1.216.151,2.458.447,3.789.493a11.717,11.717,0,0,1-3.548,2.759Zm12.263,3.021c-1.829,1.362-4.016,2.242-6.006,3.6a9.869,9.869,0,0,0-2.669,2.508,5.993,5.993,0,0,0-1.091,3.267,19.552,19.552,0,0,1-2.357-.4A16.751,16.751,0,0,1,77.428,139a10.455,10.455,0,0,1-2.372-1.382v-.106l.005-.241a3.008,3.008,0,0,1,.025-.477,7.446,7.446,0,0,1,.427-1.875,9.891,9.891,0,0,1,2.1-3.322,12,12,0,0,1,3.181-2.422l.975-.553c.186-.121.362-.256.543-.382l.065.1a3.39,3.39,0,0,1,1.784-.7,2.322,2.322,0,0,1,.89.211,9.039,9.039,0,0,1,.93.533,5.593,5.593,0,0,0,2.231.915c.206.03.417.025.623.04.2-.01.4-.03.6-.045a3.866,3.866,0,0,0,.588-.09,4.576,4.576,0,0,0,.578-.131,34.067,34.067,0,0,0,4.207-1.724,8.811,8.811,0,0,1,1.216-.4,14.132,14.132,0,0,1-3.6,4Zm-6.3-6.167a8.736,8.736,0,0,0,.945-.5c.3-.181.583-.367.864-.553a15.8,15.8,0,0,1,1.659-1.04,5.185,5.185,0,0,1,1.779-.538,7.766,7.766,0,0,1,3.774.477c.608.226,1.206.518,1.834.789.211.09.432.176.658.251a20.834,20.834,0,0,1-.91,2.02c-.1.2-.206.392-.312.588a9.475,9.475,0,0,0-1.834.482,34.769,34.769,0,0,1-4.166,1.563,3.831,3.831,0,0,1-.523.1,3.145,3.145,0,0,1-.528.06l-.528.02c-.166-.02-.337-.02-.5-.045a4.763,4.763,0,0,1-1.865-.854,9.949,9.949,0,0,0-1.01-.613,3.162,3.162,0,0,0-1.277-.337h-.055l.206-.206c.452-.482.874-.98,1.282-1.488a4.7,4.7,0,0,0,.508-.181Zm-7.5-7.911c.432-.266.864-.528,1.3-.789a34.154,34.154,0,0,0,3.654.045c1.759-.07,3.493-.2,5.247-.327.668-.06,1.327-.166,1.985-.286-1.568,2.292-3.121,4.594-4.764,6.8-.472.623-.955,1.241-1.452,1.839-.2.015-.4.025-.608.02a34.074,34.074,0,0,1-3.905-.6,17.882,17.882,0,0,0-2.061-.206,6.426,6.426,0,0,1-.769-.08l.176-.221c.437-.538.829-1.116,1.246-1.648a8.261,8.261,0,0,0,.618-.864,2.524,2.524,0,0,0,.322-1.065c0-.126-.075-.231-.176-.231a.22.22,0,0,0-.211.191,2.06,2.06,0,0,1-.3.885,8.437,8.437,0,0,1-.613.794c-.452.538-.849,1.091-1.3,1.6-.126.146-.246.291-.372.437-.151-.035-.3-.08-.452-.126a28.628,28.628,0,0,1-3.563-1.643c-.523-.256-1.05-.5-1.583-.734a69.393,69.393,0,0,0,7.584-3.8Zm-5.609-4.664a28.288,28.288,0,0,0-.447,5.443,68.736,68.736,0,0,1-7.956,2.784c-.91.256-1.824.487-2.739.7-.045-1.548-.166-3.076-.276-4.589q-.128-1.545-.251-3.081c.025,0,.05-.01.075-.01a3.8,3.8,0,0,1,.829-.015c.286.025.528.035.915.09a13.606,13.606,0,0,0,4.1-.226A17.066,17.066,0,0,0,71.1,112.05a18.906,18.906,0,0,0,2.247-1.261c-.126.472-.231.95-.322,1.427Zm7.428-12.2a22.462,22.462,0,0,1-3.975,6.363,17.1,17.1,0,0,1-1.583,1.553c.04-.447.04-.88.04-1.307a11.909,11.909,0,0,1,.2-2.824,4.663,4.663,0,0,1,1.332-2.357,17.122,17.122,0,0,0,2.04-2.131,3.738,3.738,0,0,0,.668-1.377,6.09,6.09,0,0,0,.121-1.5c-.005-.171-.09-.3-.191-.3s-.191.131-.2.3a6.046,6.046,0,0,1-.146,1.4,3.254,3.254,0,0,1-.623,1.206,16.769,16.769,0,0,1-2.03,2.02,5.226,5.226,0,0,0-1.553,2.6,12.729,12.729,0,0,0-.281,2.96,12.863,12.863,0,0,1-.08,1.412,3.079,3.079,0,0,1-.131.583,17.353,17.353,0,0,1-3.553,2.1,15.272,15.272,0,0,1-3.523,1.05,12.029,12.029,0,0,1-3.593.111c-.251-.04-.648-.085-1.005-.126a5.028,5.028,0,0,0-1.1-.01c-.025,0-.05.005-.07.005q-.136-1.711-.241-3.423a33.219,33.219,0,0,0,5-3.131c1.734-1.392,3.121-2.885,4.714-4.267,1.548-1.412,3.161-2.739,4.769-4.111.4-.342.8-.684,1.2-1.05l.593-.543.563-.588.281-.3L78.333,94c.166-.221.342-.432.5-.663a8.393,8.393,0,0,0,.744-1.488,7.576,7.576,0,0,0,.276-.779l.191-.794c.035-.131.065-.256.09-.387.126-.045.251-.09.372-.141a15.346,15.346,0,0,0,2.634-1.513c-.131,1.493-.312,2.98-.573,4.453A33.782,33.782,0,0,1,80.443,100ZM90.681,82.865c.055.412.121.814.186,1.216a14.449,14.449,0,0,1,.241,2.382,4.319,4.319,0,0,1-.146,1.126,3.411,3.411,0,0,1-.5.99,10.444,10.444,0,0,1-1.648,1.689l-.93.809c-.3.271-.6.523-.915.759a10.378,10.378,0,0,1-3.724,1.8c.045-.266.09-.533.131-.8.256-1.7.4-3.4.488-5.111.412-.312.814-.628,1.206-.945l2.03-1.648c.678-.553,1.342-.99,2.1-1.618a17.412,17.412,0,0,0,1.382-1.412c.055.226.065.477.106.759Z" transform="translate(-0.839 -0.03)"/><path class="a" d="M177,89.571a9.473,9.473,0,0,1-1.97-.95l-.236.412a10.175,10.175,0,0,0,2.1.925,3.462,3.462,0,0,0,2.317-.085c1.352-.538,2.92-.719,4.2-1.593a.107.107,0,0,0,.04-.146.113.113,0,0,0-.151-.015c-1.251.8-2.774.93-4.212,1.442A3.081,3.081,0,0,1,177,89.571Z" transform="translate(-87.366 -43.836)"/></g></g></g></svg>