<svg xmlns="http://www.w3.org/2000/svg" xmlns:xlink="http://www.w3.org/1999/xlink" width="1920" height="481" viewBox="0 0 1920 481"><defs><style>.a{fill:none;stroke:#707070;}.b{clip-path:url(#a);}.c{fill:#1d3b6d;}.d,.e,.f{fill:#fff;font-family:Scarlet-SemiLight, Scarlet SemiLight;font-weight:300;}.d{font-size:25px;}.e{font-size:26px;}.f{font-size:24px;}</style><clipPath id="a"><rect class="a" width="1920" height="481" transform="translate(0 809)"/></clipPath></defs><g class="b" transform="translate(0 -809)"><g transform="translate(-65.223 874.999)"><g transform="translate(0 0.001)"><path class="c" d="M67.719,345.713,0,254.1C120.664,164.914,232.432,101.114,341.694,59.042,441.112,20.762,536.074,1.477,632.01.082,809.037-2.5,956.779,57.165,1099.672,114.867c252.83,102.089,491.642,198.518,889.689-54.33l61.084,96.165c-106.072,67.382-205.253,114.393-303.222,143.732-88.837,26.6-174.4,37.924-261.6,34.607-160.083-6.1-296.6-61.221-428.616-114.53C784.346,110.4,526.8,6.407,67.719,345.713Z" transform="translate(0 -0.001)"/><text class="d" transform="translate(67.403 286.719) rotate(-35.07)"><tspan x="0" y="0">L</tspan></text><text class="e" transform="matrix(0.823, -0.568, 0.568, 0.823, 79.537, 279.424)"><tspan x="0" y="0">o</tspan></text><text class="e" transform="translate(93.01 270.126) rotate(-34.12)"><tspan x="0" y="0">g</tspan></text><text class="e" transform="translate(106.137 261.238) rotate(-33.6)"><tspan x="0" y="0">o</tspan></text><text class="f" transform="translate(118.545 250.611) rotate(-33.13)"><tspan x="0" y="0">t</tspan></text><text class="d" transform="translate(129.154 244.871) rotate(-32.66)"><tspan x="0" y="0">e</tspan></text><text class="f" transform="matrix(0.846, -0.533, 0.533, 0.846, 141.773, 235.606)"><tspan x="0" y="0">r</tspan></text><text class="e" transform="translate(152.475 231.218) rotate(-31.7)"><tspan x="0" y="0">a</tspan></text><text class="d" transform="matrix(0.856, -0.517, 0.517, 0.856, 165.432, 222.048)"><tspan x="0" y="0">p</tspan></text><text class="e" transform="matrix(0.86, -0.51, 0.51, 0.86, 179.996, 214.454)"><tspan x="0" y="0">i</tspan></text><text class="e" transform="matrix(0.864, -0.503, 0.503, 0.864, 185.695, 211.053)"><tspan x="0" y="0">a</tspan></text><text class="d" transform="translate(204.842 198.813) rotate(-29.31)"><tspan x="0" y="0">e</tspan></text><text class="e" transform="translate(218.924 192.054) rotate(-28.63)"><tspan x="0" y="0">n</tspan></text><text class="e" transform="translate(239.574 180.859) rotate(-27.62)"><tspan x="0" y="0">a</tspan></text><text class="e" transform="translate(253.568 173.538) rotate(-26.9)"><tspan x="0" y="0">c</tspan></text><text class="e" transform="translate(267.252 166.601) rotate(-26.18)"><tspan x="0" y="0">c</tspan></text><text class="e" transform="matrix(0.901, -0.433, 0.433, 0.901, 281.027, 159.855)"><tspan x="0" y="0">i</tspan></text><text class="e" transform="translate(286.991 156.973) rotate(-25.07)"><tspan x="0" y="0">ó</tspan></text><text class="e" transform="translate(301.815 150.035) rotate(-24.23)"><tspan x="0" y="0">n</tspan></text><text class="d" transform="translate(335.54 134.186) rotate(-22.42)"><tspan x="0" y="0">•</tspan></text><text class="d" transform="translate(363.206 123.096) rotate(-20.55)"><tspan x="0" y="0">L</tspan></text><text class="e" transform="translate(376.732 119.082) rotate(-19.65)"><tspan x="0" y="0">o</tspan></text><text class="e" transform="matrix(0.948, -0.32, 0.32, 0.948, 392.132, 113.593)"><tspan x="0" y="0">g</tspan></text><text class="e" transform="translate(407.112 108.542) rotate(-17.61)"><tspan x="0" y="0">o</tspan></text><text class="f" transform="translate(421.937 101.758) rotate(-16.7)"><tspan x="0" y="0">t</tspan></text><text class="d" transform="matrix(0.962, -0.272, 0.272, 0.962, 433.739, 99.255)"><tspan x="0" y="0">e</tspan></text><text class="f" transform="translate(448.497 94.072) rotate(-14.82)"><tspan x="0" y="0">r</tspan></text><text class="e" transform="translate(459.96 93.087) rotate(-13.88)"><tspan x="0" y="0">a</tspan></text><text class="d" transform="translate(475.068 88.328) rotate(-12.72)"><tspan x="0" y="0">p</tspan></text><text class="e" transform="translate(491.27 85.738) rotate(-11.88)"><tspan x="0" y="0">i</tspan></text><text class="e" transform="translate(497.719 84.352) rotate(-11.04)"><tspan x="0" y="0">a</tspan></text><text class="d" transform="translate(519.806 79.134) rotate(-9.33)"><tspan x="0" y="0">e</tspan></text><text class="e" transform="translate(535.324 77.595) rotate(-8.08)"><tspan x="0" y="0">n</tspan></text><text class="e" transform="translate(558.521 74.431) rotate(-6.26)"><tspan x="0" y="0">a</tspan></text><text class="e" transform="translate(574.214 72.717) rotate(-5.01)"><tspan x="0" y="0">c</tspan></text><text class="e" transform="translate(589.461 71.386) rotate(-3.77)"><tspan x="0" y="0">c</tspan></text><text class="e" transform="matrix(0.999, -0.05, 0.05, 0.999, 604.732, 70.42)"><tspan x="0" y="0">i</tspan></text><text class="e" transform="translate(611.318 70.055) rotate(-1.95)"><tspan x="0" y="0">ó</tspan></text><text class="e" transform="translate(627.632 69.508) rotate(-0.61)"><tspan x="0" y="0">n</tspan></text><text class="d" transform="matrix(1, 0.027, -0.027, 1, 657.968, 68.526)"><tspan x="0" y="0">•</tspan></text><text class="d" transform="matrix(0.997, 0.073, -0.073, 0.997, 687.705, 69.751)"><tspan x="0" y="0">L</tspan></text><text class="e" transform="translate(701.675 71.76) rotate(5.33)"><tspan x="0" y="0">o</tspan></text><text class="e" transform="translate(717.906 73.283) rotate(6.56)"><tspan x="0" y="0">g</tspan></text><text class="e" transform="matrix(0.991, 0.135, -0.135, 0.991, 733.626, 75.098)"><tspan x="0" y="0">o</tspan></text><text class="f" transform="translate(749.934 75.328) rotate(8.8)"><tspan x="0" y="0">t</tspan></text><text class="d" transform="translate(761.643 78.143) rotate(9.79)"><tspan x="0" y="0">e</tspan></text><text class="f" transform="translate(777.181 79.835) rotate(10.74)"><tspan x="0" y="0">r</tspan></text><text class="e" transform="matrix(0.979, 0.202, -0.202, 0.979, 787.979, 83.906)"><tspan x="0" y="0">a</tspan></text><text class="d" transform="matrix(0.976, 0.22, -0.22, 0.976, 803.644, 86.113)"><tspan x="0" y="0">p</tspan></text><text class="e" transform="translate(819.406 90.726) rotate(13.4)"><tspan x="0" y="0">i</tspan></text><text class="e" transform="translate(825.863 92.24) rotate(14.08)"><tspan x="0" y="0">a</tspan></text><text class="d" transform="matrix(0.964, 0.265, -0.265, 0.964, 848.092, 96.874)"><tspan x="0" y="0">e</tspan></text><text class="e" transform="translate(862.852 101.968) rotate(16.22)"><tspan x="0" y="0">n</tspan></text><text class="e" transform="matrix(0.955, 0.298, -0.298, 0.955, 885.362, 108.605)"><tspan x="0" y="0">a</tspan></text><text class="e" transform="translate(900.441 113.328) rotate(18.04)"><tspan x="0" y="0">c</tspan></text><text class="e" transform="translate(915.027 118.077) rotate(18.67)"><tspan x="0" y="0">c</tspan></text><text class="e" transform="translate(929.567 123.009) rotate(19.09)"><tspan x="0" y="0">i</tspan></text><text class="e" transform="matrix(0.943, 0.334, -0.334, 0.943, 935.83, 125.161)"><tspan x="0" y="0">ó</tspan></text><text class="e" transform="matrix(0.94, 0.343, -0.343, 0.94, 951.282, 130.64)"><tspan x="0" y="0">n</tspan></text><text class="d" transform="translate(980.141 140.224) rotate(20.76)"><tspan x="0" y="0">•</tspan></text><text class="d" transform="translate(1008.054 150.93) rotate(21.42)"><tspan x="0" y="0">L</tspan></text><text class="e" transform="translate(1020.833 157.02) rotate(21.64)"><tspan x="0" y="0">o</tspan></text><text class="e" transform="translate(1036.073 163.072) rotate(21.82)"><tspan x="0" y="0">g</tspan></text><text class="e" transform="translate(1050.83 168.978) rotate(21.93)"><tspan x="0" y="0">o</tspan></text><text class="f" transform="matrix(0.927, 0.374, -0.374, 0.927, 1066.617, 173.185)"><tspan x="0" y="0">t</tspan></text><text class="d" transform="matrix(0.927, 0.374, -0.374, 0.927, 1077.417, 178.624)"><tspan x="0" y="0">e</tspan></text><text class="f" transform="matrix(0.928, 0.374, -0.374, 0.928, 1092.318, 183.556)"><tspan x="0" y="0">r</tspan></text><text class="e" transform="translate(1102.151 189.677) rotate(21.86)"><tspan x="0" y="0">a</tspan></text><text class="d" transform="matrix(0.929, 0.37, -0.37, 0.929, 1117.231, 194.653)"><tspan x="0" y="0">p</tspan></text><text class="e" transform="matrix(0.93, 0.367, -0.367, 0.93, 1132.118, 201.643)"><tspan x="0" y="0">i</tspan></text><text class="e" transform="matrix(0.931, 0.364, -0.364, 0.931, 1138.314, 204.103)"><tspan x="0" y="0">a</tspan></text><text class="d" transform="matrix(0.934, 0.357, -0.357, 0.934, 1159.851, 211.426)"><tspan x="0" y="0">e</tspan></text><text class="e" transform="matrix(0.936, 0.351, -0.351, 0.936, 1174.056, 217.928)"><tspan x="0" y="0">n</tspan></text><text class="e" transform="translate(1196.09 226.138) rotate(19.87)"><tspan x="0" y="0">a</tspan></text><text class="e" transform="translate(1210.971 231.515) rotate(19.35)"><tspan x="0" y="0">c</tspan></text><text class="e" transform="matrix(0.947, 0.322, -0.322, 0.947, 1225.432, 236.59)"><tspan x="0" y="0">c</tspan></text><text class="e" transform="translate(1239.967 241.511) rotate(18.34)"><tspan x="0" y="0">i</tspan></text><text class="e" transform="matrix(0.952, 0.307, -0.307, 0.952, 1246.253, 243.616)"><tspan x="0" y="0">ó</tspan></text><text class="e" transform="matrix(0.956, 0.294, -0.294, 0.956, 1261.834, 248.627)"><tspan x="0" y="0">n</tspan></text><text class="d" transform="translate(1291.154 256.394) rotate(15.77)"><tspan x="0" y="0">•</tspan></text><text class="d" transform="translate(1319.868 264.203) rotate(13.93)"><tspan x="0" y="0">L</tspan></text><text class="e" transform="translate(1333.266 268.563) rotate(13.02)"><tspan x="0" y="0">o</tspan></text><text class="e" transform="matrix(0.978, 0.208, -0.208, 0.978, 1349.174, 272.235)"><tspan x="0" y="0">g</tspan></text><text class="e" transform="translate(1364.635 275.524) rotate(10.93)"><tspan x="0" y="0">o</tspan></text><text class="f" transform="matrix(0.985, 0.173, -0.173, 0.985, 1380.843, 276.597)"><tspan x="0" y="0">t</tspan></text><text class="d" transform="translate(1392.459 279.656) rotate(8.99)"><tspan x="0" y="0">e</tspan></text><text class="f" transform="translate(1407.942 281.078) rotate(7.99)"><tspan x="0" y="0">r</tspan></text><text class="e" transform="matrix(0.993, 0.122, -0.122, 0.993, 1418.905, 284.652)"><tspan x="0" y="0">a</tspan></text><text class="d" transform="matrix(0.995, 0.101, -0.101, 0.995, 1434.656, 285.571)"><tspan x="0" y="0">p</tspan></text><text class="e" transform="matrix(0.996, 0.085, -0.085, 0.996, 1450.838, 288.169)"><tspan x="0" y="0">i</tspan></text><text class="e" transform="translate(1457.404 288.761) rotate(4)"><tspan x="0" y="0">a</tspan></text><text class="d" transform="translate(1479.99 289.22) rotate(2.21)"><tspan x="0" y="0">e</tspan></text><text class="e" transform="translate(1495.492 290.82) rotate(0.92)"><tspan x="0" y="0">n</tspan></text><text class="e" transform="matrix(1, -0.017, 0.017, 1, 1518.905, 291.066)"><tspan x="0" y="0">a</tspan></text><text class="e" transform="translate(1534.647 290.802) rotate(-2.21)"><tspan x="0" y="0">c</tspan></text><text class="e" transform="translate(1549.924 290.21) rotate(-3.45)"><tspan x="0" y="0">c</tspan></text><text class="e" transform="translate(1565.212 289.244) rotate(-4.33)"><tspan x="0" y="0">i</tspan></text><text class="e" transform="translate(1571.76 288.789) rotate(-5.25)"><tspan x="0" y="0">ó</tspan></text><text class="e" transform="translate(1588.012 287.286) rotate(-6.56)"><tspan x="0" y="0">n</tspan></text><text class="d" transform="translate(1617.899 282.517) rotate(-8.64)"><tspan x="0" y="0">•</tspan></text><text class="d" transform="matrix(0.981, -0.193, 0.193, 0.981, 1647.181, 277.66)"><tspan x="0" y="0">L</tspan></text><text class="e" transform="matrix(0.977, -0.212, 0.212, 0.977, 1661.175, 275.944)"><tspan x="0" y="0">o</tspan></text><text class="e" transform="translate(1677.118 272.482) rotate(-13.37)"><tspan x="0" y="0">g</tspan></text><text class="e" transform="matrix(0.968, -0.25, 0.25, 0.968, 1692.488, 268.829)"><tspan x="0" y="0">o</tspan></text><text class="f" transform="translate(1707.58 262.829) rotate(-15.47)"><tspan x="0" y="0">t</tspan></text><text class="d" transform="translate(1719.391 260.609) rotate(-16.4)"><tspan x="0" y="0">e</tspan></text><text class="f" transform="translate(1734.021 255.24) rotate(-17.3)"><tspan x="0" y="0">r</tspan></text><text class="e" transform="matrix(0.95, -0.312, 0.312, 0.95, 1745.448, 253.797)"><tspan x="0" y="0">a</tspan></text><text class="d" transform="translate(1760.116 247.923) rotate(-19.17)"><tspan x="0" y="0">p</tspan></text><text class="e" transform="translate(1775.889 243.465) rotate(-19.87)"><tspan x="0" y="0">i</tspan></text><text class="e" transform="translate(1782.128 241.233) rotate(-20.54)"><tspan x="0" y="0">a</tspan></text><text class="d" transform="translate(1802.931 232.278) rotate(-21.84)"><tspan x="0" y="0">e</tspan></text><text class="e" transform="matrix(0.922, -0.386, 0.386, 0.922, 1817.762, 227.412)"><tspan x="0" y="0">n</tspan></text><text class="e" transform="matrix(0.914, -0.406, 0.406, 0.914, 1839.356, 218.273)"><tspan x="0" y="0">a</tspan></text><text class="e" transform="translate(1853.789 211.849) rotate(-24.77)"><tspan x="0" y="0">c</tspan></text><text class="e" transform="translate(1867.693 205.426) rotate(-25.53)"><tspan x="0" y="0">c</tspan></text><text class="e" transform="translate(1881.526 198.801) rotate(-26.06)"><tspan x="0" y="0">i</tspan></text><text class="e" transform="translate(1887.484 195.904) rotate(-26.61)"><tspan x="0" y="0">ó</tspan></text><text class="e" transform="matrix(0.888, -0.46, 0.46, 0.888, 1902.108, 188.578)"><tspan x="0" y="0">n</tspan></text><text class="d" transform="translate(1928.493 173.585) rotate(-28.53)"><tspan x="0" y="0">•</tspan></text></g></g></g></svg>