<svg xmlns="http://www.w3.org/2000/svg" width="418.591" height="476.849" viewBox="0 0 418.591 476.849"><defs><style>.a{fill:#1d3b6d;}.b{fill:#ffec8a;}.c{fill:#44c2ca;}</style></defs><g transform="translate(-365.479 -2457.793)"><g transform="translate(729.663 2600.918)"><path class="a" d="M54.408,23.32H36.585L49.191,10.714l-5.5-5.5L31.088,17.84V0H23.32V17.84L10.714,5.217l-5.5,5.5L17.84,23.32H0v7.768H17.84L5.217,43.694l5.5,5.5L23.32,36.585V54.408h7.768V36.585L43.694,49.191l5.5-5.5L36.585,31.088H54.408Z"/></g><g transform="translate(365.479 2457.793)"><g transform="translate(0 0)"><g transform="translate(0 309.814)"><path class="b" d="M61.1,238.958s-3.51,1.938.7,13.787a174.17,174.17,0,0,0,10.628,23.293S62.367,273.5,49.815,257.716s-27.322-37.684-31.661-37.052,17.8,33.135,20.077,38.372S48.3,275.364,48.3,275.364s-12.875-11.85-16.343-17.494c-5.658-9.238-18.561-33.626-22.689-33.612s12.566,32.32,16.638,38.723S36.393,279.45,36.393,279.45a51.469,51.469,0,0,1-15.037-15.22C14.939,254.178,7.2,237.021,5.069,236.192s.562,14.883,8.7,30.8S34.6,288.618,34.736,290.963s-10-2.752-19.375-13.226S2.387,261.816.324,262.5s6.206,13.773,10.488,20.948,13.521,14.251,16.961,17.7,26.059,11.429,30.818,16.792,9.66,16.188,10.839,23.363,2.906,22.324,2.906,22.324,21.439,2.878,38.316-7.806c0,0,.407-17.775-4.226-31.155s-6.36-22.324-9.463-30.594-7.792-17.3-16.483-28.108-18-24.247-19.389-27Z" transform="translate(0.002 -220.65)"/><path class="b" d="M220.38,238.958s3.51,1.938-.7,13.787a174.172,174.172,0,0,1-10.628,23.293s10.067-2.541,22.619-18.322,27.322-37.684,31.661-37.052-17.8,33.135-20.077,38.372-10.067,16.329-10.067,16.329,12.875-11.85,16.343-17.494c5.658-9.238,18.561-33.626,22.689-33.612s-12.566,32.32-16.638,38.723-10.488,16.469-10.488,16.469a51.469,51.469,0,0,0,15.037-15.22c6.416-10.053,14.153-27.21,16.287-28.038s-.562,14.883-8.7,30.8-20.822,21.622-20.962,23.967,10-2.752,19.375-13.226,12.973-15.908,15.037-15.22-6.206,13.773-10.488,20.948-13.521,14.251-16.96,17.7-26.059,11.429-30.818,16.792-9.66,16.188-10.839,23.363-2.906,22.324-2.906,22.324-21.439,2.878-38.316-7.806c0,0-.407-17.775,4.226-31.155s6.36-22.324,9.463-30.594,7.792-17.3,16.483-28.108,18-24.247,19.389-27Z" transform="translate(69.018 -220.65)"/></g><path class="a" d="M179.915,359.656c-.449-.154-37.235-12.79-58.73-40.155,2.134-2.513,8.185-10.446,12.538-23.953,5.293-16.427.548-28.909.351-29.442a1.308,1.308,0,0,0-2.064-.534c-.337.281-8.228,6.908-14.04,20.822-3.721,8.9-2.738,19.642-1.446,26.508a69.1,69.1,0,0,1-6.992-14.321c-8.817-25.3,7.68-44.156,22.226-60.794.056-.056.1-.112.154-.168a42.183,42.183,0,0,0,13,2.162,29.94,29.94,0,0,0,8.789-1.25c10.937-3.37,16.778-16.806,17.031-17.382a1.281,1.281,0,0,0-.084-1.193,1.312,1.312,0,0,0-1.025-.632c-.786-.056-14.826-1.067-27.266,5.644,4.338-6.009,7.062-11.724,6.458-17.438a63.147,63.147,0,0,0-1.657-8.916,1.125,1.125,0,0,0-.07-.295,155.216,155.216,0,0,0-6.866-19.474q-1.243-3.075-2.429-6.079c18.322-6.346,28.052-37.515,28.473-38.863a1.3,1.3,0,0,0-.267-1.25,1.343,1.343,0,0,0-1.207-.435c-.267.042-6.669,1.264-17.9,14.321a52.653,52.653,0,0,0-11.218,20.442c-2.64-7.722-4.268-15.332-3.117-23.124,3.033-20.471,22.8-33.668,23-33.795a1.318,1.318,0,1,0-1.446-2.2A64.176,64.176,0,0,0,134.818,129.1c-.323-25.792-16.441-35.859-17.185-36.308a1.3,1.3,0,0,0-1.222-.07,1.339,1.339,0,0,0-.758.969c-.112.576-2.555,14.181,2.008,24.907,3.875,9.126,11.583,15.711,14.04,17.648a42.673,42.673,0,0,0-1.769,7.245c-1.853,12.454,2.85,24.079,7.82,36.364,1.909,4.717,3.833,9.519,5.405,14.419A105.651,105.651,0,0,0,126,181.037a73.324,73.324,0,0,0-23.616-8.958,1.342,1.342,0,0,0-1.25.491,1.307,1.307,0,0,0-.168,1.334c.2.449,4.928,11.246,19.628,18.884,12.075,6.262,21.173,7.189,24.205,7.315a60.311,60.311,0,0,1,1.376,7.736c.744,7.02-4.619,14.5-11.766,22.9a32.711,32.711,0,0,0-3.931,4.549c-.239.267-.477.548-.716.814-10.811,12.355-23.616,27-25.16,45a115.53,115.53,0,0,0-11.176-16.6c-8.733-10.741-21.3-18.224-21.832-18.533a1.344,1.344,0,0,0-1.376.014,1.31,1.31,0,0,0-.618,1.221c.056.716,1.629,17.691,14.363,28.839,10.137,8.873,17.719,10.9,20.541,11.358A45.307,45.307,0,0,0,107,299.48a74.57,74.57,0,0,0,11.232,20.555,1.307,1.307,0,0,0,.365.463c21.973,28.473,59.98,41.517,60.457,41.671a1.469,1.469,0,0,0,.421.07,1.319,1.319,0,0,0,.421-2.569ZM120.4,287.419a58.886,58.886,0,0,1,11.822-18.407,46.458,46.458,0,0,1-1,25.736,72.8,72.8,0,0,1-11.162,21.945C118.714,311.288,116.088,297.767,120.4,287.419Zm28.473-139.18c6.543-7.61,11.288-10.965,13.928-12.4-2.752,7.6-11.5,28.782-25.118,34.16.744-3.8,3.243-12.51,11.2-21.762ZM120.09,117.533c-3.229-7.6-2.626-17.087-2.134-21.257,4.3,3.524,15.276,14.742,14.167,36.841-3.033-2.611-8.944-8.326-12.018-15.6Zm1.727,72.868a43.938,43.938,0,0,1-17.087-15.177,72.2,72.2,0,0,1,19.923,8.031,105.023,105.023,0,0,1,17.789,13.956A61.975,61.975,0,0,1,121.817,190.4Zm45.364,31.478h.253c-1.924,3.636-6.964,11.794-14.5,14.124-7.511,2.317-15.585.477-19.109-.562.786-.9,1.544-1.783,2.3-2.668,10.179-9.884,25.4-10.9,31.071-10.9ZM85.734,274.025c-8.972-7.848-12.06-19.123-13.057-24.3,4.086,2.71,12.524,8.775,18.716,16.4a113.081,113.081,0,0,1,12.046,18.308c-3.257-.856-9.618-3.313-17.7-10.4Z" transform="translate(28.12 37.431)"/><path class="b" d="M65.747,81.225c-.028-1.264-.056-2.373-.084-3.5q-.126-4.886-.239-9.772a4.819,4.819,0,0,1,.042-.9.77.77,0,0,1,.786-.688.721.721,0,0,1,.7.688c.056.435.07.87.084,1.306q.147,5.876.267,11.738c0,.183.028.379.056.66a5,5,0,0,0,.491-.323c2.036-1.825,4.086-3.65,6.122-5.476a2.163,2.163,0,0,1,.183-.168.825.825,0,0,1,1.123-.042.781.781,0,0,1-.07,1.165c-.969.927-1.966,1.825-2.962,2.724-1.46,1.306-2.948,2.611-4.507,4,.323.239.534.421.786.576q3.222,1.98,6.444,3.945a3.614,3.614,0,0,1,.618.407.708.708,0,0,1,.154.9.743.743,0,0,1-.913.365,3.255,3.255,0,0,1-.66-.337c-1.924-1.165-3.833-2.331-5.756-3.5-.253-.154-.505-.309-.856-.519,0,.491-.042.885-.028,1.278.084,3.37.2,6.739.281,10.095.014.66-.014,1.32-.042,1.966a1.811,1.811,0,0,1-.084.562.626.626,0,0,1-.66.505.637.637,0,0,1-.646-.534,2.588,2.588,0,0,1-.042-.576c-.112-3.426-.225-6.838-.337-10.263-.028-.772-.056-1.53-.084-2.3,0-.267-.042-.519-.084-.927-.351.281-.59.491-.828.688-1.783,1.488-3.566,2.991-5.363,4.479a2.172,2.172,0,0,1-.463.337.763.763,0,0,1-1.1-.14c-.211-.323-.126-.66.267-1l3.664-3.159c.913-.786,1.811-1.587,2.738-2.373a4.006,4.006,0,0,1,.505-.267c-.337-.267-.491-.407-.66-.519q-3.517-2.422-7.02-4.858c-.407-.281-.534-.618-.365-.969a.718.718,0,0,1,1-.267,4.3,4.3,0,0,1,.786.435c1.98,1.32,3.959,2.654,5.939,3.973.239.154.491.309.842.519Z" transform="translate(23.087 26.831)"/><path class="b" d="M174.522,154.5c.267,1.587.491,3.327.842,5.026.351,1.657.674,1.909,2.345,2.106.435.056.87.014,1.306.056a1,1,0,0,1,.955.758.966.966,0,0,1-.534,1.179,5.468,5.468,0,0,1-1.306.505,4.108,4.108,0,0,0-3.3,4.338c-.028,1.671.042,3.342.07,5.026a4.71,4.71,0,0,1-.028,1,.942.942,0,0,1-1.8.154,4.786,4.786,0,0,1-.2-.772c-.281-1.587-.505-3.173-.87-4.746a13.724,13.724,0,0,0-.969-2.626,3.274,3.274,0,0,0-2.948-1.952,7.357,7.357,0,0,1-1.109-.07,1.107,1.107,0,0,1-1.011-.969,1.044,1.044,0,0,1,.7-1.109,11.622,11.622,0,0,1,1.236-.421,5.6,5.6,0,0,0,3.721-3.791,21.1,21.1,0,0,0,.786-4.956c.056-.562.07-1.137.14-1.7.084-.646.449-1,.955-.955a.921.921,0,0,1,.842.955c.07.941.1,1.867.154,2.948Z" transform="translate(67.056 60.853)"/><path class="a" d="M213.545,70.969c-.323-1.98-.6-4.114-1.039-6.22-.435-2.05-.842-2.359-2.906-2.611-.534-.07-1.081-.028-1.615-.07a1.275,1.275,0,0,1-.519-2.415,7.556,7.556,0,0,1,1.615-.632c2.794-.716,4.044-2.611,4.086-5.377.028-2.078-.056-4.142-.084-6.22a5.18,5.18,0,0,1,.042-1.236,1.161,1.161,0,0,1,2.218-.2,4.527,4.527,0,0,1,.239.955c.351,1.966.632,3.931,1.081,5.883a15.942,15.942,0,0,0,1.207,3.257,4.064,4.064,0,0,0,3.65,2.415c.449.028.913.014,1.362.084a1.363,1.363,0,0,1,1.25,1.193,1.317,1.317,0,0,1-.87,1.376c-.491.211-1.011.351-1.53.519a6.994,6.994,0,0,0-4.619,4.689,25.894,25.894,0,0,0-.969,6.136c-.056.7-.084,1.4-.168,2.106-.1.8-.562,1.222-1.179,1.193a1.133,1.133,0,0,1-1.039-1.193c-.1-1.151-.126-2.317-.2-3.65Z" transform="translate(83.533 18.302)"/><path class="a" d="M91.006,52.675a5.41,5.41,0,0,0,.407.491c2.078,2.275,4.17,4.549,6.248,6.824a1.487,1.487,0,0,1,.267.323.5.5,0,0,1-.084.7.5.5,0,0,1-.66-.042c-.295-.267-.59-.534-.856-.828q-2.317-2.443-4.633-4.914c-.112-.126-.239-.253-.449-.463,0,.253,0,.393.014.548.351,3.608.688,7.217,1.039,10.825.07.716.126,1.432.2,2.148a2.068,2.068,0,0,1,0,.295.584.584,0,0,1-.491.59.59.59,0,0,1-.618-.519,4.219,4.219,0,0,1-.07-.59q-.674-6.866-1.334-13.731c-.014-.183-.042-.351-.07-.646-.225.183-.379.309-.534.449-1.8,1.629-3.594,3.271-5.391,4.9a2.307,2.307,0,0,1-.463.365.523.523,0,0,1-.7-.112.5.5,0,0,1-.028-.66,3.939,3.939,0,0,1,.407-.435c1.881-1.713,3.763-3.44,5.658-5.153.14-.126.281-.267.477-.463-.126-.154-.253-.309-.379-.449-2.078-2.415-4.142-4.844-6.22-7.259-.126-.154-.253-.309-.365-.477-.253-.393-.239-.744.056-.955s.534-.1.856.267c2.022,2.387,4.044,4.76,6.079,7.146a2.784,2.784,0,0,0,.281.267,1.793,1.793,0,0,0,0-.393L88.465,38.593a2.259,2.259,0,0,1,0-.534.513.513,0,0,1,.491-.449.5.5,0,0,1,.548.365,2.932,2.932,0,0,1,.112.7c.379,3.861.744,7.736,1.123,11.6l.1.885c.225-.183.379-.309.534-.449l6.585-6c.168-.14.323-.295.505-.421a.531.531,0,0,1,.7.056.551.551,0,0,1,.042.716,2.391,2.391,0,0,1-.421.421c-2.443,2.232-4.886,4.451-7.329,6.683-.14.126-.281.267-.477.463Z" transform="translate(33.21 15.212)"/><path class="a" d="M183.667,18.131c.183.239.323.421.491.6q3.77,4.128,7.54,8.228a2.718,2.718,0,0,1,.323.379.605.605,0,0,1-.1.842.583.583,0,0,1-.786-.042c-.351-.323-.7-.646-1.039-1-1.867-1.966-3.721-3.945-5.588-5.925-.14-.154-.295-.309-.534-.562,0,.309,0,.477.014.66q.632,6.529,1.25,13.043c.084.856.154,1.727.239,2.583a3.054,3.054,0,0,1,.014.365.719.719,0,0,1-.59.716.7.7,0,0,1-.744-.632,6.213,6.213,0,0,1-.084-.716q-.8-8.277-1.615-16.553c-.014-.211-.042-.421-.084-.786-.267.225-.463.379-.646.548-2.162,1.966-4.324,3.945-6.5,5.911a4.378,4.378,0,0,1-.562.449.632.632,0,0,1-.842-.14.6.6,0,0,1-.028-.8,4.3,4.3,0,0,1,.491-.519c2.275-2.064,4.549-4.142,6.809-6.206.183-.154.351-.323.576-.548-.154-.2-.309-.365-.449-.548-2.5-2.92-5-5.827-7.5-8.747a5.475,5.475,0,0,1-.435-.562c-.309-.463-.281-.9.07-1.151s.646-.126,1.025.323c2.443,2.878,4.872,5.742,7.315,8.607a4.041,4.041,0,0,0,.337.323,2.646,2.646,0,0,0,0-.477c-.477-4.872-.941-9.744-1.418-14.63a2.485,2.485,0,0,1,0-.646.617.617,0,0,1,.59-.534.6.6,0,0,1,.66.449,4.4,4.4,0,0,1,.14.842q.674,6.992,1.362,13.984c.028.309.07.618.126,1.067.267-.225.463-.379.646-.548,2.64-2.4,5.293-4.816,7.933-7.231a5.014,5.014,0,0,1,.6-.505.651.651,0,0,1,.9.927,3.528,3.528,0,0,1-.505.519q-4.423,4.023-8.831,8.045c-.182.154-.351.323-.59.562Z" transform="translate(69.929 0.012)"/><path class="a" d="M209.406,111.242c-.14-.168-.239-.309-.351-.435l-5.391-5.9a1.1,1.1,0,0,1-.225-.281.432.432,0,0,1,.07-.6.412.412,0,0,1,.562.028c.253.239.505.463.744.716,1.334,1.4,2.668,2.822,4,4.24.1.112.211.211.379.407v-.477c-.295-3.117-.6-6.22-.9-9.337l-.168-1.853a1.519,1.519,0,0,1,0-.253.478.478,0,1,1,.955-.056c.028.168.042.337.07.505.379,3.945.772,7.9,1.151,11.85.014.154.028.309.07.562.2-.168.337-.267.463-.393,1.544-1.4,3.1-2.822,4.647-4.24a2.288,2.288,0,0,1,.407-.323.456.456,0,0,1,.6.1.447.447,0,0,1,.028.576,2.16,2.16,0,0,1-.351.365c-1.629,1.488-3.257,2.962-4.872,4.451-.126.112-.253.239-.407.393.112.14.225.267.323.393,1.783,2.092,3.58,4.17,5.363,6.262a2.824,2.824,0,0,1,.309.407c.225.337.2.646-.056.828s-.463.084-.73-.239c-1.741-2.064-3.5-4.114-5.237-6.164-.056-.07-.112-.112-.239-.239a2.607,2.607,0,0,0,0,.337c.337,3.5.674,6.978,1.011,10.474a1.708,1.708,0,0,1,0,.463.426.426,0,0,1-.421.379.41.41,0,0,1-.463-.323,3.011,3.011,0,0,1-.1-.6c-.323-3.342-.646-6.669-.969-10.011-.028-.225-.056-.435-.084-.772-.2.168-.337.267-.463.393l-5.672,5.167a5.446,5.446,0,0,1-.435.365.448.448,0,0,1-.6-.056.467.467,0,0,1-.028-.618,2.161,2.161,0,0,1,.351-.365q3.159-2.885,6.332-5.756c.126-.112.253-.239.421-.393Z" transform="translate(81.734 39.202)"/><path class="a" d="M132.4,321.486s3.019-17.55,12.5-13.815-15.978,45.294-15.978,45.294-19.656-33.781-15.908-43.791S132.4,321.486,132.4,321.486Z" transform="translate(45.467 123.885)"/><path class="c" d="M138.123,121.969a16.53,16.53,0,0,0-1.544-5.476c-1.713-3.412-5.335-8.438-12.861-13.085-13.043-8.045-15.725-23.77-11.653-29.246,5.742-7.708,13.128-6.838,15.936.028s8.831,34.019,14.714,31.7-2.85-20.779,1.292-35.536,10.951-17.171,16.792-15.22,7.175,7.722,2.387,18.982-11.246,22.591-7.708,26.634,11.527-3.9,16.806-13.577,13.338-22.7,23.251-13.872,4.563,20.541-10.151,25.413-22.871,10.32-20.737,14.911,24.514-3.019,36.336.126,14.124,15.163,8.789,19.5-25.3.505-36.631-4.717-13.844-5.04-15.163-.491,35.423,15.037,24.669,29.414S170.822,151.257,154,141.12c-13.226-7.961-15.486-16.076-15.851-19.179Z" transform="translate(44.57 22.058)"/><path class="a" d="M141.7,109.812c-2.654,0-5.476-2.289-6.936-5.9a10.753,10.753,0,0,1-.716-5.883,5.173,5.173,0,0,1,3-4.1c3.047-1.236,6.824,1.207,8.593,5.574s.758,8.747-2.289,9.983a4.517,4.517,0,0,1-1.657.323Zm-3.019-13.549a1.949,1.949,0,0,0-.646.112h0a2.784,2.784,0,0,0-1.4,2.148,8.1,8.1,0,0,0,.576,4.395c1.278,3.145,3.749,4.689,5.153,4.114s2.106-3.412.842-6.543c-1.1-2.71-3.089-4.24-4.521-4.24Zm-1.137-1.109Z" transform="translate(54.103 37.838)"/></g></g></g></svg>