<svg xmlns="http://www.w3.org/2000/svg" xmlns:xlink="http://www.w3.org/1999/xlink" width="1295" height="545" viewBox="0 0 1295 545"><defs><style>.a{fill:none;}.b{clip-path:url(#a);}.c{fill:#44c2ca;}.d{fill:#fff;}</style><clipPath id="a"><rect class="a" width="1295" height="545" transform="translate(0 4738)"/></clipPath></defs><g class="b" transform="translate(0 -4738)"><g transform="translate(-170.396 4792.285)"><g transform="translate(0.01 -0.004)"><path class="c" d="M841.724,444.853c-.932,0-1.857,0-2.783-.006a524.99,524.99,0,0,1-147.394-21.439A486.6,486.6,0,0,1,572.159,369.6a458.91,458.91,0,0,1-81.581-64.829q-6.288,2.952-12.833,5.794c-42.511,18.458-91.264,32.77-144.9,42.54a869.85,869.85,0,0,1-164.885,13.846C109.027,366.318,52.519,359.8.01,347.563l22.458-96.405c88.586,20.635,195.25,22.295,292.64,4.553,42.01-7.651,80.655-18.632,113.483-31.9-20.024-35.931-29.94-71.007-28.222-100.895a135.515,135.515,0,0,1,33.678-81.546c20.4-23.093,47.064-37.562,75.077-40.735a99.173,99.173,0,0,1,73.61,21.369c20.373,16.309,35.285,40.328,44.316,71.391a136.692,136.692,0,0,1-.384,79.659c-7.162,23.261-20.542,45.347-39.763,65.633q-5.127,5.415-10.8,10.65A366,366,0,0,0,624.691,285.7c83.234,52.118,262.752,117.279,529.854-31.879,84.818-47.367,201.5-170.76,218.89-202.447L1460.21,99c-17.34,31.594-64.672,82.623-103.183,119.841-32.281,31.2-95.247,88.463-154.224,121.4-124.307,69.417-245.779,104.6-361.079,104.6ZM520.443,98.977c-1.036.064-4.646.949-9.159,4.891A36.214,36.214,0,0,0,499.19,128.6c-.39,6.754,2.556,22.213,14.1,43.827.594-.6,1.182-1.211,1.753-1.811,21.276-22.458,20.234-38.3,16.956-49.586-4.909-16.886-10.591-21.392-11.558-22.05Z" transform="translate(-0.01 0.004)"/><g transform="translate(31.064 49.239)"><path class="d" d="M56.3,495.206l10.661,2.044-.245,1.281L57.5,496.76l-1.234,6.428L63.13,504.5l-.25,1.3-6.865-1.316-.967,5.031,9.217,1.77-.245,1.281L53.36,510.531,56.3,495.2Z" transform="translate(-53.36 -256.099)"/><path class="d" d="M79.551,508.323c.279-1.654.4-2.766.472-3.773l1.287.215c-.047.675-.1,1.281-.21,1.951.873-1.386,2.347-1.869,4.553-1.5,2.824.477,4.029,1.863,4.041,3.919a11.421,11.421,0,0,1-.21,2.09L88.2,518.856l-1.357-.227,1.275-7.534a9.563,9.563,0,0,0,.175-1.887c-.012-1.328-.844-2.411-3.028-2.777-2.824-.477-4.082.512-4.571,3.406l-1.275,7.535-1.357-.227Z" transform="translate(-63.678 -260.005)"/><path class="d" d="M114.13,518.748l2.253-16.338,1.362.186-.85,6.184c.9-1.217,2.358-1.6,4.227-1.345,3.645.5,4.949,2.306,4.3,7.01-.763,5.537-2.958,6.6-6.6,6.1a8.93,8.93,0,0,1-4.687-1.8Zm9.928-4.483c.547-3.971-.367-5.2-3.272-5.6-2.882-.4-3.971.675-4.39,3.7l-.78,5.677a5.912,5.912,0,0,0,3.348,1.287C121.8,519.715,123.411,518.952,124.058,514.265Z" transform="translate(-78.746 -259.111)"/><path class="d" d="M148.148,525.271c-.78,1.456-2.207,2.015-4.425,1.758-2.824-.332-4.029-1.619-4.163-3.68a11.464,11.464,0,0,1,.111-2.119l.9-7.68,1.363.163-.891,7.587a10.069,10.069,0,0,0-.082,1.892c.1,1.328.92,2.358,3.092,2.614,2.847.332,4-.728,4.344-3.639l.891-7.587,1.362.157-1.042,8.885a37.627,37.627,0,0,0-.279,3.791L148,527.256a19.187,19.187,0,0,1,.14-1.98Z" transform="translate(-89.363 -263.765)"/><path class="d" d="M172.089,526.791c.111-1.112-.443-1.706-2.009-1.927l-3.278-.437c-1.706-.262-3.039-1.211-2.731-4.384.239-2.411,1.776-3.779,5.578-3.406,3.406.332,4.967,1.613,4.7,4.274a7.241,7.241,0,0,1-.274,1.38l-1.322-.128a7.875,7.875,0,0,0,.221-1.31c.2-1.991-.967-2.766-3.447-3-2.83-.279-3.936.547-4.117,2.358-.25,2.527.792,2.911,1.712,3.045l3.278.46c2.376.326,3.191,1.368,3.01,3.22-.215,2.2-1.491,3.3-5.066,2.94-2.737-.268-4.181-.833-4.821-2.626l1.089-.617c.565,1.415,1.648,1.822,3.849,2.038,2.737.268,3.476-.361,3.622-1.869Z" transform="translate(-99.382 -265.029)"/><path class="d" d="M196.009,528.951l1.135.7c-1,1.951-2.562,2.527-5.165,2.323-3.179-.256-5.281-1.706-4.833-7.348.378-4.757,2.2-6.2,5.869-5.91,3.319.268,4.973,1.5,4.745,4.326a7.861,7.861,0,0,1-.227,1.386l-1.322-.1a9.368,9.368,0,0,0,.227-1.363c.163-2.044-1.013-2.812-3.523-3.016-2.807-.227-4.082.8-4.4,4.786-.373,4.687,1.124,5.817,3.563,6.009,2.044.163,3.156-.285,3.93-1.788Z" transform="translate(-109.223 -265.907)"/><path class="d" d="M218.958,532.091c-.757.955-2.294,1.607-4.711,1.461-2.906-.18-4.32-1.036-4.175-3.406.122-1.974.961-3.138,5.473-2.859a21.364,21.364,0,0,1,3.587.454l.1-1.718a10.148,10.148,0,0,0-.023-1.939c-.146-1.409-1.159-2.4-3.365-2.539-2.486-.151-3.738.448-3.86,2.469a8.079,8.079,0,0,0,.035,1.31l-1.368-.082a7.176,7.176,0,0,1-.029-1.4c.169-2.742,2.026-3.7,5.3-3.5,2.929.181,4.419,1.345,4.664,3.435a11.727,11.727,0,0,1,.029,2.149l-.245,3.93c-.1,1.648-.1,2.772-.093,3.8l-1.328-.082c-.012-.559-.006-1.025,0-1.467Zm-4.5.285c2.463.151,4.425-.617,4.53-2.335l.076-1.211a20.822,20.822,0,0,0-3.593-.431c-3.534-.215-3.948.46-4.029,1.805-.1,1.578.926,2.038,3.016,2.166Z" transform="translate(-118.82 -266.591)"/><path class="d" d="M245.554,525.208c.169-4.751,2.253-6.283,6.184-6.143a9.581,9.581,0,0,1,3.237.652l.175-4.868,1.374.047-.472,13.293c-.064,1.747-.035,2.958,0,4.053l-1.3-.047c-.047-.7-.07-1.357-.064-2.1a3.992,3.992,0,0,1-4.134,2.23c-3.4-.122-5.188-1.537-4.99-7.121Zm9.165,1.817.215-6.026a7.948,7.948,0,0,0-3.168-.693c-3.168-.111-4.693.972-4.839,4.955-.169,4.7,1.054,5.724,3.8,5.823,2.4.087,3.884-1.118,3.988-4.052Z" transform="translate(-133.643 -264.308)"/><path class="d" d="M279.975,533.246l1.036.716c-.868,1.706-2.224,2.1-4.9,2.055-3.75-.064-5.584-1.59-5.491-7.063.082-4.775,1.764-6.306,5.537-6.236,3.517.064,5.118,1.6,5.06,4.862a17.794,17.794,0,0,1-.314,3.208l-8.874-.157c.268,3.383,1.607,4.128,4.169,4.175,2.1.035,3.08-.25,3.779-1.566Zm-7.994-3.773,7.732.134a14.785,14.785,0,0,0,.151-2.1c.041-2.445-1.077-3.511-3.732-3.558-2.958-.052-4.07,1-4.14,4.868Z" transform="translate(-144.115 -267.594)"/><path class="d" d="M296.982,515.476l-.058,14.557a1.466,1.466,0,0,0,1.625,1.636,2.326,2.326,0,0,0,1.467-.367l.344,1.164a3.276,3.276,0,0,1-2,.483,2.5,2.5,0,0,1-2.807-2.83l.064-14.65h1.374Z" transform="translate(-154.532 -264.567)"/><path class="d" d="M316.84,521.07l2.329-.035-.047-3.168,1.374-.017.047,3.167,5.38-.076.017,1.234-5.38.076.122,8.408c.017,1.165.495,2.114,2.218,2.085a2.594,2.594,0,0,0,2.544-1.246l.827.9a3.718,3.718,0,0,1-3.47,1.613c-2.655.041-3.47-1.392-3.494-3.255l-.122-8.478-2.329.035-.017-1.234Z" transform="translate(-163.425 -265.561)"/><path class="d" d="M346.459,532.651l1.066.67c-.786,1.747-2.125,2.207-4.8,2.282-3.75.111-5.654-1.328-5.817-6.795-.14-4.775,1.467-6.382,5.24-6.492,3.517-.1,5.188,1.362,5.287,4.623a17.973,17.973,0,0,1-.163,3.22l-8.868.262c.425,3.365,1.8,4.047,4.355,3.971,2.1-.064,3.063-.39,3.7-1.741Zm-8.163-3.395,7.727-.227a14.5,14.5,0,0,0,.052-2.1c-.07-2.445-1.246-3.459-3.9-3.377-2.958.087-4.018,1.188-3.907,5.054l.017.652Z" transform="translate(-171.803 -267.425)"/><path class="d" d="M369.378,531.131c-.052-1.118-.681-1.625-2.265-1.625l-3.307.035c-1.723-.012-3.185-.763-3.331-3.954-.111-2.422,1.217-3.994,5.031-4.169,3.424-.157,5.147.885,5.27,3.558a6.616,6.616,0,0,1-.076,1.4l-1.328.058a8.281,8.281,0,0,0,.035-1.333c-.093-2-1.357-2.6-3.843-2.48-2.841.128-3.82,1.106-3.738,2.923.116,2.539,1.2,2.766,2.131,2.772l3.313-.012c2.4-.018,3.354.9,3.435,2.76.1,2.213-1.007,3.476-4.588,3.639-2.748.128-4.256-.227-5.147-1.91l.99-.769c.757,1.316,1.892,1.566,4.1,1.467,2.748-.128,3.389-.856,3.319-2.37Z" transform="translate(-181.651 -267.046)"/><path class="d" d="M383.872,526.825c-.3-4.763,1.112-6.44,5.2-6.7,4.117-.262,5.7,1.229,6,5.992.355,5.648-1.56,7.051-5.165,7.278C386.329,533.626,384.227,532.473,383.872,526.825Zm9.829-.623c-.25-4-1.322-5.048-4.553-4.844s-4.157,1.38-3.907,5.38c.3,4.693,1.753,5.607,4.588,5.427S394,530.9,393.7,526.2Z" transform="translate(-191.41 -266.501)"/><path class="d" d="M409.41,522.775a36.8,36.8,0,0,0-.46-3.773l1.3-.1a19.584,19.584,0,0,1,.3,2.358,3.9,3.9,0,0,1,3.855-2.964,6.578,6.578,0,0,1,2.207.134l-.064,1.264a6.679,6.679,0,0,0-2.067-.14c-2.876.227-3.779,2.143-3.552,5.089l.542,6.941-1.368.1-.7-8.914Z" transform="translate(-201.903 -265.734)"/><path class="d" d="M426.2,523.681c-.443-4.751.92-6.469,5-6.853,4.1-.384,5.735,1.054,6.178,5.811.524,5.636-1.351,7.1-4.943,7.43-3.569.332-5.706-.757-6.23-6.387Zm9.811-.914c-.373-3.988-1.473-5.007-4.693-4.711s-4.117,1.508-3.744,5.5c.437,4.681,1.921,5.555,4.751,5.287s4.128-1.392,3.692-6.073Z" transform="translate(-209.077 -265.109)"/><path class="d" d="M461.879,516.6c-.559-4.716,1.264-6.55,5.171-7.016a9.7,9.7,0,0,1,3.3.146l-.576-4.833,1.362-.163,1.566,13.206c.2,1.735.419,2.929.617,4.006l-1.293.151c-.151-.687-.274-1.328-.384-2.067a4,4,0,0,1-3.744,2.836c-3.377.4-5.363-.722-6.021-6.277Zm9.334.39L470.5,511a7.931,7.931,0,0,0-3.237-.2c-3.144.373-4.489,1.683-4.023,5.636.553,4.67,1.921,5.5,4.646,5.17,2.381-.285,3.668-1.7,3.325-4.617Z" transform="translate(-223.972 -260.08)"/><path class="d" d="M496.641,519.758l1.135.547c-.6,1.823-1.881,2.422-4.53,2.783-3.715.507-5.764-.716-6.5-6.137-.646-4.728.78-6.5,4.518-7.01,3.482-.477,5.3.8,5.747,4.035a17.892,17.892,0,0,1,.18,3.22l-8.792,1.2c.78,3.3,2.218,3.831,4.757,3.488,2.079-.285,3-.716,3.494-2.125Zm-8.478-2.51,7.663-1.048a14.075,14.075,0,0,0-.169-2.09c-.332-2.422-1.6-3.307-4.233-2.946-2.929.4-3.872,1.613-3.348,5.438Z" transform="translate(-234.337 -262.217)"/><path class="d" d="M510.187,500.11l2.172,14.394a1.466,1.466,0,0,0,1.857,1.368,2.328,2.328,0,0,0,1.4-.588l.518,1.1a3.268,3.268,0,0,1-1.91.78,2.5,2.5,0,0,1-3.208-2.364l-2.183-14.487Z" transform="translate(-243.627 -258.15)"/><path class="d" d="M542.788,511.835c-.192-1.1-.879-1.526-2.451-1.328l-3.278.448c-1.712.2-3.255-.361-3.8-3.505-.413-2.387.7-4.117,4.472-4.769,3.371-.582,5.217.233,5.671,2.871a6.721,6.721,0,0,1,.1,1.4l-1.31.227a7.762,7.762,0,0,0-.134-1.322c-.344-1.974-1.671-2.4-4.122-1.98-2.8.483-3.651,1.578-3.342,3.365.431,2.5,1.537,2.6,2.463,2.48l3.284-.425c2.381-.314,3.435.466,3.756,2.306.378,2.178-.565,3.569-4.1,4.187-2.708.466-4.251.309-5.345-1.252l.885-.885c.92,1.211,2.073,1.322,4.251.943C542.5,514.135,543.044,513.326,542.788,511.835Z" transform="translate(-253.799 -259.15)"/><path class="d" d="M566.76,508.016l1.159.489c-.5,1.852-1.747,2.515-4.379,3.022-3.686.7-5.794-.408-6.824-5.782-.9-4.687.431-6.533,4.14-7.243,3.453-.664,5.339.518,5.957,3.721a18.3,18.3,0,0,1,.355,3.2l-8.716,1.671c.955,3.255,2.416,3.709,4.938,3.232,2.061-.4,2.964-.873,3.377-2.306Zm-8.6-2.055,7.593-1.456a14.617,14.617,0,0,0-.279-2.079c-.46-2.4-1.776-3.22-4.384-2.719-2.905.559-3.779,1.817-3.051,5.613Z" transform="translate(-263.518 -257.405)"/><path class="d" d="M579.923,498.7c-.349-1.642-.646-2.719-.943-3.68l1.275-.268a17.832,17.832,0,0,1,.518,1.892c.3-1.613,1.5-2.6,3.686-3.069,2.8-.594,4.437.25,5.194,2.16a11.439,11.439,0,0,1,.571,2.02l1.6,7.564-1.345.285-1.584-7.476a9.515,9.515,0,0,0-.53-1.817c-.5-1.229-1.671-1.933-3.837-1.473-2.8.594-3.6,1.98-3,4.85l1.584,7.476-1.345.285-1.852-8.751Z" transform="translate(-272.931 -255.343)"/><path class="d" d="M601.066,488.649l2.271-.524-.71-3.086,1.339-.309.71,3.086,5.246-1.205.279,1.205-5.246,1.205,1.887,8.192a1.89,1.89,0,0,0,2.609,1.572,2.587,2.587,0,0,0,2.224-1.753l1,.7a3.714,3.714,0,0,1-3.057,2.306c-2.585.594-3.686-.635-4.1-2.451l-1.9-8.262-2.271.524-.28-1.205Z" transform="translate(-282.154 -251.726)"/><path class="d" d="M620.375,479.54c.565-.14,1-.052,1.164.652.157.658-.175.955-.739,1.089-.518.128-1,.029-1.159-.629C619.472,479.953,619.857,479.662,620.375,479.54Zm.314,4.14,1.333-.326,3.01,12.379-1.333.326Z" transform="translate(-289.9 -249.534)"/><path class="d" d="M632.638,485.338c-1.194-4.6.367-6.661,4.175-7.651a9.682,9.682,0,0,1,3.29-.3l-1.223-4.711,1.328-.344,3.336,12.868c.437,1.689.809,2.847,1.153,3.884l-1.263.326c-.245-.658-.454-1.281-.664-1.991a4.007,4.007,0,0,1-3.325,3.319c-3.29.856-5.409.006-6.812-5.4Zm9.3-.873-1.514-5.84a7.97,7.97,0,0,0-3.232.239c-3.063.8-4.221,2.277-3.22,6.125,1.182,4.553,2.643,5.182,5.3,4.5,2.323-.6,3.406-2.183,2.667-5.019Z" transform="translate(-295.181 -246.546)"/><path class="d" d="M656.706,482.555c-1.3-4.594-.28-6.527,3.668-7.645,3.965-1.124,5.834-.006,7.133,4.588,1.543,5.444-.035,7.226-3.505,8.21-3.453.978-5.747.3-7.3-5.147Zm9.479-2.69c-1.095-3.855-2.364-4.658-5.473-3.773s-3.773,2.23-2.678,6.085c1.281,4.524,2.9,5.106,5.636,4.332s3.8-2.119,2.521-6.644Z" transform="translate(-305.176 -247.454)"/><path class="d" d="M693.85,474.661c1-.314,1.694-.122,2.026.926s-.128,1.6-1.13,1.916a1.411,1.411,0,0,1-2.026-.926C692.388,475.535,692.942,474.947,693.85,474.661Z" transform="translate(-320.404 -247.462)"/><path class="d" d="M711.45,453.077l10.242-3.587.431,1.229-8.856,3.1,2.16,6.178,6.6-2.306.437,1.252-6.6,2.306,1.694,4.839,8.856-3.1.431,1.229L716.6,467.8l-5.153-14.725Z" transform="translate(-328.268 -237.005)"/><path class="d" d="M737.4,453.715c-.6-1.566-1.06-2.585-1.5-3.488l1.217-.466a16.935,16.935,0,0,1,.8,1.788c.047-1.636,1.077-2.8,3.162-3.6,2.678-1.019,4.419-.437,5.467,1.328a11.568,11.568,0,0,1,.879,1.91l2.754,7.226-1.281.489-2.719-7.139a9.832,9.832,0,0,0-.8-1.712c-.681-1.135-1.951-1.648-4.018-.862-2.678,1.019-3.255,2.51-2.207,5.252l2.719,7.139-1.287.489Z" transform="translate(-338.482 -236.152)"/><path class="d" d="M772.395,446.66l-6.545-15.133,1.263-.547,2.475,5.729c.134-1.5,1.188-2.6,2.917-3.342,3.377-1.461,5.427-.594,7.313,3.767,2.218,5.13.9,7.173-2.486,8.635a8.98,8.98,0,0,1-4.943.891Zm6.166-8.984c-1.59-3.674-3-4.256-5.7-3.092-2.673,1.153-3.045,2.638-1.834,5.438l2.271,5.258a5.907,5.907,0,0,0,3.528-.641C779.458,443.5,780.436,442.014,778.561,437.676Z" transform="translate(-350.993 -229.272)"/><path class="d" d="M803.811,432.281c.111,1.648-.8,2.876-2.824,3.837-2.568,1.217-4.28.763-5.479-.914a11.75,11.75,0,0,1-1.031-1.857l-3.307-6.993,1.24-.588,3.266,6.906a9.826,9.826,0,0,0,.932,1.648c.792,1.071,2.032,1.514,4.012.576,2.591-1.223,3.01-2.737,1.753-5.392l-3.266-6.906,1.24-.588,3.826,8.088c.716,1.514,1.258,2.5,1.77,3.365l-1.2.565a19.188,19.188,0,0,1-.932-1.747Z" transform="translate(-361.57 -225.525)"/><path class="d" d="M825.473,421.167c-.512-.99-1.3-1.188-2.737-.524l-2.987,1.421c-1.572.71-3.208.641-4.676-2.189-1.118-2.149-.571-4.14,2.818-5.9,3.039-1.578,5.042-1.357,6.277,1.019a6.917,6.917,0,0,1,.518,1.3l-1.176.611a8.272,8.272,0,0,0-.53-1.223c-.92-1.776-2.317-1.788-4.53-.641-2.521,1.31-3,2.609-2.166,4.221,1.17,2.253,2.248,2.009,3.1,1.619l3-1.4c2.172-1.019,3.418-.594,4.274,1.06,1.019,1.962.542,3.575-2.643,5.229-2.44,1.263-3.953,1.578-5.473.425l.576-1.112c1.24.879,2.376.629,4.338-.39,2.44-1.264,2.719-2.2,2.02-3.54Z" transform="translate(-371.336 -221.747)"/><path class="d" d="M847.159,409.392l1.333-.064c.274,2.178-.693,3.534-2.958,4.827-2.772,1.584-5.328,1.566-8.134-3.348-2.364-4.146-1.677-6.364,1.52-8.187,2.894-1.648,4.955-1.566,6.358.9a7.84,7.84,0,0,1,.594,1.269l-1.153.658a8.654,8.654,0,0,0-.582-1.252c-1.013-1.782-2.422-1.753-4.606-.507-2.445,1.4-2.923,2.958-.943,6.434,2.329,4.087,4.2,4.175,6.329,2.958,1.782-1.013,2.445-2.015,2.236-3.692Z" transform="translate(-380.295 -216.96)"/><path class="d" d="M868.151,398.389c-.052,1.223-.914,2.649-2.964,3.942-2.457,1.56-4.111,1.694-5.38-.314-1.06-1.671-1.06-3.109,2.76-5.526a21.254,21.254,0,0,1,3.173-1.735l-.92-1.456a10.335,10.335,0,0,0-1.153-1.56c-.943-1.054-2.347-1.269-4.216-.087-2.108,1.333-2.766,2.55-1.683,4.262a7.794,7.794,0,0,0,.8,1.042l-1.159.734a7.32,7.32,0,0,1-.844-1.118c-1.473-2.323-.53-4.186,2.248-5.945,2.48-1.572,4.373-1.5,5.793.052a11.518,11.518,0,0,1,1.287,1.723L868,395.728c.885,1.4,1.543,2.306,2.149,3.133l-1.124.71c-.338-.448-.606-.827-.862-1.188Zm-3.482,2.865c2.085-1.322,3.226-3.092,2.306-4.547l-.646-1.025a20.792,20.792,0,0,0-3.162,1.753c-2.993,1.892-2.935,2.684-2.207,3.825.85,1.339,1.945,1.112,3.715-.012Z" transform="translate(-388.599 -211.936)"/><path class="d" d="M887.92,375c-2.865-3.8-2.213-6.3.932-8.67a9.59,9.59,0,0,1,2.929-1.537l-2.935-3.884,1.095-.827,8.012,10.62c1.054,1.392,1.84,2.317,2.55,3.15l-1.042.786c-.477-.518-.908-1.007-1.374-1.59a4,4,0,0,1-1.8,4.338c-2.713,2.05-5,2.079-8.367-2.387Zm8.262-4.367-3.633-4.815a7.977,7.977,0,0,0-2.9,1.456c-2.527,1.91-3.034,3.715-.635,6.894,2.836,3.756,4.425,3.779,6.62,2.125,1.916-1.444,2.312-3.319.542-5.66Z" transform="translate(-401.223 -199.655)"/><path class="d" d="M917.835,359.725l1.252-.157c.495,1.852-.25,3.051-2.271,4.81-2.83,2.457-5.217,2.55-8.8-1.584-3.127-3.6-2.906-5.869-.052-8.344,2.655-2.306,4.879-2.23,7.016.233a18.235,18.235,0,0,1,1.916,2.6l-6.7,5.817c2.457,2.335,3.954,2,5.887.32,1.584-1.374,2.125-2.242,1.764-3.692Zm-8.466,2.539,5.84-5.066a14.9,14.9,0,0,0-1.287-1.659c-1.6-1.846-3.15-1.892-5.159-.151-2.236,1.939-2.358,3.464.175,6.387l.425.495Z" transform="translate(-409.432 -196.603)"/><path class="d" d="M916.788,338.22l10.19,10.393a1.461,1.461,0,0,0,2.306.023,2.308,2.308,0,0,0,.786-1.293l1.066.588a3.257,3.257,0,0,1-1.089,1.753,2.5,2.5,0,0,1-3.983-.041L915.81,339.181l.984-.961Z" transform="translate(-413.637 -190.523)"/><path class="d" d="M935.455,325.3l1.485-1.793-2.44-2.02.879-1.06,2.44,2.02,3.435-4.14.949.786-3.435,4.14,6.475,5.368a1.889,1.889,0,0,0,3.028-.332,2.6,2.6,0,0,0,.7-2.748l1.223-.047a3.723,3.723,0,0,1-1.031,3.686c-1.694,2.044-3.313,1.729-4.745.542l-6.527-5.415-1.485,1.793-.949-.786Z" transform="translate(-421.445 -182.206)"/><path class="d" d="M963.437,307.7l1.165-.477c.961,1.659.553,3.01-.943,5.235-2.1,3.109-4.373,3.825-8.915.769-3.959-2.667-4.332-4.908-2.224-8.041,1.962-2.917,4.128-3.424,6.836-1.6a17.756,17.756,0,0,1,2.521,2.009l-4.955,7.36c2.981,1.613,4.338.9,5.77-1.229,1.17-1.741,1.467-2.719.74-4.023Zm-7.517,4.658,4.32-6.417a14.826,14.826,0,0,0-1.677-1.269c-2.026-1.368-3.534-1-5.019,1.2-1.654,2.451-1.374,3.959,1.834,6.12l.542.361Z" transform="translate(-428.442 -175.61)"/><path class="d" d="M974.674,286.18c-1-.495-1.753-.192-2.515,1.2l-1.572,2.911c-.85,1.5-2.207,2.416-5.066,1-2.172-1.077-2.906-3-1.211-6.422,1.52-3.069,3.266-4.076,5.665-2.888a7.046,7.046,0,0,1,1.188.745l-.588,1.188a8.163,8.163,0,0,0-1.147-.675c-1.793-.891-2.929-.07-4.035,2.16-1.264,2.544-.879,3.878.745,4.681,2.277,1.124,3,.291,3.459-.524l1.59-2.9c1.147-2.108,2.4-2.5,4.076-1.671,1.986.984,2.55,2.562.961,5.776-1.217,2.463-2.259,3.61-4.163,3.581l-.192-1.24c1.52-.029,2.288-.9,3.266-2.876,1.217-2.463.891-3.377-.466-4.047Z" transform="translate(-433.507 -166.828)"/><path class="d" d="M977.736,269.923c-4.565-1.409-5.63-3.319-4.425-7.238,1.211-3.942,3.167-4.9,7.727-3.494,5.409,1.665,6.044,3.959,4.978,7.406-1.054,3.43-2.876,4.984-8.286,3.319Zm2.9-9.415c-3.825-1.182-5.194-.553-6.143,2.539s-.181,4.379,3.651,5.561c4.5,1.386,5.863.344,6.7-2.37s.291-4.344-4.2-5.729Z" transform="translate(-437.465 -157.255)"/><path class="d" d="M981.725,245.425c-1.659-.227-2.777-.314-3.785-.355l.18-1.293a20.19,20.19,0,0,1,2.37.21,3.906,3.906,0,0,1-2.073-4.4,6.605,6.605,0,0,1,.6-2.125l1.223.332a6.8,6.8,0,0,0-.582,1.991c-.4,2.859,1.287,4.152,4.216,4.553l6.9.949-.186,1.362-8.862-1.223Z" transform="translate(-439.591 -148.432)"/><path class="d" d="M985.815,226.3c-4.775.116-6.393-1.357-6.5-5.456-.1-4.122,1.444-5.654,6.219-5.77,5.66-.14,6.987,1.828,7.08,5.438.087,3.587-1.141,5.642-6.8,5.782Zm-.245-9.852c-4.006.1-5.1,1.13-5.019,4.367s1.223,4.21,5.229,4.111c4.7-.116,5.671-1.537,5.6-4.379S990.275,216.333,985.57,216.449Z" transform="translate(-440.164 -139.078)"/><path class="d" d="M977.474,188.6c-4.617,1.112-6.655-.483-7.575-4.309a9.8,9.8,0,0,1-.245-3.3l-4.734,1.141-.32-1.333,12.932-3.109c1.7-.408,2.859-.757,3.907-1.083l.3,1.269c-.664.233-1.287.431-2,.629a4,4,0,0,1,3.255,3.383c.8,3.307-.087,5.409-5.526,6.719Zm-.7-9.316-5.863,1.409a8.009,8.009,0,0,0,.181,3.237c.74,3.08,2.2,4.262,6.073,3.331,4.577-1.1,5.234-2.55,4.588-5.223-.559-2.335-2.12-3.441-4.973-2.754Z" transform="translate(-434.018 -123.013)"/><path class="d" d="M973.472,153.444l.239-1.234c1.916.111,2.824,1.194,3.855,3.662,1.444,3.459.792,5.753-4.262,7.866-4.408,1.84-6.486.92-7.936-2.562-1.357-3.243-.588-5.334,2.422-6.591a18.358,18.358,0,0,1,3.063-1l3.424,8.187c2.993-1.6,3.138-3.127,2.149-5.491-.809-1.933-1.467-2.719-2.952-2.83Zm-.245,8.839-2.981-7.133a15.91,15.91,0,0,0-1.98.7c-2.259.943-2.783,2.4-1.758,4.85,1.141,2.731,2.55,3.325,6.12,1.834Z" transform="translate(-434.069 -112.82)"/><path class="d" d="M951.676,147.288l12.7-7.115a1.462,1.462,0,0,0,.623-2.218,2.345,2.345,0,0,0-1.042-1.1l.844-.873a3.276,3.276,0,0,1,1.4,1.508,2.5,2.5,0,0,1-1.083,3.837l-12.781,7.156-.67-1.2Z" transform="translate(-428.617 -106.04)"/><path class="d" d="M944.919,111.457c-.809.774-.78,1.578.268,2.772l2.2,2.475c1.124,1.31,1.514,2.9-.792,5.106-1.753,1.671-3.814,1.706-6.451-1.054-2.364-2.475-2.713-4.46-.78-6.312a7.108,7.108,0,0,1,1.106-.868l.92.961a8.155,8.155,0,0,0-1.025.85c-1.45,1.386-1.066,2.725.652,4.53,1.962,2.055,3.342,2.154,4.658.9,1.834-1.753,1.3-2.719.687-3.43l-2.184-2.486c-1.59-1.8-1.526-3.115-.18-4.4,1.6-1.526,3.278-1.526,5.759,1.071,1.9,1.986,2.626,3.354,1.939,5.136l-1.229-.245c.495-1.438-.058-2.457-1.59-4.058-1.9-1.986-2.871-1.991-3.965-.949Z" transform="translate(-422.955 -94.962)"/><path class="d" d="M923.606,94.833l-.571-1.124c1.578-1.095,2.958-.8,5.293.518,3.266,1.84,4.163,4.053,1.479,8.821-2.341,4.163-4.547,4.711-7.837,2.865-3.063-1.723-3.744-3.843-2.149-6.684a18.121,18.121,0,0,1,1.8-2.678l7.733,4.35c1.368-3.1.547-4.4-1.689-5.654-1.828-1.025-2.83-1.246-4.07-.419Zm5.24,7.115L922.1,98.157a15.424,15.424,0,0,0-1.13,1.77c-1.2,2.131-.716,3.6,1.6,4.908,2.579,1.45,4.058,1.054,5.951-2.317l.32-.571Z" transform="translate(-414.964 -88.102)"/><path class="d" d="M905.005,94.837c-.233,1.659-.314,2.777-.361,3.785l-1.293-.18a18.184,18.184,0,0,1,.151-1.956c-.833,1.415-2.294,1.939-4.507,1.63-2.836-.4-4.088-1.741-4.152-3.8a11.052,11.052,0,0,1,.151-2.1l1.06-7.663,1.362.186-1.048,7.569a10.428,10.428,0,0,0-.122,1.887c.052,1.322.914,2.387,3.109,2.69,2.836.4,4.064-.635,4.466-3.54l1.048-7.569,1.363.186-1.229,8.862Z" transform="translate(-404.876 -84.56)"/><path class="d" d="M882.221,97.98l-2.294.39.53,3.121-1.357.227-.53-3.121-5.3.9-.2-1.217,5.3-.9-1.4-8.291a1.892,1.892,0,0,0-2.515-1.724,2.585,2.585,0,0,0-2.323,1.625l-.955-.757a3.716,3.716,0,0,1,3.185-2.125c2.62-.443,3.639.85,3.954,2.684l1.415,8.361,2.294-.39.2,1.217Z" transform="translate(-394.989 -85.17)"/><path class="d" d="M866.251,102.356l-1.293.46L860.69,90.81l1.293-.46Zm.734,4.087c-.547.192-.984.151-1.229-.53-.227-.635.076-.967.623-1.165a.834.834,0,0,1,1.217.507c.245.681-.111,1-.617,1.182Z" transform="translate(-390.611 -86.979)"/><path class="d" d="M847.733,101.581c2.381,4.111,1.432,6.521-1.974,8.489a9.593,9.593,0,0,1-3.092,1.17l2.44,4.216-1.188.687-6.661-11.511c-.873-1.514-1.543-2.527-2.149-3.435l1.13-.652c.413.571.78,1.112,1.17,1.747a4.012,4.012,0,0,1,2.317-4.087c2.94-1.7,5.211-1.456,8.012,3.383Zm-8.728,3.331,3.022,5.223a8,8,0,0,0,3.051-1.095c2.742-1.584,3.459-3.319,1.467-6.766-2.358-4.07-3.936-4.291-6.312-2.911-2.079,1.2-2.7,3.01-1.229,5.555Z" transform="translate(-379.926 -89.86)"/><path class="d" d="M826.337,116.522c3.237,3.511,3.2,5.7.186,8.478-3.028,2.795-5.2,2.643-8.437-.868-3.837-4.163-3.232-6.457-.576-8.909,2.638-2.434,5-2.865,8.833,1.3Zm-7.243,6.679c2.713,2.946,4.21,3.086,6.591.891s2.358-3.7-.355-6.638c-3.191-3.459-4.9-3.249-6.981-1.322s-2.44,3.61.751,7.069Z" transform="translate(-371.677 -96.602)"/><path class="d" d="M806.21,149.293c-.576.873-1.246,1.159-2.154.553s-.908-1.328-.326-2.2a1.5,1.5,0,1,1,2.48,1.648Z" transform="translate(-366.648 -110.555)"/><path class="d" d="M792.479,182.479l-2.847,10.475-1.258-.344,2.457-9.06-6.318-1.718-1.828,6.743-1.281-.349,1.834-6.743-4.943-1.345-2.457,9.06-1.258-.344,2.847-10.475,15.063,4.087Z" transform="translate(-354.64 -123.752)"/><path class="d" d="M781.515,207.529a37.9,37.9,0,0,0,3.8.151l-.111,1.3a18.212,18.212,0,0,1-1.956-.047c1.456.751,2.061,2.183,1.875,4.408-.239,2.853-1.514,4.175-3.563,4.355a11.231,11.231,0,0,1-2.1-.035l-7.7-.64.116-1.368,7.61.635a10.3,10.3,0,0,0,1.892.017c1.322-.122,2.329-1.042,2.515-3.249.239-2.853-.856-4.023-3.779-4.262l-7.61-.635.116-1.368,8.909.745Z" transform="translate(-353.458 -135.62)"/><path class="d" d="M775.3,244.552l16.146-3.342.279,1.345-6.114,1.263c1.444.437,2.3,1.689,2.684,3.534.745,3.6-.518,5.432-5.17,6.4-5.473,1.13-7.208-.576-7.954-4.181a8.956,8.956,0,0,1,.128-5.019Zm7.546,7.855c3.924-.809,4.78-2.085,4.181-4.955-.588-2.853-1.962-3.517-4.949-2.9l-5.613,1.159a5.941,5.941,0,0,0-.093,3.587c.582,2.807,1.84,4.064,6.469,3.109Z" transform="translate(-354.769 -149.998)"/><path class="d" d="M785.5,278.6c-1.648-.093-2.76-1.153-3.459-3.272-.891-2.7-.227-4.338,1.578-5.328a11.585,11.585,0,0,1,1.968-.8l7.342-2.422.431,1.3-7.255,2.393a9.773,9.773,0,0,0-1.747.722c-1.159.652-1.753,1.828-1.066,3.907.9,2.719,2.346,3.325,5.136,2.4l7.255-2.393.431,1.3-8.5,2.8a37.849,37.849,0,0,0-3.552,1.345l-.413-1.264a18.459,18.459,0,0,1,1.852-.71Z" transform="translate(-357.591 -160.68)"/><path class="d" d="M795.641,301.99c1.031-.437,1.287-1.205.728-2.69l-1.188-3.086c-.588-1.625-.4-3.249,2.539-4.5,2.23-.949,4.169-.256,5.665,3.261,1.339,3.15.972,5.13-1.5,6.178a7.123,7.123,0,0,1-1.339.419l-.518-1.223a7.721,7.721,0,0,0,1.258-.437c1.846-.786,1.962-2.178.984-4.466-1.112-2.614-2.37-3.191-4.041-2.48-2.335,1-2.172,2.09-1.852,2.964l1.165,3.1c.856,2.242.332,3.453-1.386,4.181-2.038.868-3.6.268-5.013-3.028-1.077-2.527-1.275-4.064-.006-5.491l1.066.658c-.967,1.17-.809,2.317.058,4.355,1.077,2.527,1.985,2.876,3.377,2.282Z" transform="translate(-361.191 -170.934)"/><path class="d" d="M806.5,324.461v1.333c-2.189.169-3.5-.868-4.676-3.191-1.444-2.847-1.3-5.4,3.744-7.96,4.256-2.16,6.44-1.362,8.105,1.921,1.508,2.97,1.322,5.025-1.211,6.312a7.607,7.607,0,0,1-1.3.53l-.6-1.182a8.547,8.547,0,0,0,1.281-.518c1.828-.926,1.869-2.335.734-4.577-1.275-2.515-2.812-3.069-6.382-1.252-4.2,2.131-4.373,3.994-3.266,6.178.926,1.828,1.892,2.539,3.575,2.416Z" transform="translate(-365.688 -180.17)"/><path class="d" d="M816.413,345.955c-1.217-.1-2.614-1.007-3.831-3.1-1.467-2.515-1.543-4.169.507-5.368,1.712-1,3.144-.943,5.421,2.958a21.266,21.266,0,0,1,1.619,3.237l1.491-.868a10.671,10.671,0,0,0,1.6-1.095c1.089-.908,1.351-2.3.239-4.21-1.258-2.154-2.451-2.859-4.2-1.834a7.53,7.53,0,0,0-1.066.757l-.693-1.188a7.373,7.373,0,0,1,1.147-.8c2.376-1.386,4.2-.378,5.858,2.457,1.479,2.533,1.339,4.419-.262,5.788a11.462,11.462,0,0,1-1.77,1.223l-3.4,1.986c-1.427.833-2.358,1.456-3.208,2.038l-.67-1.147c.46-.32.85-.576,1.223-.821Zm-2.737-3.581c1.246,2.131,2.969,3.336,4.46,2.469l1.048-.611a20.767,20.767,0,0,0-1.642-3.226c-1.788-3.057-2.579-3.028-3.744-2.346-1.368.8-1.182,1.9-.122,3.715Z" transform="translate(-370.068 -188.686)"/><path class="d" d="M835.758,366.389c3.907-2.7,6.382-1.945,8.623,1.293a9.582,9.582,0,0,1,1.415,2.987L849.8,367.9l.78,1.13-10.941,7.558c-1.438,1-2.393,1.741-3.255,2.416l-.74-1.071c.536-.454,1.048-.862,1.648-1.3a4,4,0,0,1-4.256-1.986c-1.933-2.8-1.869-5.077,2.731-8.256Zm4.018,8.437,4.961-3.43a7.91,7.91,0,0,0-1.333-2.958c-1.8-2.609-3.587-3.185-6.865-.92-3.872,2.673-3.959,4.268-2.4,6.527C835.5,376.019,837.36,376.491,839.776,374.826Z" transform="translate(-378.559 -201.602)"/><path class="d" d="M853.179,397.139l.082,1.258c-1.881.378-3.034-.443-4.658-2.574-2.277-2.981-2.219-5.368,2.137-8.687,3.8-2.894,6.044-2.527,8.332.472,2.131,2.795,1.916,5.013-.675,6.987a17.791,17.791,0,0,1-2.713,1.747l-5.38-7.057c-2.486,2.306-2.242,3.82-.687,5.858,1.269,1.665,2.108,2.259,3.569,1.991Zm-2-8.612,4.693,6.149a15.23,15.23,0,0,0,1.735-1.176c1.945-1.485,2.084-3.028.477-5.141-1.793-2.352-3.307-2.574-6.387-.227Z" transform="translate(-384.941 -210.128)"/><path class="d" d="M874.948,398.07l-11.273,9.206a1.466,1.466,0,0,0-.233,2.294,2.344,2.344,0,0,0,1.217.9l-.681,1.007a3.278,3.278,0,0,1-1.648-1.24,2.5,2.5,0,0,1,.4-3.965l11.343-9.264.868,1.066Z" transform="translate(-390.964 -215.082)"/><path class="d" d="M885.769,418.238l1.555,1.735,2.358-2.114.914,1.025L888.238,421,891.83,425l-.92.827-3.587-4.006-6.265,5.607a1.89,1.89,0,0,0-.116,3.045,2.593,2.593,0,0,0,2.614,1.1l-.134,1.211a3.711,3.711,0,0,1-3.494-1.56c-1.77-1.98-1.223-3.534.163-4.775l6.318-5.654-1.555-1.735.92-.827Z" transform="translate(-398.182 -223.792)"/><path class="d" d="M898.047,448.456l.221,1.24c-1.823.588-3.063-.093-4.92-2.026-2.6-2.708-2.812-5.083,1.135-8.874,3.447-3.307,5.718-3.2,8.326-.472,2.434,2.539,2.475,4.763.122,7.022a18.457,18.457,0,0,1-2.5,2.044l-6.149-6.4c-2.213,2.574-1.793,4.047-.023,5.9,1.45,1.514,2.347,2.009,3.773,1.578Zm-2.964-8.332,5.357,5.578a15.055,15.055,0,0,0,1.6-1.368c1.764-1.694,1.729-3.243-.111-5.159-2.05-2.137-3.581-2.184-6.37.495Z" transform="translate(-403.461 -231.493)"/><path class="d" d="M914.705,464.287c.774-.8.716-1.607-.378-2.76l-2.294-2.381c-1.176-1.264-1.63-2.841.588-5.13,1.683-1.741,3.738-1.857,6.486.8,2.463,2.381,2.888,4.35,1.025,6.271a7.138,7.138,0,0,1-1.071.908l-.955-.92a7.22,7.22,0,0,0,.99-.891c1.392-1.438.961-2.766-.833-4.5-2.044-1.974-3.424-2.015-4.687-.71-1.764,1.823-1.188,2.772-.553,3.453l2.282,2.4c1.659,1.735,1.648,3.051.355,4.39-1.537,1.59-3.214,1.654-5.794-.844-1.974-1.91-2.754-3.249-2.143-5.054l1.24.192c-.437,1.456.157,2.451,1.747,3.989,1.974,1.91,2.946,1.875,4,.792Z" transform="translate(-410.174 -238.369)"/><path class="d" d="M928.015,471.716c3.2-3.546,5.38-3.715,8.425-.967,3.063,2.76,3.109,4.932-.082,8.478-3.785,4.2-6.131,3.82-8.815,1.4C924.876,478.232,924.23,475.926,928.015,471.716Zm7.319,6.591c2.678-2.975,2.684-4.478.279-6.644s-3.9-2-6.58.972c-3.15,3.494-2.777,5.176-.67,7.074s3.82,2.09,6.97-1.4Z" transform="translate(-417.626 -245.093)"/><path class="d" d="M947.7,485.834c1.083-1.281,1.753-2.184,2.323-3l1,.844a20.66,20.66,0,0,1-1.444,1.892,3.907,3.907,0,0,1,4.827.6,6.853,6.853,0,0,1,1.479,1.642l-.937.856a6.8,6.8,0,0,0-1.368-1.555c-2.207-1.863-4.2-1.135-6.1,1.124l-4.5,5.322-1.048-.885,5.77-6.836Z" transform="translate(-424.548 -250.932)"/><path class="d" d="M959.846,499.021c2.97-3.738,5.141-4.035,8.35-1.485,3.226,2.568,3.406,4.734.437,8.472-3.523,4.431-5.887,4.186-8.711,1.939-2.807-2.23-3.6-4.5-.076-8.926Zm7.709,6.131c2.492-3.138,2.4-4.635-.128-6.649s-4.012-1.764-6.5,1.374c-2.929,3.686-2.457,5.339-.233,7.1s3.942,1.852,6.871-1.828Z" transform="translate(-431.052 -256.381)"/><path class="d" d="M987.964,520.6c2.766-3.866,5.345-3.994,8.548-1.7a9.718,9.718,0,0,1,2.341,2.335l2.83-3.959,1.118.8L995.061,528.9c-1.019,1.421-1.665,2.445-2.242,3.377l-1.06-.757c.349-.611.693-1.165,1.106-1.788a4,4,0,0,1-4.676-.425c-2.766-1.98-3.476-4.146-.227-8.693Zm6.632,6.58,3.511-4.909a7.9,7.9,0,0,0-2.259-2.329c-2.574-1.846-4.454-1.782-6.772,1.456-2.737,3.825-2.282,5.351-.047,6.952,1.951,1.4,3.855,1.211,5.566-1.176Z" transform="translate(-442.878 -265.323)"/><path class="d" d="M1013.933,543.422l.483,1.165c-1.654.972-3.01.571-5.24-.914-3.121-2.079-3.849-4.349-.815-8.909,2.643-3.977,4.885-4.361,8.029-2.271,2.929,1.951,3.447,4.111,1.642,6.83a17.6,17.6,0,0,1-1.991,2.533l-7.389-4.914c-1.6,2.993-.873,4.344,1.258,5.764,1.747,1.159,2.731,1.45,4.023.722Zm-4.7-7.488,6.44,4.285a15.428,15.428,0,0,0,1.258-1.683c1.357-2.038.984-3.54-1.229-5.013-2.463-1.636-3.965-1.351-6.108,1.869Z" transform="translate(-451.49 -271.156)"/><path class="d" d="M1035.349,536.074l-7.744,12.321a1.462,1.462,0,0,0,.512,2.248,2.324,2.324,0,0,0,1.438.466l-.326,1.17a3.238,3.238,0,0,1-1.956-.652,2.5,2.5,0,0,1-.885-3.884l7.8-12.4Z" transform="translate(-459.59 -272.867)"/><path class="d" d="M1053.633,567.083c.559-.967.3-1.735-1.036-2.585l-2.812-1.747c-1.45-.937-2.271-2.352-.681-5.124,1.205-2.1,3.173-2.719,6.486-.809,2.97,1.706,3.866,3.511,2.533,5.834a7.354,7.354,0,0,1-.815,1.141l-1.153-.664a7.955,7.955,0,0,0,.745-1.106c1-1.735.256-2.917-1.91-4.163-2.463-1.415-3.814-1.118-4.722.454-1.263,2.2-.477,2.975.309,3.482l2.8,1.77c2.032,1.275,2.347,2.556,1.415,4.175-1.1,1.916-2.719,2.387-5.828.6-2.381-1.368-3.464-2.475-3.313-4.379l1.246-.116c-.07,1.52.751,2.341,2.667,3.441,2.381,1.368,3.319,1.1,4.07-.21Z" transform="translate(-467.87 -281.36)"/><path class="d" d="M1074.819,579.208l.594,1.112c-1.549,1.124-2.941.862-5.3-.4-3.307-1.764-4.251-3.953-1.677-8.786,2.248-4.216,4.437-4.809,7.767-3.039,3.1,1.654,3.831,3.756,2.294,6.632a17.6,17.6,0,0,1-1.735,2.713l-7.832-4.175c-1.3,3.133-.448,4.408,1.811,5.613,1.852.984,2.853,1.182,4.076.326Zm-5.4-7,6.824,3.639a15.234,15.234,0,0,0,1.089-1.793c1.153-2.16.635-3.622-1.706-4.868-2.609-1.392-4.082-.961-5.9,2.451l-.309.576Z" transform="translate(-476.777 -286.161)"/><path class="d" d="M1090.248,579.532a37.118,37.118,0,0,0,1.526-3.482l1.17.576a18.135,18.135,0,0,1-.757,1.8c1.234-1.083,2.783-1.124,4.792-.14,2.574,1.263,3.33,2.935,2.754,4.908a11.472,11.472,0,0,1-.8,1.945l-3.412,6.941-1.234-.606,3.371-6.859a10.112,10.112,0,0,0,.7-1.753c.367-1.275-.122-2.55-2.108-3.528-2.574-1.264-4.058-.67-5.351,1.962l-3.371,6.859-1.234-.606,3.942-8.029Z" transform="translate(-484.857 -289.873)"/><path class="d" d="M1114.05,584.426l2.119.966,1.316-2.882,1.252.571-1.316,2.882,4.9,2.23-.512,1.124-4.9-2.23-3.488,7.651a1.892,1.892,0,0,0,1.112,2.836,2.585,2.585,0,0,0,2.836-.041l.367,1.165a3.713,3.713,0,0,1-3.825-.029c-2.416-1.1-2.539-2.742-1.764-4.437l3.517-7.715-2.12-.967.512-1.124Z" transform="translate(-495.477 -292.572)"/><path class="d" d="M1131,591.695l1.264.547-5.06,11.692-1.264-.547Zm2.248-3.494c.536.233.827.559.536,1.223-.268.617-.716.652-1.252.425-.489-.215-.815-.582-.547-1.2a.828.828,0,0,1,1.258-.443Z" transform="translate(-501.416 -294.898)"/><path class="d" d="M1138.082,602.876c1.782-4.4,4.268-5.135,7.913-3.657a9.615,9.615,0,0,1,2.824,1.724l1.828-4.513,1.275.518-4.99,12.326c-.658,1.619-1.042,2.766-1.392,3.808l-1.211-.489c.2-.675.4-1.3.658-2a4,4,0,0,1-4.646.681c-3.15-1.275-4.349-3.22-2.253-8.4Zm7.989,4.844,2.265-5.59a7.972,7.972,0,0,0-2.737-1.735c-2.935-1.188-4.745-.693-6.242,3-1.764,4.361-.967,5.741,1.578,6.772C1143.16,611.068,1144.97,610.445,1146.071,607.72Z" transform="translate(-506.053 -298.387)"/><path class="d" d="M1161.225,613.4c1.642-4.483,3.61-5.45,7.459-4.035,3.872,1.421,4.722,3.418,3.08,7.9-1.945,5.31-4.268,5.828-7.657,4.582-3.365-1.234-4.827-3.133-2.882-8.449Zm9.246,3.389c1.38-3.761.821-5.153-2.219-6.271s-4.367-.408-5.741,3.354c-1.619,4.419-.652,5.84,2.015,6.818s4.326.518,5.945-3.9Z" transform="translate(-515.792 -303.539)"/><path class="d" d="M1198.612,627.518c1,.32,1.456.885,1.118,1.927s-1.031,1.234-2.032.914c-.908-.291-1.45-.885-1.118-1.927A1.413,1.413,0,0,1,1198.612,627.518Z" transform="translate(-530.884 -311.32)"/><path class="d" d="M1231.811,624.39l10.5,2.76-.332,1.264-9.078-2.387-1.665,6.329,6.754,1.776-.338,1.287-6.754-1.776-1.3,4.955,9.077,2.387-.332,1.264-10.5-2.76,3.971-15.092Z" transform="translate(-543.983 -310.067)"/><path class="d" d="M1254.141,638.918c.373-1.636.553-2.742.687-3.738l1.269.291a19.382,19.382,0,0,1-.32,1.933c.949-1.333,2.451-1.735,4.629-1.234,2.789.641,3.918,2.09,3.808,4.146a11.68,11.68,0,0,1-.332,2.073l-1.723,7.534-1.339-.309,1.706-7.447a10.1,10.1,0,0,0,.285-1.869c.064-1.322-.7-2.457-2.859-2.946-2.795-.641-4.1.279-4.757,3.138l-1.706,7.447-1.339-.309,2-8.716Z" transform="translate(-554.139 -314.574)"/><path class="d" d="M1287.79,651.132l2.946-16.222,1.351.245-1.112,6.143c.949-1.176,2.428-1.5,4.28-1.164,3.622.658,4.844,2.51,4,7.185-1,5.5-3.232,6.469-6.853,5.811a8.934,8.934,0,0,1-4.606-2Zm10.108-4.058c.716-3.942-.146-5.211-3.034-5.735-2.865-.518-3.994.507-4.542,3.505l-1.025,5.636a5.92,5.92,0,0,0,3.29,1.427c2.818.512,4.46-.186,5.3-4.839Z" transform="translate(-569.027 -314.461)"/><path class="d" d="M1321.6,658.876c-.827,1.432-2.271,1.945-4.483,1.613-2.812-.419-3.977-1.747-4.047-3.808a11.463,11.463,0,0,1,.175-2.119l1.141-7.651,1.357.2-1.13,7.558a9.771,9.771,0,0,0-.14,1.887c.058,1.328.844,2.387,3.01,2.708,2.835.425,4.023-.6,4.454-3.505l1.13-7.558,1.357.2-1.322,8.845c-.245,1.659-.344,2.777-.4,3.779l-1.31-.2a19.247,19.247,0,0,1,.2-1.974Z" transform="translate(-579.584 -319.474)"/><path class="d" d="M1345.365,661.064c.134-1.112-.407-1.712-1.968-1.968l-3.272-.507c-1.7-.3-3.016-1.275-2.638-4.443.285-2.4,1.852-3.744,5.648-3.29,3.4.408,4.932,1.712,4.617,4.373a6.8,6.8,0,0,1-.3,1.374l-1.316-.157a7.593,7.593,0,0,0,.25-1.31c.239-1.991-.914-2.783-3.389-3.08-2.824-.338-3.948.466-4.163,2.271-.3,2.521.728,2.923,1.648,3.08l3.267.53c2.37.378,3.162,1.432,2.94,3.284-.262,2.2-1.561,3.261-5.124,2.836-2.731-.326-4.157-.92-4.763-2.725l1.1-.594c.536,1.427,1.607,1.857,3.808,2.119,2.731.326,3.482-.291,3.662-1.793Z" transform="translate(-589.5 -321.086)"/><path class="d" d="M1369.151,663.538l1.129.71c-1.019,1.945-2.591,2.5-5.188,2.265-3.179-.285-5.264-1.764-4.757-7.4.431-4.757,2.265-6.178,5.933-5.846,3.319.3,4.961,1.549,4.7,4.379a7.351,7.351,0,0,1-.245,1.38l-1.322-.122a8.7,8.7,0,0,0,.239-1.357c.186-2.044-.984-2.824-3.488-3.051-2.807-.256-4.093.751-4.448,4.745-.425,4.687,1.066,5.828,3.5,6.044,2.044.186,3.156-.25,3.948-1.747Z" transform="translate(-599.3 -322.111)"/><path class="d" d="M1391.938,666.763c-.757.955-2.294,1.607-4.71,1.456-2.906-.18-4.32-1.036-4.175-3.406.122-1.974.967-3.138,5.473-2.859a21.364,21.364,0,0,1,3.587.454l.1-1.718a10.143,10.143,0,0,0-.023-1.939c-.146-1.409-1.159-2.4-3.365-2.539-2.486-.151-3.738.443-3.86,2.469a8.071,8.071,0,0,0,.035,1.31l-1.368-.087a7.178,7.178,0,0,1-.029-1.4c.169-2.742,2.026-3.7,5.3-3.5,2.929.181,4.419,1.345,4.664,3.441a11.722,11.722,0,0,1,.029,2.149l-.245,3.93c-.1,1.648-.1,2.772-.093,3.8l-1.328-.082c-.012-.559-.006-1.025,0-1.467Zm-4.5.279c2.463.151,4.425-.611,4.53-2.335l.076-1.211a20.822,20.822,0,0,0-3.593-.431c-3.534-.221-3.948.454-4.029,1.8C1384.328,666.448,1385.353,666.908,1387.443,667.042Z" transform="translate(-608.817 -322.843)"/><path class="d" d="M1418.287,659.654c.1-4.751,2.154-6.318,6.09-6.236a9.652,9.652,0,0,1,3.249.6l.1-4.868,1.374.029-.268,13.3c-.035,1.747.012,2.958.058,4.053l-1.3-.023c-.058-.7-.087-1.351-.1-2.1a3.994,3.994,0,0,1-4.1,2.294c-3.4-.07-5.211-1.456-5.1-7.045Zm9.194,1.677.122-6.032a8.029,8.029,0,0,0-3.179-.646c-3.167-.064-4.681,1.048-4.763,5.031-.093,4.7,1.141,5.706,3.89,5.764,2.4.047,3.866-1.182,3.93-4.111Z" transform="translate(-623.538 -320.41)"/><path class="d" d="M1452.671,667.042l1.054.693c-.827,1.729-2.172,2.16-4.85,2.178-3.75.029-5.625-1.45-5.665-6.917-.035-4.775,1.607-6.347,5.38-6.376,3.517-.029,5.159,1.473,5.182,4.734a17.852,17.852,0,0,1-.233,3.214l-8.874.07c.349,3.371,1.706,4.088,4.268,4.064C1451.029,668.684,1452.008,668.376,1452.671,667.042Zm-8.088-3.569,7.732-.058a15.067,15.067,0,0,0,.1-2.1c-.018-2.446-1.17-3.482-3.825-3.464-2.958.023-4.041,1.1-4.012,4.967v.652Z" transform="translate(-633.951 -323.53)"/><path class="d" d="M1468.868,648.87l.419,14.551a1.464,1.464,0,0,0,1.677,1.584,2.309,2.309,0,0,0,1.456-.413l.384,1.153a3.269,3.269,0,0,1-1.986.547,2.5,2.5,0,0,1-2.9-2.737l-.419-14.644,1.374-.041Z" transform="translate(-644.098 -320.293)"/><path class="d" d="M1488.62,653.677l2.323-.134-.18-3.162,1.374-.081.181,3.162,5.368-.309.07,1.234-5.368.309.483,8.4c.064,1.165.588,2.09,2.306,1.991a2.582,2.582,0,0,0,2.486-1.357l.868.862a3.7,3.7,0,0,1-3.395,1.758c-2.649.151-3.523-1.24-3.633-3.1l-.489-8.466-2.323.134-.07-1.234Z" transform="translate(-652.921 -320.89)"/><path class="d" d="M1518.674,663.786l1.1.611c-.7,1.788-2.009,2.312-4.681,2.527-3.738.3-5.712-1.036-6.154-6.492-.384-4.757,1.141-6.446,4.9-6.748,3.505-.285,5.252,1.095,5.514,4.344a17.506,17.506,0,0,1,0,3.226l-8.845.716c.6,3.342,2,3.953,4.553,3.744,2.09-.169,3.04-.547,3.6-1.927Zm-8.326-2.975,7.709-.623a14.263,14.263,0,0,0-.052-2.1c-.2-2.44-1.421-3.389-4.064-3.179-2.946.239-3.954,1.392-3.639,5.246l.052.652Z" transform="translate(-661.384 -322.289)"/><path class="d" d="M1541.274,660.969c-.116-1.112-.774-1.578-2.358-1.485l-3.3.233c-1.723.087-3.22-.571-3.558-3.744-.256-2.411.972-4.064,4.775-4.466,3.406-.361,5.188.576,5.473,3.237a7.061,7.061,0,0,1,.006,1.4l-1.322.14a8.686,8.686,0,0,0-.047-1.328c-.21-1.991-1.508-2.51-3.983-2.248-2.824.3-3.744,1.333-3.558,3.138.268,2.527,1.362,2.69,2.294,2.638l3.3-.21c2.393-.157,3.4.693,3.593,2.55.233,2.2-.8,3.529-4.367,3.907-2.731.291-4.262.029-5.252-1.6l.943-.827c.838,1.269,1.98,1.456,4.181,1.223,2.731-.291,3.331-1.054,3.173-2.562Z" transform="translate(-671.052 -321.364)"/><path class="d" d="M1555.4,655.756c-.617-4.734.675-6.5,4.74-7.034,4.087-.536,5.77.844,6.387,5.578.734,5.613-1.083,7.139-4.664,7.61C1558.3,662.376,1556.129,661.369,1555.4,655.756Zm9.77-1.275c-.518-3.971-1.659-4.949-4.868-4.53s-4.058,1.659-3.54,5.63c.611,4.664,2.125,5.479,4.943,5.106S1565.771,659.145,1565.166,654.481Z" transform="translate(-680.754 -320.186)"/><path class="d" d="M1580.224,649.951c-.256-1.659-.495-2.754-.734-3.727l1.287-.2a20.826,20.826,0,0,1,.477,2.329,3.914,3.914,0,0,1,3.627-3.243,6.549,6.549,0,0,1,2.207-.029l.029,1.269a6.847,6.847,0,0,0-2.073.012c-2.853.437-3.61,2.416-3.162,5.339l1.054,6.882-1.357.21-1.357-8.839Z" transform="translate(-690.88 -318.678)"/><path class="d" d="M1597.127,649.6c-.821-4.7.4-6.527,4.437-7.226,4.064-.71,5.8.6,6.62,5.3.972,5.578-.78,7.185-4.338,7.8C1600.312,656.089,1598.093,655.174,1597.127,649.6Zm9.706-1.689c-.687-3.948-1.869-4.879-5.054-4.32s-3.983,1.828-3.3,5.776c.809,4.635,2.358,5.38,5.159,4.9s4.006-1.712,3.2-6.352Z" transform="translate(-698.147 -317.502)"/><path class="d" d="M1632.224,639.435c-.972-4.652.681-6.638,4.53-7.447a9.627,9.627,0,0,1,3.3-.146l-1-4.763,1.345-.279,2.731,13.019c.361,1.712.676,2.882.967,3.936l-1.275.268c-.209-.67-.39-1.3-.565-2.02a4,4,0,0,1-3.482,3.156c-3.331.7-5.409-.245-6.556-5.718Zm9.334-.437-1.24-5.9a7.938,7.938,0,0,0-3.243.087c-3.1.652-4.326,2.073-3.505,5.974.967,4.606,2.4,5.3,5.089,4.74,2.347-.495,3.505-2.02,2.9-4.891Z" transform="translate(-712.796 -311.074)"/><path class="d" d="M1666.726,639.64l1.182.443c-.425,1.869-1.648,2.585-4.256,3.2-3.651.85-5.805-.175-7.051-5.508-1.083-4.652.169-6.545,3.843-7.4,3.424-.8,5.357.3,6.1,3.482a17.9,17.9,0,0,1,.483,3.191l-8.641,2.015c1.083,3.214,2.568,3.61,5.06,3.028,2.044-.477,2.923-1,3.278-2.44Zm-8.676-1.706,7.529-1.758a16.077,16.077,0,0,0-.361-2.067c-.559-2.381-1.9-3.144-4.489-2.539-2.882.67-3.7,1.962-2.824,5.729l.146.635Z" transform="translate(-722.935 -312.461)"/><path class="d" d="M1677.958,619.146l3.546,14.114a1.461,1.461,0,0,0,1.98,1.182,2.307,2.307,0,0,0,1.333-.716l.623,1.042a3.262,3.262,0,0,1-1.823.961,2.5,2.5,0,0,1-3.418-2.044l-3.569-14.207,1.333-.338Z" transform="translate(-731.459 -307.874)"/><path class="d" d="M1711.689,627.261c-.3-1.077-1.025-1.432-2.574-1.071l-3.214.774c-1.683.373-3.272-.029-4.128-3.1-.652-2.335.291-4.169,3.971-5.188,3.3-.92,5.211-.291,5.933,2.288a7.122,7.122,0,0,1,.239,1.386l-1.281.355a7.744,7.744,0,0,0-.268-1.3c-.536-1.927-1.9-2.224-4.3-1.56-2.737.763-3.476,1.933-2.987,3.686.681,2.445,1.787,2.428,2.7,2.224L1709,625c2.335-.553,3.464.122,3.965,1.916.594,2.131-.2,3.61-3.656,4.571-2.649.74-4.2.734-5.444-.71l.792-.972c1.036,1.112,2.2,1.106,4.326.512,2.649-.74,3.109-1.59,2.7-3.051Z" transform="translate(-741.883 -307.512)"/><path class="d" d="M1735.173,621.037l1.205.367c-.309,1.892-1.479,2.684-4.047,3.453-3.593,1.077-5.805.186-7.377-5.054-1.374-4.571-.239-6.545,3.377-7.628,3.371-1.013,5.368-.029,6.306,3.092a18.684,18.684,0,0,1,.681,3.15l-8.5,2.55c1.287,3.138,2.783,3.447,5.24,2.708,2.009-.606,2.859-1.176,3.121-2.638Zm-8.763-1.165,7.406-2.224a14.971,14.971,0,0,0-.489-2.044c-.7-2.341-2.1-3.016-4.641-2.253-2.836.85-3.575,2.189-2.463,5.893l.186.623Z" transform="translate(-751.41 -304.804)"/><path class="d" d="M1747.1,610.341c-.512-1.6-.926-2.638-1.322-3.563l1.24-.4a17.4,17.4,0,0,1,.71,1.828c.134-1.636,1.217-2.742,3.348-3.43,2.725-.879,4.437-.21,5.392,1.613a11.624,11.624,0,0,1,.774,1.951l2.376,7.36-1.31.419-2.346-7.272a9.764,9.764,0,0,0-.71-1.753c-.623-1.17-1.863-1.747-3.965-1.071-2.725.879-3.383,2.341-2.48,5.13l2.347,7.272-1.31.419-2.748-8.513Z" transform="translate(-760.346 -301.712)"/><path class="d" d="M1767.246,598.512l2.2-.751-1.025-3,1.3-.443,1.025,3,5.089-1.741.4,1.17-5.089,1.741,2.719,7.954a1.89,1.89,0,0,0,2.754,1.3,2.59,2.59,0,0,0,2.032-1.974l1.065.594a3.714,3.714,0,0,1-2.8,2.609c-2.51.856-3.727-.25-4.332-2.015l-2.742-8.018-2.2.751-.4-1.17Z" transform="translate(-769.311 -297.505)"/><path class="d" d="M1785.308,587.569c.547-.192.984-.151,1.223.53.227.635-.076.967-.629,1.159a.834.834,0,0,1-1.217-.507c-.239-.681.116-1,.617-1.182Zm.734,4.088,1.293-.46,4.256,12.006-1.293.46Z" transform="translate(-776.566 -294.644)"/><path class="d" d="M1798.811,591.591c-1.648-4.454-.309-6.667,3.383-8.029a9.6,9.6,0,0,1,3.243-.629l-1.688-4.565,1.287-.477,4.617,12.472c.606,1.636,1.095,2.748,1.537,3.75l-1.223.454c-.309-.629-.576-1.229-.856-1.916a4,4,0,0,1-2.975,3.633c-3.191,1.182-5.38.553-7.325-4.687Zm9.165-1.8-2.1-5.654a8.1,8.1,0,0,0-3.2.559c-2.97,1.1-3.971,2.69-2.591,6.422,1.63,4.414,3.15,4.891,5.729,3.936,2.248-.833,3.167-2.515,2.149-5.264Z" transform="translate(-782.208 -290.642)"/><path class="d" d="M1822.166,586.462c-1.741-4.443-.914-6.475,2.906-7.971,3.837-1.5,5.805-.576,7.546,3.872,2.067,5.269.67,7.2-2.69,8.513C1826.586,592.186,1824.233,591.732,1822.166,586.462Zm9.176-3.6c-1.461-3.732-2.8-4.408-5.817-3.226s-3.54,2.591-2.079,6.318c1.718,4.379,3.383,4.8,6.032,3.767s3.581-2.48,1.863-6.859Z" transform="translate(-791.892 -290.614)"/><path class="d" d="M1858.328,575.368c.967-.4,1.677-.274,2.1.739s.018,1.607-.949,2.015a1.412,1.412,0,0,1-2.1-.739C1856.954,576.369,1857.449,575.735,1858.328,575.368Z" transform="translate(-806.9 -289.5)"/><path class="d" d="M1884.16,547.372l9.893-4.472.536,1.188-8.553,3.866,2.7,5.962,6.37-2.876.547,1.211-6.37,2.876,2.114,4.67,8.553-3.866.536,1.188-9.893,4.472Z" transform="translate(-818.152 -276.025)"/><path class="d" d="M1910.27,545.849c-.716-1.514-1.258-2.5-1.77-3.366l1.182-.559c.349.582.652,1.106.943,1.718-.076-1.636.856-2.876,2.876-3.831,2.591-1.223,4.373-.78,5.555.9a11.257,11.257,0,0,1,1.019,1.834l3.3,6.993-1.24.588-3.266-6.906a10.493,10.493,0,0,0-.932-1.648c-.769-1.077-2.073-1.5-4.07-.547-2.591,1.223-3.051,2.754-1.8,5.409l3.266,6.906-1.24.588-3.82-8.088Z" transform="translate(-828.32 -274.444)"/><path class="d" d="M1944.919,536.484l-7.389-14.737,1.229-.617,2.795,5.578c.052-1.508,1.036-2.655,2.725-3.505,3.29-1.648,5.386-.9,7.511,3.342,2.5,5,1.3,7.109-1.991,8.763a8.941,8.941,0,0,1-4.885,1.17Zm5.642-9.316c-1.793-3.581-3.243-4.076-5.869-2.766-2.6,1.3-2.894,2.807-1.526,5.531l2.568,5.118a5.867,5.867,0,0,0,3.488-.838c2.562-1.287,3.453-2.824,1.333-7.051Z" transform="translate(-840.447 -266.931)"/><path class="d" d="M1976.016,520.2c.175,1.642-.693,2.906-2.673,3.942-2.521,1.31-4.245.926-5.514-.7a11.421,11.421,0,0,1-1.1-1.817l-3.569-6.859,1.217-.635,3.529,6.778a9.688,9.688,0,0,0,1,1.607c.827,1.036,2.084,1.432,4.029.425,2.539-1.322,2.9-2.853,1.543-5.456l-3.529-6.778,1.217-.635L1976.3,518c.774,1.485,1.351,2.445,1.9,3.29l-1.176.611a18.245,18.245,0,0,1-1-1.712Z" transform="translate(-851.154 -262.311)"/><path class="d" d="M1997.486,508.594c-.53-.984-1.316-1.17-2.742-.477l-2.969,1.461c-1.561.734-3.2.693-4.71-2.119-1.147-2.131-.635-4.128,2.731-5.939,3.016-1.625,5.019-1.432,6.289.926a6.816,6.816,0,0,1,.542,1.3l-1.17.629a8.091,8.091,0,0,0-.547-1.211c-.949-1.764-2.347-1.753-4.542-.571-2.5,1.345-2.964,2.649-2.1,4.251,1.205,2.236,2.277,1.974,3.121,1.572l2.981-1.444c2.155-1.054,3.406-.646,4.291,1,1.048,1.951.6,3.563-2.562,5.264-2.422,1.3-3.93,1.642-5.468.507l.559-1.124c1.258.856,2.382.594,4.332-.454,2.422-1.3,2.684-2.236,1.968-3.569Z" transform="translate(-860.908 -258.296)"/><path class="d" d="M2019.163,496.934l1.333-.029c.221,2.184-.78,3.511-3.074,4.751-2.812,1.514-5.363,1.432-8.047-3.552-2.259-4.2-1.514-6.4,1.723-8.146,2.935-1.578,4.99-1.444,6.335,1.06a7.414,7.414,0,0,1,.559,1.287l-1.17.629a8.545,8.545,0,0,0-.547-1.264c-.972-1.805-2.375-1.817-4.594-.623-2.48,1.333-3,2.882-1.1,6.411,2.23,4.14,4.1,4.274,6.254,3.115,1.8-.972,2.492-1.951,2.329-3.633Z" transform="translate(-869.915 -253.478)"/><path class="d" d="M2040.024,486.262c-.07,1.217-.955,2.632-3.016,3.9-2.48,1.52-4.134,1.63-5.374-.39-1.036-1.689-1.013-3.121,2.841-5.485a21.4,21.4,0,0,1,3.2-1.689l-.9-1.467a10.475,10.475,0,0,0-1.13-1.578c-.932-1.071-2.329-1.3-4.216-.146-2.125,1.3-2.807,2.51-1.747,4.239a7.421,7.421,0,0,0,.78,1.048l-1.17.716a7.125,7.125,0,0,1-.827-1.13c-1.438-2.341-.466-4.192,2.335-5.91,2.5-1.531,4.39-1.438,5.793.14a11.758,11.758,0,0,1,1.258,1.741l2.055,3.354c.862,1.409,1.508,2.329,2.1,3.162l-1.13.693c-.332-.454-.594-.838-.844-1.205Zm-3.523,2.812c2.1-1.293,3.272-3.045,2.37-4.513l-.635-1.031a20.5,20.5,0,0,0-3.185,1.706c-3.016,1.852-2.969,2.643-2.265,3.791C2033.614,490.379,2034.714,490.169,2036.5,489.074Z" transform="translate(-878.159 -248.611)"/><path class="d" d="M2059.223,464.041c-2.667-3.93-1.9-6.4,1.363-8.612a9.526,9.526,0,0,1,3-1.386l-2.737-4.029,1.135-.774,7.47,11c.984,1.444,1.718,2.411,2.393,3.272l-1.077.734c-.448-.542-.856-1.054-1.292-1.654a4,4,0,0,1-2.021,4.245C2064.644,468.752,2062.361,468.67,2059.223,464.041Zm8.466-3.948-3.389-4.99a7.914,7.914,0,0,0-2.969,1.31c-2.62,1.782-3.214,3.563-.972,6.859,2.644,3.9,4.233,3.994,6.51,2.451,1.985-1.351,2.475-3.2.827-5.63Z" transform="translate(-890.609 -236.9)"/><path class="d" d="M2089.676,451.472l1.258-.041c.32,1.886-.53,3.016-2.708,4.577-3.045,2.184-5.427,2.061-8.617-2.387-2.783-3.878-2.347-6.114.716-8.309,2.859-2.05,5.066-1.77,6.964.879a17.722,17.722,0,0,1,1.665,2.76l-7.208,5.17c2.236,2.556,3.75,2.352,5.834.862C2089.28,453.761,2089.9,452.945,2089.676,451.472Zm-8.664,1.747,6.283-4.507a15.453,15.453,0,0,0-1.13-1.77c-1.427-1.986-2.964-2.172-5.118-.623-2.4,1.724-2.667,3.232-.413,6.376l.378.53Z" transform="translate(-899.023 -234.696)"/><path class="d" d="M2091.256,429.83l8.687,11.68a1.465,1.465,0,0,0,2.283.332,2.307,2.307,0,0,0,.955-1.176l.972.728a3.284,3.284,0,0,1-1.316,1.59,2.5,2.5,0,0,1-3.942-.576l-8.746-11.75,1.1-.821Z" transform="translate(-904.202 -228.792)"/><path class="d" d="M2111.695,420.878l1.84-1.432-1.945-2.5,1.083-.844,1.945,2.5,4.245-3.3.757.972-4.245,3.3,5.165,6.638a1.89,1.89,0,0,0,3.028.326,2.589,2.589,0,0,0,1.281-2.527l1.2.215a3.711,3.711,0,0,1-1.8,3.377c-2.1,1.63-3.61.978-4.751-.495l-5.205-6.69-1.84,1.432Z" transform="translate(-913.158 -222.722)"/><path class="d" d="M2142.307,411.049l1.258-.111c.425,1.869-.367,3.039-2.451,4.722-2.923,2.347-5.31,2.352-8.74-1.916-2.993-3.721-2.678-5.974.262-8.338,2.742-2.2,4.961-2.044,7,.5a17.987,17.987,0,0,1,1.811,2.667l-6.917,5.561c2.37,2.428,3.878,2.149,5.875.542,1.636-1.31,2.207-2.16,1.9-3.622Zm-8.559,2.213,6.026-4.844a15.08,15.08,0,0,0-1.223-1.706c-1.531-1.9-3.08-2.009-5.147-.344-2.306,1.852-2.486,3.371-.07,6.387l.407.507Z" transform="translate(-920.963 -217.947)"/><path class="d" d="M2159.471,395.953c-.716-.862-1.52-.885-2.783.07l-2.62,2.02c-1.386,1.031-3,1.31-5.036-1.147-1.549-1.863-1.438-3.924,1.5-6.364,2.638-2.184,4.641-2.4,6.353-.338a6.94,6.94,0,0,1,.786,1.165l-1.019.85a8.555,8.555,0,0,0-.774-1.083c-1.281-1.543-2.644-1.258-4.565.338-2.189,1.817-2.382,3.185-1.223,4.582,1.619,1.956,2.626,1.485,3.371.926l2.638-2c1.9-1.461,3.214-1.3,4.408.128,1.415,1.706,1.292,3.377-1.473,5.671-2.114,1.753-3.529,2.381-5.258,1.578l.326-1.211c1.4.594,2.451.111,4.157-1.3,2.114-1.753,2.189-2.725,1.223-3.889Z" transform="translate(-928.386 -211.637)"/><path class="d" d="M2168.694,383.656c-3.1-3.628-2.981-5.817.134-8.478,3.133-2.678,5.3-2.44,8.4,1.188,3.674,4.3,2.987,6.58.239,8.926-2.725,2.329-5.1,2.673-8.774-1.63Zm7.488-6.4c-2.6-3.045-4.087-3.243-6.55-1.141s-2.5,3.6.1,6.649c3.057,3.575,4.769,3.43,6.929,1.584s2.573-3.517-.483-7.092Z" transform="translate(-936.066 -205.209)"/><path class="d" d="M2185.746,365.376a37.922,37.922,0,0,0-2.626-2.748l.984-.862a19.321,19.321,0,0,1,1.654,1.712,3.9,3.9,0,0,1,1.316-4.681,6.735,6.735,0,0,1,1.846-1.217l.7,1.054a6.74,6.74,0,0,0-1.741,1.124c-2.172,1.9-1.747,3.977.2,6.2l4.588,5.24-1.037.908-5.892-6.725Z" transform="translate(-943.039 -198.61)"/><path class="d" d="M2200.779,355.716c-3.185-3.558-3.115-5.747-.064-8.484,3.069-2.754,5.235-2.568,8.425.99,3.779,4.216,3.144,6.5.454,8.914C2206.922,359.53,2204.558,359.931,2200.779,355.716Zm7.336-6.574c-2.673-2.981-4.169-3.144-6.58-.984s-2.411,3.662.262,6.644c3.138,3.505,4.85,3.319,6.964,1.421s2.486-3.575-.652-7.08Z" transform="translate(-949.426 -193.497)"/><path class="d" d="M2227.534,328.226c-3.238-3.476-2.847-6.038.035-8.716a9.636,9.636,0,0,1,2.754-1.828L2227,314.117l1.007-.937,9.06,9.735c1.188,1.281,2.067,2.119,2.865,2.871l-.955.891c-.53-.466-1.007-.908-1.531-1.438a3.991,3.991,0,0,1-1.351,4.5c-2.486,2.317-4.757,2.579-8.565-1.508Zm7.767-5.194-4.111-4.414a7.886,7.886,0,0,0-2.731,1.747c-2.317,2.16-2.632,4.006.081,6.923,3.2,3.447,4.792,3.3,6.807,1.432,1.759-1.636,1.957-3.54-.041-5.689Z" transform="translate(-960.64 -180.063)"/><path class="d" d="M2255.44,310.984l1.24-.215c.582,1.828-.1,3.063-2.044,4.909-2.713,2.585-5.089,2.795-8.868-1.165-3.3-3.453-3.173-5.724-.442-8.326,2.544-2.428,4.769-2.457,7.022-.1a17.655,17.655,0,0,1,2.032,2.5l-6.422,6.125c2.568,2.218,4.041,1.811,5.9.041,1.52-1.444,2.015-2.341,1.59-3.767Zm-8.338,2.935,5.6-5.334a15.056,15.056,0,0,0-1.363-1.6c-1.688-1.77-3.237-1.741-5.159.093-2.143,2.044-2.2,3.569.478,6.37l.448.472Z" transform="translate(-968.172 -176.371)"/><path class="d" d="M2253.83,289.7l10.143,10.44a1.465,1.465,0,0,0,2.306.035,2.313,2.313,0,0,0,.792-1.293l1.06.594a3.266,3.266,0,0,1-1.095,1.747,2.5,2.5,0,0,1-3.983-.058l-10.213-10.5.984-.955Z" transform="translate(-972.164 -170.255)"/><path class="d" d="M2288.479,277.489c-.792-.792-1.6-.739-2.766.332l-2.422,2.259c-1.287,1.153-2.865,1.584-5.124-.675-1.712-1.712-1.793-3.773.9-6.475,2.422-2.422,4.4-2.818,6.288-.926a7.142,7.142,0,0,1,.891,1.089l-.937.937a7.884,7.884,0,0,0-.874-1c-1.415-1.415-2.748-1-4.513.757-2.009,2.009-2.073,3.395-.792,4.676,1.793,1.793,2.748,1.234,3.441.606l2.434-2.242c1.764-1.63,3.08-1.6,4.4-.28,1.566,1.566,1.6,3.243-.937,5.782-1.945,1.945-3.3,2.7-5.089,2.061l.216-1.234c1.45.46,2.451-.116,4.018-1.683,1.945-1.945,1.927-2.917.856-3.983Z" transform="translate(-982.236 -162.364)"/><path class="d" d="M2306.07,260.7l1.234-.262c.646,1.805,0,3.063-1.863,4.978-2.62,2.684-4.984,2.981-8.9-.844-3.418-3.331-3.383-5.607-.745-8.309,2.457-2.521,4.676-2.626,7.01-.355a18.141,18.141,0,0,1,2.125,2.428l-6.2,6.352c2.644,2.125,4.1,1.659,5.893-.175,1.461-1.5,1.927-2.411,1.45-3.826Zm-8.227,3.232,5.4-5.537a14.912,14.912,0,0,0-1.421-1.549c-1.752-1.706-3.3-1.625-5.153.28-2.067,2.119-2.061,3.651.7,6.347l.466.454Z" transform="translate(-989.31 -155.459)"/><path class="d" d="M2311.055,245.094c-1.217-1.153-2.073-1.875-2.865-2.5l.9-.943a18.246,18.246,0,0,1,1.5,1.264c-.664-1.5-.244-2.993,1.3-4.612,1.974-2.079,3.8-2.306,5.508-1.165a11.81,11.81,0,0,1,1.619,1.339l5.607,5.322-.943,1-5.537-5.258a9.983,9.983,0,0,0-1.462-1.2c-1.106-.728-2.469-.646-3.994.961-1.974,2.079-1.852,3.674.28,5.695l5.537,5.258-.943,1-6.486-6.16Z" transform="translate(-995.285 -148.014)"/><path class="d" d="M2323.255,225.713l1.583-1.712-2.329-2.149.932-1.007,2.329,2.149,3.651-3.954.908.838-3.651,3.954,6.172,5.706a1.9,1.9,0,0,0,3.045-.169,2.585,2.585,0,0,0,.85-2.7l1.223.017a3.711,3.711,0,0,1-1.229,3.628c-1.805,1.951-3.4,1.549-4.769.285l-6.224-5.759-1.584,1.712Z" transform="translate(-1001.267 -140.737)"/><path class="d" d="M2333.345,209.156c.39-.431.8-.6,1.327-.116.5.454.39.891,0,1.322a.9.9,0,1,1-1.327-1.205Zm2.579,3.255.926-1.019,9.433,8.565-.926,1.019Z" transform="translate(-1005.657 -136.438)"/><path class="d" d="M2350.036,204.427c-3.558-3.15-3.418-5.729-.809-8.676a9.542,9.542,0,0,1,2.562-2.085l-3.645-3.226.908-1.031,9.957,8.81c1.31,1.159,2.259,1.91,3.127,2.579l-.862.978c-.571-.413-1.089-.809-1.659-1.287a4.006,4.006,0,0,1-.908,4.612c-2.253,2.544-4.483,3.028-8.67-.675Zm7.226-5.922-4.519-3.994a7.925,7.925,0,0,0-2.55,2c-2.1,2.37-2.23,4.245.751,6.882,3.523,3.115,5.089,2.824,6.912.769,1.59-1.8,1.607-3.709-.594-5.654Z" transform="translate(-1011.628 -128.36)"/><path class="d" d="M2366.385,188.647c-3.645-3.086-3.872-5.264-1.223-8.4,2.667-3.144,4.839-3.261,8.478-.169,4.32,3.657,4,6.015,1.665,8.769-2.317,2.737-4.605,3.453-8.926-.2Zm6.37-7.517c-3.057-2.591-4.559-2.55-6.649-.082s-1.886,3.959,1.17,6.545c3.587,3.039,5.258,2.626,7.092.454s1.974-3.884-1.613-6.923Z" transform="translate(-1018.341 -123.521)"/><path class="d" d="M2391.761,163.646c.652-.821,1.333-1.054,2.2-.373s.8,1.4.146,2.224a1.5,1.5,0,1,1-2.341-1.852Z" transform="translate(-1029.998 -117.275)"/></g></g></g></g></svg>