<svg xmlns="http://www.w3.org/2000/svg" xmlns:xlink="http://www.w3.org/1999/xlink" width="355" height="378" viewBox="0 0 355 378"><defs><style>.a{fill:none;}.b{clip-path:url(#a);}.c{fill:#1d3b6d;}.d{fill:#f9bdb8;}</style><clipPath id="a"><rect class="a" width="355" height="378" transform="translate(1565 4708)"/></clipPath></defs><g class="b" transform="translate(-1565 -4708)"><g transform="translate(-20 1839.623)"><g transform="translate(1693.037 2897.94)"><path class="c" d="M310.01,286.562a6.428,6.428,0,0,1-3.7-1.156c-9.8-6.725-3.389-21.989,4.729-41.325,3.047-7.277,7.855-18.731,8.564-24.2-4.86,2.653-13.819,11.244-19.493,16.709-15.132,14.528-27.086,26.009-36.859,19.283-9.8-6.725-3.389-21.989,4.729-41.325,3.047-7.277,7.855-18.705,8.564-24.2-4.86,2.653-13.792,11.244-19.493,16.709-15.132,14.528-27.059,26.009-36.859,19.283s-3.389-21.989,4.729-41.325c3.047-7.277,7.855-18.705,8.564-24.2-4.86,2.653-13.792,11.244-19.493,16.709-15.132,14.528-27.059,26.009-36.859,19.309-9.8-6.725-3.389-21.989,4.729-41.325,3.047-7.277,7.855-18.705,8.564-24.2-4.86,2.653-13.792,11.244-19.467,16.709-15.132,14.528-27.059,26.009-36.859,19.309-9.8-6.725-3.389-21.989,4.729-41.325,3.047-7.277,7.855-18.705,8.564-24.2-4.86,2.653-13.792,11.244-19.493,16.709-15.132,14.528-27.059,26.009-36.859,19.283s-3.389-21.989,4.729-41.325c3.047-7.277,7.855-18.705,8.564-24.2C99.471,74.947,90.539,83.538,84.838,89c-15.132,14.528-27.059,26.009-36.859,19.309-9.8-6.725-3.389-21.989,4.729-41.325,3.047-7.277,7.855-18.705,8.564-24.2C56.412,45.444,47.48,54.035,41.779,59.5,26.647,74.027,14.72,85.508,4.921,78.809c-9.8-6.725-3.389-21.989,4.729-41.325,3.468-8.249,9.169-21.831,8.643-26.061a6.625,6.625,0,0,1,8.3-10.272c9.8,6.725,3.389,21.989-4.729,41.325-3.047,7.277-7.855,18.705-8.564,24.2,4.86-2.653,13.792-11.244,19.493-16.709C47.927,35.435,59.854,23.954,69.653,30.653c9.8,6.725,3.389,21.989-4.729,41.325-3.047,7.277-7.855,18.705-8.564,24.2,4.86-2.653,13.792-11.244,19.493-16.709,15.132-14.528,27.086-26.009,36.859-19.309,9.8,6.725,3.389,21.989-4.729,41.325-3.047,7.277-7.855,18.705-8.564,24.2,4.86-2.653,13.792-11.244,19.493-16.709C134.044,94.44,146,82.959,155.771,89.659c9.8,6.725,3.389,21.989-4.729,41.325-3.047,7.277-7.855,18.705-8.564,24.2,4.86-2.653,13.792-11.244,19.493-16.709,15.132-14.528,27.059-26.009,36.859-19.309,9.8,6.725,3.389,21.989-4.729,41.325-3.047,7.277-7.855,18.705-8.564,24.2,4.86-2.653,13.792-11.244,19.493-16.709,15.132-14.528,27.086-26.009,36.859-19.309,9.8,6.725,3.389,21.989-4.729,41.325-3.047,7.277-7.855,18.705-8.564,24.2,4.86-2.653,13.792-11.244,19.493-16.709,15.132-14.528,27.059-26.009,36.859-19.283s3.389,21.989-4.729,41.325c-3.047,7.277-7.855,18.705-8.564,24.2,4.86-2.653,13.792-11.244,19.493-16.709,15.132-14.528,27.086-26.009,36.859-19.283,9.8,6.725,3.389,21.989-4.729,41.351-3.468,8.249-9.169,21.831-8.617,26.061a6.582,6.582,0,0,1-4.492,11.375ZM19.159,11.974Z" transform="translate(0)"/></g><circle class="d" cx="13" cy="13" r="13" transform="translate(1658 3093)"/></g></g></svg>