<svg xmlns="http://www.w3.org/2000/svg" width="140" height="231" viewBox="0 0 140 231"><defs><style>.a{fill:#1d3b6d;}.b{fill:#fff;}</style></defs><g transform="translate(-196 -181)"><rect class="a" width="140" height="231" transform="translate(196 181)"/><g transform="translate(229.506 212.748)"><g transform="translate(0 0.03)"><g transform="translate(0 130.912)"><path class="b" d="M.651,378.341a2.134,2.134,0,0,0,.548.172,4.979,4.979,0,0,0,.716.04,2.466,2.466,0,0,0,1.458-.475,3.445,3.445,0,0,0,1.049-1.232A6.794,6.794,0,0,0,5.2,373.8a10.25,10.25,0,0,0-.281-2.314,10.2,10.2,0,0,0-.5-1.619c-.2-.479-.475-1.089-.83-1.813l-1.144-2.394a9.87,9.87,0,0,1-.68-1.956,8.631,8.631,0,0,1-.252-2.029,3.538,3.538,0,0,1,.175-1.14A2.488,2.488,0,0,1,2.31,359.5a1.327,1.327,0,0,1,.965-.406.845.845,0,0,1,.391.117,1.078,1.078,0,0,0,.45.139c.058,0,.252-.022.252-.3,0-.194-.157-.373-.483-.556a1.66,1.66,0,0,0-.786-.256,2.155,2.155,0,0,0-1.5.614,3.451,3.451,0,0,0-.877,1.374,5.114,5.114,0,0,0-.274,1.649,8.292,8.292,0,0,0,.362,2.5,11.236,11.236,0,0,0,.592,1.594c.219.472.537,1.122.972,1.992.2.362.344.643.431.837a12.557,12.557,0,0,1,.936,2.376,9.288,9.288,0,0,1,.351,2.5,7.809,7.809,0,0,1-.5,2.54,2.9,2.9,0,0,1-.7,1.159,1.368,1.368,0,0,1-.965.431,1.54,1.54,0,0,1-.651-.2,2.076,2.076,0,0,0-.749-.186.354.354,0,0,0-.376.4.113.113,0,0,0,.011.048,1.156,1.156,0,0,0,.5.475Z" transform="translate(-0.095 -358.214)"/><path class="b" d="M26.165,378.7c.2-.066.3-.26.3-.578,0-.161-.073-.428-.556-.428h-2.3v-.844c0-1.528-.018-2.891-.051-4.05l-.051-3.769c0-.033,0-.033,0-.029h1.451a.5.5,0,0,0,.362-.117.564.564,0,0,0,.117-.413c0-.168-.066-.453-.5-.453-.49,0-.954.018-1.374.051v-5.3c-.022-.632-.029-1.36-.029-2.16,0-.128.026-.164.037-.172s.044-.037.168-.037l.822.051h.446a.739.739,0,0,0,.38-.175.5.5,0,0,0,.186-.406c0-.355-.175-.483-.325-.526a2.2,2.2,0,0,0-.563-.055H23.106a.471.471,0,0,0-.413.249,1.042,1.042,0,0,0-.143.567c.033.79.051,1.74.051,2.822l.026,10.516-.026,3.718v.051a3.254,3.254,0,0,0,.026.457v.483a.534.534,0,0,0,.3.534,2.243,2.243,0,0,0,.9.124h1.071a4.98,4.98,0,0,0,1.279-.106Z" transform="translate(-14.307 -358.881)"/><path class="b" d="M46.287,367.173c.318-1.722.574-3.184.757-4.339.007.1.011.194.018.3.015.351.026.76.026,1.217,0,.526-.007,1.005-.026,1.426l-.026,1.429c0,.691.026,1.652.077,2.851,0,.578.007,1.023.026,1.327.066,1.641.1,3.056.1,4.2V377.9a1.077,1.077,0,0,0,.132.6h0a.594.594,0,0,0,.526.208.428.428,0,0,0,.369-.212,2.354,2.354,0,0,0,.084-.779c0-.472-.018-1.3-.051-2.551-.051-.947-.077-1.656-.077-2.109,0-1.437-.058-3.363-.179-5.735-.154-2.559-.23-4.5-.23-5.775v-2.522a.637.637,0,0,0-.124-.417.407.407,0,0,0-.658.007.76.76,0,0,0-.175.446l-.128.76-.281,1.429-.23,1.323-1.17,6.229c-.051.175-.179.914-.384,2.252-.1.545-.179.969-.23,1.276l-.08.442c-.3-1.747-.508-2.954-.647-3.681-.307-1.371-.771-3.315-1.374-5.783-.618-2.526-.994-4-1.148-4.518a.375.375,0,0,0-.373-.267.458.458,0,0,0-.307.128.4.4,0,0,0-.146.3V361.2l-.051,3.03c-.018.888-.026,1.9-.026,3.008,0,.958-.007,1.831-.026,2.6l-.026,2.573v4.255c0,.943.281,1.422.837,1.422a.1.1,0,0,0,.069-.029,1.02,1.02,0,0,0,.208-.735l-.051-1.228c-.051-.548-.077-.939-.077-1.188,0-1.477-.007-2.84-.026-4.05s-.026-2.57-.026-4.05c0-1.63.018-3.133.055-4.489.168.727.486,2.226,1.075,5.169.742,3.721,1.181,6.013,1.3,6.814a1.2,1.2,0,0,0,.2.64.523.523,0,0,0,.881,0,1.2,1.2,0,0,0,.238-.581c.066-.457.223-1.232.457-2.314.241-1.239.548-2.877.917-4.865Z" transform="translate(-25.525 -358.349)"/><path class="b" d="M74.8,378.424a.414.414,0,0,0,.318-.175.546.546,0,0,0,.135-.355c0-.208-.117-.453-.684-.453h-.819c0-.2.011-.4.026-.589v-.713c0-1.619-.1-4.321-.307-8.027-.219-3.977-.329-6.664-.329-7.994l.029-.059a.77.77,0,0,1,.23-.022h.541a2.058,2.058,0,0,0,.325.026.354.354,0,0,0,.314-.175.646.646,0,0,0,.091-.329.4.4,0,0,0-.168-.347.681.681,0,0,0-.387-.106c-.395,0-.709-.007-.969-.026h-.713a2.713,2.713,0,0,0-.994.091.494.494,0,0,0-.249.439c0,.395.219.453.351.453h.8c.026.267.04.782.04,1.532v1.678l-.026,1.3c.069,1.363.135,3.25.2,5.6.117,2.91.175,5.359.179,7.285h-.9c-.461,0-.53.267-.53.428a.464.464,0,0,0,.172.351.551.551,0,0,0,.384.154c.61,0,1.133.007,1.554.026H74.8Z" transform="translate(-45.168 -358.747)"/><path class="b" d="M91.122,377.467a.7.7,0,0,0,.135.439h0a.443.443,0,0,0,.369.194c1.005,0,1.7-.007,2.062-.026h.219l.164-.026a.343.343,0,0,0,.314-.19.8.8,0,0,0,.088-.391c0-.483-.267-.556-.428-.556H92.467a1.775,1.775,0,0,1-.285-.011l-.026-.011L92,373.742c-.1-1.6-.154-2.771-.154-3.484l-.128-4.558c-.051-1.546-.077-3.919-.077-7.051,0-.179-.073-.479-.556-.479a.507.507,0,0,0-.325.11.368.368,0,0,0-.154.292c0,1.166.051,2.961.154,5.326.084,2.614.128,4.4.128,5.319,0,.98.033,2.2.1,3.622.084,1.331.128,2.544.128,3.611v1.02Z" transform="translate(-57.489 -358.17)"/><path class="b" d="M111.117,378.073l.164-.026a.343.343,0,0,0,.314-.19.8.8,0,0,0,.088-.391c0-.483-.267-.556-.428-.556h-1.579a1.775,1.775,0,0,1-.285-.011l-.026-.011-.154-3.147c-.1-1.6-.154-2.771-.154-3.484l-.128-4.558c-.051-1.543-.077-3.915-.077-7.051,0-.179-.073-.479-.556-.479a.507.507,0,0,0-.325.11.368.368,0,0,0-.154.292c0,1.166.051,2.961.154,5.326.084,2.614.128,4.4.128,5.319,0,.98.033,2.2.1,3.622.084,1.334.128,2.551.128,3.611v1.02a.69.69,0,0,0,.135.439h0a.443.443,0,0,0,.369.194c1.005,0,1.7-.007,2.062-.026h.219Z" transform="translate(-68.408 -358.17)"/><path class="b" d="M128.4,377.7h-2.3v-.844c0-1.521-.018-2.884-.051-4.05L126,369.035c0-.033,0-.033,0-.029h1.451a.5.5,0,0,0,.362-.117.564.564,0,0,0,.117-.413c0-.168-.066-.453-.5-.453-.49,0-.954.018-1.374.051v-5.3c-.022-.636-.029-1.341-.029-2.16,0-.128.026-.164.037-.172s.044-.037.168-.037l.822.051h.446a.77.77,0,0,0,.38-.175.5.5,0,0,0,.186-.406c0-.355-.175-.483-.325-.526a2.2,2.2,0,0,0-.563-.055H125.6a.471.471,0,0,0-.413.249,1.043,1.043,0,0,0-.143.567c.033.79.051,1.74.051,2.822l.026,10.516-.026,3.718v.051a3.359,3.359,0,0,0,.026.457v.483a.534.534,0,0,0,.3.534,2.243,2.243,0,0,0,.9.124h1.071a4.98,4.98,0,0,0,1.279-.106c.2-.066.3-.26.3-.578,0-.161-.073-.428-.556-.428Z" transform="translate(-79.334 -358.881)"/><path class="b" d="M145.967,373.043c-.669-2.676-1.188-4.686-1.539-5.987a2.879,2.879,0,0,0,.387-.662c.154-.333.281-.629.384-.885a7.47,7.47,0,0,0,.515-2.581,5.672,5.672,0,0,0-.7-2.771,2.672,2.672,0,0,0-.939-1.005,2.416,2.416,0,0,0-1.287-.373c-.457,0-.556.179-.556.325v3.286c0,2.073-.033,4.624-.1,7.588l-.051,2.471-.051,5.147v.38a.511.511,0,0,0,.157.377.546.546,0,0,0,.4.157c.358,0,.556-.216.556-.607l-.051-10.125.285-.132.143-.084c.194.738.4,1.7.629,2.848.2,1.053.376,1.883.508,2.471.219,1.086.574,2.431,1.045,4.006l.307,1.119a.7.7,0,0,0,.731.581.392.392,0,0,0,.355-.216.94.94,0,0,0,.1-.442,1.079,1.079,0,0,0-.029-.3l-1.2-4.584Zm-1.287-9.807a7.589,7.589,0,0,1-.124,1.257,4.132,4.132,0,0,1-.292,1.034,4.691,4.691,0,0,1-.673.8,2.124,2.124,0,0,1-.523.424v-6.978a.018.018,0,0,0,.011,0h.018a.942.942,0,0,1,.716.362,2.479,2.479,0,0,1,.515,1,6.8,6.8,0,0,1,.351,2.109Z" transform="translate(-90.113 -358.557)"/><path class="b" d="M167.145,361.311a8.958,8.958,0,0,0-.362-1.133,3.837,3.837,0,0,0-.526-.969,2.634,2.634,0,0,0-.874-.647,2.666,2.666,0,0,0-1.162-.252,1.618,1.618,0,0,0-1.184.457,2.683,2.683,0,0,0-.753,1.056,7.269,7.269,0,0,0-.428,1.652,24.064,24.064,0,0,0-.256,3.736v1.02c0,8.309,1.188,12.348,3.637,12.348a1.759,1.759,0,0,0,1.586-.965,6.409,6.409,0,0,0,.5-1.034,5.9,5.9,0,0,0,.3-1.214,21.664,21.664,0,0,0,.281-2.687c.033-.716.051-1.506.051-2.347v-.077a56.27,56.27,0,0,0-.614-7.735l-.2-1.2Zm-.143,8.4v.1c0,.855-.018,1.751-.051,2.668a21.17,21.17,0,0,1-.508,3.476,3.545,3.545,0,0,1-.493,1.276h0a.837.837,0,0,1-.658.431c-.4,0-.768-.285-1.089-.844a7.391,7.391,0,0,1-.8-2.036,24.55,24.55,0,0,1-.508-2.866,35.818,35.818,0,0,1-.329-4.317v-1.246c0-.874.026-1.736.077-2.57a14.251,14.251,0,0,1,.5-3.136,3.088,3.088,0,0,1,.515-1.111.87.87,0,0,1,.687-.373,1.292,1.292,0,0,1,.841.333,2.38,2.38,0,0,1,.647.954,13.448,13.448,0,0,1,.833,3.158c.168,1.448.271,2.646.3,3.557l.026,2.544Z" transform="translate(-102.53 -358.259)"/><path class="b" d="M186.344,378.341a2.134,2.134,0,0,0,.548.172,4.979,4.979,0,0,0,.716.04,2.466,2.466,0,0,0,1.458-.475,3.446,3.446,0,0,0,1.049-1.232,6.794,6.794,0,0,0,.775-3.049,10.3,10.3,0,0,0-.281-2.314,10.739,10.739,0,0,0-.5-1.619c-.2-.479-.475-1.089-.83-1.813l-1.144-2.394a9.871,9.871,0,0,1-.68-1.956,8.631,8.631,0,0,1-.252-2.029,3.642,3.642,0,0,1,.172-1.14A2.488,2.488,0,0,1,188,359.5a1.327,1.327,0,0,1,.965-.406.845.845,0,0,1,.391.117,1.078,1.078,0,0,0,.45.139c.077,0,.252-.029.252-.3,0-.194-.157-.373-.482-.556a1.66,1.66,0,0,0-.786-.256,2.155,2.155,0,0,0-1.5.614,3.451,3.451,0,0,0-.877,1.374,5.113,5.113,0,0,0-.274,1.649,8.292,8.292,0,0,0,.362,2.5,11.234,11.234,0,0,0,.592,1.594c.219.472.537,1.122.972,1.992.2.362.344.643.431.837a12.555,12.555,0,0,1,.936,2.376,9.288,9.288,0,0,1,.351,2.5,7.809,7.809,0,0,1-.5,2.54,2.9,2.9,0,0,1-.7,1.159,1.368,1.368,0,0,1-.965.431,1.54,1.54,0,0,1-.651-.2,2.093,2.093,0,0,0-.749-.186.354.354,0,0,0-.376.4.113.113,0,0,0,.011.048,1.156,1.156,0,0,0,.5.475Z" transform="translate(-117.909 -358.214)"/><path class="b" d="M6.433,430.484a14,14,0,0,0-.618-2.646,6.067,6.067,0,0,0-1.349-2.2,3.252,3.252,0,0,0-2.307-.917H2.032c-1.367,0-2.032.23-2.032.709a2.351,2.351,0,0,0,.186.727,3.059,3.059,0,0,1,.2.61c.066.472.11,1.656.128,3.527l.051,3.081.179,6.952.077,2.252a.758.758,0,0,1-.168.446,1.3,1.3,0,0,0-.216.559c0,.175.121.325.358.442a1.445,1.445,0,0,0,.654.164c.113,0,.333-.051.947-.49a8.609,8.609,0,0,0,1.4-1.3A7.317,7.317,0,0,0,5,440.544a16.9,16.9,0,0,0,1.192-3.473,15.6,15.6,0,0,0,.424-3.447v-.793c-.051-1.049-.113-1.842-.179-2.35ZM1.8,442.7v-2.756c0-1.217-.058-2.847-.179-4.843-.135-2.288-.2-3.922-.2-4.858,0-.57-.033-1.283-.1-2.12-.066-.8-.1-1.513-.1-2.105,0-.121.146-.183.439-.183,2.657,0,4,2.467,4,7.34,0,.556-.026,1.144-.077,1.747a20.749,20.749,0,0,1-.355,2.244,12.606,12.606,0,0,1-.632,2.138,7.818,7.818,0,0,1-1.155,2.025,5.1,5.1,0,0,1-1.627,1.378H1.8Z" transform="translate(0 -400.394)"/><path class="b" d="M30.256,443.272h-2.3v-.844c0-1.517-.018-2.88-.051-4.05l-.051-3.769c0-.033,0-.033,0-.029h1.451a.5.5,0,0,0,.362-.117.57.57,0,0,0,.117-.413c0-.168-.066-.453-.5-.453-.49,0-.954.018-1.374.051v-5.3c-.022-.647-.029-1.374-.029-2.164,0-.132.029-.168.037-.172s.044-.037.168-.037l.822.051h.446a.772.772,0,0,0,.38-.175.5.5,0,0,0,.186-.406c0-.355-.175-.482-.325-.526a2.195,2.195,0,0,0-.563-.055H27.456a.476.476,0,0,0-.413.249,1.042,1.042,0,0,0-.143.567c.033.79.051,1.74.051,2.822l.026,10.516-.026,3.717v.051a3.254,3.254,0,0,0,.026.457v.483a.538.538,0,0,0,.3.534,2.245,2.245,0,0,0,.9.124h1.071a4.98,4.98,0,0,0,1.279-.106c.2-.066.3-.26.3-.578,0-.161-.073-.428-.556-.428Z" transform="translate(-17.067 -400.483)"/><path class="b" d="M57.6,435.434c-.2-.479-.475-1.089-.83-1.813l-1.144-2.394a9.87,9.87,0,0,1-.68-1.956,8.654,8.654,0,0,1-.252-2.029,3.537,3.537,0,0,1,.175-1.14,2.45,2.45,0,0,1,.625-1.031,1.327,1.327,0,0,1,.965-.406.781.781,0,0,1,.387.117,1.078,1.078,0,0,0,.45.139c.058,0,.252-.022.252-.3,0-.194-.157-.373-.483-.556a1.661,1.661,0,0,0-.786-.256,2.155,2.155,0,0,0-1.5.614,3.451,3.451,0,0,0-.877,1.374,5.114,5.114,0,0,0-.274,1.649,8.327,8.327,0,0,0,.362,2.5,11.24,11.24,0,0,0,.592,1.594c.219.472.545,1.14.969,1.992.2.369.344.651.431.841a12.653,12.653,0,0,1,.936,2.376,9.294,9.294,0,0,1,.355,2.5,7.809,7.809,0,0,1-.5,2.54,2.9,2.9,0,0,1-.7,1.159,1.368,1.368,0,0,1-.965.431,1.54,1.54,0,0,1-.651-.2,2.058,2.058,0,0,0-.749-.186.354.354,0,0,0-.377.4.113.113,0,0,0,.011.048,1.156,1.156,0,0,0,.5.475,2.177,2.177,0,0,0,.548.172,4.975,4.975,0,0,0,.716.04,2.475,2.475,0,0,0,1.458-.475,3.445,3.445,0,0,0,1.049-1.232,6.794,6.794,0,0,0,.775-3.049,11.269,11.269,0,0,0-.782-3.933Z" transform="translate(-33.836 -399.816)"/><path class="b" d="M79.106,443.278h-2.3v-.844c0-1.521-.018-2.884-.051-4.05l-.051-3.769c0-.033,0-.033,0-.029h1.451a.5.5,0,0,0,.362-.117.564.564,0,0,0,.117-.413c0-.168-.066-.453-.5-.453-.49,0-.954.018-1.374.051v-5.3c-.022-.636-.029-1.342-.029-2.16,0-.132.029-.168.037-.172s.044-.037.168-.037l.822.051h.446a.8.8,0,0,0,.38-.175.5.5,0,0,0,.186-.406c0-.355-.175-.482-.325-.526a2.195,2.195,0,0,0-.563-.055H76.306a.471.471,0,0,0-.413.249,1.042,1.042,0,0,0-.143.567c.033.793.051,1.744.051,2.822l.026,10.516-.026,3.717v.051a3.359,3.359,0,0,0,.026.457v.482a.538.538,0,0,0,.3.534h0a2.245,2.245,0,0,0,.9.124h1.071a4.978,4.978,0,0,0,1.279-.106c.2-.066.3-.259.3-.578,0-.161-.073-.428-.556-.428Z" transform="translate(-48.061 -400.489)"/><path class="b" d="M98.23,423.05a.609.609,0,0,0-.625.42.107.107,0,0,0-.007.033l.026,3.59v1.959c-.018.585-.026,1.254-.026,1.988l-.051,4.43c-.033,1.287-.051,2.778-.051,4.434a4.942,4.942,0,0,1-.066.892c-.362-1.1-.771-2.621-1.221-4.533-.863-3.195-1.48-5.527-1.835-6.927-.168-.61-.373-1.517-.61-2.694l-.537-2.5a.763.763,0,0,0-.274-.38.662.662,0,0,0-.406-.175,1.022,1.022,0,0,0-.578.132.565.565,0,0,0-.208.5v.274a1.191,1.191,0,0,1,.026.263c0,.892.007,1.7.026,2.394V432.9l.051,4.43.026,4.43a6.448,6.448,0,0,1-.048,1,.224.224,0,0,0,0,.051l.077.2a.1.1,0,0,0,.091.062H92.6a.1.1,0,0,0,.077-.04l.154-.2a.18.18,0,0,0,.018-.058l-.1-7.256v-9.387c.446,2.27.742,3.7.877,4.24.186.833,1.239,4.686,3.129,11.456a2,2,0,0,0,.077.384l.077.49a1.042,1.042,0,0,0,.223.45.524.524,0,0,0,.406.212c.347,0,.76-.146.76-.833l.051-2.01c.051-.914.077-1.59.077-2.018,0-2.226.007-4.247.026-6.009.018-1.8.026-3.831.026-6.035v-1.63s0-.048.011-.1a2.018,2.018,0,0,0,.015-.292,4.473,4.473,0,0,0,.026-.548c0-.387-.033-.837-.3-.837Z" transform="translate(-58.219 -399.334)"/><path class="b" d="M121.059,424.714l-2.8.026h-2.548a5.3,5.3,0,0,0-1.034.077.912.912,0,0,0-.461.154.481.481,0,0,0-.106.347.407.407,0,0,0,.212.362.791.791,0,0,0,.42.117h2.8c.015.179.033.779.033,2.654V430.1l-.026.742c0,.9.026,2.27.077,4.076l.051,4.076v4.533a.937.937,0,0,0,.143.526.518.518,0,0,0,.464.234.342.342,0,0,0,.325-.157.5.5,0,0,0,.128-.267,2.045,2.045,0,0,0,.026-.362l-.026-1.937V427.123l-.026-1.389.132-.015h2.266c.5,0,.581-.3.581-.479a.525.525,0,0,0-.146-.406.733.733,0,0,0-.486-.124Z" transform="translate(-72.399 -400.387)"/><path class="b" d="M143.491,443.011h-.819c0-.2.011-.4.026-.589v-.713c0-1.619-.1-4.321-.307-8.027-.219-3.981-.329-6.667-.333-7.994l.029-.058a.769.769,0,0,1,.23-.022h.541a2.029,2.029,0,0,0,.325.026.347.347,0,0,0,.314-.175.656.656,0,0,0,.091-.329.4.4,0,0,0-.168-.347.673.673,0,0,0-.387-.106c-.395,0-.709-.007-.969-.026h-.713a2.713,2.713,0,0,0-.994.091.494.494,0,0,0-.249.439c0,.395.219.453.351.453h.8c.026.267.04.782.04,1.532v1.678l-.026,1.3c.066,1.341.135,3.224.2,5.6.117,2.921.175,5.37.179,7.285h-.9c-.461,0-.53.267-.53.428a.465.465,0,0,0,.172.351.551.551,0,0,0,.384.154c.621,0,1.14.007,1.554.026h1.374a.414.414,0,0,0,.318-.175.546.546,0,0,0,.135-.355C144.175,443.256,144.058,443.011,143.491,443.011Z" transform="translate(-88.895 -400.349)"/><path class="b" d="M164.563,430.484a14,14,0,0,0-.618-2.646,6.067,6.067,0,0,0-1.349-2.2,3.252,3.252,0,0,0-2.307-.917h-.128c-1.367,0-2.032.23-2.032.709a2.464,2.464,0,0,0,.186.727,2.917,2.917,0,0,1,.2.61c.066.472.11,1.659.124,3.527l.051,3.081.179,6.952.077,2.252c.011.066-.011.2-.168.446a1.3,1.3,0,0,0-.216.559c0,.175.121.325.358.442a1.445,1.445,0,0,0,.654.164c.113,0,.333-.051.947-.49a8.608,8.608,0,0,0,1.4-1.3,7.317,7.317,0,0,0,1.2-1.857,16.76,16.76,0,0,0,1.192-3.473,15.6,15.6,0,0,0,.424-3.447v-.793c-.051-1.049-.113-1.842-.179-2.35Zm-4.814,4.617c-.135-2.288-.2-3.922-.2-4.858,0-.57-.033-1.283-.1-2.12-.066-.8-.1-1.513-.1-2.105,0-.121.146-.183.439-.183,2.657,0,4,2.467,4,7.34,0,.556-.026,1.144-.077,1.747a20.605,20.605,0,0,1-.355,2.244,12.707,12.707,0,0,1-.632,2.138,7.725,7.725,0,0,1-1.159,2.025,5.1,5.1,0,0,1-1.627,1.378h-.007v-2.756c0-1.214-.058-2.84-.179-4.843Z" transform="translate(-100.328 -400.394)"/><path class="b" d="M188.448,428.186l-.154-1.21a8.585,8.585,0,0,0-.311-1.148,3.789,3.789,0,0,0-.482-.991,2.576,2.576,0,0,0-.844-.684,2.675,2.675,0,0,0-1.151-.3,1.586,1.586,0,0,0-1.2.406,2.694,2.694,0,0,0-.8,1.023,7.264,7.264,0,0,0-.5,1.634,23.894,23.894,0,0,0-.417,3.717l-.044,1.016c-.358,8.3.658,12.388,3.1,12.494h.091a1.755,1.755,0,0,0,1.535-.9,6.112,6.112,0,0,0,.548-1.013,6.047,6.047,0,0,0,.351-1.2,22.313,22.313,0,0,0,.4-2.672c.066-.709.117-1.5.15-2.343v-.077a56.236,56.236,0,0,0-.278-7.753Zm-2.029,14.647a.853.853,0,0,1-.676.4c-.4-.018-.757-.314-1.053-.892a7.482,7.482,0,0,1-.716-2.069,24.057,24.057,0,0,1-.384-2.884,35.77,35.77,0,0,1-.146-4.328l.055-1.246c.037-.881.1-1.744.186-2.562a13.992,13.992,0,0,1,.64-3.111,2.977,2.977,0,0,1,.563-1.086.883.883,0,0,1,.669-.344h.037a1.29,1.29,0,0,1,.826.369,2.411,2.411,0,0,1,.607.98,13.711,13.711,0,0,1,.7,3.191c.106,1.458.157,2.661.154,3.564l-.084,2.544v.1c-.04.852-.1,1.751-.168,2.665a21.433,21.433,0,0,1-.658,3.451A3.464,3.464,0,0,1,186.42,442.833Z" transform="translate(-115.777 -399.843)"/></g><g transform="translate(0.307)"><path class="b" d="M73.065,57.262a11.365,11.365,0,0,1-1.6.665c.033-.194.066-.384.1-.578.157-.881.325-1.766.439-2.665.015-.157-.029-.285-.1-.3s-.154.1-.175.256c-.132.881-.314,1.758-.486,2.639-.048.249-.1.5-.139.749-.42.128-.844.245-1.268.34A9,9,0,0,1,67,58.618c.212-.289.42-.585.621-.881a34.49,34.49,0,0,0,1.952-3.323c.27-.53.53-1.064.771-1.608a5.576,5.576,0,0,0,1.649-.249A2.86,2.86,0,0,0,73.369,51.3c.011-.026-.029-.077-.088-.117s-.124-.062-.143-.044a2.451,2.451,0,0,1-1.29.958,4.13,4.13,0,0,1-1.232.055c.157-.439.289-.877.42-1.312.709-2.453,1.268-4.931,1.981-7.366.062-.212.062-.391,0-.413s-.172.128-.241.336c-.713,2.138-1.312,4.31-1.989,6.448-.077-.073-.154-.15-.227-.234-.186-.208-.366-.439-.556-.665a6.311,6.311,0,0,0-.625-.673,2.148,2.148,0,0,1-.559-.57,4.627,4.627,0,0,1-.464-1.59h0a8.772,8.772,0,0,0,.574-1.1c.128-.358.172-.651.1-.669s-.23.227-.362.559a7.3,7.3,0,0,1-.369.713c-.044-.409-.077-.822-.1-1.236-.007-.051-.069-.088-.143-.088s-.135.044-.139.1c0,.578.007,1.159.058,1.747a14.1,14.1,0,0,1-1.031,1.345,27.085,27.085,0,0,1-2.222,2.219c-1.557,1.407-3.228,2.69-4.9,3.973-.837.643-1.681,1.276-2.508,1.945-.413.333-.808.673-1.2,1.02a12.033,12.033,0,0,1,.2-2A4.254,4.254,0,0,1,56.7,53.5a1.667,1.667,0,0,1,.355-.453c.128-.121.336-.252.486-.395a13.508,13.508,0,0,0,1.66-1.886,18.125,18.125,0,0,0,1.374-2.095c.033-.066.033-.128,0-.146s-.088.018-.124.077a18.11,18.11,0,0,1-1.4,2.047,13.387,13.387,0,0,1-1.667,1.82h0a2.654,2.654,0,0,0,.256-1.013,9.391,9.391,0,0,1-.015-1.466A10.25,10.25,0,0,1,58.992,47.4c.022-.04.022-.077,0-.088s-.051.011-.073.048a10.116,10.116,0,0,0-1.444,2.6,8.465,8.465,0,0,0-.018,1.488,3.084,3.084,0,0,1-.428,1.287c-.044.033-.091.069-.139.11a1.888,1.888,0,0,0-.42.515,4.488,4.488,0,0,0-.435,1.21,14.21,14.21,0,0,0-.27,2.376c-.281.252-.563.5-.844.76-.782.72-1.55,1.458-2.27,2.263a12.542,12.542,0,0,0-1.893,2.672q-.164.351-.3.724c-.2.113-.4.223-.6.333-.618.325-1.246.621-1.882.9a15,15,0,0,1,.526-2.6,12.735,12.735,0,0,1,.731-1.879c.139-.292.311-.629.453-.958s.271-.673.384-1.016a10.5,10.5,0,0,0,.333-4.277c-.018-.179-.033-.355-.051-.534a37.8,37.8,0,0,0,4.185-3.769,25.7,25.7,0,0,0,2.149-2.635,24.826,24.826,0,0,0,1.572-2.683,9.22,9.22,0,0,0,1.97-.285c.965-.26,1.93-.523,2.891-.826A18.713,18.713,0,0,0,65.938,42c.731-.369,1.433-.779,2.12-1.206.563-.022,1.148.015,1.733-.022a4.656,4.656,0,0,0,1.882-.439.061.061,0,0,0,.015-.084.074.074,0,0,0-.077-.044,4.519,4.519,0,0,1-1.831.325c-.406,0-.808-.029-1.221-.051a10.243,10.243,0,0,0,2.38-1.864,10.237,10.237,0,0,0,1.36-2.709c.066-.161.066-.307,0-.34s-.179.069-.256.227a9.977,9.977,0,0,1-1.393,2.57,9.96,9.96,0,0,1-2.358,1.707c-.7.413-1.407.8-2.127,1.162a2.936,2.936,0,0,1,.329-.881,6.486,6.486,0,0,1,.888-1.225c.34-.373.746-.742,1.086-1.159a6.493,6.493,0,0,0,.844-1.378c.018-.044-.018-.1-.088-.139s-.139-.033-.164,0a6.315,6.315,0,0,1-.885,1.257c-.351.38-.746.695-1.144,1.075a6.876,6.876,0,0,0-1.045,1.265,3.214,3.214,0,0,0-.537,1.513,18.516,18.516,0,0,1-2.526.9c-.947.267-1.915.493-2.88.716a8.458,8.458,0,0,1-1.312.183c.49-.936.987-1.868,1.48-2.8v.026c.643-.113,1.268-.2,1.93-.322a2.072,2.072,0,0,0,.537-.164,2.171,2.171,0,0,0,.442-.329c.241-.212.483-.406.742-.6.512-.391,1.042-.775,1.539-1.21a3.647,3.647,0,0,0,1.188-1.616.125.125,0,0,0-.106-.139.139.139,0,0,0-.164.055,3.342,3.342,0,0,1-1.166,1.407c-.5.391-1.038.746-1.575,1.111-.267.179-.545.376-.8.581a1.159,1.159,0,0,1-.742.329c-.472.062-.961.113-1.451.168.311-.585.618-1.173.928-1.758,1.056-1.956,2.113-3.919,3.235-5.834a4.425,4.425,0,0,1,.969-1.265,7.712,7.712,0,0,1,1.356-.9,17.958,17.958,0,0,0,2.9-1.7c.311-.26.45-.559.395-.6s-.285.146-.578.38a17.5,17.5,0,0,1-2.891,1.6,8.244,8.244,0,0,0-1.444.91,3.091,3.091,0,0,0-.325.3l-.154.157-.135.179c-.186.238-.318.472-.472.709-1.177,1.9-2.274,3.838-3.381,5.775q-1.574,2.774-3.114,5.571c-.223-.007-.45-.022-.676-.044a19.585,19.585,0,0,0-3.052-.179,8.3,8.3,0,0,0-.954.121c.387-.391.768-.793,1.126-1.2.954-1.06,1.872-2.146,2.778-3.239l5.388-6.583c.157-.19.238-.376.179-.424s-.23.055-.395.241l-1.477,1.678a4.529,4.529,0,0,1-.26-2.478c.058-.5.157-1.013.249-1.528.048-.256.091-.519.128-.786s.044-.523.091-.764a2.483,2.483,0,0,1,.614-1.279,8.665,8.665,0,0,1,1.173-.969,8.334,8.334,0,0,0,2.263-2.222.153.153,0,0,0-.037-.212.166.166,0,0,0-.2.066,8.089,8.089,0,0,1-2.248,2.058,9.954,9.954,0,0,0-1.144.87,3.683,3.683,0,0,1,.314-1.327,13.268,13.268,0,0,0,.724-1.853.063.063,0,0,0-.055-.066.068.068,0,0,0-.08.033,13.594,13.594,0,0,1-.808,1.787,3.452,3.452,0,0,0-.4,1.758,3.1,3.1,0,0,0-.585,1.257c-.062.27-.084.552-.121.79s-.091.5-.146.753c-.11.508-.227,1.023-.3,1.554a6.741,6.741,0,0,0-.073,1.634,3.659,3.659,0,0,0,.439,1.462l-3.1,3.52a3.632,3.632,0,0,1-.457-1.469,3.76,3.76,0,0,1,.439-2.021A10.435,10.435,0,0,0,58.525,30a.135.135,0,0,0-.132-.128.139.139,0,0,0-.15.106A10.048,10.048,0,0,1,56.77,34.1a4.33,4.33,0,0,0-.6,2.285,4.382,4.382,0,0,0,.574,1.97l-.1.11c-.947,1.053-1.9,2.1-2.877,3.114a24.563,24.563,0,0,1-2.445,2.263c-.08.033-.164.062-.241.1l.029.066c-.154.117-.3.241-.461.355s-.336.234-.5.351c.132-1.075.322-2.149.523-3.22l.8-4.094c.048-.238.026-.435-.048-.453s-.172.157-.227.395l-.9,4.079c-.256,1.206-.5,2.42-.662,3.652-.819.541-1.663,1.045-2.522,1.55l-.04.022a9.584,9.584,0,0,1,.154-1.126,10.263,10.263,0,0,1,.552-1.755c.23-.585.49-1.148.735-1.751A8.39,8.39,0,0,0,49,40.1c.2-1.279.179-2.562.424-3.758a3.525,3.525,0,0,1,.281-.837,5.454,5.454,0,0,1,.483-.768A14.78,14.78,0,0,1,51.382,33.3q.642-.685,1.342-1.316c.234-.2.472-.417.713-.6a9.209,9.209,0,0,1,.782-.5,7.558,7.558,0,0,0,1.568-1.151,5.694,5.694,0,0,0,1.1-1.616c.515-1.042.936-2.109,1.418-3.147.442-.256.881-.519,1.309-.8.746-.493,1.437-1.013,2.157-1.524.355-.26.709-.519,1.056-.8.172-.139.344-.285.5-.439a1.31,1.31,0,0,1,.519-.263c.815-.26,1.685-.431,2.537-.632.15-.037.252-.124.234-.2s-.146-.106-.3-.08c-.859.186-1.718.336-2.577.592a1.653,1.653,0,0,0-.647.322c-.161.143-.325.281-.5.413-.34.267-.7.515-1.056.768-.72.49-1.44,1.013-2.168,1.473-.234.146-.475.281-.716.424.212-.42.435-.837.662-1.25.154-.278.311-.548.461-.837a1.922,1.922,0,0,0,.175-.479c.037-.164.058-.318.084-.475.033-.216.007-.4-.066-.413s-.168.143-.212.362c-.029.157-.055.314-.088.461a1.6,1.6,0,0,1-.157.409c-.146.27-.311.545-.464.822-.314.548-.629,1.108-.907,1.681,0,.007-.007.018-.011.026-.34.19-.687.377-1.031.563-.768.413-1.554.808-2.332,1.21a8.89,8.89,0,0,1,.987-2.954,13.65,13.65,0,0,1,1.049-1.638c.194-.263.395-.523.6-.775l.311-.38.19-.227a20.428,20.428,0,0,0,2.826-.731,9.157,9.157,0,0,0,2.731-1.462.074.074,0,0,0,.022-.1.078.078,0,0,0-.106-.007,8.385,8.385,0,0,1-2.018,1.1,1.372,1.372,0,0,1-.044-1.082,4.233,4.233,0,0,1,.654-1.086,6.433,6.433,0,0,0,.735-1.111,3.248,3.248,0,0,0,.292-1.3.07.07,0,0,0-.139-.011,3.08,3.08,0,0,1-.325,1.228,5.861,5.861,0,0,1-.753,1.045,4.392,4.392,0,0,0-.738,1.133,1.681,1.681,0,0,0,0,1.3,18.082,18.082,0,0,1-3.049.738,27.377,27.377,0,0,1,2.467-7.424c.051-.1.037-.212-.029-.249s-.161.015-.223.113a27.946,27.946,0,0,0-2.7,7.5l-.026.121a.235.235,0,0,1-.015.051l-.128.143-.325.38c-.216.256-.431.512-.636.779a13.931,13.931,0,0,0-1.137,1.678A9.419,9.419,0,0,0,54.047,26.7c-.534.281-1.064.57-1.586.877A10.13,10.13,0,0,1,48.246,28.8a5.652,5.652,0,0,1,.647-.534c.387-.285.79-.585,1.162-.921a9.1,9.1,0,0,0,1.023-1.1,23.752,23.752,0,0,0,1.6-2.475c.49-.841.958-1.7,1.415-2.551.914-1.714,1.78-3.454,2.614-5.209a14.638,14.638,0,0,0,.589-1.352,5.878,5.878,0,0,0,.256-1.469c.029-.4.066-.786.132-1.17a2.552,2.552,0,0,0,.808-.058,1.9,1.9,0,0,0,.947-.662c.08-.106.1-.219.037-.267s-.172-.011-.252.08a1.631,1.631,0,0,1-.811.548,2.164,2.164,0,0,1-.676.033,9.845,9.845,0,0,1,.373-1.309c.055-.157.04-.3-.029-.333s-.172.073-.238.234a10.139,10.139,0,0,0-.42,1.389h-.051a2.683,2.683,0,0,0-1.129.186,6.759,6.759,0,0,0-.972.541,4.681,4.681,0,0,1-1.992.545c-.245.022-.5.026-.746.029.124-.336.238-.68.344-1.023.238-.8.435-1.6.618-2.4.15-.048.3-.091.442-.146A4.859,4.859,0,0,0,55.151,8.8c.128-.1.19-.219.139-.278s-.183-.037-.3.048a4.727,4.727,0,0,1-1.155.548c-.084.029-.172.055-.26.08.139-.614.274-1.228.413-1.839.062-.267.051-.49-.022-.508s-.183.175-.252.442c-.179.676-.351,1.352-.526,2.025-.2.055-.406.106-.61.157-.852.208-1.722.369-2.584.6a8.4,8.4,0,0,0-1.283.431,3.46,3.46,0,0,0-.61.358,1.252,1.252,0,0,0-.274.249l-.128.139-.1.132c-.322.439-.654.87-.991,1.3-.044,0-.088-.011-.135-.015.1-.34.172-.673.252-1.013.373-1.758.673-3.52.888-5.3.676-.439,1.342-.9,1.985-1.378.113-.084.183-.175.161-.2s-.128.011-.241.091c-.607.428-1.232.83-1.868,1.214.018-.172.044-.347.062-.519.08-.716-.015-1.3-.113-1.29s-.164.545-.252,1.254c-.033.267-.073.534-.11.8-.6.355-1.21.7-1.824,1.027a5.789,5.789,0,0,0-.614.355,5.117,5.117,0,0,1,.212-2.138,11.488,11.488,0,0,1,.9-2.252.075.075,0,0,0-.029-.091.065.065,0,0,0-.091.022A11.654,11.654,0,0,0,44.773,5.5a5.072,5.072,0,0,0-.281,2.427A3.383,3.383,0,0,0,43.567,9a11.125,11.125,0,0,0-.727,2.332,4.43,4.43,0,0,1-.435,1.064c-.186.34-.4.673-.625,1-.446.654-.932,1.287-1.433,1.9s-1.023,1.221-1.564,1.8c-.325.344-.662.684-1.005,1l-.1-6.028a28.8,28.8,0,0,0,2.138-2.9A19.225,19.225,0,0,0,41.07,6.9c.194-.387.336-.8.5-1.21A9.48,9.48,0,0,0,41.9,4.4a2,2,0,0,0,.007-.793c-.037-.2-.1-.322-.172-.318h-.161c-.073,0-.146.117-.208.3s-.1.417-.164.691a8.373,8.373,0,0,1-.322,1.166c-.157.377-.3.764-.49,1.129A18.039,18.039,0,0,1,39.14,8.722c-.461.687-.958,1.356-1.477,2l-.055-3.213c.5-.925.987-1.861,1.44-2.811.252-.53.493-1.064.713-1.608a6.125,6.125,0,0,0,.483-1.725c0-.055-.058-.1-.132-.1s-.139.037-.15.08a5.967,5.967,0,0,1-.552,1.59c-.245.523-.512,1.034-.79,1.539-.329.6-.676,1.192-1.027,1.78L37.5.37a.347.347,0,0,0-.695,0l-.194,11.576c-.2.219-.4.439-.607.651-.143.15-.292.292-.439.428-.157.154-.274.234-.461.4a2.932,2.932,0,0,0-.636.724c-.395-.779-.768-1.572-1.093-2.383a14.23,14.23,0,0,1-.954-3.239c-.015-.106-.026-.212-.044-.318a4.7,4.7,0,0,1,.5-.939c.837-1.309,1.879-2.486,2.727-3.86.143-.252.132-.537.018-.552s-.249.117-.384.336c-.822,1.29-1.9,2.475-2.778,3.8-.069.1-.135.208-.2.314-.091-.727-.172-1.458-.234-2.19-.1-1.14-.168-2.285-.161-3.429,0-.1-.029-.179-.066-.179s-.069.077-.077.175c-.058,1.151-.037,2.3.007,3.451.04.947.1,1.89.19,2.837-.015.04-.037.08-.051.121-.121.391-.216.768-.322,1.148-.2.757-.428,1.5-.7,2.222a8.031,8.031,0,0,1-1.049,2l-.172.212-.19.19a4.785,4.785,0,0,0-.435.457c-.015.018-.026.037-.04.055-.1-.658-.241-1.3-.3-1.926a4.349,4.349,0,0,1,.062-1.36c.044-.223.117-.431.172-.7a3.7,3.7,0,0,0,.055-.746,11.646,11.646,0,0,0-.49-2.851,16.7,16.7,0,0,0-.983-2.7c-.04-.077-.1-.121-.132-.1s-.029.091,0,.164a16.76,16.76,0,0,1,.874,2.7,11.532,11.532,0,0,1,.376,2.785,3.134,3.134,0,0,1-.073.673c-.044.2-.135.442-.194.684a4.816,4.816,0,0,0-.121,1.48c.062.947.267,1.831.292,2.716a2.527,2.527,0,0,0-.088.3,4.515,4.515,0,0,0,.281,2.5c.132.38.292.757.435,1.115a10.432,10.432,0,0,1,.362,1.082,15.775,15.775,0,0,1,.446,2.255,8.9,8.9,0,0,1,.033,2.244c-.285,1.517-.589,3.074-.976,4.573-.048.179-.1.358-.15.537a7.992,7.992,0,0,1-2.19-2.215,4.277,4.277,0,0,1-.643-1.714c-.069-.585.007-1.276,0-1.926.026-1.32-.062-2.639-.04-3.933a5.439,5.439,0,0,1,.409-1.853,8.642,8.642,0,0,0,.57-1.912c.007-.121-.044-.216-.121-.219a.194.194,0,0,0-.161.186c-.19,1.243-1.053,2.383-1.086,3.787-.058,1.327,0,2.632-.062,3.933l-.048.976a5.628,5.628,0,0,0,0,1.023,4.858,4.858,0,0,0,.676,1.956,8.808,8.808,0,0,0,2.493,2.6c-.1.333-.208.662-.329.987-.069.175-.135.355-.212.526l-.238.534a7.762,7.762,0,0,0-.428,1.177,8.588,8.588,0,0,0-.252,2.471q.005.395.011.779a16.154,16.154,0,0,0-1.8-1.773c.015-.3.026-.6.029-.9v-.95c.011-.311.033-.629.048-.947a8.052,8.052,0,0,0-.088-1.941,7.323,7.323,0,0,0-.61-1.842c-.051-.1-.143-.154-.208-.121a.187.187,0,0,0-.048.238,7.2,7.2,0,0,1,.541,1.78,7.909,7.909,0,0,1,.033,1.861c-.022.314-.055.632-.069.958l-.029.954c-.007.186-.022.373-.033.563-.175-.135-.358-.267-.545-.395a6.963,6.963,0,0,0-1.2-.647l-.552-.23a26.553,26.553,0,0,0-.336-4.419,9.594,9.594,0,0,0-.713-2.391c-.091-.175-.19-.347-.285-.523.369-1.426.647-2.855,1.086-4.229.113-.366.238-.72.358-1.089a5.251,5.251,0,0,0,.26-1.192,3.613,3.613,0,0,0-.033-.91,2.972,2.972,0,0,0,.541-.749,7.08,7.08,0,0,0,.355-.8,10.726,10.726,0,0,0,.468-1.663,10.31,10.31,0,0,0,.2-1.711,16.408,16.408,0,0,0-.055-1.7c-.073-1-.194-1.992-.3-2.983.161-.292.329-.581.5-.87a12.854,12.854,0,0,0,1.016-1.882.126.126,0,0,0-.1-.15.133.133,0,0,0-.168.055,12.878,12.878,0,0,1-1.075,1.773c-.084.124-.164.252-.249.377a28.33,28.33,0,0,1-.164-2.994.165.165,0,0,0-.135-.179c-.077,0-.139.069-.146.168a30.887,30.887,0,0,0,.106,3.542c-.179.3-.351.607-.5.928-.08.164-.146.336-.212.508s-.121.311-.194.464a5.731,5.731,0,0,1-.5.87,4.93,4.93,0,0,1-.64.757,2.591,2.591,0,0,1-.362.292,1.026,1.026,0,0,1-.168.084.063.063,0,0,1-.037.011,4.227,4.227,0,0,0-.366-1.005l-.493-.983c.018-.051.044-.1.062-.146l1.429-4.006a.128.128,0,0,0-.1-.15.137.137,0,0,0-.172.055l-1.51,3.674a7.406,7.406,0,0,1-.592-1.575c-.029-.128-.11-.216-.183-.2s-.113.128-.091.263a8.823,8.823,0,0,0,.7,1.908,4.2,4.2,0,0,1-1.1,1.462,3.783,3.783,0,0,1-1.338.764,12.821,12.821,0,0,1,.179-2c.084-.545.088-.987-.026-1.009s-.292.384-.391.936a11.588,11.588,0,0,0-.241,2.42,14.356,14.356,0,0,0,.15,1.55,11.449,11.449,0,0,1-1.451-1.075c-.618-.53-1.217-1.119-1.9-1.6-.033-.018-.091.011-.135.073s-.062.124-.037.15c.625.519,1.159,1.137,1.747,1.733a12.347,12.347,0,0,0,1.9,1.583c.106.782.161,1.561.267,2.365a19.541,19.541,0,0,0,.464,2.38,21.381,21.381,0,0,0,1.755,4.522c.186.358.384.713.585,1.064l.186.318a1.249,1.249,0,0,1-.267-.128,4.179,4.179,0,0,1-.746-.607,10.724,10.724,0,0,1-1.294-1.6,18.648,18.648,0,0,1-1.9-3.75c-.026-.055-.132-.073-.238-.037s-.179.11-.164.172a19.242,19.242,0,0,0,1.689,4,11.461,11.461,0,0,0,1.268,1.82,5.016,5.016,0,0,0,.859.8,2.081,2.081,0,0,0,.61.314,1.209,1.209,0,0,0,.446.051.718.718,0,0,0,.223-.048,9.472,9.472,0,0,1,.472,1.89,23.907,23.907,0,0,1,.219,3.772c-.581-.325-1.144-.7-1.714-1.086-.351-.238-.705-.483-1.078-.709-.121-.073-.249-.146-.373-.216-.6-1.437-1.115-2.913-1.623-4.4-.263-.768-.519-1.535-.8-2.3s-.64-1.506-.994-2.244a18.84,18.84,0,0,0-1.192-2.153,3.433,3.433,0,0,0-.406-.508l-.146-.121a.491.491,0,0,0-.069-.058l-.051-.084-.04-.106a3.4,3.4,0,0,1,.037-1.129A9.28,9.28,0,0,0,13.4,15.5c-.08-.841-.38-1.6-.446-2.391-.015-.139-.088-.241-.161-.238s-.128.121-.121.263c.055.83.34,1.616.395,2.394a8.937,8.937,0,0,1-.241,2.369,3.652,3.652,0,0,0-.051,1.287l.062.179c.029.058.069.117.106.175a1.42,1.42,0,0,0,.157.143l.084.077a3.4,3.4,0,0,1,.34.446,18.228,18.228,0,0,1,1.115,2.12c.333.731.665,1.473.928,2.219s.5,1.535.749,2.307c.4,1.239.8,2.482,1.257,3.71a10.331,10.331,0,0,1-1.824-1.367,12.529,12.529,0,0,1-1.663-1.857,8.05,8.05,0,0,1-.651-1.049,4.743,4.743,0,0,1-.249-.559,6.2,6.2,0,0,0-.267-.61,6.182,6.182,0,0,0-1.583-1.846c.033-.175.055-.351.073-.53a4.422,4.422,0,0,0-.084-1.06,11.034,11.034,0,0,0-1.74-3.714c-.066-.1-.168-.143-.23-.1s-.066.15-.007.252a10.788,10.788,0,0,1,1.6,3.63,4.06,4.06,0,0,1,.055.958c-.011.088-.029.172-.044.26-.6-.464-1.239-.874-1.831-1.32-.234-.175-.431-.289-.49-.234s.077.267.314.453c.643.519,1.316.969,1.93,1.488-.026.1-.048.2-.073.307a20.019,20.019,0,0,1-.658,1.893c-.241.632-.515,1.239-.724,1.923a2.588,2.588,0,0,0-.062.281l-.04.238c-.029.161-.066.325-.1.486-.015.066-.033.128-.048.194-.3-.4-.61-.8-.917-1.2-.7-.9-1.378-1.806-2.029-2.738-.117-.161-.281-.234-.377-.172s-.08.245.026.413c.632.95,1.3,1.882,1.981,2.8.391.53.779,1.053,1.151,1.586-.007.029-.015.062-.022.091-.168.647-.358,1.29-.574,1.919a9.853,9.853,0,0,1-.724,1.66c-.117-.11-.234-.223-.351-.333a16.772,16.772,0,0,0-3.374-2.5c-.23-.1-.442-.1-.483.007s.088.267.292.373A16.164,16.164,0,0,1,7.01,33.063c.548.526,1.086,1.071,1.6,1.634a15.923,15.923,0,0,1-1.82.695c-.289.088-.49.274-.457.42s.3.2.614.124a16.844,16.844,0,0,0,2.084-.76c.26.3.508.6.749.91a6.381,6.381,0,0,1,.53.844l.508.9q.5.9.961,1.82c.61,1.232,1.181,2.482,1.725,3.747.146.336.285.676.424,1.016a7.982,7.982,0,0,0-1.363-.91A8.736,8.736,0,0,0,9.1,42.469c-.431-.026-.863-.055-1.294-.084-.022-.541-.051-1.086-.106-1.634a7.122,7.122,0,0,0-.647-2.562l-.175-.3c-.069-.1-.15-.179-.227-.27a3.785,3.785,0,0,0-.493-.45,9.724,9.724,0,0,0-1.075-.746c-.369-.227-.746-.431-1.111-.643a3.363,3.363,0,0,1-.965-.738c-.161-.2-.208-.4-.289-.409-.037,0-.066.058-.077.172a.685.685,0,0,0,.135.4,3.59,3.59,0,0,0,1.031.848c.366.23.735.442,1.086.676a8.562,8.562,0,0,1,1.009.746,3.482,3.482,0,0,1,.439.428c.058.077.124.146.179.227l.143.26a6.707,6.707,0,0,1,.523,2.4c.037.512.048,1.031.055,1.55-.548-.04-1.1-.088-1.641-.143a26.67,26.67,0,0,1-3.458-.53.174.174,0,0,0-.212.088c-.022.073.04.154.139.183a26.455,26.455,0,0,0,3.487.64c.563.073,1.126.139,1.692.2v.563a12.285,12.285,0,0,0,.2,2.617c.172.819.278,1.667.424,2.519A15.514,15.514,0,0,0,8.348,50.5a7.666,7.666,0,0,0-2.065-.72c-.325-.069-.647-.121-.972-.172-.04-.19-.08-.376-.113-.567a11.158,11.158,0,0,1-.219-2.76c.007-.161-.044-.292-.117-.3s-.146.113-.164.278a11.536,11.536,0,0,0,.172,2.84c.026.154.055.3.084.453l-.826-.121a6.794,6.794,0,0,1-2.047-.541c-.212-.106-.395-.175-.446-.113s.08.234.314.366a6.984,6.984,0,0,0,2.131.6c.314.051.625.1.936.146.135.665.3,1.323.475,1.974l.373,1.356a6.108,6.108,0,0,1,.154.662,3.616,3.616,0,0,1,.022.665A19.735,19.735,0,0,1,5.687,57.3c-.007.037-.015.073-.022.106a20.031,20.031,0,0,1-2.058-.932,9.334,9.334,0,0,1-2-1.363c-.19-.2-.38-.325-.442-.278s.044.26.245.479a9.708,9.708,0,0,0,2.025,1.477c.406.234.822.446,1.246.647-.457.336-.9.687-1.342.972a2.077,2.077,0,0,1-.888.333,2.84,2.84,0,0,1-.983-.088c-.029,0-.069.051-.091.121s-.015.139.015.15a3.231,3.231,0,0,0,1.086.2,2.547,2.547,0,0,0,1.1-.289C4.232,58.494,4.8,58.1,5.4,57.763h0c.058.022.121.051.179.077-.15.731-.318,1.458-.526,2.171-.069.219-.135.442-.216.654-.073.234-.168.376-.252.669a3.7,3.7,0,0,0-.048,1.521,17.737,17.737,0,0,0,.713,2.774l.439,1.338c.1.318.2.643.278.95-.051-.011-.1-.029-.146-.037A6.208,6.208,0,0,1,3.976,67.2a11.636,11.636,0,0,1-1.7-1.089c-.183-.143-.358-.219-.409-.164s.048.23.23.387a12.5,12.5,0,0,0,1.7,1.184,6.7,6.7,0,0,0,1.948.8,5.924,5.924,0,0,1,1.773.819c.574.351,1.137.731,1.707,1.108s1.137.76,1.729,1.119,1.232.687,1.817.987c.508.256.991.559,1.572.8a6.348,6.348,0,0,1-3.732,2.131,8.463,8.463,0,0,1-1.013.073,17.922,17.922,0,0,1-.859-2.032l-.1-.281c-.044-.1-.11-.212-.164-.318l-.227-.256c-.084-.073-.168-.139-.252-.208a5.123,5.123,0,0,0-1.111-.581c-.124-.048-.249-.091-.373-.135a5.311,5.311,0,0,0-.8-1.206A4.477,4.477,0,0,0,4.3,69.215a5.824,5.824,0,0,1-1.415-.863c-.274-.249-.515-.45-.61-.384s.015.387.322.691a6.345,6.345,0,0,0,1.484.961,4.015,4.015,0,0,1,1.246,1.031,4.82,4.82,0,0,1,.468.662c-.42-.113-.844-.208-1.268-.289a17.819,17.819,0,0,0-2.413-.292c-.143,0-.256.055-.256.128s.1.143.241.154a17.216,17.216,0,0,1,2.365.336,15.21,15.21,0,0,1,1.568.413,5.948,5.948,0,0,1,.5,1.89c.033.329.051.665.062,1a4.061,4.061,0,0,1-.621-.439.15.15,0,0,0-.194.015.141.141,0,0,0,0,.194,4.244,4.244,0,0,0,.819.6c.011.673-.007,1.349-.026,2.021-.018.57-.044,1.155-.011,1.751a7.654,7.654,0,0,0,.281,1.692,16.908,16.908,0,0,1-1.7-1.945A11.675,11.675,0,0,1,4.159,77a5.552,5.552,0,0,1-.614-1.7c-.011-.051-.08-.084-.154-.08s-.132.055-.124.113a5.792,5.792,0,0,0,.552,1.839,12.3,12.3,0,0,0,.939,1.656A17.7,17.7,0,0,0,6.29,80.8c-.461-.234-.928-.526-1.4-.793a10.984,10.984,0,0,0-1.619-.811,3.907,3.907,0,0,0-1.82-.26c-.216.029-.369.121-.351.194s.183.11.376.088a5.35,5.35,0,0,1,3.187,1.166c.5.318.98.654,1.532.95a4.394,4.394,0,0,0,.98.362.581.581,0,0,1,.048.048l.026-.029.048.011c.073.172.143.34.223.508a10.421,10.421,0,0,0,.936,1.517c.413.578.855,1.119,1.309,1.652a14.475,14.475,0,0,1-2.219-.26,4.332,4.332,0,0,1-1.959-.808,7.266,7.266,0,0,0-2.029-1.206,12.256,12.256,0,0,0-2.208-.746c-.278-.055-.519.033-.512.146s.183.208.424.271a11.594,11.594,0,0,1,2.105.753A6.812,6.812,0,0,1,5.237,84.7a3.191,3.191,0,0,0,1.06.636,7.566,7.566,0,0,0,1.133.336,15,15,0,0,0,2.307.311c.186.007.369.026.556.04.124.143.249.281.373.424.684.775,1.382,1.535,2.029,2.31a9.294,9.294,0,0,1-1.568,1.557,6.5,6.5,0,0,1-1.356.8,5.534,5.534,0,0,1-.98-.83,4.9,4.9,0,0,0-.954-.716,6.075,6.075,0,0,0-1.086-.475,12.725,12.725,0,0,0-2.27-.45A4.5,4.5,0,0,1,3.413,88.4c-.179-.073-.373-.132-.523-.2a.869.869,0,0,1-.358-.318c-.406-.6-.757-1.3-1.133-1.956-.066-.113-.172-.175-.238-.139s-.069.157-.011.274c.366.673.684,1.345,1.108,2.014a1.2,1.2,0,0,0,.479.435c.194.091.366.146.537.219a4.684,4.684,0,0,0,1.144.285,12.209,12.209,0,0,1,2.19.483,4.68,4.68,0,0,1,1.839,1.13l.409.406a2.609,2.609,0,0,0,.322.281l-.1.033a14.575,14.575,0,0,1-2.361.219L4.3,91.629a.137.137,0,0,0-.124.143.14.14,0,0,0,.124.143l2.42.04a14.724,14.724,0,0,0,2.456-.128,4.8,4.8,0,0,0,.512-.139l.11.077c.172.1.34.2.512.292a12.92,12.92,0,0,0,2.168.859c1.477.45,2.983.735,4.456,1.071l.015-.073c.117.132.23.267.347.4-.066.048-.132.1-.2.146-.636.472-1.268.95-1.912,1.393a12.607,12.607,0,0,1-2,1.181,3.107,3.107,0,0,1-.526.212,3.665,3.665,0,0,1-.534.154.08.08,0,0,0-.029,0c-.42-.355-.844-.7-1.283-1.031-.479-.362-.969-.716-1.48-1.038a8.976,8.976,0,0,0-1.619-.852c-.216-.066-.4-.029-.428.08s.1.249.274.314a8.577,8.577,0,0,1,1.5.874c.483.333.943.7,1.4,1.071.27.223.534.453.8.687-.106.018-.212.04-.318.069A3.618,3.618,0,0,0,8.965,99.1c-.472.669-.815,1.393-1.217,2.062a2.9,2.9,0,0,1-1.6,1.5c-.245.058-.453.1-.457.183s.223.15.519.091a2.23,2.23,0,0,0,1.093-.621,5.6,5.6,0,0,0,.757-.965c.435-.676.8-1.382,1.265-2a3.139,3.139,0,0,1,1.747-1.283,2.4,2.4,0,0,1,.534-.069c.055,0,.121-.011.183-.018q.647.6,1.25,1.239c.2.216.395.431.578.651l.263.333c.1.121.19.249.292.366a9,9,0,0,0,1.342,1.3,10.06,10.06,0,0,0,3.308,1.718,11.178,11.178,0,0,0,1.831.387c.307.051.618.066.928.088s.651,0,.976-.007a8.092,8.092,0,0,0,3.458-1.25c2.891,2.614,5.757,5.271,8.586,7.943L34.282,123.8h5.75l-.219-12.739c.519-.618,1.053-1.225,1.612-1.806a29.184,29.184,0,0,1,4.613-3.9,29.616,29.616,0,0,1,3.509-2.036c.493.483.991.972,1.506,1.451a18.062,18.062,0,0,0,2.38,1.923,8,8,0,0,0,2.829,1.221c.179.037.333-.022.351-.132s-.091-.234-.252-.281a7.418,7.418,0,0,1-2.544-1.345,17.3,17.3,0,0,1-2.127-2.018c-.387-.42-.768-.855-1.148-1.294.278-.128.556-.26.833-.38.464-.208.936-.4,1.411-.585.238-.1.472-.19.713-.278l.559-.208a9.055,9.055,0,0,0,2.069.965,13.254,13.254,0,0,0,2.35.541,17.558,17.558,0,0,0,4.715,0,.259.259,0,0,0,.216-.292l-.015-.161a.27.27,0,0,0-.26-.256,18.686,18.686,0,0,1-1.974-.033,3.54,3.54,0,0,1,.621-2.043,6.535,6.535,0,0,1,1.729-1.681c1.345-.965,2.939-1.645,4.328-2.72a10.938,10.938,0,0,0,2.9-3.476,3.76,3.76,0,0,1,1.561.113c.175.048.333.033.362-.037l.029-.077c.026-.069-.1-.172-.292-.23a4.3,4.3,0,0,0-1.448-.19c.029-.058.058-.113.088-.172a16.147,16.147,0,0,0,.658-1.557,3.224,3.224,0,0,0,.592.1c.186,0,.325-.1.314-.212s-.139-.2-.289-.212a2.921,2.921,0,0,1-.468-.084,27.932,27.932,0,0,0,.811-2.91c.066-.292.058-.534-.011-.548l-.08-.018c-.073-.015-.186.2-.256.483a27.528,27.528,0,0,1-.863,2.866c-.585-.219-1.162-.556-1.787-.8a6.224,6.224,0,0,0-2.99-.457,4.343,4.343,0,0,0-1.5.413,12.13,12.13,0,0,0-1.29.764c-.139.088-.278.168-.417.252.044-.062.091-.121.135-.183,1.217-1.692,2.339-3.425,3.48-5.15l.384-.581c.4-.1.8-.2,1.192-.311a20.965,20.965,0,0,0,3.59-1.352c.1-.055.146-.15.11-.216a.188.188,0,0,0-.241-.037,20.429,20.429,0,0,1-3.564,1.232c-.252.066-.5.124-.76.183.9-1.36,1.806-2.72,2.723-4.065.406-.592.629-1.126.508-1.214l-.132-.091c-.121-.084-.545.311-.961.9-1.1,1.557-2.186,3.129-3.261,4.7a16.321,16.321,0,0,1-1.828.23c-1.257.062-2.533.121-3.791.135-.57,0-1.137,0-1.7-.033.121-.077.245-.15.366-.227l2.175-1.5,2.08-1.623c.687-.545,1.323-1.155,1.989-1.729s1.276-1.206,1.9-1.824l.928-.932c.307-.311.585-.654.877-.98.57-.665,1.173-1.3,1.714-1.985l1.6-2.073c.186-.241.263-.483.172-.548s-.311.058-.508.289l-1.678,1.981c-.567.654-1.192,1.257-1.784,1.886-.3.307-.589.632-.907.925l-.954.877c-.64.581-1.257,1.184-1.945,1.707s-1.327,1.1-2.025,1.6l-2.1,1.5-.523.329a9.84,9.84,0,0,1,1.111-4.028,10.475,10.475,0,0,1,1.517-2.062c.589-.636,1.236-1.232,1.868-1.85a16.985,16.985,0,0,0,1.8-1.992,11.174,11.174,0,0,0,1.352-2.332,14.905,14.905,0,0,0,1.078-5.227c.015-.311-.033-.556-.106-.556h-.08c-.073,0-.146.234-.168.537a14.6,14.6,0,0,1-1.144,5.063,12.5,12.5,0,0,1-3.122,4.1c-.636.6-1.3,1.188-1.926,1.835a10.12,10.12,0,0,0-2.979,7.007l-.87.545c-.738.439-1.5.833-2.252,1.25q-1.508.79-3.067,1.466a19.665,19.665,0,0,1,.227-3.564,13.317,13.317,0,0,1,.384-1.649,13.352,13.352,0,0,0,2.23-2.1,17.132,17.132,0,0,0,2.906-4.942,24.127,24.127,0,0,0,1.206-4.189,7.981,7.981,0,0,0,3.2-1.575c.238-.19.472-.4.687-.6l.651-.6a7.862,7.862,0,0,0,1.243-1.352,2.946,2.946,0,0,0,.409-.874,3.5,3.5,0,0,0,.1-.943,10.706,10.706,0,0,0-.23-1.8c-.055-.292-.113-.581-.157-.87-.026-.15-.033-.271-.066-.446a1.2,1.2,0,0,0-.117-.344c.088-.106.175-.212.26-.322a8.773,8.773,0,0,0,3.293-.4c.38-.113.757-.238,1.133-.373A10.993,10.993,0,0,0,70.909,60,9.815,9.815,0,0,0,71.6,62.65a2.562,2.562,0,0,1,.146,1.228,5.294,5.294,0,0,1-.23,1.265,17.647,17.647,0,0,1-1.309,2.3c-.472.779-.863,1.6-1.287,2.372-.106.194-.219.384-.333.574l-.175.289a2.291,2.291,0,0,0-.168.344,5.829,5.829,0,0,0-.351,1.378,5.187,5.187,0,0,0,.3,2.837l.618-.307a4.554,4.554,0,0,1-.289-2.445,5.265,5.265,0,0,1,.289-1.232,1.751,1.751,0,0,1,.124-.263L69.1,70.7c.113-.2.227-.4.333-.6.428-.808.79-1.616,1.236-2.383a17.441,17.441,0,0,0,1.3-2.4,5.6,5.6,0,0,0,.23-1.378,3.439,3.439,0,0,0,.026-.362,2.43,2.43,0,0,0-.037-.369,4.074,4.074,0,0,0-.179-.684,9.653,9.653,0,0,1-.716-2.529,11.483,11.483,0,0,1,.168-1.776,11.575,11.575,0,0,0,1.718-.822.083.083,0,0,0,.044-.106.086.086,0,0,0-.113-.018ZM21.434,13.555a1.609,1.609,0,0,0,.3-.164A3.038,3.038,0,0,0,22.169,13a5.355,5.355,0,0,0,.676-.885,6.525,6.525,0,0,0,.5-.98,5.157,5.157,0,0,0,.186-.519c.051-.157.106-.314.172-.472.037-.091.084-.183.124-.278.062.779.124,1.554.157,2.328a14.6,14.6,0,0,1,0,1.649,10.036,10.036,0,0,1-.241,1.612,10.174,10.174,0,0,1-.486,1.55,7.675,7.675,0,0,1-.344.72c-.051.091-.11.179-.164.26a4.824,4.824,0,0,0-.281-.643,11.447,11.447,0,0,1-1.013-2.018,10.667,10.667,0,0,1-.2-1.725.682.682,0,0,0,.172-.051Zm-2.873,6.77a18.9,18.9,0,0,1-.5-2.3c-.121-.768-.2-1.575-.325-2.365-.1-.669-.223-1.327-.285-1.978a4.275,4.275,0,0,0,1.7-1.031,4.949,4.949,0,0,0,.98-1.3l.347.727a3.912,3.912,0,0,1,.34,1.049c.135.724.04,1.51.238,2.31a11.628,11.628,0,0,0,1,2.124,3.774,3.774,0,0,1,.42,2.095,4.611,4.611,0,0,1-.256,1.053c-.128.358-.267.727-.387,1.1-.409,1.192-.7,2.409-1.016,3.6-.15-.252-.3-.5-.442-.757a20.6,20.6,0,0,1-1.806-4.328ZM53.254,60.519c.669-.786,1.4-1.532,2.16-2.259s1.521-1.455,2.314-2.127,1.623-1.334,2.445-2c1.645-1.323,3.29-2.657,4.832-4.12a26.791,26.791,0,0,0,2.2-2.307q.428-.521.811-1.086a4.163,4.163,0,0,0,.369,1.312,1.835,1.835,0,0,0,.292.417c.139.143.219.2.318.307a6.281,6.281,0,0,1,.534.647c.172.23.34.472.53.713a3.447,3.447,0,0,0,.493.523c-.015.048-.029.091-.044.139a16.292,16.292,0,0,1-.665,1.747c-.267.563-.567,1.119-.874,1.667a33.372,33.372,0,0,1-2.025,3.176c-.366.5-.749,1-1.159,1.462-.037-.037-.073-.073-.106-.11a1.37,1.37,0,0,1-.358-.709.169.169,0,0,0-.164-.157c-.073,0-.124.1-.117.208a1.672,1.672,0,0,0,.406.866c.04.048.084.091.124.135a11.258,11.258,0,0,1-1.086,1.049c-.442.34-1.027.709-1.535,1.093l-1.528,1.148c-.051.04-.1.077-.157.117,0-.161.011-.322.011-.483q-.011-1.349-.077-2.7c1.744-1.908,3.4-3.878,5.033-5.874.1-.117.132-.234.088-.274s-.157.018-.26.128c-1.6,1.773-3.228,3.524-4.909,5.209-.044-.709-.1-1.418-.175-2.124-.029-.325-.113-.574-.186-.567s-.117.267-.1.592c.066.811.1,1.623.128,2.434q-.916.91-1.853,1.791c-.026.022-.048.044-.073.066.033-.983.062-1.97.091-2.954.007-.267-.048-.479-.121-.483s-.146.2-.161.468c-.069,1.115-.139,2.23-.219,3.345a37.754,37.754,0,0,1-3.388,2.8A13.032,13.032,0,0,1,53,65.026a4.426,4.426,0,0,1-1.067.347,1.188,1.188,0,0,1-.742-.073l-.011-.044a.642.642,0,0,1-.026-.164,3.058,3.058,0,0,1,.007-.684,4.541,4.541,0,0,1,.4-1.371c.058-.124.128-.245.194-.366.091-.088.139-.172.113-.2h-.007a12.717,12.717,0,0,1,1.4-1.948ZM25.542,100.6l-1.323-1.115c-.45-.373-.863-.72-1.287-1.1-.841-.757-1.656-1.55-2.46-2.354-.592-.6-1.173-1.206-1.755-1.813a17.822,17.822,0,0,1,2.76-1.554,5.651,5.651,0,0,1,2.116-.453,4.847,4.847,0,0,1,2.076.523,6.569,6.569,0,0,1,.928.567c-.066.132-.139.26-.216.384a3.9,3.9,0,0,1-1.071,1.155,3.014,3.014,0,0,1-.709.34,1.975,1.975,0,0,1-.38.113l-.4.058a.251.251,0,0,0-.157.263.2.2,0,0,0,.2.219l.453-.044a2.408,2.408,0,0,0,.446-.11,3.644,3.644,0,0,0,.855-.362,4.575,4.575,0,0,0,1.316-1.279c.069-.106.135-.212.2-.318q.164.143.329.3c.285.245.541.541.811.808.26.289.519.574.771.87.329.391.651.79.972,1.2-.76.826-1.426,1.641-2.146,2.409a18.106,18.106,0,0,1-1.817,1.744c-.172-.15-.344-.3-.519-.446Zm4.423-5.706c-.27-.3-.556-.592-.833-.885-.3-.281-.578-.578-.9-.841-.179-.161-.373-.314-.567-.464.27-.625.483-1.268.687-1.893a6.9,6.9,0,0,1,.6-1.466,3.424,3.424,0,0,1,.5-.563,3.525,3.525,0,0,1,.61-.453A5.511,5.511,0,0,1,33,87.692a13.812,13.812,0,0,0,2.084.987L34.79,100.7l-1.74-2.131c-1-1.232-2-2.475-3.081-3.674ZM23.843,74.138a9.865,9.865,0,0,0-.8-2.255,5.015,5.015,0,0,0-1.773-2.062c-.037-.018-.1.015-.135.08s-.048.132-.022.157A4.661,4.661,0,0,1,22.6,72.088a9.037,9.037,0,0,1,.483,1.6,22.2,22.2,0,0,0-2.292-1.239,9.556,9.556,0,0,0-2.043-.7c-.183-.04-.373-.058-.559-.084a4.516,4.516,0,0,0-.589,0,2.489,2.489,0,0,0-1.188.391c-.04.029-.08.051-.121.08a14.449,14.449,0,0,1-.815-1.912,22.9,22.9,0,0,1-.709-2.387c-.1-.4-.179-.8-.241-1.206s-.135-.877-.234-1.3c-.139-.643-.322-1.268-.519-1.89a25.712,25.712,0,0,0,2.54,1.923,6.014,6.014,0,0,0,.83.446c.3.132.581.223.859.329.559.212,1.115.442,1.678.676a8.851,8.851,0,0,0,3.557.888c.245.274.5.545.76.8a15.606,15.606,0,0,0,1.667,1.469A6.346,6.346,0,0,0,27.7,71.028l.037-.146.194.757.578,2.325c.2.79.42,1.583.691,2.372.113.351.245.705.387,1.053q-.828-.433-1.645-.885-1.782-.981-3.535-2.021c-.186-.11-.377-.227-.567-.34ZM11.824,58.022C11.393,56.366,11,54.7,10.406,53.04c-.058-.154-.117-.3-.179-.457.3.4.585.833.874,1.257l.307.45a1.873,1.873,0,0,0,.183.234,2.162,2.162,0,0,0,.2.2c.274.256.556.486.833.72,1.119.921,2.215,1.861,3.246,2.869.249.241.493.49.735.738v.073c-1.528-.08-3.049-.15-4.562-.263l-.223-.844ZM17.475,60c.439.5.863,1.005,1.261,1.535l.629.87.592.9c.387.618.8,1.225,1.225,1.82.464.64.947,1.268,1.458,1.875a9.924,9.924,0,0,1-2.745-.738c-.563-.216-1.133-.435-1.711-.636-.289-.1-.589-.19-.844-.3a5.743,5.743,0,0,1-.779-.391,31.641,31.641,0,0,1-2.921-2.105l-.08-.058c-.146-.413-.3-.819-.475-1.225-.088-.2-.179-.409-.281-.614-.055-.1-.1-.2-.164-.311-.026-.048-.066-.113-.08-.146l-.044-.1a8.232,8.232,0,0,1-.289-.852c1.755.183,3.505.311,5.245.464Zm5.633-16.5c-.011-.285-.026-.574-.04-.859.091.132.179.263.274.384,1.126,1.462,2.372,2.72,3.381,4.145l.658.98c.015.091.029.186.037.278a2.521,2.521,0,0,1-.183,1.543l-.117.212a1.823,1.823,0,0,0-.117.241,2.793,2.793,0,0,0-.135.5,4.072,4.072,0,0,0-.055.983,10.35,10.35,0,0,0,.98,3.6,9.49,9.49,0,0,0,.936,1.645,3.011,3.011,0,0,1,.439,1.488,18.046,18.046,0,0,1-.172,3.505c-.11.877-.241,1.755-.373,2.635-.1-.106-.227-.249-.34-.369-.146-.154-.289-.307-.439-.457-.022-.022-.044-.04-.062-.062l-.552-1.963q-.313-1.146-.61-2.3c-.2-.786-.42-1.554-.636-2.325-.863-3.067-1.769-6.123-2.449-9.193a21.533,21.533,0,0,1-.38-2.274c-.015-.179-.015-.351-.026-.526v-.614c0-.406,0-.811-.018-1.217Zm-8.751-9.8a5.393,5.393,0,0,1,2.168,1.214,29.1,29.1,0,0,1,3.681,3.787c.541.654,1.067,1.323,1.564,2.007.048.943.084,1.883.1,2.818,0,.395,0,.786,0,1.173l-.018.581v.11c-1.049-1.455-2.029-2.983-3.07-4.481a34,34,0,0,0-2.087-2.763c-.376-.442-.808-.866-1.2-1.257s-.779-.815-1.151-1.239c-.552-.625-1.078-1.268-1.59-1.923a3.816,3.816,0,0,1,1.612-.033ZM30.2,42.918l3.038,4.1c.9,1.217,1.817,2.445,2.668,3.659l-.124,7.2q-1-1.283-1.967-2.6-1.59-2.149-3.136-4.339l-1.539-2.19c-.457-.651-.892-1.3-1.371-1.963-.018-.077-.033-.154-.048-.23a4.574,4.574,0,0,1-.135-1.663.848.848,0,0,1,.132-.3.727.727,0,0,1,.106-.106c.04-.033.124-.091.183-.135a6.471,6.471,0,0,0,.705-.625A12.041,12.041,0,0,0,29.826,42.4l.377.515Zm7.782-10.367-.073-4.361a5.767,5.767,0,0,0,1.36-1.861c.186-.369.351-.746.5-1.126.077-.19.146-.38.216-.574s.135-.4.2-.537a2.664,2.664,0,0,1,.738-.815c.2-.164.42-.325.64-.486l.091.011a.718.718,0,0,1,.011-.088l.216-.161a9.456,9.456,0,0,0,1.795-1.667.134.134,0,0,0-.026-.186.144.144,0,0,0-.19,0,9.065,9.065,0,0,1-1.74,1.491,12.118,12.118,0,0,1,.292-1.97,5.29,5.29,0,0,1,.453-1.162,8.536,8.536,0,0,1,.7-1.071c.684-.932,1.382-1.857,2.08-2.782a13.429,13.429,0,0,0-.08,2.423,12.62,12.62,0,0,0,.2,1.564l.314,1.513.245,1.177c-.428.5-.877.95-1.334,1.51a15.1,15.1,0,0,0-2.259,4.3c-.274.753-.515,1.51-.757,2.255s-.5,1.458-.79,2.182a51.785,51.785,0,0,1-2.712,5.7l-.091-5.286Zm8.363-18.785c.121-.161.238-.322.358-.479h.018a15.124,15.124,0,0,0,2.211.121,16.165,16.165,0,0,1,2.146,0c.234.007.468.015.7.018-.084.175-.168.351-.26.523a10.826,10.826,0,0,1-.6.983l-.662.98c-.877,1.3-1.751,2.61-2.676,3.867q-.559.757-1.148,1.484l-.154-.684-.336-1.5a12.722,12.722,0,0,1-.212-1.484,12.277,12.277,0,0,1,.132-3c.018-.1.037-.19.058-.285.139-.183.278-.366.413-.548Zm-.113,9.957c.183,1.005.267,2.021.384,3.03.062.5.073,1.016.11,1.524s.069,1.016.066,1.524a37.742,37.742,0,0,1-1.608,12.015l-.91,2.943c-.037.15-.084.289-.124.435-.091-.11-.183-.216-.27-.325a6.429,6.429,0,0,1-.8-1.184,2.213,2.213,0,0,1-.2-.629c-.033-.238-.058-.486-.08-.735l-.128-1.491c-.018-.234-.033-.464-.051-.7A49.592,49.592,0,0,0,44.74,33.4c.051-.227.033-.417-.037-.435s-.175.143-.238.366a52.224,52.224,0,0,1-1.9,5.969c-.11-1.484-.212-2.968-.292-4.452a.142.142,0,1,0-.281.011q.055,2.7.179,5.392c-.084.19-.164.38-.252.57a12.844,12.844,0,0,1-.961,1.707,4.915,4.915,0,0,0-.815,1.893,9.361,9.361,0,0,0,.048,2.032,18.531,18.531,0,0,1,.015,1.967c0,.958.026,1.912.058,2.866-.662.534-1.3,1.093-1.923,1.685l-.212-12.242a51.2,51.2,0,0,0,3.805-8.159c.27-.746.523-1.521.738-2.281s.431-1.506.673-2.241a14.169,14.169,0,0,1,1.97-4.09c.238-.314.523-.64.808-.976l.121.738Zm-6.609,65.39c-.106.015-.212.022-.318.037l-.23-6.825a7.6,7.6,0,0,1,1.246-1.115,21.558,21.558,0,0,1,2.687-1.6c.037.7.073,1.4.121,2.1a5.458,5.458,0,0,0-2.259,2.062,8.95,8.95,0,0,0-1.246,5.351ZM30.038,58.563a5.7,5.7,0,0,0-.183-.961,3.73,3.73,0,0,0-.179-.486,3.815,3.815,0,0,0-.281-.464,8.663,8.663,0,0,1-.877-1.473,9.634,9.634,0,0,1-.98-3.3,2.453,2.453,0,0,1,.292-1.539,2.294,2.294,0,0,0,.285-1.013v-.08l1.6,2.376q1.513,2.221,3.07,4.419c.958,1.345,1.93,2.683,2.964,4l-.058,3.392-.154,6.327c-.972-.731-1.963-1.393-2.95-2.062l-2.036-1.385c-.333-.234-.665-.468-.983-.705l-.029-.022c.135-1.093.289-2.193.4-3.308a18.867,18.867,0,0,0,.1-3.7ZM42.832,73.546a27.411,27.411,0,0,0-3.571,3.184c-.121.139-.238.285-.355.431l-.2-6.082,2.036-1.828c.695-.61,1.389-1.221,2.113-1.784q-.049,3.038-.015,6.079Zm-2.5-4.759-1.67,1.393L38.6,68.158l-.022-1.374c.106-.186.216-.369.318-.556.545-.987,1.056-1.985,1.568-2.968.318-.607.64-1.206.98-1.784a7.237,7.237,0,0,0,.523.709c.314.376.647.72.983,1.06q-.049,1.568-.084,3.133c0,.15,0,.3-.007.453-.881.61-1.7,1.287-2.519,1.956Zm2.643-6.474a8.222,8.222,0,0,1-1.162-1.455c.088-.143.179-.285.27-.42A13.848,13.848,0,0,1,43.1,59.111Q43.031,60.712,42.978,62.313ZM41.242,59.4a8.077,8.077,0,0,1-.168-1.078c-.058-.632-.037-1.3-.062-1.967-.033-1.261-.1-2.519-.168-3.772.881-.786,1.813-1.524,2.771-2.241-.091,1.236-.179,2.475-.252,3.71q-.1,1.6-.175,3.2A14.45,14.45,0,0,0,41.238,59.4Zm-.819-3.034a12.473,12.473,0,0,0,.344,3.7c-.559.83-1.053,1.689-1.521,2.54-.241.439-.479.874-.72,1.309l-.15-8.806a23.411,23.411,0,0,1,1.948-2.047c.044,1.1.088,2.2.1,3.308Zm2.529,21.859a26.318,26.318,0,0,0-3.421,1.861c-.175.113-.347.238-.515.369l-.029-.822a9.741,9.741,0,0,1,1.316-2,21.482,21.482,0,0,1,2.555-2.46c.022,1.02.055,2.036.1,3.056Zm1.294-11.737A4.164,4.164,0,0,1,45,66.133c.15-.058.344-.113.512-.168s.347-.121.515-.186c.289-.113.574-.234.859-.355A18.192,18.192,0,0,0,47.08,69.9a31.767,31.767,0,0,1-2.785,2.486q-.066-2.944-.051-5.892Zm-.771-17.564c-.914.618-1.824,1.265-2.712,1.952-.037-.822-.069-1.645-.077-2.464a19.4,19.4,0,0,0-.044-2,8.9,8.9,0,0,1-.077-1.93,4.494,4.494,0,0,1,.731-1.736A13.318,13.318,0,0,0,42.2,41.1l.066,1.265c.015.252.033.5.058.76a2.711,2.711,0,0,0,.227.8A11.389,11.389,0,0,0,44,46.058c-.011.1-.022.194-.037.3-.058.519-.106,1.031-.154,1.546-.026.281-.044.563-.066.848l-.27.186ZM25.893,63.659l.855,3.359.826,3.25a6.294,6.294,0,0,1-1.521-.826,14.764,14.764,0,0,1-1.608-1.385,28.054,28.054,0,0,1-2.789-3.268q-.636-.872-1.225-1.776l-.614-.91c-.212-.3-.439-.589-.654-.885-.3-.391-.621-.768-.943-1.14q1.02.093,2.036.212c.4.051.808.106,1.181.186a3.661,3.661,0,0,1,1.013.409,12.645,12.645,0,0,1,1.923,1.378c.526.442,1.031.917,1.524,1.4ZM11.082,59.532a11.471,11.471,0,0,0,.387,1.316l.088.194.069.135c.044.08.084.175.128.263.026.055.048.11.069.164a4.467,4.467,0,0,0-1.407-.541c-.113-.015-.2.033-.208.106s.066.15.161.172a4.643,4.643,0,0,1,1.586.724c.026.015.048.037.073.051.132.347.256.7.369,1.053a19.924,19.924,0,0,1,.61,2.413c.058.3.1.592.139.892-.68-.424-1.345-.881-1.992-1.356a19.232,19.232,0,0,1-2.5-2.131,4.6,4.6,0,0,1-.811-3c-.015-.431-.029-.87-.044-1.3l.161.055a15.233,15.233,0,0,0,2.442.585c.212.029.424.051.636.077l.029.132ZM31.146,75.644c-.267-.709-.49-1.451-.7-2.2l-.632-2.3-1.294-4.609-.066-.23c.113.1.227.186.34.281.333.267.665.519,1,.768L31.8,68.813c1.268.925,2.555,1.842,3.692,2.837l-.23,9.486a17.337,17.337,0,0,1-1.974-1.729,10.8,10.8,0,0,1-2.142-3.761Zm8.316,18.083-.08-2.361c1.349-.212,2.69-.475,4.014-.786-.011.1-.015.2-.029.307l-.037.362-.069.351-.135.7c-.048.234-.135.45-.2.676a4.754,4.754,0,0,1-.227.665,9.149,9.149,0,0,1-.618,1.261l-.362.607c-.124.2-.285.384-.424.578a17.391,17.391,0,0,1-1.773,1.985l-.073-4.354Zm1.667-4.818a7.521,7.521,0,0,1,.914-4.416,4.48,4.48,0,0,1,1.184-1.334c.04.581.077,1.162.113,1.74.073,1.21.143,2.416.146,3.6Q42.313,88.73,41.129,88.91ZM44.5,77.476q-.093-1.771-.15-3.546c.186-.154.373-.311.556-.468a28.145,28.145,0,0,0,4.514-4.6c.325-.431.632-.877.928-1.331l.424-.691.186-.336a2.035,2.035,0,0,0,.38.069,2.985,2.985,0,0,0,.8-.058,5.542,5.542,0,0,0,1.338-.5,11.407,11.407,0,0,0,1.108-.669l-.018.044a5.532,5.532,0,0,0,2.138.387,6.025,6.025,0,0,0,1.181-.186,7.62,7.62,0,0,1-.336,1,5.673,5.673,0,0,1-.515.95c-.106.146-.23.281-.344.424l-.172.208-.2.194-.4.387-.428.366c-.281.245-.581.483-.877.72-1.192.947-2.416,1.886-3.586,2.884-1.188.961-2.317,2.08-3.476,2.943a21.649,21.649,0,0,1-3.063,1.813Zm11.386-13.1c.881-.716,1.711-1.477,2.511-2.259a.237.237,0,0,1-.007.073c-.066.669-.128,1.345-.223,2.007a4.829,4.829,0,0,1-1.484.274,3.474,3.474,0,0,1-.8-.1Zm2.946-2.153c.011-.186.015-.369.022-.556.208-.208.42-.42.625-.632.464-.479.914-.965,1.363-1.451.011.768.011,1.539,0,2.307-.011.278-.029.556-.044.833a12.708,12.708,0,0,1-2.105,1.265c.058-.589.11-1.177.135-1.766ZM48.023,64.9c.651-.314,1.294-.647,1.923-1.005l.409-.241a4.051,4.051,0,0,0-.135.632,3.849,3.849,0,0,0-.029.9.91.91,0,0,0,.029.223l.04.2c.007.048.033.1,0,.135l-.344.581-.42.647c-.292.424-.592.841-.914,1.243-.175.223-.362.442-.548.658a16.742,16.742,0,0,1-.113-3.919c.037-.018.073-.033.11-.051ZM49.69,53.924a9.735,9.735,0,0,1-.4,3.977c-.11.314-.234.621-.373.925s-.3.585-.464.917a13.47,13.47,0,0,0-.83,1.985,15.631,15.631,0,0,0-.7,3.312c-.336.135-.676.26-1.02.38-.168.062-.34.11-.508.164s-.329.088-.519.15a3.878,3.878,0,0,0-.621.252q.027-4.09.157-8.181c.322-.281.654-.545,1-.811l1.342-.983c.9-.651,1.806-1.309,2.7-1.985.08-.058.157-.124.238-.183a.3.3,0,0,0,.007.08Zm1.491-8.85c.1-.077.194-.161.292-.241l.051.11a7.916,7.916,0,0,1,2.676-.775,18.769,18.769,0,0,1,2.913.077c.084,0,.172,0,.26.007a23.917,23.917,0,0,1-1.382,2.2,24.59,24.59,0,0,1-2.127,2.489,35.43,35.43,0,0,1-3.633,3.176c-.062-.8-.113-1.6-.172-2.4a27.1,27.1,0,0,1-.048-3.772c.4-.281.79-.567,1.173-.87Zm-3.538,2.442c.61-.391,1.225-.786,1.831-1.2a29.811,29.811,0,0,0-.011,3.429c.044.943.08,1.893.135,2.84-.263.2-.523.395-.786.585-.9.647-1.809,1.276-2.727,1.908l-1.378.961c-.08.058-.164.124-.245.183.026-.7.051-1.407.08-2.109.066-1.55.154-3.1.249-4.642.366-.271.731-.541,1.093-.793.57-.4,1.162-.779,1.758-1.162ZM52.72,28.077c.61-.38,1.239-.731,1.872-1.075l.077.007a.348.348,0,0,1,0-.051c.877-.475,1.762-.939,2.636-1.433.15-.084.3-.172.45-.256-.417.9-.8,1.809-1.246,2.679a5.331,5.331,0,0,1-1.045,1.5,7.04,7.04,0,0,1-1.5,1.071,9.543,9.543,0,0,0-.826.512c-.274.2-.512.4-.753.614q-.724.631-1.389,1.327a14.573,14.573,0,0,0-1.25,1.469,6.13,6.13,0,0,0-.534.833,4.069,4.069,0,0,0-.336.954c-.278,1.29-.271,2.562-.479,3.783a7.88,7.88,0,0,1-.475,1.762c-.241.567-.519,1.151-.76,1.744a10.926,10.926,0,0,0-.607,1.857,11.184,11.184,0,0,0-.223,1.692c-.362.216-.72.435-1.078.665-.124.08-.241.161-.362.241.037-.5.077-1.009.124-1.506.026-.249.048-.515.084-.716s.117-.475.172-.709l.859-2.954A38.62,38.62,0,0,0,47.58,30.1a2.808,2.808,0,0,1,.146-.592,11.022,11.022,0,0,0,4.993-1.429Zm.563-14.7a5.1,5.1,0,0,0,2.149-.647,6.027,6.027,0,0,1,.91-.537,2.388,2.388,0,0,1,.991-.183c-.066.384-.113.768-.146,1.148a5.349,5.349,0,0,1-.263,1.382,14.133,14.133,0,0,1-.6,1.3q-1.294,2.6-2.694,5.143c-.472.844-.95,1.685-1.451,2.511a23.283,23.283,0,0,1-1.6,2.38,8.752,8.752,0,0,1-.972,1.009c-.355.307-.735.581-1.133.866a5.318,5.318,0,0,0-.972.848c-.011-.121-.018-.245-.029-.366-.048-.515-.066-1.034-.139-1.546-.135-1.023-.241-2.054-.442-3.067l-.23-1.3.135-.168c.49-.629.954-1.276,1.4-1.926.9-1.3,1.733-2.643,2.562-3.977l.625-1a10.959,10.959,0,0,0,.592-1.053c.121-.249.23-.5.336-.757.322,0,.64-.018.965-.051ZM47.92,11.628a3.626,3.626,0,0,1,2.138-1.192c.837-.241,1.7-.417,2.562-.643l.435-.121c-.194.724-.4,1.44-.632,2.146-.132.387-.274.771-.435,1.148-.292-.011-.589-.026-.885-.04a16.882,16.882,0,0,0-2.2-.051,11.713,11.713,0,0,1-1.8-.132c.274-.369.545-.738.808-1.115Zm-5.11.983a4.907,4.907,0,0,0,.435-1.177,10.74,10.74,0,0,1,.621-2.274A3.759,3.759,0,0,1,45.523,7.6q.828-.483,1.641-.991c-.238,1.656-.548,3.308-.925,4.935-.088.355-.175.72-.285,1.064a10.827,10.827,0,0,0-3.166.044c.007-.015.015-.026.022-.04ZM39.261,17.55c.537-.61,1.045-1.239,1.535-1.886s.961-1.3,1.4-1.992c.1-.154.19-.307.281-.464l.055.2a9.154,9.154,0,0,1,3.2-.212,6.989,6.989,0,0,0-.289.928c-.917,1.17-1.839,2.336-2.745,3.52a9.128,9.128,0,0,0-.768,1.13,5.891,5.891,0,0,0-.53,1.287,18.875,18.875,0,0,0-.42,2.65c-.106.073-.212.146-.318.223a3.093,3.093,0,0,0-.9.932c-.113.223-.168.395-.249.581l-.234.548c-.161.362-.336.716-.526,1.06a6.744,6.744,0,0,1-.855,1.228l-.135-8.225a15.356,15.356,0,0,0,1.5-1.51Zm-4.2-2.57a2.11,2.11,0,0,1,.6-.844c.128-.121.351-.3.49-.442.135-.128.263-.26.391-.395l-.329,19.8-.106,6.141a15.764,15.764,0,0,1-1.06-2.047,13.271,13.271,0,0,1-.881-4.726,87.507,87.507,0,0,1,.325-10.07c.073-.841.157-1.681.216-2.544s.015-1.751.018-2.57a6.242,6.242,0,0,1,.336-2.307ZM28.324,33.944a6.686,6.686,0,0,1,.362-1.045l.234-.548c.08-.19.146-.38.219-.57a24,24,0,0,0,.665-2.31c.373-1.554.647-3.092.917-4.672a9.659,9.659,0,0,0-.069-2.46,16.369,16.369,0,0,0-.508-2.361,10.984,10.984,0,0,0-.406-1.148c-.157-.369-.311-.716-.442-1.075A3.917,3.917,0,0,1,29,15.635a2.172,2.172,0,0,1,.446-.917,4.12,4.12,0,0,1,.373-.4l.223-.234.2-.249a8.58,8.58,0,0,0,1.1-2.175c.27-.753.486-1.521.68-2.288a.139.139,0,0,1,.011-.037,17.484,17.484,0,0,0,.724,2.639,30.011,30.011,0,0,0,1.261,3.056,8.081,8.081,0,0,0-.311,2.244c-.022.874.007,1.7-.066,2.508-.026.281-.055.567-.084.852-.117-.113-.227-.227-.329-.347a4.59,4.59,0,0,1-.669-1.056,17.009,17.009,0,0,1-.877-2.456c-.015-.037-.08-.051-.154-.033s-.124.062-.121.1a17.214,17.214,0,0,0,.705,2.581,5.2,5.2,0,0,0,.651,1.225,9.229,9.229,0,0,0,.7.819c-.029.274-.062.548-.091.826A88.921,88.921,0,0,0,32.838,32.5a20.649,20.649,0,0,0,.2,2.621,12.163,12.163,0,0,0,.684,2.6,22.608,22.608,0,0,0,2.343,4.222l-.11,6.291c-.537-.687-1.078-1.367-1.619-2.054l-3.162-4-.651-.841a7.734,7.734,0,0,0,.95-2.358c.026-.223-.04-.4-.154-.409s-.227.135-.263.329a7.109,7.109,0,0,1-.844,2.036l-.6-.768c-.256-.336-.512-.673-.749-1.005l-.362-.523c-.106-.146-.208-.289-.318-.431,0-.695-.018-1.385-.04-2.054a7.468,7.468,0,0,1,.183-2.211Zm-1.071,4.8c.121.168.234.34.351.508l.347.534c.245.369.493.713.742,1.064l.822,1.129-.026.037a11.508,11.508,0,0,1-1.155,1.331,6.171,6.171,0,0,1-.654.559l-.183.132a1.166,1.166,0,0,0-.219.2,1.357,1.357,0,0,0-.249.512,3.211,3.211,0,0,0-.044,1.016c-.629-.771-1.29-1.5-1.93-2.23-.033-1.217-.154-2.409-.164-3.59,0-.311,0-.621.029-.925.015-.15.033-.3.058-.442l.088-.475c.1-.574.161-1.144.212-1.718a18.746,18.746,0,0,1,1.978,2.35ZM23.861,35.18a12.293,12.293,0,0,1,.965.79c-.007.062-.011.121-.018.183-.069.625-.154,1.25-.278,1.864l-.1.461c-.037.168-.058.333-.08.5-.037.329-.051.654-.058.98-.015.936.037,1.861.058,2.774-.08-.1-.168-.194-.245-.289a12.464,12.464,0,0,1-.746-1.06c-.135-.212-.274-.413-.417-.61q-.077-1.031-.157-2.062c-.058-.79-.132-1.594-.157-2.354-.015-.61-.007-1.236-.007-1.864.069.033.139.062.2.091a6.482,6.482,0,0,1,1.027.6ZM9.744,28.586c.033-.168.066-.336.091-.508l.037-.263a1.975,1.975,0,0,1,.04-.212c.172-.614.435-1.254.662-1.89a20.314,20.314,0,0,0,.625-1.956c.007-.029.011-.062.018-.091A5.575,5.575,0,0,1,12.5,25.292a5.716,5.716,0,0,1,.227.567,5.033,5.033,0,0,0,.252.614,8.14,8.14,0,0,0,.658,1.137A13.243,13.243,0,0,0,15.311,29.6a10.514,10.514,0,0,0,2.069,1.623c.2.117.373.2.552.307s.351.216.523.329c.347.23.687.479,1.031.727A20.919,20.919,0,0,0,21.62,34c-.015.786-.051,1.568-.055,2.38.007.833.058,1.616.1,2.416.007.113.011.227.018.336-.267-.329-.541-.654-.819-.976A30.1,30.1,0,0,0,17,34.324l-.556-.413c-.19-.132-.395-.252-.592-.38-.212-.11-.42-.227-.647-.318A4.039,4.039,0,0,0,14.5,33a3.85,3.85,0,0,0-1.02-.062,12.188,12.188,0,0,0-.157-2.486,13.913,13.913,0,0,0-.907-2.687c-.018-.037-.088-.044-.157-.015s-.117.08-.106.121a13.15,13.15,0,0,1,.691,2.661,12.661,12.661,0,0,1-.029,2.493c-.179.033-.355.077-.526.124q-1.069-1.409-2.025-2.91c-.212-.329-.439-.647-.665-.965.051-.23.1-.461.146-.691Zm-1.608,4.9.044.026a10.159,10.159,0,0,0,.808-1.941c.164-.519.3-1.038.435-1.564.121.179.238.362.355.545.578.958,1.2,1.9,1.853,2.811-.881.325-1.714.72-2.544,1.1-.311-.333-.625-.658-.95-.976Zm2.058,2.244c-.216-.27-.439-.534-.665-.793.8-.347,1.579-.7,2.376-.969l.143-.044c.559.757,1.137,1.5,1.74,2.215q.559.658,1.148,1.29c.406.428.782.811,1.133,1.243a33.177,33.177,0,0,1,1.97,2.738c1.254,1.89,2.416,3.856,3.8,5.721l.128-.1c.066.461.146.914.227,1.367.387,1.989.863,3.94,1.356,5.881a11.03,11.03,0,0,1-2.994-1.108,9.3,9.3,0,0,1-2.829-2.712A19.431,19.431,0,0,1,15.783,46.9c-.548-1.261-1.086-2.548-1.66-3.805a52.177,52.177,0,0,0-3.933-7.373Zm-2.387,7.6c-.007-.164-.011-.329-.018-.493.413.04.826.08,1.243.117a8.154,8.154,0,0,1,3.209,1.067A7.238,7.238,0,0,1,13.608,45a3.628,3.628,0,0,1,.932,1.29l.11-.044c.132.322.263.647.4.969a20.224,20.224,0,0,0,1.959,3.747,10.22,10.22,0,0,0,3.063,3.03A13.292,13.292,0,0,0,23.843,55.4q.3,1.168.6,2.328c.194.768.395,1.539.57,2.3.132.567.27,1.133.406,1.7-.124-.1-.245-.208-.369-.307A13.568,13.568,0,0,0,22.914,60a4.65,4.65,0,0,0-1.287-.464c-.435-.077-.852-.121-1.268-.157-.983-.084-1.967-.146-2.946-.2-.04-.04-.08-.084-.117-.124-.106-.991-.037-2.032-.088-3.089a3.212,3.212,0,0,0-.42-1.623c-.289-.479-.61-.881-.874-1.338-.026-.037-.1-.04-.164,0s-.1.1-.084.139c.238.483.552.936.782,1.385a2.737,2.737,0,0,1,.274,1.448c-.011.782-.1,1.572-.117,2.383-.132-.128-.26-.26-.391-.384-1.056-1.009-2.179-1.945-3.308-2.855-.278-.23-.563-.457-.822-.691a2.009,2.009,0,0,1-.336-.369l-.311-.446a16.142,16.142,0,0,0-1.32-1.762,6,6,0,0,0-.53-.486l-.062-.1q-.143-.263-.263-.537a12.282,12.282,0,0,1-.684-2.383c-.168-.83-.3-1.678-.5-2.529a11.477,11.477,0,0,1-.267-2.482ZM5.822,51.753c-.172-.6-.333-1.2-.472-1.806.278.048.552.1.826.154a7.186,7.186,0,0,1,1.989.72c.11.066.219.135.329.2v.007a5.9,5.9,0,0,0,.281.621c.1.2.241.42.314.574a7.5,7.5,0,0,1,.457,1.111c.512,1.586.859,3.264,1.239,4.931l.117.5c-.135-.011-.274-.022-.409-.037a14.591,14.591,0,0,1-2.376-.49c-.11-.033-.219-.069-.333-.1-.022-.5-.051-1-.1-1.5-.011-.1-.077-.168-.154-.161a.167.167,0,0,0-.128.183c.029.457.04.914.048,1.374-.461-.143-.917-.3-1.371-.464.011-.066.026-.132.037-.2a20.8,20.8,0,0,0,.307-2.829,4.638,4.638,0,0,0-.04-.738,5.527,5.527,0,0,0-.175-.705l-.4-1.349Zm5.425,19.015c-.589-.329-1.166-.684-1.747-1.038s-1.162-.716-1.766-1.053c-.34-.186-.691-.373-1.06-.53a9.8,9.8,0,0,0-.4-1.4L5.811,65.42a17.352,17.352,0,0,1-.738-2.657,3.283,3.283,0,0,1,0-1.268c.033-.161.172-.431.234-.651.08-.23.146-.457.212-.687.194-.705.344-1.415.479-2.127.483.194.969.373,1.462.541,0,.475,0,.954,0,1.433a11.112,11.112,0,0,0,.113,1.7A3.257,3.257,0,0,0,8.3,63.319,19.382,19.382,0,0,0,10.8,65.6a30.067,30.067,0,0,0,2.467,1.751q.066.4.143.79a24.558,24.558,0,0,0,.676,2.555c.2.589.391,1.155.651,1.74a15.108,15.108,0,0,1-1.689-.76c-.64-.3-1.225-.559-1.813-.9Zm-.625,4.979a7,7,0,0,0,4.394-2.405,2.2,2.2,0,0,0,.848-.048,3.792,3.792,0,0,0,1.056-.49,2.186,2.186,0,0,1,1.623-.1,8.858,8.858,0,0,1,1.791.7,36.672,36.672,0,0,1,3.432,2.113q1.727,1.113,3.487,2.179c1.14.684,2.288,1.356,3.5,1.97a10.043,10.043,0,0,0,.91,1.2,16.56,16.56,0,0,0,1.861,1.751c.574.479,1.129.936,1.667,1.4L35.1,87.586a16.117,16.117,0,0,1-2.021-.991v-.1c-.055,0-.11,0-.164.007-.406-.23-.815-.468-1.225-.7a11.6,11.6,0,0,0-2.153-1.027,3.041,3.041,0,0,0-.658-.132,1.623,1.623,0,0,0-.771.113c-.058.026-.11.055-.164.08-.347-.4-.695-.811-1.111-1.225a6.318,6.318,0,0,0-1.627-1.137l-.42-.2c-.044-.022-.084-.044-.124-.062a2.431,2.431,0,0,0,.066-1.283,7.69,7.69,0,0,0-.344-1.3,10.557,10.557,0,0,0-.512-1.225,2.672,2.672,0,0,0-.168-.311,1.043,1.043,0,0,0-.3-.3,1.8,1.8,0,0,0-.7-.249,17.691,17.691,0,0,0-2.614.022,2.389,2.389,0,0,1-2.032-1.122.147.147,0,0,0-.186-.048.136.136,0,0,0-.058.186,2.743,2.743,0,0,0,2.255,1.367c.461.033.888,0,1.316-.007a6.234,6.234,0,0,1,1.239.08,1.335,1.335,0,0,1,.5.194.575.575,0,0,1,.146.154,2.225,2.225,0,0,1,.128.263,10.143,10.143,0,0,1,.439,1.181,7.234,7.234,0,0,1,.27,1.206,3.493,3.493,0,0,1,.022.581,1.447,1.447,0,0,1-.058.274l-.351-.219c-.49-.314-.987-.654-1.517-.972a8.572,8.572,0,0,0-1.725-.833,3.4,3.4,0,0,0-1.042-.183l-.281.007-.245.033c-.164.018-.314.055-.472.084-.618.139-1.206.311-1.78.483a10.946,10.946,0,0,1-3.641-1.63c-.665-.428-1.32-.9-1.963-1.367a4.879,4.879,0,0,1-1.25-1.491,7.881,7.881,0,0,0,.83-.04ZM7.054,73.579a6.564,6.564,0,0,0-.387-1.568.052.052,0,0,1,.022.007A4.622,4.622,0,0,1,7.7,72.57c.069.058.143.117.208.179l.168.2.11.219.1.285a19.733,19.733,0,0,0,.731,1.879,6.151,6.151,0,0,1-.9-.1,4.844,4.844,0,0,1-.954-.281c-.018-.457-.048-.91-.1-1.371Zm.976,2.029a7.784,7.784,0,0,0,1.192.164,5.723,5.723,0,0,0,1.5,1.93c.647.493,1.287.972,1.967,1.429a14.02,14.02,0,0,0,2.752,1.48c-.154.04-.307.084-.457.117a8.3,8.3,0,0,1-1.674.227c-.27.007-.614,0-.907.026s-.607.044-.9.073a21.915,21.915,0,0,1-3.5.194c-.051,0-.1-.011-.15-.015a7.852,7.852,0,0,1-.325-.877,9.631,9.631,0,0,1-.336-3.293c0-.574.007-1.151-.007-1.729a5.6,5.6,0,0,0,.859.278Zm.11,6.247a24.532,24.532,0,0,0,3.407-.055c.3-.015.589-.029.877-.033s.548.011.877.015a9.2,9.2,0,0,0,1.861-.168c1.206-.216,2.358-.589,3.465-.782a2.422,2.422,0,0,1,1.469.1,7.49,7.49,0,0,1,1.444.786c.479.318.947.669,1.444,1.016.249.175.5.351.775.519.132.088.285.164.428.245l.369.2a4.831,4.831,0,0,1,1.243.95c.27.289.541.625.815.972a13.4,13.4,0,0,1-1.5.848,6.274,6.274,0,0,1-1.005.373c-.172.055-.344.084-.526.124l-.567.117a19.253,19.253,0,0,1-2.208.38,8.581,8.581,0,0,1-2.186-.069,11.626,11.626,0,0,1-2.142-.592c-.727-.249-1.458-.483-2.2-.687a19.3,19.3,0,0,0-3.356-.647,18.6,18.6,0,0,1-2.785-3.611Zm4.449,10.48a11.316,11.316,0,0,1-2.325-.9,7.285,7.285,0,0,0,1.148-.658,9.779,9.779,0,0,0,1.66-1.5c.1.128.2.256.3.387.175.234.351.472.534.7.358.457.727.9,1.1,1.345.406.483.826.954,1.243,1.429-1.232-.241-2.46-.472-3.652-.8Zm3.2-1.3c-.377-.428-.749-.859-1.108-1.294-.183-.216-.355-.439-.526-.658s-.366-.468-.559-.687c-.662-.775-1.352-1.5-2.032-2.23a19.719,19.719,0,0,1,2.537.578c.724.212,1.44.457,2.153.713a12.482,12.482,0,0,0,2.248.658,9.213,9.213,0,0,0,2.372.117,19.394,19.394,0,0,0,2.3-.355l.556-.106c.19-.04.4-.073.589-.128a7.275,7.275,0,0,0,1.14-.4A19.029,19.029,0,0,0,27.5,86.1a8.958,8.958,0,0,1,.95-.5,1.263,1.263,0,0,1,.808.066,10.928,10.928,0,0,1,1.948.98c.04.022.08.048.121.073a5.439,5.439,0,0,0-1.817.757,4.553,4.553,0,0,0-.738.61,4.23,4.23,0,0,0-.6.749l-.132.234-.091.223a3.931,3.931,0,0,0-.157.435c-.1.289-.164.567-.245.844-.157.581-.314,1.155-.512,1.7a7.374,7.374,0,0,0-.914-.5A5.9,5.9,0,0,0,23.6,91.22a6.563,6.563,0,0,0-2.489.607,18.821,18.821,0,0,0-2.961,1.806q-1.2-1.283-2.365-2.6Zm6.583,11.829c-.267.007-.519.055-.8.04s-.567-.011-.848-.044a10.691,10.691,0,0,1-1.67-.278,9.052,9.052,0,0,1-3.056-1.422,8.627,8.627,0,0,1-1.268-1.126c-.1-.1-.186-.212-.278-.318l-.3-.355q-.313-.34-.636-.658c-.307-.3-.621-.581-.936-.863.073-.022.146-.044.219-.062a3.478,3.478,0,0,0,.585-.212A13.2,13.2,0,0,0,15.512,96.4c.68-.431,1.327-.892,1.978-1.345.091-.066.186-.128.278-.194.61.673,1.225,1.345,1.85,2,.8.833,1.608,1.66,2.456,2.456.417.395.874.8,1.3,1.166l1.283,1.133c.091.084.183.165.274.249a6.536,6.536,0,0,1-2.551.994Zm4.763-.885a21,21,0,0,0,1.824-1.623c.724-.713,1.407-1.466,2.084-2.149.307.4.614.8.921,1.21l2.767,3.63-.135,5.52q-3.707-3.328-7.461-6.583Zm18.112,2.263a30.7,30.7,0,0,0-4.9,4c-.216.216-.42.439-.629.658l-.062-3.7a15.426,15.426,0,0,1,2.244-2.559,6.944,6.944,0,0,1,2.244-1.418,3.716,3.716,0,0,1,2.46-.066,3.792,3.792,0,0,1,1.144.6,9.825,9.825,0,0,1,.768.629,29.47,29.47,0,0,0-3.272,1.853Zm1.831-5.074-.011.011h0l.015-.011Zm-.281-.322,0,0-.007-.007.015.015Zm-.439-.325h0C46.341,98.5,46.345,98.509,46.36,98.516Zm7.311,1.29-.007.212v.223c0,.026-.048.026-.073.037l-.556.194c-.245.084-.49.179-.735.274-.49.183-.976.373-1.458.578-.409.168-.815.351-1.221.534a12.719,12.719,0,0,0-1.093-1.078,5.088,5.088,0,0,0-1.433-.9c-.026-.011-.051-.018-.077-.029.048-.256.1-.512.146-.746l.011-.051h0c.011-.018.022-.033.033-.051a.322.322,0,0,0,.037-.077,2.592,2.592,0,0,0,.1-.333l.128-.559a18.094,18.094,0,0,1,.534-2.116l.194-.5c.069-.164.157-.311.234-.472s.186-.285.281-.431a2.248,2.248,0,0,1,.351-.347,1.335,1.335,0,0,1,.9-.307,3.864,3.864,0,0,1,1.042.238.126.126,0,0,0,.154-.1.141.141,0,0,0-.066-.168,4.091,4.091,0,0,0-1.1-.355,1.782,1.782,0,0,0-1.2.289,2.762,2.762,0,0,0-.479.391c-.128.154-.263.307-.376.468s-.219.329-.311.5l-.263.523A18.425,18.425,0,0,0,46.6,97.8l-.168.515c-.015.044-.033.1-.051.139a.55.55,0,0,0-.04.048.872.872,0,0,0-.058.091l-.015.033-.029.069-.015.04-.029.084c-.08.252-.15.493-.219.731a5.552,5.552,0,0,0-2.3.135,8.652,8.652,0,0,0-2.932,1.524c-.4.307-.779.632-1.14.969l-.026-1.477a22.3,22.3,0,0,0,3.253-3.5c.157-.227.333-.435.472-.673l.417-.72a11.64,11.64,0,0,0,.705-1.513,6.684,6.684,0,0,0,.256-.793c.073-.267.168-.534.219-.8l.143-.811.069-.406.033-.406c.029-.322.051-.64.066-.958.855-.234,1.7-.49,2.54-.768.947-.314,1.886-.658,2.811-1.027.7.26,1.389.537,2.069.848a21.923,21.923,0,0,0,2.712,1.162,12.425,12.425,0,0,0-.976,1.338,3.69,3.69,0,0,0-.351.724,2.012,2.012,0,0,0-.1.42l-.037.38c-.044.5-.069,1.016-.066,1.528a10.219,10.219,0,0,0,.384,2.785c-.033.077-.073.15-.1.227a6.42,6.42,0,0,0-.4,1.641,3.3,3.3,0,0,0-.029.424Zm4.854-6.751a9.784,9.784,0,0,0-2.625,1.93,8.669,8.669,0,0,0-1.243,1.638,10.374,10.374,0,0,1-.252-1.9,14.148,14.148,0,0,1,.015-1.473l.022-.369a1.3,1.3,0,0,1,.062-.311,3.151,3.151,0,0,1,.285-.636A12.48,12.48,0,0,1,55.8,90.463a6.256,6.256,0,0,0,1.133.128,12.943,12.943,0,0,1,1.415.1c.885.11,1.787.325,2.756.358a8.522,8.522,0,0,1-2.581,2.007Zm8.919,2.2c-1.331.991-2.921,1.63-4.368,2.621A7.178,7.178,0,0,0,61.134,99.7a4.359,4.359,0,0,0-.793,2.376,14.217,14.217,0,0,1-1.714-.289,12.184,12.184,0,0,1-2.084-.68,7.6,7.6,0,0,1-1.725-1.005v-.077l0-.175a2.189,2.189,0,0,1,.018-.347,5.416,5.416,0,0,1,.311-1.363,7.194,7.194,0,0,1,1.524-2.416,8.726,8.726,0,0,1,2.314-1.762l.709-.4c.135-.088.263-.186.395-.278l.048.073a2.466,2.466,0,0,1,1.3-.508,1.689,1.689,0,0,1,.647.154,6.575,6.575,0,0,1,.676.387,4.067,4.067,0,0,0,1.623.665c.15.022.3.018.453.029.146-.007.289-.022.435-.033a2.811,2.811,0,0,0,.428-.066,3.327,3.327,0,0,0,.42-.1,24.777,24.777,0,0,0,3.06-1.254,6.407,6.407,0,0,1,.885-.289,10.278,10.278,0,0,1-2.617,2.91Zm-4.58-4.485a6.351,6.351,0,0,0,.687-.366c.216-.132.424-.267.629-.4a11.5,11.5,0,0,1,1.206-.757,3.772,3.772,0,0,1,1.294-.391,5.648,5.648,0,0,1,2.745.347c.442.164.877.377,1.334.574.154.066.314.128.479.183a15.154,15.154,0,0,1-.662,1.469c-.073.146-.15.285-.227.428a6.892,6.892,0,0,0-1.334.351,25.287,25.287,0,0,1-3.03,1.137,2.788,2.788,0,0,1-.38.073,2.286,2.286,0,0,1-.384.044l-.384.015c-.121-.015-.245-.015-.362-.033a3.465,3.465,0,0,1-1.356-.621,7.235,7.235,0,0,0-.735-.446,2.3,2.3,0,0,0-.928-.245h-.04l.15-.15c.329-.351.636-.713.932-1.082a3.417,3.417,0,0,0,.369-.132ZM57.41,85.013c.314-.194.629-.384.943-.574a24.839,24.839,0,0,0,2.657.033c1.279-.051,2.54-.143,3.816-.238.486-.044.965-.121,1.444-.208C65.13,85.693,64,87.367,62.8,88.972c-.344.453-.695.9-1.056,1.338-.146.011-.292.018-.442.015a24.783,24.783,0,0,1-2.84-.439,13,13,0,0,0-1.5-.15,4.673,4.673,0,0,1-.559-.058l.128-.161c.318-.391.6-.811.907-1.2a6.01,6.01,0,0,0,.45-.629,1.836,1.836,0,0,0,.234-.775c0-.091-.055-.168-.128-.168a.16.16,0,0,0-.154.139,1.5,1.5,0,0,1-.219.643,6.136,6.136,0,0,1-.446.578c-.329.391-.618.793-.943,1.166-.091.106-.179.212-.27.318-.11-.026-.219-.058-.329-.091a20.821,20.821,0,0,1-2.592-1.2c-.38-.186-.764-.362-1.151-.534A50.468,50.468,0,0,0,57.41,85ZM53.33,81.621A20.574,20.574,0,0,0,53,85.58,49.994,49.994,0,0,1,47.219,87.6c-.662.186-1.327.355-1.992.512-.033-1.126-.121-2.237-.2-3.337q-.093-1.124-.183-2.241c.018,0,.037-.007.055-.007a2.766,2.766,0,0,1,.6-.011c.208.018.384.026.665.066a9.9,9.9,0,0,0,2.983-.164,12.412,12.412,0,0,0,2.789-.917,13.751,13.751,0,0,0,1.634-.917c-.091.344-.168.691-.234,1.038Zm5.4-8.875a16.337,16.337,0,0,1-2.891,4.628A12.435,12.435,0,0,1,54.69,78.5c.029-.325.029-.64.029-.95a8.661,8.661,0,0,1,.143-2.054,3.391,3.391,0,0,1,.969-1.714,12.452,12.452,0,0,0,1.484-1.55,2.719,2.719,0,0,0,.486-1,4.429,4.429,0,0,0,.088-1.089c0-.124-.066-.219-.139-.219s-.139.1-.143.219a4.4,4.4,0,0,1-.106,1.016,2.367,2.367,0,0,1-.453.877,12.2,12.2,0,0,1-1.477,1.469,3.8,3.8,0,0,0-1.129,1.89,9.258,9.258,0,0,0-.2,2.153,9.352,9.352,0,0,1-.058,1.027,2.24,2.24,0,0,1-.1.424A12.621,12.621,0,0,1,51.5,80.528a11.107,11.107,0,0,1-2.562.764,8.749,8.749,0,0,1-2.614.08c-.183-.029-.472-.062-.731-.091a3.658,3.658,0,0,0-.8-.007c-.018,0-.037,0-.051,0q-.1-1.245-.175-2.489A24.161,24.161,0,0,0,48.2,76.511c1.261-1.013,2.27-2.1,3.429-3.1,1.126-1.027,2.3-1.992,3.469-2.99.292-.249.585-.5.874-.764l.431-.395.409-.428.2-.216.183-.238c.121-.161.249-.314.362-.483a6.1,6.1,0,0,0,.541-1.082,5.51,5.51,0,0,0,.2-.567l.139-.578c.026-.1.048-.186.066-.281.091-.033.183-.066.271-.1a11.161,11.161,0,0,0,1.915-1.1c-.1,1.086-.227,2.168-.417,3.239a24.57,24.57,0,0,1-1.543,5.315Zm7.45-12.468c.04.3.088.592.135.885a10.509,10.509,0,0,1,.175,1.733,3.141,3.141,0,0,1-.106.819,2.481,2.481,0,0,1-.366.72,7.6,7.6,0,0,1-1.2,1.228l-.676.589c-.219.2-.435.38-.665.552a7.548,7.548,0,0,1-2.709,1.312c.033-.194.066-.387.1-.581.186-1.236.292-2.475.355-3.717.3-.227.592-.457.877-.687l1.477-1.2c.493-.4.976-.72,1.528-1.177a12.662,12.662,0,0,0,1.005-1.027c.04.164.048.347.077.552Z" transform="translate(-0.839 -0.03)"/><path class="b" d="M176.395,89.169a6.889,6.889,0,0,1-1.433-.691l-.172.3a7.4,7.4,0,0,0,1.524.673A2.518,2.518,0,0,0,178,89.389a14.348,14.348,0,0,0,3.052-1.159.078.078,0,0,0,.029-.106.082.082,0,0,0-.11-.011,14.342,14.342,0,0,1-3.063,1.049A2.241,2.241,0,0,1,176.395,89.169Z" transform="translate(-111.205 -55.906)"/></g></g></g></g></svg>