<?xml version="1.0" encoding="UTF-8"?>
<svg id="Layer_1" data-name="Layer 1" xmlns="http://www.w3.org/2000/svg" viewBox="0 0 520.51 725">
  <defs>
    <style>
      .cls-1 {
        fill: #fff;
      }

      .cls-2 {
        fill: #f9bdb8;
      }

      .cls-3 {
        fill: #44c2ca;
      }

      .cls-4 {
        fill: none;
        isolation: isolate;
      }

      .cls-5 {
        fill: #ffec8a;
      }

      .cls-6 {
        fill: #1d3b6d;
      }

      .cls-7 {
        fill: #f7f7f7;
      }
    </style>
  </defs>
  <path class="cls-7" d="m251.5,0h0c138.9,0,251.5,112.6,251.5,251.5v473.5H0V251.5C0,112.6,112.6,0,251.5,0Z"/>
  <path class="cls-3" d="m47.34,658.62l149.63-31.82c17.82-3.79,35.35,7.59,39.14,25.41h0c3.79,17.82-7.59,35.35-25.41,39.14l-149.63,31.82c-17.82,3.79-35.35-7.59-39.14-25.41h0c-3.79-17.82,7.59-35.35,25.41-39.14Z"/>
  <path class="cls-3" d="m47.34,459.6l147.8,39.63c17.61,4.72,28.05,22.82,23.33,40.43h0c-4.72,17.61-22.82,28.05-40.43,23.33l-147.8-39.63c-17.61-4.72-28.05-22.82-23.33-40.43h0c4.72-17.61,22.82-28.05,40.43-23.33Z"/>
  <path class="cls-3" d="m231.5,430.74l85.53-126.84c10.19-15.11,30.7-19.1,45.8-8.91h0c15.11,10.19,19.1,30.7,8.91,45.8l-85.53,126.84c-10.19,15.11-30.7,19.1-45.8,8.91h0c-15.11-10.19-19.1-30.7-8.91-45.8Z"/>
  <path class="cls-5" d="m261,659h153c18.23,0,33,14.77,33,33h0c0,18.23-14.77,33-33,33h-153c-18.23,0-33-14.77-33-33h0c0-18.23,14.77-33,33-33Z"/>
  <path class="cls-5" d="m103.44,580.85l150.19-29.19c17.89-3.48,35.21,8.21,38.69,26.1h0c3.48,17.89-8.21,35.21-26.1,38.69l-150.19,29.19c-17.89,3.48-35.21-8.21-38.69-26.1h0c-3.48-17.89,8.21-35.21,26.1-38.69Z"/>
  <path class="cls-6" d="m245.44,486.55l150.19-29.19c17.89-3.48,35.21,8.21,38.69,26.1h0c3.48,17.89-8.21,35.21-26.1,38.69l-150.19,29.19c-17.89,3.48-35.21-8.21-38.69-26.1h0c-3.48-17.89,8.21-35.21,26.1-38.69Z"/>
  <path class="cls-2" d="m327.26,575.47l148.46,37.01c17.68,4.41,28.45,22.32,24.04,40h0c-4.41,17.68-22.32,28.45-40,24.04l-148.46-37.01c-17.68-4.41-28.45-22.32-24.04-40h0c4.41-17.68,22.32-28.45,40-24.04Z"/>
  <path class="cls-2" d="m50.34,394.47l151.86-18.65c18.09-2.22,34.55,10.64,36.78,28.73h0c2.22,18.09-10.64,34.55-28.73,36.78l-151.86,18.65c-18.09,2.22-34.55-10.64-36.78-28.73h0c-2.22-18.09,10.64-34.55,28.73-36.78Z"/>
  <g class="cls-4">
    <g class="cls-4">
      <path class="cls-1" d="m80,679.88l8.61-1.83c3.44-.73,4.98,1.13,5.46,3.38.45,2.13-.45,4.6-3.58,5.26l-5.71,1.22,1.13,5.32-2.94.62-2.97-13.97Zm4.31,5.83l4.72-1c1.66-.35,2.47-1,2.11-2.66-.37-1.72-1.65-1.9-2.81-1.65l-4.93,1.05.91,4.27Z"/>
      <path class="cls-1" d="m95.65,680.32l2.7-.57.43,2.02h.04c.49-1.34,1.33-2.68,3.43-3.13.41-.09.71-.11,1.1-.13l.57,2.66c-.81-.07-1.31.01-1.78.11-1.37.29-3.16,1.41-2.64,3.83l1.07,5.01-2.7.57-2.21-10.37Z"/>
      <path class="cls-1" d="m110.59,676.73c4.64-.99,7,1.36,7.6,4.21.61,2.88-.59,5.96-5.23,6.94s-6.99-1.34-7.6-4.21c-.61-2.86.59-5.96,5.23-6.94Zm1.93,9.08c2.6-.55,3.24-2.47,2.86-4.27s-1.74-3.29-4.35-2.74c-2.6.55-3.24,2.47-2.86,4.27s1.74,3.29,4.35,2.74Z"/>
      <path class="cls-1" d="m118.83,675.39l2.7-.57.32,1.49h.04c.54-1.43,1.95-2.26,3.6-2.61,3.95-.84,6.29,1.67,6.84,4.29.57,2.66-.54,5.9-4.5,6.75-2.15.46-4.01-.4-4.36-.98h-.04s1.14,5.39,1.14,5.39l-2.7.57-3.05-14.32Zm3.69,4.68c.38,1.78,1.7,3.26,4.22,2.72,2.56-.54,3.15-2.43,2.77-4.21-.37-1.72-1.67-3.22-4.23-2.68-2.52.54-3.12,2.44-2.75,4.17Z"/>
      <path class="cls-1" d="m138.84,670.72c4.64-.99,7,1.36,7.6,4.21.61,2.88-.59,5.96-5.23,6.94-4.64.99-6.99-1.34-7.6-4.21-.61-2.86.59-5.96,5.23-6.94Zm1.93,9.08c2.6-.55,3.24-2.47,2.85-4.27s-1.74-3.29-4.35-2.74c-2.6.55-3.24,2.47-2.86,4.27s1.74,3.29,4.35,2.74Zm-2.16-12.94l3.33-.71-2.15,3.36-2.33.5,1.15-3.15Z"/>
      <path class="cls-1" d="m151,675.99c.39,1.55,2.26,1.4,3.24,1.19,1.33-.28,2.75-.93,2.53-1.93-.17-.82-.67-.96-3.68-.75-3.3.27-5.07.22-5.57-2.13-.63-2.95,2.73-4.08,4.47-4.45,1.6-.34,5.5-.95,6.37,2.37l-2.82.6c-.55-1.52-2.38-1.29-3.3-1.1-1.55.33-2.21,1.15-2.09,1.69.18.84.46.92,3.14.74,3.5-.25,5.81-.36,6.32,2.03.56,2.64-1.77,4.08-4.98,4.76-2.19.47-5.83.77-6.59-2.4l2.94-.62Z"/>
      <path class="cls-1" d="m159.01,662.83l2.7-.57.47,2.19-2.7.57-.47-2.19Zm.82,3.83l2.7-.57,2.21,10.37-2.7.57-2.21-10.37Z"/>
      <path class="cls-1" d="m166.05,667.39l-2.15.46-.42-1.96,2.15-.46-.68-3.21,2.7-.57.68,3.21,2.82-.6.42,1.96-2.82.6,1.01,4.74c.25,1.19.45,1.83,1.37,1.63.69-.15,1.29-.29,1.93-.45l.42,1.96c-.7.25-1.2.42-2.04.6-3.29.7-3.79-.42-4.21-2.38l-1.17-5.52Z"/>
      <path class="cls-1" d="m178.64,662.26c4.64-.99,7,1.35,7.6,4.21.61,2.88-.59,5.96-5.23,6.94-4.64.99-6.99-1.34-7.6-4.21-.61-2.86.59-5.95,5.23-6.94Zm1.93,9.08c2.6-.55,3.24-2.47,2.86-4.27-.38-1.8-1.74-3.29-4.35-2.74-2.6.55-3.24,2.47-2.86,4.27s1.74,3.29,4.35,2.74Z"/>
    </g>
  </g>
  <g class="cls-4">
    <g class="cls-4">
      <path class="cls-1" d="m61.93,490.91l2.9.78-3.7,13.8-2.9-.78,3.7-13.8Z"/>
      <path class="cls-1" d="m66.37,495.91l2.67.71-.41,1.55h.04c1.17-.86,2.69-1.22,4.53-.72,2.22.6,4.14,1.94,3.39,4.72l-1.87,6.96-2.67-.71,1.64-6.11c.3-1.1.26-2.46-1.94-3.04-1.39-.37-3.4-.08-3.98,2.1l-1.48,5.51-2.67-.71,2.75-10.24Z"/>
      <path class="cls-1" d="m80.11,507.13c-.36,1.56,1.38,2.27,2.34,2.53,1.31.35,2.87.42,3.13-.57.22-.81-.16-1.16-2.93-2.34-3.06-1.26-4.61-2.11-3.99-4.43.78-2.92,4.29-2.39,6.01-1.93,1.58.42,5.33,1.66,4.6,5l-2.78-.75c.2-1.6-1.53-2.23-2.44-2.48-1.53-.41-2.49.02-2.63.56-.22.83,0,1.03,2.46,2.09,3.24,1.37,5.34,2.32,4.71,4.68-.7,2.61-3.43,2.83-6.6,1.98-2.16-.58-5.54-1.96-4.77-5.13l2.9.78Z"/>
      <path class="cls-1" d="m92.14,502.82l2.67.71-.39,1.47h.04c1.12-1.01,2.77-1.11,4.39-.68,3.9,1.05,4.84,4.34,4.15,6.93-.7,2.63-3.17,5.01-7.07,3.97-2.13-.57-3.39-2.17-3.44-2.85h-.04s-1.42,5.3-1.42,5.3l-2.67-.72,3.79-14.14Zm1.17,5.84c-.47,1.76.03,3.67,2.52,4.34,2.53.68,3.9-.73,4.38-2.49.46-1.7-.02-3.63-2.55-4.31-2.49-.67-3.89.76-4.35,2.46Z"/>
      <path class="cls-1" d="m106.16,506.58l2.67.71-2.75,10.24-2.67-.71,2.75-10.24Zm1.02-3.79l2.67.71-.58,2.16-2.67-.71.58-2.16Z"/>
      <path class="cls-1" d="m111.07,507.9l2.67.71-.53,1.99h.04c1.04-.95,2.4-1.77,4.47-1.21.41.11.68.23,1.04.38l-.7,2.63c-.69-.43-1.17-.58-1.63-.71-1.35-.36-3.45-.18-4.09,2.22l-1.33,4.95-2.67-.71,2.75-10.24Z"/>
      <path class="cls-1" d="m128.89,521.14c-.15.56.25.69.42.74.25.07.66.18.89.17l-.5,1.87c-.55-.04-1.05-.03-1.96-.27-1.74-.47-1.71-1.43-1.66-1.85-.66.38-2.19.92-5.19.12-2.69-.72-3.85-2.32-3.31-4.33.76-2.82,3.72-2.3,5.46-1.99,3.9.65,4.37.63,4.58-.16.31-1.16-.96-1.83-2.5-2.25-1.78-.48-2.86-.17-3.26.95l-2.61-.7c1.09-2.59,3.36-2.87,6.35-2.07,5.35,1.44,4.94,3.58,4.58,4.92l-1.3,4.85Zm-1.93-3.48c-.86.1-1.72,0-3.67-.3-2.08-.29-2.67-.01-2.91.88-.36,1.35.79,1.93,1.71,2.18,1.45.39,3.99.49,4.6-1.77l.26-.99Z"/>
      <path class="cls-1" d="m141.39,519.88c.08-1.14-.78-2.28-2.32-2.69-2.49-.67-4.01.73-4.48,2.51s.02,3.71,2.34,4.33c2.09.56,2.82-.09,3.79-1.41l2.78.75c-1.76,4.08-6.12,2.98-6.83,2.79-4.58-1.23-5.62-4.37-4.86-7.21.89-3.3,3.85-4.87,7.81-3.81,1.55.41,4.92,1.88,4.56,5.49l-2.78-.75Z"/>
      <path class="cls-1" d="m146.93,517.51l2.67.71-2.75,10.24-2.67-.71,2.75-10.24Zm1.02-3.79l2.67.71-.58,2.16-2.67-.71.58-2.16Z"/>
      <path class="cls-1" d="m157.83,520.02c4.58,1.23,5.62,4.38,4.86,7.21-.76,2.84-3.24,5.04-7.81,3.81-4.58-1.23-5.62-4.37-4.86-7.21.76-2.82,3.24-5.04,7.81-3.81Zm-2.4,8.97c2.57.69,4.01-.73,4.48-2.51s-.06-3.72-2.63-4.41c-2.57-.69-4.01.73-4.48,2.51s.06,3.72,2.63,4.41Zm3.95-12.51l3.28.88-3.44,2.02-2.3-.62,2.46-2.28Z"/>
      <path class="cls-1" d="m165.79,522.57l2.67.72-.41,1.54h.04c1.16-.86,2.69-1.21,4.53-.72,2.22.6,4.14,1.94,3.39,4.72l-1.87,6.96-2.67-.71,1.64-6.11c.3-1.1.26-2.46-1.94-3.05-1.39-.37-3.4-.08-3.98,2.1l-1.48,5.51-2.67-.71,2.75-10.24Z"/>
    </g>
  </g>
  <g class="cls-4">
    <g class="cls-4">
      <path class="cls-1" d="m263.19,427.06l6.93-10.28,1.86,1.25-5.26,7.8,2.99,2.01,5.04-7.48,1.86,1.25-5.04,7.48,3.28,2.21,5.35-7.93,1.86,1.25-7.02,10.42-11.84-7.99Z"/>
      <path class="cls-1" d="m289.95,412.93l-1.54,2.29-1.21-.82-.02.03c.41.54.5,2.58-.73,4.41-2.26,3.35-5.68,3.17-7.94,1.65-2.22-1.5-3.68-4.6-1.42-7.95.94-1.39,2.24-2.4,3.76-2.36l.02-.03-4.51-3.04,1.54-2.29,12.04,8.12Zm-4.89,4.18c1.44-2.14.57-3.91-.94-4.93-1.46-.98-3.45-1.14-4.89,1-1.46,2.17-.56,3.94.9,4.93,1.51,1.02,3.47,1.18,4.94-.99Z"/>
      <path class="cls-1" d="m282.41,405.15l1.54-2.29,5.01,3.38c1.33.89,2.58,1.26,3.89-.68.68-1.01,1.14-3.12-.74-4.38l-4.83-3.25,1.54-2.29,8.79,5.93-1.54,2.29-1.23-.83-.02.03c.44,1.38.28,2.94-.78,4.52-1.29,1.91-3.2,3.27-5.77,1.54l-5.87-3.96Z"/>
      <path class="cls-1" d="m298.22,388.36c-1.05-.44-2.41,0-3.3,1.32-1.44,2.14-.62,4.02.91,5.05,1.53,1.03,3.52,1.19,4.86-.8,1.21-1.79.83-2.7-.1-4.04l1.61-2.39c3.29,2.99.82,6.76.41,7.37-2.65,3.93-5.96,3.9-8.4,2.25-2.84-1.91-3.35-5.23-1.06-8.63.89-1.33,3.38-4.04,6.67-2.52l-1.61,2.39Z"/>
      <path class="cls-1" d="m310.88,377.55c.48.32.73-.01.83-.16.15-.22.38-.56.45-.78l1.61,1.09c-.22.5-.37.98-.9,1.76-1.01,1.49-1.91,1.15-2.29.96.15.75.16,2.38-1.57,4.95-1.55,2.31-3.44,2.89-5.17,1.73-2.42-1.63-.96-4.27-.11-5.82,1.89-3.48,2.02-3.92,1.34-4.38-1-.67-2.04.31-2.94,1.64-1.03,1.53-1.08,2.65-.16,3.39l-1.51,2.24c-2.09-1.87-1.62-4.11.11-6.68,3.1-4.59,4.99-3.51,6.14-2.74l4.16,2.81Zm-3.91.69c-.18.84-.56,1.62-1.48,3.37-.95,1.87-.88,2.52-.12,3.03,1.16.78,2.08-.12,2.62-.91.84-1.24,1.76-3.61-.18-4.92l-.85-.57Z"/>
      <path class="cls-1" d="m313.75,365.33c-1.05-.44-2.41,0-3.3,1.32-1.44,2.14-.62,4.02.91,5.05,1.53,1.03,3.52,1.19,4.86-.8,1.21-1.79.83-2.7-.09-4.04l1.61-2.39c3.29,2.99.83,6.76.41,7.37-2.65,3.93-5.96,3.9-8.4,2.25-2.84-1.91-3.35-5.23-1.06-8.63.89-1.33,3.38-4.04,6.67-2.52l-1.61,2.39Z"/>
      <path class="cls-1" d="m310.06,357.13l1.54-2.29,1.86,1.25-1.54,2.29-1.86-1.25Zm3.25,2.19l1.54-2.29,8.79,5.93-1.54,2.29-8.79-5.93Z"/>
      <path class="cls-1" d="m316.39,347.21l1.9-2.82.79,3.91-1.33,1.97-1.36-3.06Zm2.84,2.62c2.65-3.93,5.97-3.89,8.39-2.25,2.44,1.64,3.71,4.7,1.06,8.63-2.65,3.93-5.96,3.9-8.4,2.25-2.42-1.63-3.71-4.7-1.06-8.63Zm7.7,5.19c1.49-2.21.61-4.02-.91-5.05-1.53-1.03-3.54-1.16-5.03,1.05-1.49,2.21-.62,4.02.91,5.05,1.53,1.03,3.54,1.16,5.03-1.05Z"/>
      <path class="cls-1" d="m324.22,343.14l1.54-2.29,1.33.89.02-.03c-.44-1.38-.28-2.94.78-4.52,1.29-1.91,3.18-3.28,5.57-1.67l5.97,4.03-1.54,2.29-5.24-3.53c-.95-.64-2.24-1.05-3.51.84-.81,1.19-1.18,3.18.69,4.45l4.73,3.19-1.54,2.29-8.79-5.93Z"/>
    </g>
  </g>
  <g class="cls-4">
    <g class="cls-4">
      <path class="cls-6" d="m282.2,691c-.32-2.14-2.06-3.44-4.6-3.44-2.78,0-4.82,1.84-4.82,5.56,0,2.98,2.06,5.04,5.02,5.04,3.12,0,4.14-2.1,4.4-3.62h3.24c-.42,2.82-2.3,5.86-8.16,5.86-5.18,0-7.62-3.52-7.62-7.54s2.38-7.54,7.98-7.54c4.92,0,7.48,2.58,7.8,5.68h-3.24Z"/>
      <path class="cls-6" d="m287.52,689.4h2.76v2.06h.04c.76-1.2,1.86-2.34,4-2.34.42,0,.72.04,1.1.1v2.72c-.78-.24-1.28-.26-1.76-.26-1.4,0-3.38.72-3.38,3.2v5.12h-2.76v-10.6Z"/>
      <path class="cls-6" d="m299.32,695.4c.06,1.2.86,3,3.6,3,1.82,0,2.62-.64,3.16-1.52h3c-.6,1.2-2.04,3.52-6.08,3.52-4.8,0-6.56-2.78-6.56-5.6,0-3.54,2.62-5.8,6.38-5.8,4.72,0,6.5,2.9,6.5,6v.4h-10Zm7.12-1.76c-.32-2.14-2.24-2.76-3.58-2.76s-3.06.6-3.54,2.76h7.12Z"/>
      <path class="cls-6" d="m320.26,693.12c-.22-1.12-1.34-2-2.94-2-2.58,0-3.68,1.74-3.68,3.58s.98,3.58,3.38,3.58c2.16,0,2.7-.82,3.3-2.34h2.88c-.64,4.4-5.14,4.46-5.88,4.46-4.74,0-6.56-2.76-6.56-5.7,0-3.42,2.46-5.7,6.56-5.7,1.6,0,5.24.54,5.82,4.12h-2.88Z"/>
      <path class="cls-6" d="m325,685.48h2.76v2.24h-2.76v-2.24Zm0,3.92h2.76v10.6h-2.76v-10.6Z"/>
      <path class="cls-6" d="m338.32,693.68c0-1.1-.14-2.44-2.6-2.44-.98,0-2.88.54-2.88,2.86v5.9h-2.76v-10.6h2.76v1.6h.04c.9-1.14,2.28-1.88,4.18-1.88,1.24,0,3,.22,3.74,1.96.7-.98,2.04-1.96,4.3-1.96,1.7,0,4.22.58,4.22,3.84v7.04h-2.76v-6.32c0-1.1-.14-2.44-2.6-2.44-.98,0-2.88.54-2.88,2.86v5.9h-2.76v-6.32Z"/>
      <path class="cls-6" d="m351.64,685.48h2.76v2.24h-2.76v-2.24Zm0,3.92h2.76v10.6h-2.76v-10.6Z"/>
      <path class="cls-6" d="m359.26,695.4c.06,1.2.86,3,3.6,3,1.82,0,2.62-.64,3.16-1.52h3c-.6,1.2-2.04,3.52-6.08,3.52-4.8,0-6.56-2.78-6.56-5.6,0-3.54,2.62-5.8,6.38-5.8,4.72,0,6.5,2.9,6.5,6v.4h-10Zm7.12-1.76c-.32-2.14-2.24-2.76-3.58-2.76s-3.06.6-3.54,2.76h7.12Z"/>
      <path class="cls-6" d="m371.16,689.4h2.76v1.6h.04c.9-1.14,2.28-1.88,4.18-1.88,2.3,0,4.5.8,4.5,3.68v7.2h-2.76v-6.32c0-1.14-.38-2.44-2.66-2.44-1.44,0-3.3.8-3.3,3.06v5.7h-2.76v-10.6Z"/>
      <path class="cls-6" d="m385.74,691.4h-2.2v-2h2.2v-3.28h2.76v3.28h2.88v2h-2.88v4.84c0,1.22.06,1.88,1,1.88.7,0,1.32-.02,1.98-.04v2c-.74.1-1.26.16-2.12.16-3.36,0-3.62-1.2-3.62-3.2v-5.64Z"/>
      <path class="cls-6" d="m399.12,689c4.74,0,6.56,2.78,6.56,5.7s-1.82,5.7-6.56,5.7-6.56-2.76-6.56-5.7,1.82-5.7,6.56-5.7Zm0,9.28c2.66,0,3.68-1.74,3.68-3.58s-1.02-3.58-3.68-3.58-3.68,1.74-3.68,3.58,1.02,3.58,3.68,3.58Z"/>
    </g>
  </g>
  <g class="cls-4">
    <g class="cls-4">
      <path class="cls-6" d="m138.71,600.43l2.95-.57,1.54,7.91c.38,1.94.89,4.29,4.74,3.54,3.85-.75,3.46-3.14,3.09-5.06l-1.54-7.91,2.95-.57,1.55,7.99c.45,2.32,1.17,6.44-5.62,7.76-6.77,1.32-7.65-2.75-8.1-5.09l-1.55-7.99Z"/>
      <path class="cls-6" d="m155.55,600.9l2.71-.53.3,1.57h.04c.67-1.3,1.88-2.29,3.74-2.65,2.26-.44,4.57-.07,5.12,2.75l1.37,7.07-2.71.53-1.21-6.21c-.22-1.12-.84-2.32-3.08-1.89-1.41.28-3.09,1.42-2.66,3.63l1.09,5.6-2.71.53-2.02-10.41Z"/>
      <path class="cls-6" d="m168.35,594.42l2.71-.53.43,2.2-2.71.53-.43-2.2Zm.75,3.85l2.71-.53,2.02,10.41-2.71.53-2.02-10.41Z"/>
      <path class="cls-6" d="m188.09,605.38l-2.71.53-.28-1.43h-.04c-.09.68-1.47,2.19-3.63,2.61-3.97.77-6.26-1.78-6.77-4.45-.51-2.63.66-5.85,4.62-6.63,1.65-.32,3.28-.11,4.33.99h.04s-1.04-5.35-1.04-5.35l2.71-.53,2.77,14.26Zm-6.42-.51c2.53-.49,3.17-2.37,2.82-4.15-.34-1.73-1.63-3.25-4.16-2.76-2.57.5-3.18,2.39-2.85,4.12.35,1.79,1.62,3.29,4.19,2.79Z"/>
      <path class="cls-6" d="m200.99,600.4c.11.57.53.51.7.47.26-.05.67-.13.87-.23l.37,1.9c-.51.2-.96.43-1.88.61-1.77.34-2.16-.54-2.3-.94-.43.63-1.57,1.79-4.61,2.38-2.73.53-4.48-.39-4.88-2.44-.56-2.87,2.34-3.69,4.04-4.19,3.8-1.12,4.2-1.35,4.04-2.15-.23-1.18-1.67-1.22-3.24-.92-1.81.35-2.64,1.1-2.51,2.28l-2.65.52c-.16-2.8,1.76-4.05,4.8-4.64,5.44-1.06,6.01,1.05,6.28,2.41l.96,4.93Zm-3.25-2.28c-.72.47-1.55.75-3.43,1.34-1.99.65-2.4,1.16-2.23,2.06.27,1.38,1.55,1.39,2.5,1.21,1.47-.29,3.8-1.31,3.35-3.61l-.19-1Z"/>
      <path class="cls-6" d="m216.08,599.94l-2.71.53-.28-1.43h-.04c-.09.68-1.47,2.19-3.63,2.61-3.97.77-6.26-1.78-6.78-4.45-.51-2.63.66-5.85,4.62-6.62,1.65-.32,3.28-.11,4.33.99h.04s-1.04-5.35-1.04-5.35l2.71-.53,2.77,14.26Zm-6.42-.5c2.53-.49,3.17-2.37,2.82-4.16-.34-1.73-1.63-3.25-4.16-2.76-2.57.5-3.18,2.39-2.85,4.12.35,1.79,1.62,3.29,4.19,2.79Z"/>
    </g>
  </g>
  <g class="cls-4">
    <g class="cls-4">
      <path class="cls-1" d="m291.29,503.84l11.66-2.27.43,2.2-8.72,1.7.69,3.54,8.25-1.6.43,2.2-8.25,1.6,1.18,6.09-2.95.57-2.72-14.02Z"/>
      <path class="cls-1" d="m305.1,504.9l2.71-.53,1.15,5.93c.3,1.57.93,2.71,3.23,2.27,1.2-.23,3.01-1.4,2.58-3.62l-1.11-5.71,2.71-.53,2.02,10.41-2.71.53-.28-1.45h-.04c-.67,1.3-1.88,2.29-3.75,2.65-2.26.44-4.57.05-5.17-2.99l-1.35-6.95Z"/>
      <path class="cls-1" d="m319.8,504.08l-2.16.42-.38-1.96,2.16-.42-.62-3.22,2.71-.53.63,3.22,2.83-.55.38,1.96-2.83.55.92,4.75c.23,1.2.42,1.83,1.34,1.66.69-.13,1.29-.27,1.94-.42l.38,1.96c-.71.24-1.21.4-2.05.56-3.3.64-3.78-.49-4.16-2.45l-1.08-5.54Z"/>
      <path class="cls-1" d="m326.56,500.73l2.71-.53,1.15,5.93c.31,1.57.94,2.71,3.23,2.26,1.2-.23,3.01-1.4,2.58-3.62l-1.11-5.71,2.71-.53,2.02,10.41-2.71.53-.28-1.45h-.04c-.67,1.3-1.88,2.29-3.74,2.65-2.26.44-4.58.05-5.17-2.99l-1.35-6.95Z"/>
      <path class="cls-1" d="m340.03,498.11l2.71-.53.39,2.02h.04c.52-1.33,1.38-2.66,3.48-3.07.41-.08.71-.1,1.1-.11l.52,2.67c-.81-.09-1.3-.01-1.78.08-1.38.27-3.18,1.35-2.71,3.79l.98,5.03-2.71.53-2.02-10.41Z"/>
      <path class="cls-1" d="m355.03,494.79c4.65-.9,6.97,1.48,7.53,4.34.56,2.89-.7,5.94-5.35,6.85-4.65.91-6.97-1.46-7.53-4.34-.56-2.87.7-5.94,5.35-6.85Zm1.77,9.11c2.61-.51,3.28-2.41,2.93-4.22-.35-1.81-1.68-3.32-4.29-2.81s-3.28,2.41-2.93,4.22c.35,1.81,1.69,3.32,4.3,2.81Z"/>
    </g>
  </g>
  <g class="cls-4">
    <g class="cls-4">
      <path class="cls-6" d="m373.63,614.57l8.77,2.19c3.53.88,4.28,2.76,3.74,4.93-.45,1.8-1.7,2.69-3.12,2.77v.04c1.53.76,1.57,2.27,1.08,4.25-.17.68-.53,2.2-.16,3.12l-3.14-.78c-.12-.44-.08-1.17.17-2.18.49-1.96.55-3.45-1.56-3.98l-4.95-1.23-1.37,5.47-2.91-.73,3.46-13.86Zm6.39,8.19c1.63.41,2.61.13,2.99-1.42.36-1.46-.43-2.23-1.99-2.62l-5.03-1.25-1.01,4.04,5.03,1.25Z"/>
      <path class="cls-6" d="m397.29,632.7c-.14.56.26.69.44.73.25.06.66.16.89.16l-.47,1.88c-.55-.03-1.05-.01-1.96-.24-1.75-.44-1.73-1.4-1.69-1.82-.65.39-2.18.96-5.19.21-2.7-.67-3.89-2.25-3.39-4.27.71-2.83,3.68-2.36,5.43-2.09,3.92.58,4.38.56,4.57-.24.29-1.17-.99-1.81-2.54-2.2-1.79-.45-2.86-.12-3.24,1.01l-2.62-.65c1.04-2.61,3.31-2.93,6.32-2.18,5.38,1.34,5,3.49,4.67,4.83l-1.21,4.87Zm-1.99-3.44c-.85.12-1.72.03-3.67-.23-2.08-.25-2.67.04-2.89.93-.34,1.36.82,1.92,1.75,2.15,1.46.36,4,.42,4.56-1.85l.25-.99Z"/>
      <path class="cls-6" d="m401.97,625.43l2.68.67-2.57,10.29-2.68-.67,2.57-10.29Zm2.81-3.65l3.3.82-3.4,2.08-2.31-.58,2.41-2.33Z"/>
      <path class="cls-6" d="m404.16,634.84l8.5-4.56-6.56-1.64.51-2.06,10.38,2.59-.46,1.83-8.66,4.64,7.32,1.82-.51,2.06-11-2.74.48-1.94Z"/>
    </g>
  </g>
  <g class="cls-4">
    <g class="cls-4">
      <path class="cls-6" d="m94.25,415.59c2.18-.27,6.58-.4,7.48,3.66l-3.22.39c-.24-1.1-1.37-2.15-3.85-1.84-1.99.24-3.22,1-3.06,2.35.41,3.36,10.58-1.18,11.32,4.9.45,3.65-3.23,5.07-6.24,5.44-5.1.63-7.37-1.13-7.8-4.1l3.22-.4c.31,1.88,1.95,2.56,4.41,2.26,1.83-.22,3.43-.99,3.24-2.51-.43-3.51-10.5.83-11.21-4.99-.39-3.18,2.26-4.73,5.71-5.16Z"/>
      <path class="cls-6" d="m106.87,424.2c.21,1.18,1.22,2.87,3.94,2.54,1.81-.22,2.52-.95,2.95-1.89l2.98-.37c-.45,1.27-1.6,3.74-5.61,4.24-4.77.58-6.85-1.96-7.2-4.76-.43-3.51,1.89-6.08,5.63-6.54,4.69-.58,6.81,2.09,7.18,5.16l.05.4-9.93,1.22Zm6.85-2.62c-.58-2.08-2.56-2.47-3.89-2.3-1.29.16-2.96.97-3.18,3.17l7.07-.87Z"/>
      <path class="cls-6" d="m117.95,416.79l2.74-.34.2,1.59h.04c.75-1.25,2.03-2.15,3.92-2.38,2.28-.28,4.56.25,4.92,3.11l.88,7.15-2.74.34-.77-6.27c-.14-1.13-.67-2.38-2.94-2.1-1.43.18-3.18,1.2-2.9,3.44l.7,5.66-2.74.34-1.29-10.52Z"/>
      <path class="cls-6" d="m132.66,417l-2.18.27-.24-1.99,2.18-.27-.4-3.26,2.74-.34.4,3.26,2.86-.35.24,1.99-2.86.35.59,4.8c.15,1.21.29,1.86,1.22,1.74.7-.09,1.31-.18,1.96-.28l.24,1.98c-.72.19-1.23.31-2.08.42-3.34.41-3.74-.75-3.98-2.74l-.69-5.6Z"/>
      <path class="cls-6" d="m139.25,410.23l2.74-.34.27,2.22-2.74.34-.27-2.22Zm.48,3.89l2.74-.34,1.29,10.52-2.74.34-1.29-10.52Z"/>
      <path class="cls-6" d="m158.17,422.54l-2.74.34-.18-1.45h-.04c-.14.67-1.62,2.08-3.8,2.35-4.01.49-6.12-2.21-6.45-4.91-.33-2.66,1.06-5.79,5.07-6.29,1.67-.21,3.28.12,4.25,1.29h.04s-.66-5.41-.66-5.41l2.74-.34,1.77,14.42Zm-6.37-.95c2.56-.31,3.33-2.14,3.1-3.95-.21-1.75-1.4-3.35-3.96-3.04-2.6.32-3.34,2.16-3.13,3.91.22,1.81,1.38,3.4,3.99,3.08Z"/>
      <path class="cls-6" d="m165.1,410.6c4.71-.58,6.85,1.96,7.21,4.86.36,2.92-1.11,5.88-5.82,6.46-4.71.58-6.85-1.94-7.21-4.86-.36-2.9,1.11-5.88,5.82-6.46Zm1.13,9.21c2.64-.32,3.44-2.18,3.22-4-.22-1.83-1.45-3.43-4.09-3.11-2.64.32-3.44,2.18-3.22,4,.22,1.83,1.45,3.43,4.09,3.1Z"/>
    </g>
  </g>
  <circle class="cls-6" cx="294" cy="646" r="13"/>
  <circle class="cls-6" cx="120.19" cy="460" r="13"/>
  <path class="cls-6" d="m80.43,628.01l-12.9,2.74,7.18-11.06-4.82-3.12-7.18,11.06-2.74-12.9-5.61,1.19,2.74,12.9-11.06-7.18-3.13,4.81,11.06,7.18-12.9,2.74,1.19,5.61,12.9-2.74-7.18,11.06,4.82,3.12,7.18-11.06,2.74,12.9,5.61-1.19-2.74-12.9,11.06,7.18,3.13-4.81-11.06-7.18,12.9-2.74-1.19-5.61Z"/>
  <path class="cls-5" d="m360.24,559.31l-13.57-3.64,12.17-7.02-3.06-5.3-12.17,7.02,3.64-13.57-5.91-1.58-3.64,13.58-7.02-12.17-5.3,3.06,7.02,12.17-13.57-3.64-1.58,5.91,13.57,3.64-12.17,7.02,3.06,5.3,12.17-7.02-3.64,13.57,5.91,1.58,3.64-13.57,7.02,12.17,5.3-3.06-7.03-12.17,13.57,3.64,1.58-5.91Z"/>
  <path class="cls-5" d="m331.01,409.1l150.19-29.19c17.89-3.48,35.21,8.21,38.69,26.1h0c3.48,17.89-8.21,35.21-26.1,38.69l-150.19,29.19c-17.89,3.48-35.21-8.21-38.69-26.1h0c-3.48-17.89,8.21-35.21,26.1-38.69Z"/>
  <g class="cls-4">
    <g class="cls-4">
      <path class="cls-6" d="m375.68,427.32c2.16-.42,6.54-.86,7.72,3.13l-3.18.62c-.31-1.08-1.52-2.05-3.97-1.57-1.96.38-3.15,1.22-2.89,2.56.65,3.32,10.47-1.91,11.64,4.1.7,3.61-2.87,5.29-5.85,5.87-5.05.98-7.43-.61-8.07-3.55l3.18-.62c.44,1.85,2.12,2.42,4.56,1.95,1.81-.35,3.35-1.22,3.06-2.73-.68-3.47-10.42,1.56-11.54-4.2-.61-3.14,1.92-4.88,5.34-5.54Z"/>
      <path class="cls-6" d="m391.15,428.07c4.65-.91,6.97,1.48,7.53,4.34.56,2.89-.7,5.94-5.35,6.85-4.65.91-6.97-1.46-7.53-4.34-.56-2.87.7-5.94,5.35-6.85Zm1.77,9.11c2.61-.51,3.28-2.41,2.93-4.22s-1.68-3.32-4.3-2.81c-2.61.51-3.28,2.41-2.93,4.22.35,1.81,1.69,3.32,4.3,2.81Z"/>
      <path class="cls-6" d="m398.74,423l2.71-.53,2.77,14.26-2.71.53-2.77-14.26Z"/>
      <path class="cls-6" d="m403.8,422.02l2.71-.53.43,2.2-2.71.53-.43-2.2Zm.75,3.85l2.71-.53,2.02,10.41-2.71.53-2.02-10.41Z"/>
      <path class="cls-6" d="m423.54,432.98l-2.71.53-.28-1.43h-.04c-.09.68-1.47,2.19-3.63,2.61-3.97.77-6.26-1.78-6.77-4.45-.51-2.63.66-5.85,4.62-6.62,1.65-.32,3.28-.11,4.33.99h.04s-1.04-5.35-1.04-5.35l2.71-.53,2.77,14.26Zm-6.42-.51c2.53-.49,3.17-2.37,2.82-4.15-.34-1.73-1.63-3.25-4.16-2.76-2.57.5-3.18,2.39-2.85,4.12.35,1.79,1.62,3.29,4.19,2.79Z"/>
      <path class="cls-6" d="m427.35,427.55c.29,1.17,1.42,2.78,4.11,2.26,1.79-.35,2.45-1.13,2.81-2.1l2.95-.57c-.36,1.29-1.33,3.85-5.3,4.62-4.71.92-6.97-1.48-7.51-4.25-.68-3.48,1.46-6.2,5.16-6.91,4.63-.9,6.94,1.61,7.53,4.65l.08.39-9.82,1.91Zm6.66-3.09c-.72-2.04-2.73-2.28-4.04-2.03-1.28.25-2.89,1.17-2.95,3.38l6.99-1.36Z"/>
      <path class="cls-6" d="m438.86,427.96l5.77-7.72-6.64,1.29-.41-2.08,10.51-2.04.36,1.85-5.89,7.87,7.4-1.44.4,2.08-11.13,2.16-.38-1.96Z"/>
    </g>
  </g>
</svg>