<svg xmlns="http://www.w3.org/2000/svg" width="95.754" height="229.878" viewBox="0 0 95.754 229.878"><defs><style>.a{fill:#fff;}</style></defs><g transform="translate(0 -0.03)"><g transform="translate(0 0.03)"><g transform="translate(0 171.747)"><path class="a" d="M.807,384.611a2.8,2.8,0,0,0,.719.225,6.531,6.531,0,0,0,.94.053,3.236,3.236,0,0,0,1.913-.623,4.52,4.52,0,0,0,1.376-1.616,8.913,8.913,0,0,0,1.017-4,13.448,13.448,0,0,0-.369-3.036,13.379,13.379,0,0,0-.657-2.124c-.259-.628-.623-1.429-1.089-2.379l-1.5-3.141a12.947,12.947,0,0,1-.892-2.566,11.323,11.323,0,0,1-.331-2.661,4.641,4.641,0,0,1,.23-1.5,3.264,3.264,0,0,1,.82-1.352,1.741,1.741,0,0,1,1.266-.532,1.109,1.109,0,0,1,.513.153,1.415,1.415,0,0,0,.59.182c.077,0,.331-.029.331-.393,0-.254-.206-.489-.633-.729a2.178,2.178,0,0,0-1.031-.336,2.828,2.828,0,0,0-1.961.806,4.528,4.528,0,0,0-1.151,1.8,6.709,6.709,0,0,0-.36,2.163,10.879,10.879,0,0,0,.475,3.275,14.742,14.742,0,0,0,.777,2.091c.288.619.7,1.472,1.276,2.614.259.475.451.844.566,1.1a16.471,16.471,0,0,1,1.228,3.117,12.185,12.185,0,0,1,.46,3.275,10.245,10.245,0,0,1-.662,3.333,3.8,3.8,0,0,1-.921,1.52,1.794,1.794,0,0,1-1.266.566,2.021,2.021,0,0,1-.854-.259,2.722,2.722,0,0,0-.983-.245.464.464,0,0,0-.494.528.148.148,0,0,0,.014.062,1.516,1.516,0,0,0,.662.623Z" transform="translate(-0.078 -358.207)"/><path class="a" d="M27.293,384.759c.259-.086.388-.34.388-.758,0-.211-.1-.561-.729-.561H23.941v-1.108c0-2-.024-3.793-.067-5.313l-.067-4.944c0-.043,0-.043,0-.038h1.9a.657.657,0,0,0,.475-.153.74.74,0,0,0,.153-.542c0-.221-.086-.595-.662-.595-.643,0-1.252.024-1.8.067v-6.958c-.029-.83-.038-1.784-.038-2.834,0-.168.034-.216.048-.225s.058-.048.221-.048l1.079.067h.585a.969.969,0,0,0,.5-.23.662.662,0,0,0,.245-.532c0-.465-.23-.633-.427-.691a2.879,2.879,0,0,0-.739-.072H23.279a.618.618,0,0,0-.542.326,1.368,1.368,0,0,0-.187.743c.043,1.036.067,2.283.067,3.7l.034,13.8-.034,4.877v.067a4.269,4.269,0,0,0,.034.6v.633a.7.7,0,0,0,.393.7,2.944,2.944,0,0,0,1.175.163h1.405a6.534,6.534,0,0,0,1.678-.139Z" transform="translate(-11.736 -358.753)"/><path class="a" d="M48.176,369.893c.417-2.259.753-4.177.993-5.692.01.125.014.254.024.4.019.46.034,1,.034,1.6,0,.691-.01,1.319-.034,1.87l-.034,1.875c0,.906.034,2.168.1,3.741,0,.758.01,1.343.034,1.741.086,2.153.134,4.009.134,5.51v3.04a1.413,1.413,0,0,0,.173.791h0a.779.779,0,0,0,.691.273.562.562,0,0,0,.484-.278,3.088,3.088,0,0,0,.11-1.021c0-.619-.024-1.712-.067-3.347-.067-1.242-.1-2.172-.1-2.767,0-1.885-.077-4.412-.235-7.524-.2-3.357-.3-5.908-.3-7.577v-3.309a.835.835,0,0,0-.163-.547.534.534,0,0,0-.863.01,1,1,0,0,0-.23.585l-.168,1-.369,1.875-.3,1.736-1.535,8.172c-.067.23-.235,1.2-.5,2.954-.134.715-.235,1.271-.3,1.674l-.105.58c-.388-2.292-.667-3.875-.849-4.829-.4-1.8-1.012-4.35-1.8-7.586-.81-3.314-1.3-5.251-1.506-5.927a.492.492,0,0,0-.489-.35.6.6,0,0,0-.4.168.518.518,0,0,0-.192.393v2.94l-.067,3.975c-.024,1.165-.034,2.489-.034,3.947,0,1.256-.01,2.4-.034,3.41l-.034,3.376v5.582c0,1.237.369,1.865,1.1,1.865a.131.131,0,0,0,.091-.038,1.338,1.338,0,0,0,.273-.964l-.067-1.611c-.067-.719-.1-1.232-.1-1.559,0-1.937-.01-3.726-.034-5.313s-.034-3.371-.034-5.313c0-2.139.024-4.11.072-5.889.221.954.638,2.92,1.41,6.781.973,4.882,1.549,7.889,1.7,8.939a1.568,1.568,0,0,0,.259.839.686.686,0,0,0,1.156,0,1.575,1.575,0,0,0,.312-.762c.086-.6.293-1.616.6-3.036.317-1.626.719-3.774,1.2-6.383Z" transform="translate(-20.938 -358.317)"/><path class="a" d="M75.923,384.458a.543.543,0,0,0,.417-.23.717.717,0,0,0,.177-.465c0-.273-.153-.595-.9-.595H74.547c0-.264.014-.523.034-.772v-.935c0-2.124-.134-5.668-.4-10.531-.288-5.218-.432-8.742-.432-10.488l.038-.077a1.009,1.009,0,0,1,.3-.029h.71a2.7,2.7,0,0,0,.427.034.465.465,0,0,0,.412-.23.847.847,0,0,0,.12-.432.53.53,0,0,0-.221-.456.894.894,0,0,0-.508-.139c-.518,0-.93-.01-1.271-.034H72.82a3.561,3.561,0,0,0-1.3.12.648.648,0,0,0-.326.575c0,.518.288.595.46.595h1.055c.034.35.053,1.026.053,2.009v2.2l-.034,1.712c.091,1.789.177,4.263.269,7.352.153,3.817.23,7.03.235,9.557H72.053c-.6,0-.7.35-.7.561a.609.609,0,0,0,.225.46.723.723,0,0,0,.5.2c.8,0,1.487.01,2.038.034h1.8Z" transform="translate(-37.051 -358.644)"/><path class="a" d="M91.281,383.486a.915.915,0,0,0,.177.576h0a.582.582,0,0,0,.484.254c1.319,0,2.23-.01,2.7-.034h.288l.216-.034a.45.45,0,0,0,.412-.249,1.054,1.054,0,0,0,.115-.513c0-.633-.35-.729-.561-.729H93.046a2.332,2.332,0,0,1-.374-.014l-.034-.014-.2-4.129c-.134-2.1-.2-3.635-.2-4.57l-.168-5.98c-.067-2.029-.1-5.141-.1-9.251,0-.235-.1-.628-.729-.628a.666.666,0,0,0-.427.144.483.483,0,0,0-.2.384c0,1.53.067,3.884.2,6.987.11,3.429.168,5.779.168,6.977,0,1.285.043,2.882.134,4.752.11,1.746.168,3.338.168,4.738v1.338Z" transform="translate(-47.158 -358.17)"/><path class="a" d="M112.146,384.282l.216-.034a.45.45,0,0,0,.412-.249,1.054,1.054,0,0,0,.115-.513c0-.633-.35-.729-.561-.729h-2.072a2.332,2.332,0,0,1-.374-.014l-.034-.014-.2-4.129c-.134-2.1-.2-3.635-.2-4.57l-.168-5.98c-.067-2.024-.1-5.136-.1-9.251,0-.235-.1-.628-.729-.628a.666.666,0,0,0-.427.144.483.483,0,0,0-.2.384c0,1.53.067,3.884.2,6.987.11,3.429.168,5.779.168,6.977,0,1.285.043,2.882.134,4.752.11,1.75.168,3.347.168,4.738v1.338a.905.905,0,0,0,.177.575h0a.582.582,0,0,0,.484.254c1.319,0,2.23-.01,2.7-.034h.288Z" transform="translate(-56.115 -358.17)"/><path class="a" d="M129.442,383.44h-3.012v-1.108c0-1.995-.024-3.784-.067-5.313l-.067-4.944c0-.043,0-.043,0-.038h1.9a.657.657,0,0,0,.475-.153.74.74,0,0,0,.153-.542c0-.221-.086-.595-.662-.595-.643,0-1.252.024-1.8.067v-6.958c-.029-.834-.038-1.76-.038-2.834,0-.168.034-.216.048-.225s.058-.048.221-.048l1.079.067h.585a1.009,1.009,0,0,0,.5-.23.662.662,0,0,0,.245-.532c0-.465-.23-.633-.427-.691a2.879,2.879,0,0,0-.739-.072h-2.072a.618.618,0,0,0-.542.326,1.368,1.368,0,0,0-.187.743c.043,1.036.067,2.283.067,3.7l.034,13.8-.034,4.877v.067a4.407,4.407,0,0,0,.034.6v.633a.7.7,0,0,0,.393.7,2.944,2.944,0,0,0,1.175.163h1.405a6.534,6.534,0,0,0,1.678-.139c.259-.086.388-.34.388-.758,0-.211-.1-.561-.729-.561Z" transform="translate(-65.077 -358.753)"/><path class="a" d="M147.195,377.492c-.878-3.51-1.559-6.148-2.019-7.855a3.778,3.778,0,0,0,.508-.868c.2-.436.369-.825.5-1.161a9.8,9.8,0,0,0,.676-3.386,7.441,7.441,0,0,0-.916-3.635,3.506,3.506,0,0,0-1.232-1.319,3.169,3.169,0,0,0-1.688-.489c-.6,0-.729.235-.729.427v4.311c0,2.719-.043,6.066-.134,9.956l-.067,3.242-.067,6.752v.5a.67.67,0,0,0,.206.494.716.716,0,0,0,.523.206c.47,0,.729-.283.729-.8l-.067-13.284.374-.173.187-.11c.254.969.528,2.225.825,3.736.269,1.381.494,2.47.667,3.242.288,1.424.753,3.189,1.371,5.256l.4,1.467a.917.917,0,0,0,.959.763.514.514,0,0,0,.465-.283,1.234,1.234,0,0,0,.134-.58,1.418,1.418,0,0,0-.038-.4l-1.568-6.014Zm-1.688-12.866a9.955,9.955,0,0,1-.163,1.65,5.42,5.42,0,0,1-.384,1.357,6.156,6.156,0,0,1-.882,1.045,2.786,2.786,0,0,1-.686.556V360.08a.024.024,0,0,0,.014,0h.024a1.236,1.236,0,0,1,.94.475,3.252,3.252,0,0,1,.676,1.309A8.921,8.921,0,0,1,145.507,364.626Z" transform="translate(-73.919 -358.488)"/><path class="a" d="M168.875,362.247a11.747,11.747,0,0,0-.475-1.487,5.036,5.036,0,0,0-.691-1.271,3.455,3.455,0,0,0-1.146-.849,3.5,3.5,0,0,0-1.525-.331,2.122,2.122,0,0,0-1.554.6,3.52,3.52,0,0,0-.988,1.386,9.534,9.534,0,0,0-.561,2.168,31.57,31.57,0,0,0-.336,4.9V368.7c0,10.9,1.559,16.2,4.772,16.2a2.308,2.308,0,0,0,2.081-1.266,8.409,8.409,0,0,0,.662-1.357,7.742,7.742,0,0,0,.388-1.592,28.42,28.42,0,0,0,.369-3.525c.043-.94.067-1.976.067-3.079v-.1a73.819,73.819,0,0,0-.806-10.147l-.269-1.578Zm-.187,11.02v.134c0,1.122-.024,2.3-.067,3.5a27.771,27.771,0,0,1-.667,4.561,4.65,4.65,0,0,1-.647,1.674h0a1.1,1.1,0,0,1-.863.566c-.527,0-1.007-.374-1.429-1.108a9.7,9.7,0,0,1-1.055-2.671,32.211,32.211,0,0,1-.667-3.76,46.994,46.994,0,0,1-.432-5.664v-1.635c0-1.146.034-2.278.1-3.371a18.7,18.7,0,0,1,.662-4.115,4.051,4.051,0,0,1,.676-1.458,1.142,1.142,0,0,1,.9-.489,1.7,1.7,0,0,1,1.1.436,3.124,3.124,0,0,1,.849,1.252,17.642,17.642,0,0,1,1.093,4.143c.221,1.9.355,3.472.4,4.666l.034,3.338Z" transform="translate(-84.104 -358.243)"/><path class="a" d="M186.5,384.611a2.8,2.8,0,0,0,.719.225,6.531,6.531,0,0,0,.94.053,3.236,3.236,0,0,0,1.913-.623,4.52,4.52,0,0,0,1.376-1.616,8.913,8.913,0,0,0,1.017-4,13.513,13.513,0,0,0-.369-3.036,14.094,14.094,0,0,0-.657-2.124c-.259-.628-.623-1.429-1.089-2.379l-1.5-3.141a12.945,12.945,0,0,1-.892-2.566,11.323,11.323,0,0,1-.331-2.661,4.777,4.777,0,0,1,.225-1.5,3.264,3.264,0,0,1,.82-1.352,1.741,1.741,0,0,1,1.266-.532,1.109,1.109,0,0,1,.513.153,1.415,1.415,0,0,0,.59.182c.1,0,.331-.038.331-.393,0-.254-.206-.489-.633-.729a2.178,2.178,0,0,0-1.031-.336,2.828,2.828,0,0,0-1.961.806,4.528,4.528,0,0,0-1.151,1.8,6.708,6.708,0,0,0-.36,2.163,10.879,10.879,0,0,0,.475,3.275,14.741,14.741,0,0,0,.777,2.091c.288.619.7,1.472,1.276,2.614.259.475.451.844.566,1.1a16.471,16.471,0,0,1,1.228,3.117,12.185,12.185,0,0,1,.46,3.275,10.245,10.245,0,0,1-.662,3.333,3.8,3.8,0,0,1-.921,1.52,1.794,1.794,0,0,1-1.266.566,2.021,2.021,0,0,1-.854-.259,2.745,2.745,0,0,0-.983-.245.464.464,0,0,0-.494.528.148.148,0,0,0,.014.062,1.516,1.516,0,0,0,.662.623Z" transform="translate(-96.72 -358.207)"/><path class="a" d="M8.44,432.283a18.367,18.367,0,0,0-.81-3.472,7.96,7.96,0,0,0-1.77-2.887,4.267,4.267,0,0,0-3.026-1.2H2.666c-1.794,0-2.666.3-2.666.93a3.084,3.084,0,0,0,.245.954,4.013,4.013,0,0,1,.259.8c.086.619.144,2.172.168,4.628l.067,4.043L.973,445.2l.1,2.954a1,1,0,0,1-.221.585,1.7,1.7,0,0,0-.283.734c0,.23.158.427.47.58a1.9,1.9,0,0,0,.858.216c.149,0,.436-.067,1.242-.643a11.293,11.293,0,0,0,1.841-1.707,9.6,9.6,0,0,0,1.573-2.436,22.172,22.172,0,0,0,1.563-4.556,20.472,20.472,0,0,0,.556-4.522v-1.041c-.067-1.376-.149-2.417-.235-3.083ZM2.359,448.309v-3.616c0-1.6-.077-3.736-.235-6.354-.177-3-.269-5.146-.269-6.373,0-.748-.043-1.683-.134-2.781-.086-1.055-.134-1.985-.134-2.762,0-.158.192-.24.575-.24,3.486,0,5.251,3.237,5.251,9.629,0,.729-.034,1.5-.1,2.292a27.221,27.221,0,0,1-.465,2.944,16.538,16.538,0,0,1-.83,2.805A10.257,10.257,0,0,1,4.5,446.511a6.688,6.688,0,0,1-2.134,1.808h-.01Z" transform="translate(0 -392.806)"/><path class="a" d="M31.3,449.015H28.291v-1.108c0-1.99-.024-3.779-.067-5.313l-.067-4.944c0-.043,0-.043,0-.038h1.9a.656.656,0,0,0,.475-.153.747.747,0,0,0,.153-.542c0-.221-.086-.595-.662-.595-.643,0-1.252.024-1.8.067V429.43c-.029-.849-.038-1.8-.038-2.839,0-.173.038-.221.048-.225s.058-.048.221-.048l1.079.067h.585a1.013,1.013,0,0,0,.5-.23.662.662,0,0,0,.245-.532c0-.465-.23-.633-.427-.691a2.879,2.879,0,0,0-.739-.072H27.629a.624.624,0,0,0-.542.326,1.368,1.368,0,0,0-.187.743c.043,1.036.067,2.283.067,3.7l.034,13.8-.034,4.877v.067a4.269,4.269,0,0,0,.034.6v.633a.706.706,0,0,0,.388.7,2.944,2.944,0,0,0,1.175.163h1.405a6.531,6.531,0,0,0,1.678-.139c.259-.086.388-.34.388-.758,0-.211-.1-.561-.729-.561Z" transform="translate(-14 -392.879)"/><path class="a" d="M58.931,439.06c-.259-.628-.623-1.429-1.089-2.379l-1.5-3.141a12.947,12.947,0,0,1-.892-2.566,11.354,11.354,0,0,1-.331-2.662,4.641,4.641,0,0,1,.23-1.5,3.215,3.215,0,0,1,.82-1.352,1.741,1.741,0,0,1,1.266-.532,1.025,1.025,0,0,1,.508.153,1.414,1.414,0,0,0,.59.182c.077,0,.331-.029.331-.393,0-.254-.206-.489-.633-.729a2.178,2.178,0,0,0-1.031-.336,2.828,2.828,0,0,0-1.961.806,4.528,4.528,0,0,0-1.151,1.8,6.709,6.709,0,0,0-.36,2.163,10.925,10.925,0,0,0,.475,3.275,14.743,14.743,0,0,0,.777,2.091c.288.619.715,1.5,1.271,2.614.264.484.451.854.566,1.1a16.6,16.6,0,0,1,1.228,3.117,12.194,12.194,0,0,1,.465,3.275,10.244,10.244,0,0,1-.662,3.333,3.8,3.8,0,0,1-.921,1.52,1.8,1.8,0,0,1-1.266.566,2.02,2.02,0,0,1-.854-.259,2.7,2.7,0,0,0-.983-.245.464.464,0,0,0-.494.527.148.148,0,0,0,.014.062,1.516,1.516,0,0,0,.662.623,2.858,2.858,0,0,0,.719.225,6.531,6.531,0,0,0,.94.053,3.247,3.247,0,0,0,1.913-.623,4.52,4.52,0,0,0,1.376-1.616,8.914,8.914,0,0,0,1.017-4,14.784,14.784,0,0,0-1.026-5.16Z" transform="translate(-27.756 -392.332)"/><path class="a" d="M80.152,449.02H77.141v-1.108c0-1.995-.024-3.784-.067-5.313l-.067-4.944c0-.043,0-.043,0-.038h1.9a.656.656,0,0,0,.475-.153.74.74,0,0,0,.153-.542c0-.221-.086-.595-.662-.595-.643,0-1.252.024-1.8.067v-6.958c-.029-.834-.038-1.76-.038-2.834,0-.173.038-.221.048-.225s.058-.048.221-.048l1.079.067h.585a1.053,1.053,0,0,0,.5-.23.662.662,0,0,0,.245-.532c0-.465-.23-.633-.427-.691a2.877,2.877,0,0,0-.739-.072H76.479a.618.618,0,0,0-.542.326,1.368,1.368,0,0,0-.187.743c.043,1.041.067,2.287.067,3.7l.034,13.8-.034,4.877v.067a4.407,4.407,0,0,0,.034.6v.633a.706.706,0,0,0,.388.7h0a2.944,2.944,0,0,0,1.175.163h1.405a6.532,6.532,0,0,0,1.678-.139c.259-.086.388-.34.388-.758,0-.211-.1-.561-.729-.561Z" transform="translate(-39.424 -392.884)"/><path class="a" d="M100.248,423.05a.8.8,0,0,0-.82.551.14.14,0,0,0-.01.043l.034,4.709v2.57c-.024.767-.034,1.645-.034,2.609l-.067,5.812c-.043,1.688-.067,3.645-.067,5.817a6.486,6.486,0,0,1-.086,1.17c-.475-1.439-1.012-3.438-1.6-5.946-1.132-4.191-1.942-7.251-2.407-9.087-.221-.8-.489-1.99-.8-3.534l-.7-3.285a1,1,0,0,0-.36-.5.869.869,0,0,0-.532-.23,1.341,1.341,0,0,0-.758.173.741.741,0,0,0-.273.657v.36a1.563,1.563,0,0,1,.034.345c0,1.17.01,2.225.034,3.141v7.553l.067,5.812.034,5.812a8.459,8.459,0,0,1-.062,1.314.3.3,0,0,0,0,.067l.1.269a.131.131,0,0,0,.12.082h.767a.125.125,0,0,0,.1-.053l.2-.269a.237.237,0,0,0,.024-.077l-.134-9.519V427.1c.585,2.978.973,4.848,1.151,5.563.245,1.093,1.626,6.148,4.1,15.029a2.62,2.62,0,0,0,.1.5l.1.643a1.368,1.368,0,0,0,.293.59.687.687,0,0,0,.532.278c.456,0,1-.192,1-1.093l.067-2.638c.067-1.2.1-2.086.1-2.647,0-2.921.01-5.572.034-7.884.024-2.359.034-5.026.034-7.917V425.39s0-.062.014-.134a2.646,2.646,0,0,0,.019-.384,5.87,5.87,0,0,0,.034-.719c0-.508-.043-1.1-.393-1.1Z" transform="translate(-47.756 -391.937)"/><path class="a" d="M123.226,424.715l-3.673.034H116.21a6.944,6.944,0,0,0-1.357.1,1.2,1.2,0,0,0-.6.2.631.631,0,0,0-.139.456.534.534,0,0,0,.278.475,1.038,1.038,0,0,0,.551.153h3.669c.019.235.043,1.021.043,3.482v2.168l-.034.973c0,1.175.034,2.978.1,5.347l.067,5.347V449.4a1.228,1.228,0,0,0,.187.691.679.679,0,0,0,.609.307.449.449,0,0,0,.427-.206.65.65,0,0,0,.168-.35,2.683,2.683,0,0,0,.034-.475l-.034-2.542V427.875l-.034-1.822.173-.019h2.973c.662,0,.762-.393.762-.628a.689.689,0,0,0-.192-.532.962.962,0,0,0-.638-.163Z" transform="translate(-59.388 -392.801)"/><path class="a" d="M144.546,448.738h-1.074c0-.269.014-.523.034-.772v-.935c0-2.124-.134-5.668-.4-10.531-.288-5.222-.432-8.747-.436-10.488l.038-.077a1.009,1.009,0,0,1,.3-.029h.71a2.652,2.652,0,0,0,.427.034.455.455,0,0,0,.412-.23.86.86,0,0,0,.12-.432.53.53,0,0,0-.221-.456.883.883,0,0,0-.508-.139c-.518,0-.93-.01-1.271-.034h-.935a3.56,3.56,0,0,0-1.3.12.648.648,0,0,0-.326.575c0,.518.288.595.46.595h1.055c.034.35.053,1.026.053,2.009v2.2l-.034,1.712c.086,1.76.177,4.23.269,7.352.153,3.832.23,7.045.235,9.557h-1.175c-.6,0-.7.35-.7.561a.609.609,0,0,0,.225.46.723.723,0,0,0,.5.2c.815,0,1.5.01,2.038.034h1.8a.543.543,0,0,0,.417-.23.716.716,0,0,0,.177-.465c0-.273-.153-.595-.9-.595Z" transform="translate(-72.92 -392.769)"/><path class="a" d="M166.57,432.283a18.366,18.366,0,0,0-.81-3.472,7.96,7.96,0,0,0-1.77-2.887,4.267,4.267,0,0,0-3.026-1.2H160.8c-1.794,0-2.666.3-2.666.93a3.233,3.233,0,0,0,.245.954,3.829,3.829,0,0,1,.259.8c.086.619.144,2.177.163,4.628l.067,4.043.235,9.121.1,2.954c.014.086-.014.259-.221.585a1.7,1.7,0,0,0-.283.734c0,.23.158.427.47.58a1.9,1.9,0,0,0,.858.216c.149,0,.436-.067,1.242-.643a11.293,11.293,0,0,0,1.841-1.707,9.6,9.6,0,0,0,1.573-2.436,21.985,21.985,0,0,0,1.563-4.556,20.471,20.471,0,0,0,.556-4.522v-1.041c-.067-1.376-.149-2.417-.235-3.083Zm-6.316,6.057c-.177-3-.269-5.146-.269-6.373,0-.748-.043-1.683-.134-2.781-.086-1.055-.134-1.985-.134-2.762,0-.158.192-.24.575-.24,3.486,0,5.251,3.237,5.251,9.629,0,.729-.034,1.5-.1,2.292a27.037,27.037,0,0,1-.465,2.944,16.671,16.671,0,0,1-.83,2.805,10.136,10.136,0,0,1-1.52,2.657,6.688,6.688,0,0,1-2.134,1.808h-.01V444.7c0-1.592-.077-3.726-.235-6.354Z" transform="translate(-82.298 -392.806)"/><path class="a" d="M190.31,429.539l-.2-1.587a11.262,11.262,0,0,0-.408-1.506,4.971,4.971,0,0,0-.633-1.3,3.378,3.378,0,0,0-1.108-.9,3.51,3.51,0,0,0-1.511-.393,2.081,2.081,0,0,0-1.578.532,3.535,3.535,0,0,0-1.045,1.343,9.529,9.529,0,0,0-.652,2.144,31.347,31.347,0,0,0-.547,4.877l-.058,1.333c-.47,10.891.863,16.252,4.071,16.391h.12a2.3,2.3,0,0,0,2.014-1.175,7.439,7.439,0,0,0,1.18-2.906,29.276,29.276,0,0,0,.523-3.505c.086-.93.153-1.966.2-3.074v-.1a73.778,73.778,0,0,0-.364-10.171Zm-2.661,19.216a1.119,1.119,0,0,1-.887.528c-.528-.024-.993-.412-1.381-1.17a9.816,9.816,0,0,1-.94-2.714,31.562,31.562,0,0,1-.5-3.784,46.928,46.928,0,0,1-.192-5.678l.072-1.635c.048-1.156.134-2.287.245-3.362a18.358,18.358,0,0,1,.839-4.081,3.906,3.906,0,0,1,.739-1.424,1.158,1.158,0,0,1,.878-.451h.048a1.692,1.692,0,0,1,1.084.484,3.163,3.163,0,0,1,.8,1.285,17.987,17.987,0,0,1,.916,4.186c.139,1.913.206,3.491.2,4.676l-.11,3.338v.134c-.053,1.117-.125,2.3-.221,3.5a28.12,28.12,0,0,1-.863,4.527,4.545,4.545,0,0,1-.719,1.645Z" transform="translate(-94.971 -392.354)"/></g><g transform="translate(0.403)"><path class="a" d="M95.594,75.113a14.91,14.91,0,0,1-2.1.873c.043-.254.086-.5.129-.758.206-1.156.427-2.316.575-3.5.019-.206-.038-.374-.134-.388s-.2.134-.23.336c-.173,1.156-.412,2.307-.638,3.462-.062.326-.125.657-.182.983-.551.168-1.108.321-1.664.446a11.813,11.813,0,0,1-3.712.321c.278-.379.551-.767.815-1.156a45.246,45.246,0,0,0,2.561-4.359c.355-.7.7-1.4,1.012-2.11a7.314,7.314,0,0,0,2.163-.326,3.751,3.751,0,0,0,1.8-1.654c.014-.034-.038-.1-.115-.153s-.163-.082-.187-.058A3.215,3.215,0,0,1,94,68.333a5.417,5.417,0,0,1-1.616.072c.206-.575.379-1.151.551-1.722.93-3.218,1.664-6.469,2.6-9.663.082-.278.082-.513,0-.542s-.225.168-.317.441c-.935,2.805-1.722,5.654-2.609,8.459-.1-.1-.2-.2-.3-.307-.245-.273-.48-.575-.729-.873a8.28,8.28,0,0,0-.82-.882,2.819,2.819,0,0,1-.734-.748,6.07,6.07,0,0,1-.609-2.086h0a11.508,11.508,0,0,0,.753-1.448c.168-.47.225-.854.129-.878s-.3.3-.475.734a9.577,9.577,0,0,1-.484.935c-.058-.537-.1-1.079-.134-1.621-.01-.067-.091-.115-.187-.115s-.177.058-.182.125c0,.758.01,1.52.077,2.292a18.492,18.492,0,0,1-1.352,1.765,35.534,35.534,0,0,1-2.916,2.911c-2.043,1.846-4.234,3.53-6.431,5.213-1.1.844-2.206,1.674-3.29,2.551-.542.436-1.06.882-1.578,1.338a15.787,15.787,0,0,1,.269-2.618,5.582,5.582,0,0,1,.5-1.491,2.187,2.187,0,0,1,.465-.595c.168-.158.441-.331.638-.518A17.721,17.721,0,0,0,77.4,66.587a23.779,23.779,0,0,0,1.8-2.748c.043-.086.043-.168,0-.192s-.115.024-.163.1A23.759,23.759,0,0,1,77.2,66.434a17.563,17.563,0,0,1-2.187,2.388h0a3.482,3.482,0,0,0,.336-1.328,12.32,12.32,0,0,1-.019-1.923,13.448,13.448,0,0,1,1.8-3.39c.029-.053.029-.1,0-.115s-.067.014-.1.062a13.272,13.272,0,0,0-1.894,3.4,11.105,11.105,0,0,0-.024,1.952,4.046,4.046,0,0,1-.561,1.688c-.058.043-.12.091-.182.144a2.477,2.477,0,0,0-.551.676,5.888,5.888,0,0,0-.571,1.587A18.642,18.642,0,0,0,72.9,74.7c-.369.331-.739.662-1.108,1-1.026.945-2.033,1.913-2.978,2.968a16.454,16.454,0,0,0-2.484,3.506q-.216.46-.388.95c-.259.149-.523.293-.786.436-.81.427-1.635.815-2.47,1.184a19.677,19.677,0,0,1,.691-3.414,16.707,16.707,0,0,1,.959-2.465c.182-.384.408-.825.595-1.256s.355-.882.5-1.333a13.775,13.775,0,0,0,.436-5.611c-.024-.235-.043-.465-.067-.7a49.589,49.589,0,0,0,5.491-4.944,33.712,33.712,0,0,0,2.82-3.458,32.569,32.569,0,0,0,2.062-3.52,12.1,12.1,0,0,0,2.585-.374c1.266-.34,2.532-.686,3.793-1.084a24.55,24.55,0,0,0,3.693-1.487c.959-.484,1.88-1.021,2.781-1.583.739-.029,1.506.019,2.273-.029a6.108,6.108,0,0,0,2.47-.575.08.08,0,0,0,.019-.11.1.1,0,0,0-.1-.058,5.929,5.929,0,0,1-2.4.427c-.532,0-1.06-.038-1.6-.067A13.438,13.438,0,0,0,92.8,50.652,13.43,13.43,0,0,0,94.587,47.1c.086-.211.086-.4,0-.446s-.235.091-.336.3a13.089,13.089,0,0,1-1.827,3.371,13.067,13.067,0,0,1-3.093,2.24c-.916.542-1.846,1.055-2.791,1.525a3.853,3.853,0,0,1,.432-1.156,8.509,8.509,0,0,1,1.165-1.606c.446-.489.978-.973,1.424-1.52a8.518,8.518,0,0,0,1.108-1.808c.024-.058-.024-.134-.115-.182s-.182-.043-.216,0a8.285,8.285,0,0,1-1.161,1.65c-.46.5-.978.911-1.5,1.41A9.021,9.021,0,0,0,86.3,52.536a4.216,4.216,0,0,0-.7,1.985,24.293,24.293,0,0,1-3.314,1.18c-1.242.35-2.513.647-3.779.94a11.1,11.1,0,0,1-1.722.24c.643-1.228,1.295-2.451,1.942-3.673v.034c.844-.149,1.664-.264,2.532-.422a2.718,2.718,0,0,0,.7-.216,2.848,2.848,0,0,0,.58-.432c.317-.278.633-.532.973-.786.671-.513,1.367-1.017,2.019-1.587a4.784,4.784,0,0,0,1.559-2.12.164.164,0,0,0-.139-.182.182.182,0,0,0-.216.072,4.385,4.385,0,0,1-1.53,1.846c-.657.513-1.362.978-2.067,1.458-.35.235-.715.494-1.05.762a1.521,1.521,0,0,1-.973.432c-.619.082-1.261.149-1.9.221.408-.767.81-1.539,1.218-2.307,1.386-2.566,2.772-5.141,4.244-7.654a5.805,5.805,0,0,1,1.271-1.659,10.117,10.117,0,0,1,1.779-1.175,23.56,23.56,0,0,0,3.808-2.23c.408-.34.59-.734.518-.786-.091-.067-.374.192-.758.5a22.958,22.958,0,0,1-3.793,2.1,10.815,10.815,0,0,0-1.894,1.194,4.055,4.055,0,0,0-.427.388l-.2.206-.177.235c-.245.312-.417.619-.619.93C82.637,44.518,81.2,47.06,79.745,49.6q-2.064,3.64-4.086,7.308c-.293-.01-.59-.029-.887-.058a25.694,25.694,0,0,0-4-.235,10.885,10.885,0,0,0-1.252.158c.508-.513,1.007-1.041,1.477-1.573,1.252-1.391,2.455-2.815,3.645-4.249l7.069-8.637c.206-.249.312-.494.235-.556s-.3.072-.518.317l-1.937,2.2a5.942,5.942,0,0,1-.34-3.251c.077-.662.206-1.328.326-2,.062-.336.12-.681.168-1.031.043-.369.058-.686.12-1a3.257,3.257,0,0,1,.806-1.678A11.367,11.367,0,0,1,82.1,34.04a10.933,10.933,0,0,0,2.968-2.916.2.2,0,0,0-.048-.278.217.217,0,0,0-.269.086,10.612,10.612,0,0,1-2.949,2.7,13.058,13.058,0,0,0-1.5,1.141,4.832,4.832,0,0,1,.412-1.741,17.4,17.4,0,0,0,.95-2.431.082.082,0,0,0-.072-.086.089.089,0,0,0-.106.043,17.834,17.834,0,0,1-1.06,2.345,4.528,4.528,0,0,0-.523,2.307,4.064,4.064,0,0,0-.767,1.65c-.082.355-.11.724-.158,1.036s-.12.657-.192.988c-.144.667-.3,1.343-.4,2.038a8.843,8.843,0,0,0-.1,2.144,4.8,4.8,0,0,0,.575,1.918L74.8,49.6a4.765,4.765,0,0,1-.6-1.928,4.933,4.933,0,0,1,.575-2.652,13.69,13.69,0,0,0,1.741-5.678.178.178,0,0,0-.173-.168.182.182,0,0,0-.2.139,13.182,13.182,0,0,1-1.933,5.409,5.681,5.681,0,0,0-.782,3,5.748,5.748,0,0,0,.753,2.585l-.129.144c-1.242,1.381-2.489,2.757-3.774,4.086A32.225,32.225,0,0,1,67.075,57.5c-.105.043-.216.082-.317.125l.038.086c-.2.153-.4.317-.6.465s-.441.307-.662.46c.173-1.41.422-2.82.686-4.225l1.045-5.371c.062-.312.034-.571-.062-.595s-.225.206-.3.518l-1.18,5.352c-.336,1.583-.652,3.175-.868,4.791-1.074.71-2.182,1.372-3.309,2.033l-.053.029a12.575,12.575,0,0,1,.2-1.477,13.465,13.465,0,0,1,.724-2.3c.3-.767.643-1.506.964-2.3a11.007,11.007,0,0,0,.643-2.5c.259-1.678.235-3.362.556-4.93a4.625,4.625,0,0,1,.369-1.1,7.155,7.155,0,0,1,.633-1.007,19.389,19.389,0,0,1,1.563-1.885q.842-.9,1.76-1.726c.307-.269.619-.547.935-.782a12.083,12.083,0,0,1,1.026-.652,9.915,9.915,0,0,0,2.057-1.511,7.471,7.471,0,0,0,1.448-2.12c.676-1.367,1.228-2.767,1.861-4.129.58-.336,1.156-.681,1.717-1.05.978-.647,1.885-1.328,2.829-2,.465-.34.93-.681,1.386-1.05.225-.182.451-.374.662-.575a1.718,1.718,0,0,1,.681-.345c1.069-.34,2.211-.566,3.328-.83.2-.048.331-.163.307-.259s-.192-.139-.388-.106c-1.127.245-2.254.441-3.381.777a2.169,2.169,0,0,0-.849.422c-.211.187-.427.369-.652.542-.446.35-.916.676-1.386,1.007-.945.643-1.889,1.328-2.844,1.933-.307.192-.623.369-.94.556.278-.551.571-1.1.868-1.64.2-.364.408-.719.6-1.1a2.522,2.522,0,0,0,.23-.628c.048-.216.077-.417.11-.623.043-.283.01-.523-.086-.542s-.221.187-.278.475c-.038.206-.072.412-.115.6a2.1,2.1,0,0,1-.206.537c-.192.355-.408.715-.609,1.079-.412.719-.825,1.453-1.189,2.206,0,.01-.01.024-.014.034-.446.249-.9.494-1.352.739-1.007.542-2.038,1.06-3.06,1.587A11.664,11.664,0,0,1,72.9,30.635a17.907,17.907,0,0,1,1.376-2.148c.254-.345.518-.686.786-1.017l.408-.5.249-.3a26.8,26.8,0,0,0,3.707-.959A12.013,12.013,0,0,0,83.011,23.8a.1.1,0,0,0,.029-.134.1.1,0,0,0-.139-.01,11,11,0,0,1-2.647,1.439,1.8,1.8,0,0,1-.058-1.419,5.554,5.554,0,0,1,.858-1.424,8.439,8.439,0,0,0,.964-1.458,4.261,4.261,0,0,0,.384-1.712.091.091,0,0,0-.182-.014,4.041,4.041,0,0,1-.427,1.611,7.688,7.688,0,0,1-.988,1.372,5.762,5.762,0,0,0-.969,1.487,2.206,2.206,0,0,0,0,1.7,23.723,23.723,0,0,1-4,.969,35.917,35.917,0,0,1,3.237-9.74c.067-.134.048-.278-.038-.326s-.211.019-.293.149a36.663,36.663,0,0,0-3.544,9.84l-.034.158a.308.308,0,0,1-.019.067l-.168.187-.427.5c-.283.336-.566.671-.834,1.021a18.278,18.278,0,0,0-1.491,2.2,12.356,12.356,0,0,0-1.583,4.752c-.7.369-1.4.748-2.081,1.151a13.29,13.29,0,0,1-5.529,1.611,7.415,7.415,0,0,1,.849-.7c.508-.374,1.036-.767,1.525-1.208a11.94,11.94,0,0,0,1.343-1.443,31.16,31.16,0,0,0,2.1-3.247c.643-1.1,1.256-2.225,1.856-3.347C71.9,25.581,73.041,23.3,74.134,21a19.2,19.2,0,0,0,.772-1.774,7.711,7.711,0,0,0,.336-1.928c.038-.523.086-1.031.173-1.535a3.348,3.348,0,0,0,1.06-.077,2.491,2.491,0,0,0,1.242-.868c.105-.139.129-.288.048-.35s-.225-.014-.331.106a2.14,2.14,0,0,1-1.065.719,2.839,2.839,0,0,1-.887.043,12.915,12.915,0,0,1,.489-1.717c.072-.206.053-.4-.038-.436s-.225.1-.312.307a13.3,13.3,0,0,0-.551,1.822H75a3.52,3.52,0,0,0-1.482.245,8.867,8.867,0,0,0-1.276.71,6.142,6.142,0,0,1-2.614.715c-.321.029-.652.034-.978.038.163-.441.312-.892.451-1.343.312-1.045.571-2.1.81-3.151.2-.062.388-.12.58-.192a6.374,6.374,0,0,0,1.6-.8c.168-.129.249-.288.182-.364s-.24-.048-.4.062a6.2,6.2,0,0,1-1.515.719c-.11.038-.225.072-.34.106.182-.806.36-1.611.542-2.412.082-.35.067-.643-.029-.667s-.24.23-.331.58c-.235.887-.46,1.774-.691,2.657-.264.072-.532.139-.8.206-1.117.273-2.259.484-3.39.782a11.024,11.024,0,0,0-1.683.566,4.539,4.539,0,0,0-.8.47,1.643,1.643,0,0,0-.36.326l-.168.182-.129.173c-.422.575-.858,1.141-1.3,1.712-.058,0-.115-.014-.177-.019.129-.446.225-.882.331-1.328.489-2.307.882-4.618,1.165-6.953.887-.575,1.76-1.175,2.6-1.808.149-.11.24-.23.211-.269s-.168.014-.316.12c-.8.561-1.616,1.089-2.451,1.592.024-.225.058-.456.082-.681.105-.94-.019-1.7-.149-1.693s-.216.715-.331,1.645c-.043.35-.1.7-.144,1.055-.786.465-1.587.916-2.393,1.348a7.594,7.594,0,0,0-.806.465A6.713,6.713,0,0,1,58.784,7.3a15.071,15.071,0,0,1,1.18-2.954.1.1,0,0,0-.038-.12.086.086,0,0,0-.12.029,15.289,15.289,0,0,0-1.328,2.954,6.654,6.654,0,0,0-.369,3.184,4.438,4.438,0,0,0-1.213,1.4,14.6,14.6,0,0,0-.954,3.06,5.811,5.811,0,0,1-.571,1.4c-.245.446-.528.882-.82,1.314-.585.858-1.223,1.688-1.88,2.5s-1.343,1.6-2.052,2.359c-.427.451-.868.9-1.319,1.309l-.129-7.908a37.789,37.789,0,0,0,2.805-3.808,25.221,25.221,0,0,0,1.645-2.973c.254-.508.441-1.055.652-1.587A12.436,12.436,0,0,0,54.7,5.766a2.621,2.621,0,0,0,.01-1.041c-.048-.264-.129-.422-.225-.417h-.211c-.1,0-.192.153-.273.388s-.125.547-.216.906a10.986,10.986,0,0,1-.422,1.53c-.206.494-.388,1-.643,1.482a23.665,23.665,0,0,1-1.635,2.82c-.6.9-1.256,1.779-1.937,2.628l-.072-4.215c.652-1.213,1.295-2.441,1.889-3.688.331-.7.647-1.4.935-2.11a8.036,8.036,0,0,0,.633-2.263c0-.072-.077-.129-.173-.129s-.182.048-.2.106a7.828,7.828,0,0,1-.724,2.086c-.321.686-.671,1.357-1.036,2.019-.432.786-.887,1.563-1.348,2.335L48.929.476a.456.456,0,0,0-.911,0l-.254,15.187c-.264.288-.523.575-.8.854-.187.2-.384.384-.575.561-.206.2-.36.307-.6.523a3.847,3.847,0,0,0-.834.95c-.518-1.021-1.007-2.062-1.434-3.127a18.669,18.669,0,0,1-1.252-4.249c-.019-.139-.034-.278-.058-.417a6.16,6.16,0,0,1,.657-1.232c1.1-1.717,2.465-3.261,3.577-5.064.187-.331.173-.7.024-.724s-.326.153-.5.441c-1.079,1.693-2.489,3.247-3.645,4.987-.091.134-.177.273-.264.412-.12-.954-.225-1.913-.307-2.873-.125-1.5-.221-3-.211-4.5,0-.129-.038-.235-.086-.235s-.091.1-.1.23c-.077,1.511-.048,3.021.01,4.527.053,1.242.134,2.479.249,3.721-.019.053-.048.106-.067.158-.158.513-.283,1.007-.422,1.506-.269.993-.561,1.971-.916,2.916a10.537,10.537,0,0,1-1.376,2.628l-.225.278-.249.249a6.277,6.277,0,0,0-.571.6c-.019.024-.034.048-.053.072-.129-.863-.317-1.7-.4-2.527a5.705,5.705,0,0,1,.082-1.784c.058-.293.153-.566.225-.916a4.853,4.853,0,0,0,.072-.978,15.279,15.279,0,0,0-.643-3.741,21.916,21.916,0,0,0-1.29-3.544c-.053-.1-.129-.158-.173-.129s-.038.12,0,.216A21.988,21.988,0,0,1,36.758,9a15.129,15.129,0,0,1,.494,3.654,4.112,4.112,0,0,1-.1.882c-.058.264-.177.58-.254.9a6.318,6.318,0,0,0-.158,1.942c.082,1.242.35,2.4.384,3.563a3.315,3.315,0,0,0-.115.388,5.923,5.923,0,0,0,.369,3.275c.173.5.384.993.571,1.463a13.686,13.686,0,0,1,.475,1.419,20.7,20.7,0,0,1,.585,2.959,11.679,11.679,0,0,1,.043,2.944c-.374,1.99-.772,4.033-1.28,6-.062.235-.129.47-.2.7a10.484,10.484,0,0,1-2.873-2.906,5.611,5.611,0,0,1-.844-2.249c-.091-.767.01-1.674,0-2.527.034-1.731-.082-3.462-.053-5.16a7.135,7.135,0,0,1,.537-2.431,11.338,11.338,0,0,0,.748-2.508c.01-.158-.058-.283-.158-.288a.254.254,0,0,0-.211.245c-.249,1.63-1.381,3.127-1.424,4.968-.077,1.741,0,3.453-.082,5.16l-.062,1.28a7.383,7.383,0,0,0,0,1.343,6.373,6.373,0,0,0,.887,2.566,11.555,11.555,0,0,0,3.271,3.41c-.134.436-.273.868-.432,1.295-.091.23-.177.465-.278.691l-.312.7a10.182,10.182,0,0,0-.561,1.544,11.266,11.266,0,0,0-.331,3.242q.007.518.014,1.021a21.192,21.192,0,0,0-2.359-2.326c.019-.393.034-.791.038-1.184V43.727c.014-.408.043-.825.062-1.242a10.564,10.564,0,0,0-.115-2.546,9.607,9.607,0,0,0-.8-2.417c-.067-.134-.187-.2-.273-.158a.245.245,0,0,0-.062.312,9.441,9.441,0,0,1,.71,2.335,10.376,10.376,0,0,1,.043,2.441c-.029.412-.072.83-.091,1.256l-.038,1.252c-.01.245-.029.489-.043.739-.23-.177-.47-.35-.715-.518a9.134,9.134,0,0,0-1.568-.849l-.724-.3a34.836,34.836,0,0,0-.441-5.8,12.587,12.587,0,0,0-.935-3.136c-.12-.23-.249-.456-.374-.686.484-1.87.849-3.745,1.424-5.548.149-.48.312-.945.47-1.429a6.889,6.889,0,0,0,.34-1.563,4.739,4.739,0,0,0-.043-1.194,3.9,3.9,0,0,0,.71-.983,9.29,9.29,0,0,0,.465-1.055,14.072,14.072,0,0,0,.614-2.182,13.526,13.526,0,0,0,.264-2.244,21.526,21.526,0,0,0-.072-2.235c-.1-1.309-.254-2.614-.393-3.913.211-.384.432-.762.657-1.141A16.863,16.863,0,0,0,33.5,8.451a.165.165,0,0,0-.125-.2.175.175,0,0,0-.221.072,16.9,16.9,0,0,1-1.41,2.326c-.11.163-.216.331-.326.494A37.166,37.166,0,0,1,31.2,7.219a.217.217,0,0,0-.177-.235c-.1,0-.182.091-.192.221a40.522,40.522,0,0,0,.139,4.647c-.235.393-.46.8-.662,1.218-.106.216-.192.441-.278.667-.077.206-.158.408-.254.609a7.518,7.518,0,0,1-.662,1.141,6.469,6.469,0,0,1-.839.993,3.4,3.4,0,0,1-.475.384,1.347,1.347,0,0,1-.221.11.082.082,0,0,1-.048.014,5.546,5.546,0,0,0-.48-1.319l-.647-1.29c.024-.067.058-.129.082-.192l1.875-5.256a.168.168,0,0,0-.125-.2.18.18,0,0,0-.225.072l-1.981,4.819a9.716,9.716,0,0,1-.777-2.067c-.038-.168-.144-.283-.24-.269s-.149.168-.12.345a11.575,11.575,0,0,0,.916,2.5,5.51,5.51,0,0,1-1.439,1.918,4.964,4.964,0,0,1-1.755,1,16.821,16.821,0,0,1,.235-2.623c.11-.715.115-1.295-.034-1.324s-.384.5-.513,1.228a15.2,15.2,0,0,0-.317,3.175,18.834,18.834,0,0,0,.2,2.033,15.021,15.021,0,0,1-1.9-1.41c-.81-.7-1.6-1.467-2.5-2.1-.043-.024-.12.014-.177.1s-.082.163-.048.2c.82.681,1.52,1.491,2.292,2.273a16.2,16.2,0,0,0,2.489,2.076c.139,1.026.211,2.048.35,3.1A25.636,25.636,0,0,0,23.3,26.9a28.049,28.049,0,0,0,2.3,5.932c.245.47.5.935.767,1.4l.245.417a1.639,1.639,0,0,1-.35-.168,5.482,5.482,0,0,1-.978-.8,14.068,14.068,0,0,1-1.7-2.1,24.464,24.464,0,0,1-2.5-4.92c-.034-.072-.173-.1-.312-.048s-.235.144-.216.225a25.244,25.244,0,0,0,2.216,5.246,15.037,15.037,0,0,0,1.664,2.388,6.58,6.58,0,0,0,1.127,1.05,2.73,2.73,0,0,0,.8.412,1.586,1.586,0,0,0,.585.067.942.942,0,0,0,.293-.062,12.426,12.426,0,0,1,.619,2.479,31.364,31.364,0,0,1,.288,4.949c-.762-.427-1.5-.916-2.249-1.424-.46-.312-.926-.633-1.415-.93-.158-.1-.326-.192-.489-.283-.782-1.885-1.463-3.822-2.129-5.769-.345-1.007-.681-2.014-1.05-3.021-.388-1.021-.839-1.976-1.3-2.944a24.717,24.717,0,0,0-1.563-2.825,4.5,4.5,0,0,0-.532-.667l-.192-.158a.645.645,0,0,0-.091-.077l-.067-.11-.053-.139a4.46,4.46,0,0,1,.048-1.482,12.175,12.175,0,0,0,.254-3.223c-.106-1.1-.5-2.1-.585-3.136-.019-.182-.115-.317-.211-.312s-.168.158-.158.345c.072,1.089.446,2.12.518,3.141a11.725,11.725,0,0,1-.317,3.107,4.791,4.791,0,0,0-.067,1.688l.082.235c.038.077.091.153.139.23a1.864,1.864,0,0,0,.206.187l.11.1a4.456,4.456,0,0,1,.446.585,23.914,23.914,0,0,1,1.463,2.781c.436.959.873,1.933,1.218,2.911s.657,2.014.983,3.026c.523,1.626,1.05,3.256,1.65,4.867A13.553,13.553,0,0,1,20.4,38.284a16.437,16.437,0,0,1-2.182-2.436,10.561,10.561,0,0,1-.854-1.376,6.223,6.223,0,0,1-.326-.734,8.135,8.135,0,0,0-.35-.8,8.11,8.11,0,0,0-2.076-2.422c.043-.23.072-.46.1-.7a5.8,5.8,0,0,0-.11-1.391,14.475,14.475,0,0,0-2.283-4.872c-.086-.129-.221-.187-.3-.134s-.086.2-.01.331a14.152,14.152,0,0,1,2.1,4.762,5.326,5.326,0,0,1,.072,1.256c-.014.115-.038.225-.058.34-.791-.609-1.626-1.146-2.4-1.731-.307-.23-.566-.379-.643-.307s.1.35.412.595c.844.681,1.726,1.271,2.532,1.952-.034.134-.062.269-.1.4a26.262,26.262,0,0,1-.863,2.484c-.317.83-.676,1.626-.95,2.522a3.4,3.4,0,0,0-.082.369l-.053.312c-.038.211-.086.427-.129.638-.019.086-.043.168-.062.254-.4-.528-.8-1.055-1.2-1.573-.916-1.18-1.808-2.369-2.662-3.592-.153-.211-.369-.307-.494-.225s-.106.321.034.542c.83,1.247,1.707,2.47,2.6,3.673.513.7,1.021,1.381,1.511,2.081-.01.038-.019.082-.029.12-.221.849-.47,1.693-.753,2.518a12.927,12.927,0,0,1-.95,2.177c-.153-.144-.307-.293-.46-.436a22,22,0,0,0-4.426-3.275c-.3-.134-.58-.129-.633.01s.115.35.384.489a21.206,21.206,0,0,1,4.234,3.256c.719.691,1.424,1.405,2.1,2.144a20.89,20.89,0,0,1-2.388.911c-.379.115-.643.36-.6.551s.4.264.806.163a22.1,22.1,0,0,0,2.733-1c.34.393.667.786.983,1.194a8.372,8.372,0,0,1,.7,1.108l.667,1.184q.655,1.18,1.261,2.388c.8,1.616,1.549,3.256,2.263,4.915.192.441.374.887.556,1.333a10.471,10.471,0,0,0-1.789-1.194,11.461,11.461,0,0,0-4.537-1.362c-.566-.034-1.132-.072-1.7-.11-.029-.71-.067-1.424-.139-2.144A9.344,9.344,0,0,0,9,50.091l-.23-.388c-.091-.125-.2-.235-.3-.355a4.965,4.965,0,0,0-.647-.59,12.757,12.757,0,0,0-1.41-.978c-.484-.3-.978-.566-1.458-.844a4.412,4.412,0,0,1-1.266-.969c-.211-.269-.273-.528-.379-.537-.048,0-.086.077-.1.225a.9.9,0,0,0,.177.528,4.71,4.71,0,0,0,1.352,1.113c.48.3.964.58,1.424.887a11.234,11.234,0,0,1,1.324.978,4.568,4.568,0,0,1,.575.561c.077.1.163.192.235.3l.187.34a8.8,8.8,0,0,1,.686,3.151c.048.671.062,1.352.072,2.033-.719-.053-1.439-.115-2.153-.187a34.988,34.988,0,0,1-4.537-.7.228.228,0,0,0-.278.115c-.029.1.053.2.182.24a34.705,34.705,0,0,0,4.575.839c.739.1,1.477.182,2.22.259v.739a16.117,16.117,0,0,0,.269,3.434c.225,1.074.364,2.187.556,3.3a20.354,20.354,0,0,0,.614,2.652A10.056,10.056,0,0,0,7.98,65.3c-.427-.091-.849-.158-1.276-.225-.053-.249-.106-.494-.149-.743a14.638,14.638,0,0,1-.288-3.621c.01-.211-.058-.384-.153-.393s-.192.149-.216.364a15.134,15.134,0,0,0,.225,3.726c.034.2.072.4.11.595l-1.084-.158a8.913,8.913,0,0,1-2.685-.71c-.278-.139-.518-.23-.585-.149s.106.307.412.48a9.163,9.163,0,0,0,2.8.782c.412.067.82.129,1.228.192.177.873.393,1.736.623,2.59L7.429,69.8a8.013,8.013,0,0,1,.2.868,4.744,4.744,0,0,1,.029.873,25.892,25.892,0,0,1-.46,3.616c-.01.048-.019.1-.029.139a26.278,26.278,0,0,1-2.7-1.223,12.246,12.246,0,0,1-2.623-1.789c-.249-.264-.5-.427-.58-.364s.058.34.321.628A12.736,12.736,0,0,0,4.244,74.49c.532.307,1.079.585,1.635.849-.6.441-1.175.9-1.76,1.276a2.724,2.724,0,0,1-1.165.436,3.726,3.726,0,0,1-1.29-.115c-.038,0-.091.067-.12.158s-.019.182.019.2a4.238,4.238,0,0,0,1.424.259,3.341,3.341,0,0,0,1.439-.379c.863-.441,1.606-.959,2.4-1.4h0c.077.029.158.067.235.1-.2.959-.417,1.913-.691,2.849-.091.288-.177.58-.283.858-.1.307-.221.494-.331.878a4.856,4.856,0,0,0-.062,1.995,23.27,23.27,0,0,0,.935,3.64L7.2,87.846c.134.417.269.844.364,1.247-.067-.014-.125-.038-.192-.048a8.144,8.144,0,0,1-2.422-.9,15.265,15.265,0,0,1-2.225-1.429c-.24-.187-.47-.288-.537-.216s.062.3.3.508a16.393,16.393,0,0,0,2.23,1.554,8.783,8.783,0,0,0,2.556,1.05,7.771,7.771,0,0,1,2.326,1.074c.753.46,1.491.959,2.24,1.453s1.491,1,2.268,1.467,1.616.9,2.383,1.295c.667.336,1.3.734,2.062,1.045a8.329,8.329,0,0,1-4.9,2.8,11.1,11.1,0,0,1-1.328.1,23.513,23.513,0,0,1-1.127-2.666l-.134-.369c-.058-.134-.144-.278-.216-.417l-.3-.336c-.11-.1-.221-.182-.331-.273a6.721,6.721,0,0,0-1.458-.762c-.163-.062-.326-.12-.489-.177a6.967,6.967,0,0,0-1.045-1.583,5.873,5.873,0,0,0-1.851-1.463A7.641,7.641,0,0,1,3.53,89.663c-.36-.326-.676-.59-.8-.5s.019.508.422.906A8.324,8.324,0,0,0,5.1,91.327,5.267,5.267,0,0,1,6.733,92.68a6.323,6.323,0,0,1,.614.868c-.551-.149-1.108-.273-1.664-.379a23.374,23.374,0,0,0-3.165-.384c-.187,0-.336.072-.336.168s.134.187.317.2a22.585,22.585,0,0,1,3.1.441,19.953,19.953,0,0,1,2.057.542,7.8,7.8,0,0,1,.657,2.479c.043.432.067.873.082,1.314a5.326,5.326,0,0,1-.815-.575.2.2,0,0,0-.254.019.186.186,0,0,0,0,.254,5.569,5.569,0,0,0,1.074.786c.014.882-.01,1.77-.034,2.652-.024.748-.058,1.515-.014,2.3a10.041,10.041,0,0,0,.369,2.22,22.181,22.181,0,0,1-2.23-2.551A15.317,15.317,0,0,1,5.194,101a7.284,7.284,0,0,1-.806-2.23c-.014-.067-.106-.11-.2-.105s-.173.072-.163.149a7.6,7.6,0,0,0,.724,2.412A16.136,16.136,0,0,0,5.98,103.4a23.229,23.229,0,0,0,2.009,2.59c-.6-.307-1.218-.691-1.832-1.041a14.409,14.409,0,0,0-2.124-1.065,5.125,5.125,0,0,0-2.388-.34c-.283.038-.484.158-.46.254s.24.144.494.115a7.018,7.018,0,0,1,4.182,1.53c.662.417,1.285.858,2.009,1.247a5.764,5.764,0,0,0,1.285.475.763.763,0,0,1,.062.062l.034-.038.062.014c.1.225.187.446.293.667a13.673,13.673,0,0,0,1.228,1.99c.542.758,1.122,1.467,1.717,2.168a18.989,18.989,0,0,1-2.911-.34,5.683,5.683,0,0,1-2.57-1.06,9.533,9.533,0,0,0-2.662-1.583,16.08,16.08,0,0,0-2.9-.978c-.364-.072-.681.043-.671.192s.24.273.556.355a15.211,15.211,0,0,1,2.762.988,8.936,8.936,0,0,1,2.451,1.5A4.186,4.186,0,0,0,8,111.938a9.922,9.922,0,0,0,1.487.441,19.684,19.684,0,0,0,3.026.408c.245.01.484.034.729.053.163.187.326.369.489.556.9,1.017,1.813,2.014,2.662,3.031a12.194,12.194,0,0,1-2.057,2.043,8.528,8.528,0,0,1-1.779,1.045,7.261,7.261,0,0,1-1.285-1.089,6.427,6.427,0,0,0-1.252-.94,7.972,7.972,0,0,0-1.424-.623,16.7,16.7,0,0,0-2.978-.59,5.907,5.907,0,0,1-1.4-.312c-.235-.1-.489-.173-.686-.259a1.141,1.141,0,0,1-.47-.417c-.532-.791-.993-1.707-1.487-2.566-.086-.149-.225-.23-.312-.182s-.091.206-.014.36c.48.882.9,1.765,1.453,2.642a1.579,1.579,0,0,0,.628.571c.254.12.48.192.7.288a6.145,6.145,0,0,0,1.5.374,16.017,16.017,0,0,1,2.873.633,6.139,6.139,0,0,1,2.412,1.482l.537.532a3.422,3.422,0,0,0,.422.369c-.043.014-.086.029-.134.043a19.119,19.119,0,0,1-3.1.288l-3.165.082a.18.18,0,0,0-.163.187.184.184,0,0,0,.163.187l3.175.053a19.316,19.316,0,0,0,3.223-.168,6.293,6.293,0,0,0,.671-.182l.144.1c.225.125.446.264.671.384a16.95,16.95,0,0,0,2.844,1.127c1.937.59,3.913.964,5.846,1.405l.019-.1c.153.173.3.35.456.523-.086.062-.173.129-.259.192-.834.619-1.664,1.247-2.508,1.827a16.541,16.541,0,0,1-2.618,1.549,4.077,4.077,0,0,1-.691.278,4.806,4.806,0,0,1-.7.2.106.106,0,0,0-.038,0c-.551-.465-1.108-.916-1.683-1.352-.628-.475-1.271-.94-1.942-1.362a11.777,11.777,0,0,0-2.124-1.117c-.283-.086-.528-.038-.561.106s.125.326.36.412a11.253,11.253,0,0,1,1.961,1.146c.633.436,1.237.916,1.832,1.405.355.293.7.595,1.045.9-.139.024-.278.053-.417.091a4.746,4.746,0,0,0-2.585,2c-.619.878-1.069,1.827-1.6,2.7A3.8,3.8,0,0,1,7.8,134.683c-.321.077-.595.134-.6.24s.293.2.681.12a2.925,2.925,0,0,0,1.434-.815,7.35,7.35,0,0,0,.993-1.266c.571-.887,1.05-1.813,1.659-2.618a4.118,4.118,0,0,1,2.292-1.683,3.149,3.149,0,0,1,.7-.091c.072,0,.158-.014.24-.024q.849.791,1.64,1.626c.259.283.518.566.758.854l.345.436c.129.158.249.326.384.48a11.813,11.813,0,0,0,1.76,1.7,13.2,13.2,0,0,0,4.34,2.254,14.664,14.664,0,0,0,2.4.508c.4.067.81.086,1.218.115s.854,0,1.28-.01a10.617,10.617,0,0,0,4.537-1.64c3.793,3.429,7.553,6.915,11.265,10.421l-.412,17.115h7.543l-.288-16.712c.681-.81,1.381-1.607,2.115-2.369a38.288,38.288,0,0,1,6.052-5.117,38.853,38.853,0,0,1,4.6-2.671c.647.633,1.3,1.276,1.976,1.9a23.7,23.7,0,0,0,3.122,2.522,10.5,10.5,0,0,0,3.712,1.6c.235.048.436-.029.46-.173s-.12-.307-.331-.369a9.732,9.732,0,0,1-3.338-1.765,22.7,22.7,0,0,1-2.791-2.647c-.508-.551-1.007-1.122-1.506-1.7.364-.168.729-.34,1.093-.5.609-.273,1.228-.523,1.851-.767.312-.125.619-.249.935-.364l.734-.273a11.88,11.88,0,0,0,2.714,1.266,17.391,17.391,0,0,0,3.084.71,23.036,23.036,0,0,0,6.186,0,.339.339,0,0,0,.283-.384l-.019-.211a.354.354,0,0,0-.34-.336,24.518,24.518,0,0,1-2.59-.043,4.645,4.645,0,0,1,.815-2.681,8.573,8.573,0,0,1,2.268-2.206c1.765-1.266,3.856-2.158,5.678-3.568A14.35,14.35,0,0,0,92.544,121a4.933,4.933,0,0,1,2.048.149c.23.062.436.043.475-.048l.038-.1c.034-.091-.134-.225-.384-.3a5.642,5.642,0,0,0-1.9-.249c.038-.077.077-.149.115-.225a21.182,21.182,0,0,0,.863-2.043,4.23,4.23,0,0,0,.777.125c.245,0,.427-.129.412-.278s-.182-.269-.379-.278a3.832,3.832,0,0,1-.614-.11,36.641,36.641,0,0,0,1.065-3.817c.086-.384.077-.7-.014-.719l-.106-.024c-.1-.019-.245.259-.336.633a36.113,36.113,0,0,1-1.132,3.76c-.767-.288-1.525-.729-2.345-1.055a8.165,8.165,0,0,0-3.923-.6,5.7,5.7,0,0,0-1.971.542,15.916,15.916,0,0,0-1.693,1c-.182.115-.364.221-.547.331.058-.082.12-.158.177-.24,1.6-2.22,3.069-4.493,4.565-6.757l.5-.762c.523-.125,1.045-.259,1.563-.408a27.5,27.5,0,0,0,4.709-1.774c.129-.072.192-.2.144-.283a.247.247,0,0,0-.316-.048,26.8,26.8,0,0,1-4.676,1.616c-.331.086-.662.163-1,.24,1.18-1.784,2.369-3.568,3.573-5.333.532-.777.825-1.477.667-1.592l-.173-.12c-.158-.11-.715.408-1.261,1.18-1.443,2.043-2.868,4.1-4.278,6.167a21.41,21.41,0,0,1-2.4.3c-1.65.082-3.323.158-4.973.177-.748,0-1.491,0-2.235-.043.158-.1.321-.2.48-.3l2.853-1.966,2.729-2.129c.9-.715,1.736-1.515,2.609-2.268s1.674-1.583,2.489-2.393l1.218-1.223c.4-.408.767-.858,1.151-1.285.748-.873,1.539-1.707,2.249-2.6l2.1-2.719c.245-.317.345-.633.225-.719s-.408.077-.667.379l-2.2,2.6c-.743.858-1.563,1.65-2.34,2.474-.4.4-.772.83-1.189,1.213l-1.252,1.151c-.839.762-1.65,1.554-2.551,2.24s-1.741,1.448-2.657,2.105l-2.757,1.961-.686.432a12.909,12.909,0,0,1,1.458-5.285,13.743,13.743,0,0,1,1.99-2.7c.772-.834,1.621-1.616,2.451-2.427a22.282,22.282,0,0,0,2.359-2.614,14.659,14.659,0,0,0,1.774-3.06,19.555,19.555,0,0,0,1.415-6.858c.019-.408-.043-.729-.139-.729H90.6c-.1,0-.192.307-.221.7a19.148,19.148,0,0,1-1.5,6.642,16.4,16.4,0,0,1-4.1,5.385c-.834.786-1.707,1.559-2.527,2.407a13.276,13.276,0,0,0-3.908,9.193l-1.141.715c-.969.575-1.971,1.093-2.954,1.64q-1.978,1.036-4.023,1.923a25.8,25.8,0,0,1,.3-4.676,17.467,17.467,0,0,1,.5-2.163,17.517,17.517,0,0,0,2.925-2.757,22.476,22.476,0,0,0,3.812-6.484,31.653,31.653,0,0,0,1.583-5.5,10.471,10.471,0,0,0,4.2-2.067c.312-.249.619-.523.9-.791l.854-.786a10.313,10.313,0,0,0,1.63-1.774,3.866,3.866,0,0,0,.537-1.146,4.586,4.586,0,0,0,.129-1.237,14.043,14.043,0,0,0-.3-2.359c-.072-.384-.149-.762-.206-1.141-.034-.2-.043-.355-.086-.585a1.568,1.568,0,0,0-.153-.451c.115-.139.23-.278.34-.422a11.51,11.51,0,0,0,4.321-.523c.5-.149.993-.312,1.487-.489a14.423,14.423,0,0,0-.23,2.163,12.877,12.877,0,0,0,.9,3.472,3.361,3.361,0,0,1,.192,1.611,6.945,6.945,0,0,1-.3,1.659,23.152,23.152,0,0,1-1.717,3.012c-.619,1.021-1.132,2.1-1.688,3.112-.139.254-.288.5-.436.753l-.23.379a3.008,3.008,0,0,0-.221.451,7.648,7.648,0,0,0-.46,1.808,6.8,6.8,0,0,0,.4,3.721l.81-.4a5.975,5.975,0,0,1-.379-3.208,6.907,6.907,0,0,1,.379-1.616,2.3,2.3,0,0,1,.163-.345l.221-.379c.149-.259.3-.523.436-.786.561-1.06,1.036-2.12,1.621-3.127a22.882,22.882,0,0,0,1.707-3.151,7.346,7.346,0,0,0,.3-1.808,4.507,4.507,0,0,0,.034-.475,3.187,3.187,0,0,0-.048-.484,5.345,5.345,0,0,0-.235-.9,12.663,12.663,0,0,1-.94-3.318,15.067,15.067,0,0,1,.221-2.331,15.185,15.185,0,0,0,2.254-1.079.11.11,0,0,0,.058-.139.112.112,0,0,0-.149-.024ZM27.858,17.773a2.111,2.111,0,0,0,.388-.216,3.986,3.986,0,0,0,.575-.513,7.026,7.026,0,0,0,.887-1.161,8.561,8.561,0,0,0,.662-1.285,6.767,6.767,0,0,0,.245-.681c.067-.206.139-.412.225-.619.048-.12.11-.24.163-.364.082,1.021.163,2.038.206,3.055a19.15,19.15,0,0,1,0,2.163,13.167,13.167,0,0,1-.317,2.115A13.348,13.348,0,0,1,30.26,22.3a10.07,10.07,0,0,1-.451.945c-.067.12-.144.235-.216.34a6.329,6.329,0,0,0-.369-.844A15.018,15.018,0,0,1,27.9,20.094a14,14,0,0,1-.269-2.263.894.894,0,0,0,.225-.067Zm-3.769,8.881a24.793,24.793,0,0,1-.662-3.012c-.158-1.007-.259-2.067-.427-3.1-.129-.878-.293-1.741-.374-2.594a5.609,5.609,0,0,0,2.23-1.352,6.493,6.493,0,0,0,1.285-1.712l.456.954a5.133,5.133,0,0,1,.446,1.376c.177.95.053,1.981.312,3.031a15.255,15.255,0,0,0,1.309,2.786,4.951,4.951,0,0,1,.551,2.748,6.049,6.049,0,0,1-.336,1.381c-.168.47-.35.954-.508,1.439-.537,1.563-.916,3.16-1.333,4.728-.2-.331-.393-.657-.58-.993a27.019,27.019,0,0,1-2.369-5.678ZM69.6,79.386c.878-1.031,1.841-2.009,2.834-2.964s1.995-1.909,3.036-2.791,2.129-1.75,3.208-2.618c2.158-1.736,4.316-3.486,6.34-5.4a35.147,35.147,0,0,0,2.887-3.026q.561-.683,1.065-1.424a5.461,5.461,0,0,0,.484,1.722,2.407,2.407,0,0,0,.384.547c.182.187.288.259.417.4a8.242,8.242,0,0,1,.7.849c.225.3.446.619.7.935a4.522,4.522,0,0,0,.647.686c-.019.062-.038.12-.058.182a21.374,21.374,0,0,1-.873,2.292c-.35.739-.743,1.467-1.146,2.187a43.783,43.783,0,0,1-2.657,4.167c-.48.662-.983,1.309-1.52,1.918-.048-.048-.1-.1-.139-.144a1.8,1.8,0,0,1-.47-.93.221.221,0,0,0-.216-.206c-.1,0-.163.125-.153.273a2.193,2.193,0,0,0,.532,1.137c.053.062.11.12.163.177a14.769,14.769,0,0,1-1.424,1.376c-.58.446-1.348.93-2.014,1.434l-2,1.506c-.067.053-.134.1-.206.153,0-.211.014-.422.014-.633q-.014-1.77-.1-3.539c2.287-2.5,4.465-5.088,6.6-7.706.125-.153.173-.307.115-.36s-.206.024-.34.168c-2.1,2.326-4.234,4.623-6.44,6.834-.058-.93-.129-1.861-.23-2.786-.038-.427-.149-.753-.245-.743s-.153.35-.125.777c.086,1.065.134,2.129.168,3.194q-1.2,1.194-2.431,2.35c-.034.029-.062.058-.1.086.043-1.29.082-2.585.12-3.875.01-.35-.062-.628-.158-.633s-.192.264-.211.614c-.091,1.463-.182,2.925-.288,4.388a49.53,49.53,0,0,1-4.445,3.678A17.1,17.1,0,0,1,69.272,85.3a5.807,5.807,0,0,1-1.4.456,1.558,1.558,0,0,1-.973-.1l-.014-.058a.842.842,0,0,1-.034-.216,4.011,4.011,0,0,1,.01-.9,5.957,5.957,0,0,1,.523-1.8c.077-.163.168-.321.254-.48.12-.115.182-.225.149-.259h-.01A16.685,16.685,0,0,1,69.612,79.4ZM33.248,131.964,31.512,130.5c-.59-.489-1.132-.945-1.688-1.448-1.1-.993-2.172-2.033-3.227-3.088-.777-.782-1.539-1.583-2.3-2.379a23.38,23.38,0,0,1,3.621-2.038,7.414,7.414,0,0,1,2.777-.595,6.359,6.359,0,0,1,2.724.686,8.617,8.617,0,0,1,1.218.743c-.086.173-.182.34-.283.5a5.121,5.121,0,0,1-1.405,1.515,3.955,3.955,0,0,1-.93.446,2.593,2.593,0,0,1-.5.149l-.523.077a.329.329,0,0,0-.206.345.269.269,0,0,0,.259.288l.595-.058a3.158,3.158,0,0,0,.585-.144,4.779,4.779,0,0,0,1.122-.475,6,6,0,0,0,1.726-1.678c.091-.139.177-.278.264-.417q.216.187.432.388c.374.321.71.71,1.065,1.06.34.379.681.753,1.012,1.141.432.513.854,1.036,1.276,1.568-1,1.084-1.87,2.153-2.815,3.16a23.751,23.751,0,0,1-2.383,2.287c-.225-.2-.451-.393-.681-.585Zm5.8-7.486c-.355-.393-.729-.777-1.093-1.161-.393-.369-.758-.758-1.184-1.1-.235-.211-.489-.412-.743-.609.355-.82.633-1.664.9-2.484a9.051,9.051,0,0,1,.782-1.923,4.492,4.492,0,0,1,.662-.739,4.624,4.624,0,0,1,.8-.595,7.23,7.23,0,0,1,3.856-.83,18.119,18.119,0,0,0,2.733,1.295L45.38,132.1,43.1,129.3c-1.314-1.616-2.628-3.247-4.043-4.819ZM31.018,97.254a12.942,12.942,0,0,0-1.05-2.959,6.58,6.58,0,0,0-2.326-2.7c-.048-.024-.125.019-.177.106s-.062.173-.029.206a6.114,6.114,0,0,1,1.947,2.662,11.855,11.855,0,0,1,.633,2.1,29.119,29.119,0,0,0-3.007-1.626,12.536,12.536,0,0,0-2.681-.921c-.24-.053-.489-.077-.734-.11a5.924,5.924,0,0,0-.772,0,3.266,3.266,0,0,0-1.559.513c-.053.038-.106.067-.158.105a18.956,18.956,0,0,1-1.069-2.508,30.036,30.036,0,0,1-.93-3.131c-.125-.528-.235-1.055-.317-1.583s-.177-1.151-.307-1.707c-.182-.844-.422-1.664-.681-2.479a33.731,33.731,0,0,0,3.333,2.522,7.89,7.89,0,0,0,1.089.585c.4.173.762.293,1.127.432.734.278,1.463.58,2.2.887A11.612,11.612,0,0,0,30.217,88.8c.321.36.652.715,1,1.055A20.474,20.474,0,0,0,33.4,91.787a8.325,8.325,0,0,0,2.671,1.386l.048-.192.254.993.758,3.05c.264,1.036.551,2.076.906,3.112.149.46.321.926.508,1.381q-1.086-.568-2.158-1.161-2.338-1.288-4.637-2.652c-.245-.144-.494-.3-.743-.446ZM15.25,76.111c-.566-2.172-1.084-4.364-1.861-6.536-.077-.2-.153-.4-.235-.6.4.528.767,1.093,1.146,1.65l.4.59a2.457,2.457,0,0,0,.24.307,2.835,2.835,0,0,0,.269.269c.36.336.729.638,1.093.945,1.467,1.208,2.906,2.441,4.258,3.764.326.317.647.643.964.969v.1c-2-.105-4-.2-5.985-.345l-.293-1.108Zm7.414,2.594c.575.652,1.132,1.319,1.654,2.014l.825,1.141.777,1.18c.508.81,1.05,1.606,1.606,2.388.609.839,1.242,1.664,1.913,2.46a13.019,13.019,0,0,1-3.6-.969c-.739-.283-1.487-.571-2.244-.834-.379-.129-.772-.249-1.108-.388a7.535,7.535,0,0,1-1.021-.513,41.51,41.51,0,0,1-3.832-2.762l-.106-.077c-.192-.542-.393-1.074-.623-1.607-.115-.269-.235-.537-.369-.806-.072-.134-.134-.269-.216-.408-.034-.062-.086-.149-.106-.192l-.058-.125a10.8,10.8,0,0,1-.379-1.117c2.3.24,4.6.408,6.882.609Zm7.39-21.642c-.014-.374-.034-.753-.053-1.127.12.173.235.345.36.5,1.477,1.918,3.112,3.568,4.436,5.438l.863,1.285c.019.12.038.245.048.364a3.307,3.307,0,0,1-.24,2.024l-.153.278a2.392,2.392,0,0,0-.153.317,3.663,3.663,0,0,0-.177.652,5.342,5.342,0,0,0-.072,1.29A13.578,13.578,0,0,0,36.2,72.816a12.449,12.449,0,0,0,1.228,2.158A3.95,3.95,0,0,1,38,76.926a23.675,23.675,0,0,1-.225,4.6c-.144,1.151-.317,2.3-.489,3.458-.134-.139-.3-.326-.446-.484-.192-.2-.379-.4-.575-.6-.029-.029-.058-.053-.082-.082l-.724-2.575q-.41-1.5-.8-3.012c-.264-1.031-.551-2.038-.834-3.05C32.692,71.157,31.5,67.148,30.61,63.12a28.249,28.249,0,0,1-.5-2.983c-.019-.235-.019-.46-.034-.691v-.806c0-.532,0-1.065-.024-1.6ZM18.574,44.211A7.075,7.075,0,0,1,21.417,45.8a38.18,38.18,0,0,1,4.829,4.968c.71.858,1.4,1.736,2.052,2.633.062,1.237.11,2.47.125,3.7,0,.518,0,1.031,0,1.539l-.024.762v.144c-1.376-1.909-2.662-3.913-4.028-5.879a44.613,44.613,0,0,0-2.738-3.625c-.494-.58-1.06-1.137-1.568-1.65s-1.021-1.069-1.511-1.626c-.724-.82-1.415-1.664-2.086-2.522a5.006,5.006,0,0,1,2.115-.043ZM39.362,56.3l3.985,5.381c1.175,1.6,2.383,3.208,3.5,4.8l-.163,9.442q-1.309-1.683-2.58-3.4-2.086-2.82-4.115-5.692l-2.019-2.873c-.6-.854-1.17-1.707-1.8-2.575-.024-.1-.043-.2-.062-.3a6,6,0,0,1-.177-2.182,1.112,1.112,0,0,1,.173-.388.953.953,0,0,1,.139-.139c.053-.043.163-.12.24-.177a8.49,8.49,0,0,0,.926-.82,15.8,15.8,0,0,0,1.458-1.746Zm10.21-13.6-.1-5.721a7.565,7.565,0,0,0,1.784-2.441c.245-.484.46-.978.662-1.477.1-.249.192-.5.283-.753s.177-.523.264-.7a3.5,3.5,0,0,1,.969-1.069c.269-.216.551-.427.839-.638l.12.014a.943.943,0,0,1,.014-.115l.283-.211a12.406,12.406,0,0,0,2.355-2.187.176.176,0,0,0-.034-.245.189.189,0,0,0-.249,0,11.893,11.893,0,0,1-2.283,1.957,15.9,15.9,0,0,1,.384-2.585A6.941,6.941,0,0,1,55.461,25a11.2,11.2,0,0,1,.921-1.405c.9-1.223,1.813-2.436,2.729-3.649A17.617,17.617,0,0,0,59,23.125a16.558,16.558,0,0,0,.259,2.052l.412,1.985L60,28.707c-.561.652-1.151,1.247-1.75,1.981a19.807,19.807,0,0,0-2.964,5.64c-.36.988-.676,1.981-.993,2.959s-.652,1.913-1.036,2.863A67.935,67.935,0,0,1,49.7,49.625l-.12-6.934ZM60.544,18.052c.158-.211.312-.422.47-.628h.024a19.842,19.842,0,0,0,2.9.158,21.208,21.208,0,0,1,2.815,0c.307.01.614.019.921.024-.11.23-.221.46-.34.686a14.2,14.2,0,0,1-.782,1.29l-.868,1.285c-1.151,1.712-2.3,3.424-3.51,5.074q-.734.993-1.506,1.947l-.2-.9-.441-1.961a16.691,16.691,0,0,1-.278-1.947,16.107,16.107,0,0,1,.173-3.932c.024-.125.048-.249.077-.374.182-.24.364-.48.542-.719ZM60.4,31.115c.24,1.319.35,2.652.5,3.975.082.662.1,1.333.144,2s.091,1.333.086,2a49.514,49.514,0,0,1-2.11,15.763l-1.194,3.86c-.048.2-.11.379-.163.571-.12-.144-.24-.283-.355-.427a8.435,8.435,0,0,1-1.05-1.554,2.9,2.9,0,0,1-.264-.825c-.043-.312-.077-.638-.105-.964l-.168-1.957c-.024-.307-.043-.609-.067-.916a65.061,65.061,0,0,0,2.781-8.833c.067-.3.043-.547-.048-.571s-.23.187-.312.48a68.514,68.514,0,0,1-2.5,7.831c-.144-1.947-.278-3.894-.384-5.841a.186.186,0,1,0-.369.014q.072,3.539.235,7.073c-.11.249-.216.5-.331.748a16.85,16.85,0,0,1-1.261,2.24A6.449,6.449,0,0,0,52.4,58.267a12.281,12.281,0,0,0,.062,2.666,24.312,24.312,0,0,1,.019,2.58c0,1.256.034,2.508.077,3.76-.868.7-1.712,1.434-2.522,2.211l-.278-16.06a67.169,67.169,0,0,0,4.992-10.7c.355-.978.686-1.995.969-2.992s.566-1.976.882-2.94a18.588,18.588,0,0,1,2.585-5.366c.312-.412.686-.839,1.06-1.28l.158.969ZM51.725,116.9c-.139.019-.278.029-.417.048l-.3-8.953a9.972,9.972,0,0,1,1.635-1.463,28.284,28.284,0,0,1,3.525-2.105c.048.916.1,1.837.158,2.753a7.161,7.161,0,0,0-2.964,2.7,11.741,11.741,0,0,0-1.635,7.021ZM39.146,76.821a7.478,7.478,0,0,0-.24-1.261,4.894,4.894,0,0,0-.235-.638,5.006,5.006,0,0,0-.369-.609,11.365,11.365,0,0,1-1.151-1.933,12.638,12.638,0,0,1-1.285-4.335,3.218,3.218,0,0,1,.384-2.019,3.009,3.009,0,0,0,.374-1.328v-.105l2.1,3.117q1.985,2.913,4.028,5.8c1.256,1.765,2.532,3.52,3.889,5.242l-.077,4.45-.2,8.3c-1.276-.959-2.575-1.827-3.87-2.7l-2.671-1.817c-.436-.307-.873-.614-1.29-.926-.014-.01-.024-.019-.038-.029.177-1.434.379-2.877.528-4.34a24.753,24.753,0,0,0,.125-4.853ZM55.931,96.477a35.96,35.96,0,0,0-4.685,4.177c-.158.182-.312.374-.465.566l-.269-7.98,2.671-2.4c.911-.8,1.822-1.6,2.772-2.34q-.065,3.985-.019,7.975Zm-3.275-6.244-2.192,1.827-.091-2.652-.029-1.8c.139-.245.283-.484.417-.729.715-1.295,1.386-2.6,2.057-3.894.417-.8.839-1.583,1.285-2.34a9.494,9.494,0,0,0,.686.93c.412.494.849.945,1.29,1.391q-.065,2.057-.11,4.11c0,.2,0,.393-.01.595-1.156.8-2.23,1.688-3.3,2.566Zm3.467-8.493A10.787,10.787,0,0,1,54.6,79.832c.115-.187.235-.374.355-.551a18.167,18.167,0,0,1,1.333-1.741Q56.192,79.64,56.122,81.741Zm-2.278-3.817a10.6,10.6,0,0,1-.221-1.415c-.077-.83-.048-1.7-.082-2.58-.043-1.654-.129-3.3-.221-4.949,1.156-1.031,2.379-2,3.635-2.94-.12,1.621-.235,3.247-.331,4.867q-.129,2.1-.23,4.2a18.958,18.958,0,0,0-2.556,2.815Zm-1.074-3.98a16.363,16.363,0,0,0,.451,4.853c-.734,1.089-1.381,2.216-1.995,3.333-.317.575-.628,1.146-.945,1.717l-.2-11.552a30.712,30.712,0,0,1,2.556-2.685c.058,1.448.115,2.892.129,4.34Zm3.319,28.677a34.528,34.528,0,0,0-4.489,2.441c-.23.149-.456.312-.676.484l-.038-1.079a12.78,12.78,0,0,1,1.726-2.623,28.182,28.182,0,0,1,3.352-3.227c.029,1.338.072,2.671.125,4.009Zm1.7-15.4a5.463,5.463,0,0,1,.988-.47c.2-.077.451-.149.671-.221s.456-.158.676-.245c.379-.149.753-.307,1.127-.465A23.867,23.867,0,0,0,61.5,91.7a41.678,41.678,0,0,1-3.654,3.261q-.086-3.863-.067-7.73ZM56.775,64.18c-1.2.81-2.393,1.659-3.558,2.561-.048-1.079-.091-2.158-.1-3.232a25.445,25.445,0,0,0-.058-2.628,11.671,11.671,0,0,1-.1-2.532,5.9,5.9,0,0,1,.959-2.278,17.473,17.473,0,0,0,1.189-2.158l.086,1.659c.019.331.043.657.077,1a3.557,3.557,0,0,0,.3,1.055,14.942,14.942,0,0,0,1.9,2.791c-.014.129-.029.254-.048.388-.077.681-.139,1.352-.2,2.029-.034.369-.058.739-.086,1.113-.12.082-.235.163-.355.245ZM33.708,83.506l1.122,4.407,1.084,4.263a8.257,8.257,0,0,1-1.995-1.084,19.369,19.369,0,0,1-2.11-1.817,36.805,36.805,0,0,1-3.659-4.287q-.834-1.144-1.606-2.331l-.806-1.194c-.278-.393-.575-.772-.858-1.161-.4-.513-.815-1.007-1.237-1.5q1.338.122,2.671.278c.528.067,1.06.139,1.549.245a4.8,4.8,0,0,1,1.328.537,16.59,16.59,0,0,1,2.522,1.808c.691.58,1.352,1.2,2,1.841ZM14.277,78.091a15.049,15.049,0,0,0,.508,1.726l.115.254.091.177c.058.105.11.23.168.345.034.072.062.144.091.216A5.86,5.86,0,0,0,13.4,80.1c-.149-.019-.264.043-.273.139s.086.2.211.225a6.092,6.092,0,0,1,2.081.95c.034.019.062.048.1.067.173.456.336.916.484,1.381a26.14,26.14,0,0,1,.8,3.165c.077.393.129.777.182,1.17-.892-.556-1.765-1.156-2.614-1.779a25.231,25.231,0,0,1-3.275-2.8c-.93-.988-1-2.513-1.065-3.942-.019-.566-.038-1.141-.058-1.712l.211.072a19.984,19.984,0,0,0,3.2.767c.278.038.556.067.834.1l.038.173ZM40.6,99.23c-.35-.93-.643-1.9-.921-2.887l-.83-3.016-1.7-6.047-.086-.3c.149.125.3.245.446.369.436.35.873.681,1.309,1.007l2.633,1.913c1.664,1.213,3.352,2.417,4.843,3.721l-.3,12.444a22.743,22.743,0,0,1-2.59-2.268,14.171,14.171,0,0,1-2.81-4.935Zm10.91,23.723-.106-3.1c1.77-.278,3.53-.623,5.265-1.031-.014.134-.019.269-.038.4l-.048.475-.091.46-.177.921c-.062.307-.177.59-.259.887a6.237,6.237,0,0,1-.3.873,12,12,0,0,1-.81,1.654l-.475.8c-.163.264-.374.5-.556.758a22.815,22.815,0,0,1-2.326,2.6l-.1-5.711Zm2.187-6.32a9.867,9.867,0,0,1,1.2-5.793,5.877,5.877,0,0,1,1.554-1.75c.053.762.1,1.525.149,2.283.1,1.587.187,3.17.192,4.724Q55.25,116.4,53.7,116.633Zm4.417-15q-.122-2.323-.2-4.652c.245-.2.489-.408.729-.614a36.925,36.925,0,0,0,5.922-6.033c.427-.566.83-1.151,1.218-1.746l.556-.906.245-.441a2.668,2.668,0,0,0,.5.091,3.916,3.916,0,0,0,1.05-.077A7.27,7.27,0,0,0,69.89,86.6a14.965,14.965,0,0,0,1.453-.878l-.024.058a7.257,7.257,0,0,0,2.805.508,7.9,7.9,0,0,0,1.549-.245,10,10,0,0,1-.441,1.309,7.443,7.443,0,0,1-.676,1.247c-.139.192-.3.369-.451.556l-.225.273-.259.254-.523.508-.561.48c-.369.321-.762.633-1.151.945-1.563,1.242-3.17,2.474-4.7,3.784-1.559,1.261-3.04,2.729-4.561,3.86a28.4,28.4,0,0,1-4.019,2.379ZM73.051,84.441c1.156-.94,2.244-1.937,3.295-2.964a.311.311,0,0,1-.01.1c-.086.878-.168,1.765-.293,2.633a6.335,6.335,0,0,1-1.947.36,4.558,4.558,0,0,1-1.05-.125Zm3.865-2.825c.014-.245.019-.484.029-.729.273-.273.551-.551.82-.83.609-.628,1.2-1.266,1.789-1.9.014,1.007.014,2.019,0,3.026-.014.364-.038.729-.058,1.093a16.673,16.673,0,0,1-2.762,1.659c.077-.772.144-1.544.177-2.316ZM62.74,85.136c.854-.412,1.7-.849,2.522-1.319L65.8,83.5a5.314,5.314,0,0,0-.177.83,5.049,5.049,0,0,0-.038,1.175,1.193,1.193,0,0,0,.038.293l.053.264c.01.062.043.125,0,.177L65.22,87l-.551.849c-.384.556-.777,1.1-1.2,1.63-.23.293-.475.58-.719.863A21.964,21.964,0,0,1,62.6,85.2c.048-.024.1-.043.144-.067Zm2.187-14.4a12.771,12.771,0,0,1-.523,5.218c-.144.412-.307.815-.489,1.213s-.388.767-.609,1.2a17.67,17.67,0,0,0-1.089,2.6,20.506,20.506,0,0,0-.921,4.345c-.441.177-.887.34-1.338.5-.221.082-.446.144-.667.216s-.432.115-.681.2a5.087,5.087,0,0,0-.815.331q.036-5.366.206-10.732c.422-.369.858-.715,1.309-1.065l1.76-1.29c1.184-.854,2.369-1.717,3.544-2.6.106-.077.206-.163.312-.24a.393.393,0,0,0,.01.105Zm1.957-11.61c.129-.1.254-.211.384-.317l.067.144a10.385,10.385,0,0,1,3.51-1.017,24.624,24.624,0,0,1,3.822.1c.11,0,.225,0,.34.01a31.376,31.376,0,0,1-1.813,2.887A32.259,32.259,0,0,1,70.4,64.2a46.483,46.483,0,0,1-4.767,4.167c-.082-1.045-.149-2.1-.225-3.146a35.549,35.549,0,0,1-.062-4.949c.523-.369,1.036-.743,1.539-1.141Zm-4.642,3.2c.8-.513,1.606-1.031,2.4-1.573a39.111,39.111,0,0,0-.014,4.5c.058,1.237.105,2.484.177,3.726-.345.259-.686.518-1.031.767-1.175.849-2.374,1.674-3.577,2.5l-1.808,1.261c-.105.077-.216.163-.321.24.034-.921.067-1.846.106-2.767.086-2.033.2-4.062.326-6.09.48-.355.959-.71,1.434-1.041.748-.523,1.525-1.021,2.307-1.525Zm6.661-25.5c.8-.5,1.626-.959,2.455-1.41l.1.01a.456.456,0,0,1,0-.067c1.151-.623,2.311-1.232,3.458-1.88.2-.11.393-.225.59-.336-.547,1.18-1.05,2.374-1.635,3.515A6.994,6.994,0,0,1,72.5,38.62a9.235,9.235,0,0,1-1.971,1.405,12.521,12.521,0,0,0-1.084.671c-.36.259-.671.528-.988.806q-.95.827-1.822,1.741A19.121,19.121,0,0,0,65,45.17a8.041,8.041,0,0,0-.7,1.093,5.338,5.338,0,0,0-.441,1.252c-.364,1.693-.355,3.362-.628,4.963a10.338,10.338,0,0,1-.623,2.311c-.317.743-.681,1.511-1,2.287a14.335,14.335,0,0,0-.8,2.436,14.671,14.671,0,0,0-.293,2.22c-.475.283-.945.571-1.415.873-.163.106-.317.211-.475.317.048-.657.1-1.324.163-1.976.034-.326.062-.676.11-.94s.153-.623.225-.93L60.256,55.2a50.667,50.667,0,0,0,1.9-15.724,3.684,3.684,0,0,1,.192-.777A14.459,14.459,0,0,0,68.9,36.826Zm.739-19.283a6.686,6.686,0,0,0,2.82-.849,7.907,7.907,0,0,1,1.194-.7,3.133,3.133,0,0,1,1.3-.24c-.086.5-.149,1.007-.192,1.506a7.018,7.018,0,0,1-.345,1.813,18.544,18.544,0,0,1-.782,1.707q-1.7,3.41-3.534,6.747c-.619,1.108-1.247,2.211-1.9,3.295a30.547,30.547,0,0,1-2.1,3.122,11.482,11.482,0,0,1-1.276,1.324c-.465.4-.964.762-1.487,1.137a6.977,6.977,0,0,0-1.276,1.113c-.014-.158-.024-.321-.038-.48-.062-.676-.086-1.357-.182-2.029-.177-1.343-.317-2.7-.58-4.023l-.3-1.712.177-.221c.643-.825,1.252-1.674,1.837-2.527,1.175-1.712,2.273-3.467,3.362-5.218l.82-1.309a14.376,14.376,0,0,0,.777-1.381c.158-.326.3-.662.441-.993.422,0,.839-.024,1.266-.067Zm-7.035-2.3a4.757,4.757,0,0,1,2.805-1.563c1.1-.317,2.235-.547,3.362-.844l.571-.158c-.254.95-.523,1.889-.83,2.815-.173.508-.36,1.012-.571,1.506-.384-.014-.772-.034-1.161-.053a22.149,22.149,0,0,0-2.882-.067,15.367,15.367,0,0,1-2.359-.173c.36-.484.715-.969,1.06-1.463Zm-6.7,1.29a6.437,6.437,0,0,0,.571-1.544,14.09,14.09,0,0,1,.815-2.983A4.932,4.932,0,0,1,59.46,9.966q1.086-.633,2.153-1.3c-.312,2.172-.719,4.34-1.213,6.474-.115.465-.23.945-.374,1.4a14.2,14.2,0,0,0-4.153.058c.01-.019.019-.034.029-.053Zm-4.656,6.479c.7-.8,1.372-1.626,2.014-2.474s1.261-1.712,1.832-2.614c.125-.2.249-.4.369-.609l.072.259a12.01,12.01,0,0,1,4.2-.278,9.17,9.17,0,0,0-.379,1.218c-1.2,1.535-2.412,3.064-3.6,4.618a11.975,11.975,0,0,0-1.007,1.482,7.729,7.729,0,0,0-.7,1.688,24.761,24.761,0,0,0-.551,3.477c-.139.1-.278.192-.417.293A4.057,4.057,0,0,0,51.9,31.3c-.149.293-.221.518-.326.762l-.307.719c-.211.475-.441.94-.691,1.391a8.848,8.848,0,0,1-1.122,1.611l-.177-10.79a20.146,20.146,0,0,0,1.966-1.981Zm-5.51-3.371a2.768,2.768,0,0,1,.786-1.108c.168-.158.46-.388.643-.58.177-.168.345-.34.513-.518L47.246,43.42l-.139,8.056a20.682,20.682,0,0,1-1.391-2.685,17.411,17.411,0,0,1-1.156-6.2,114.8,114.8,0,0,1,.427-13.212c.1-1.1.206-2.206.283-3.338.082-1.151.019-2.3.024-3.371a8.189,8.189,0,0,1,.441-3.026ZM36.9,44.523a8.772,8.772,0,0,1,.475-1.372l.307-.719c.106-.249.192-.5.288-.748a31.488,31.488,0,0,0,.873-3.031c.489-2.038.849-4.057,1.2-6.129a12.672,12.672,0,0,0-.091-3.227,21.475,21.475,0,0,0-.667-3.1,14.41,14.41,0,0,0-.532-1.506c-.206-.484-.408-.94-.58-1.41a5.139,5.139,0,0,1-.384-2.781,2.85,2.85,0,0,1,.585-1.2,5.405,5.405,0,0,1,.489-.528l.293-.307.259-.326a11.256,11.256,0,0,0,1.443-2.853c.355-.988.638-1.995.892-3a.183.183,0,0,1,.014-.048,22.937,22.937,0,0,0,.95,3.462,39.371,39.371,0,0,0,1.654,4.009,10.6,10.6,0,0,0-.408,2.944c-.029,1.146.01,2.225-.086,3.29-.034.369-.072.743-.11,1.117-.153-.149-.3-.3-.432-.456a6.022,6.022,0,0,1-.878-1.386A22.315,22.315,0,0,1,41.3,21.994c-.019-.048-.106-.067-.2-.043s-.163.082-.158.129a22.583,22.583,0,0,0,.926,3.386,6.818,6.818,0,0,0,.854,1.606,12.109,12.109,0,0,0,.921,1.074c-.038.36-.082.719-.12,1.084a116.658,116.658,0,0,0-.7,13.4,27.089,27.089,0,0,0,.259,3.438,15.957,15.957,0,0,0,.9,3.41,29.659,29.659,0,0,0,3.074,5.539l-.144,8.253c-.7-.9-1.415-1.794-2.124-2.7l-4.148-5.251-.854-1.1a10.147,10.147,0,0,0,1.247-3.093c.034-.293-.053-.528-.2-.537s-.3.177-.345.432A9.326,9.326,0,0,1,39.372,53.7L38.59,52.69c-.336-.441-.671-.882-.983-1.319l-.475-.686c-.139-.192-.273-.379-.417-.566,0-.911-.024-1.818-.053-2.7a9.8,9.8,0,0,1,.24-2.9Zm-1.405,6.3c.158.221.307.446.46.667l.456.7c.321.484.647.935.973,1.4l1.079,1.482-.034.048a15.1,15.1,0,0,1-1.515,1.746,8.1,8.1,0,0,1-.858.734l-.24.173a1.53,1.53,0,0,0-.288.269,1.781,1.781,0,0,0-.326.671,4.213,4.213,0,0,0-.058,1.333c-.825-1.012-1.693-1.971-2.532-2.925-.043-1.6-.2-3.16-.216-4.709,0-.408,0-.815.038-1.213.019-.2.043-.393.077-.58l.115-.623c.129-.753.211-1.5.278-2.254A24.594,24.594,0,0,1,35.5,50.815Zm-4.45-4.676a16.127,16.127,0,0,1,1.266,1.036c-.01.082-.014.158-.024.24-.091.82-.2,1.64-.364,2.446l-.129.6c-.048.221-.077.436-.106.657-.048.432-.067.858-.077,1.285-.019,1.228.048,2.441.077,3.64-.106-.129-.221-.254-.321-.379a16.355,16.355,0,0,1-.978-1.391c-.177-.278-.36-.542-.547-.8q-.1-1.352-.206-2.7c-.077-1.036-.173-2.091-.206-3.088-.019-.8-.01-1.621-.01-2.446.091.043.182.082.269.12a8.5,8.5,0,0,1,1.348.786Zm-18.52-8.651c.043-.221.086-.441.12-.667l.048-.345a2.591,2.591,0,0,1,.053-.278c.225-.806.571-1.645.868-2.479a26.652,26.652,0,0,0,.82-2.566c.01-.038.014-.082.024-.12a7.314,7.314,0,0,1,1.683,2.134,7.5,7.5,0,0,1,.3.743,6.6,6.6,0,0,0,.331.806,10.68,10.68,0,0,0,.863,1.491,17.374,17.374,0,0,0,2.2,2.614,13.793,13.793,0,0,0,2.714,2.129c.269.153.489.264.724.4s.46.283.686.432c.456.3.9.628,1.352.954a27.444,27.444,0,0,0,2.8,1.846c-.019,1.031-.067,2.057-.072,3.122.01,1.093.077,2.12.134,3.17.01.149.014.3.024.441-.35-.432-.71-.858-1.074-1.28a39.494,39.494,0,0,0-5.069-5.021l-.729-.542c-.249-.173-.518-.331-.777-.5-.278-.144-.551-.3-.849-.417a5.3,5.3,0,0,0-.93-.273,5.051,5.051,0,0,0-1.338-.082,15.99,15.99,0,0,0-.206-3.261,18.252,18.252,0,0,0-1.189-3.525c-.024-.048-.115-.058-.206-.019s-.153.106-.139.158a17.252,17.252,0,0,1,.906,3.491,16.611,16.611,0,0,1-.038,3.271c-.235.043-.465.1-.691.163q-1.4-1.849-2.657-3.817c-.278-.432-.575-.849-.873-1.266.067-.3.134-.6.192-.906Zm-2.11,6.426.058.034a13.328,13.328,0,0,0,1.06-2.546c.216-.681.4-1.362.571-2.052.158.235.312.475.465.715.758,1.256,1.573,2.489,2.431,3.688-1.156.427-2.249.945-3.338,1.439-.408-.436-.82-.863-1.247-1.28Zm2.7,2.944c-.283-.355-.575-.7-.873-1.041,1.045-.456,2.072-.916,3.117-1.271l.187-.058c.734.993,1.491,1.966,2.283,2.906q.734.863,1.506,1.693c.532.561,1.026,1.065,1.487,1.63A43.525,43.525,0,0,1,23.4,54.315c1.645,2.479,3.17,5.059,4.983,7.5l.168-.129c.086.6.192,1.2.3,1.794.508,2.609,1.132,5.17,1.779,7.716A14.47,14.47,0,0,1,26.7,69.747a12.2,12.2,0,0,1-3.712-3.558,25.492,25.492,0,0,1-2.546-4.666c-.719-1.654-1.424-3.342-2.177-4.992a68.452,68.452,0,0,0-5.16-9.673ZM9.98,56.828c-.01-.216-.014-.432-.024-.647.542.053,1.084.105,1.63.153a10.7,10.7,0,0,1,4.21,1.4,9.5,9.5,0,0,1,1.794,1.295,4.759,4.759,0,0,1,1.223,1.693l.144-.058c.173.422.345.849.523,1.271a26.532,26.532,0,0,0,2.57,4.915,13.408,13.408,0,0,0,4.019,3.975,17.439,17.439,0,0,0,4.949,1.851q.4,1.532.786,3.055c.254,1.007.518,2.019.748,3.016.173.743.355,1.487.532,2.225-.163-.134-.321-.273-.484-.4a17.8,17.8,0,0,0-2.8-1.87,6.1,6.1,0,0,0-1.688-.609c-.571-.1-1.117-.158-1.664-.206-1.29-.11-2.58-.192-3.865-.264-.053-.053-.106-.11-.153-.163-.139-1.3-.048-2.666-.115-4.052a4.214,4.214,0,0,0-.551-2.129c-.379-.628-.8-1.156-1.146-1.755-.034-.048-.129-.053-.216,0s-.134.129-.11.182c.312.633.724,1.228,1.026,1.817a3.59,3.59,0,0,1,.36,1.9c-.014,1.026-.125,2.062-.153,3.127-.173-.168-.34-.34-.513-.5-1.386-1.324-2.858-2.551-4.34-3.745-.364-.3-.739-.6-1.079-.906a2.635,2.635,0,0,1-.441-.484l-.408-.585a21.176,21.176,0,0,0-1.731-2.311,7.879,7.879,0,0,0-.7-.638l-.082-.134q-.187-.345-.345-.7a16.113,16.113,0,0,1-.9-3.127c-.221-1.089-.393-2.2-.662-3.318a15.057,15.057,0,0,1-.35-3.256Zm-2.6,11.058c-.225-.786-.436-1.573-.619-2.369.364.062.724.125,1.084.2a9.428,9.428,0,0,1,2.609.945c.144.086.288.177.432.269v.01a7.737,7.737,0,0,0,.369.815c.134.259.317.551.412.753a9.842,9.842,0,0,1,.6,1.458c.671,2.081,1.127,4.282,1.626,6.469l.153.652c-.177-.014-.36-.029-.537-.048a19.142,19.142,0,0,1-3.117-.643c-.144-.043-.288-.091-.436-.134-.029-.652-.067-1.309-.125-1.961-.014-.129-.1-.221-.2-.211a.219.219,0,0,0-.168.24c.038.6.053,1.2.062,1.8-.6-.187-1.2-.388-1.8-.609.014-.086.034-.173.048-.259a27.285,27.285,0,0,0,.4-3.712,6.084,6.084,0,0,0-.053-.969,7.251,7.251,0,0,0-.23-.926l-.523-1.77Zm7.117,24.946c-.772-.432-1.53-.9-2.292-1.362s-1.525-.94-2.316-1.381c-.446-.245-.906-.489-1.391-.7a12.854,12.854,0,0,0-.523-1.832l-.609-1.746a22.764,22.764,0,0,1-.969-3.486,4.307,4.307,0,0,1,0-1.664c.043-.211.225-.566.307-.854.106-.3.192-.6.278-.9.254-.926.451-1.856.628-2.791.633.254,1.271.489,1.918.71,0,.623,0,1.252,0,1.88a14.578,14.578,0,0,0,.149,2.225,4.273,4.273,0,0,0,.94,2.124,25.427,25.427,0,0,0,3.29,2.988,39.446,39.446,0,0,0,3.237,2.3q.086.525.187,1.036a32.219,32.219,0,0,0,.887,3.352c.259.772.513,1.515.854,2.283a19.818,19.818,0,0,1-2.216-1c-.839-.393-1.606-.734-2.379-1.18Zm-.82,6.531a9.179,9.179,0,0,0,5.764-3.155,2.892,2.892,0,0,0,1.113-.062,4.975,4.975,0,0,0,1.386-.643,2.867,2.867,0,0,1,2.129-.129,11.62,11.62,0,0,1,2.35.916,48.113,48.113,0,0,1,4.5,2.772q2.266,1.46,4.575,2.858c1.5.9,3,1.779,4.594,2.585a13.176,13.176,0,0,0,1.194,1.573,21.723,21.723,0,0,0,2.441,2.3c.753.628,1.482,1.228,2.187,1.837l-.115,4.685a21.145,21.145,0,0,1-2.652-1.3v-.134c-.072,0-.144,0-.216.01-.532-.3-1.069-.614-1.606-.921a15.223,15.223,0,0,0-2.825-1.348,3.99,3.99,0,0,0-.863-.173,2.129,2.129,0,0,0-1.012.149c-.077.034-.144.072-.216.106-.456-.528-.911-1.065-1.458-1.606a8.288,8.288,0,0,0-2.134-1.491l-.551-.269c-.058-.029-.11-.058-.163-.082a3.189,3.189,0,0,0,.086-1.683,10.089,10.089,0,0,0-.451-1.712,13.849,13.849,0,0,0-.671-1.607,3.506,3.506,0,0,0-.221-.408,1.368,1.368,0,0,0-.4-.4,2.367,2.367,0,0,0-.921-.326,23.208,23.208,0,0,0-3.429.029,3.134,3.134,0,0,1-2.666-1.472.192.192,0,0,0-.245-.062.179.179,0,0,0-.077.245,3.6,3.6,0,0,0,2.959,1.794c.6.043,1.165,0,1.726-.01a8.18,8.18,0,0,1,1.626.105,1.752,1.752,0,0,1,.662.254.754.754,0,0,1,.192.2,2.919,2.919,0,0,1,.168.345,13.308,13.308,0,0,1,.575,1.549,9.491,9.491,0,0,1,.355,1.583,4.583,4.583,0,0,1,.029.762,1.9,1.9,0,0,1-.077.36l-.46-.288c-.643-.412-1.295-.858-1.99-1.276a11.246,11.246,0,0,0-2.263-1.093,4.46,4.46,0,0,0-1.367-.24l-.369.01-.321.043c-.216.024-.412.072-.619.11-.81.182-1.583.408-2.335.633a14.36,14.36,0,0,1-4.776-2.139c-.873-.561-1.731-1.18-2.575-1.794A6.4,6.4,0,0,1,12.6,99.4a10.341,10.341,0,0,0,1.089-.053Zm-4.68-2.844a8.611,8.611,0,0,0-.508-2.057.068.068,0,0,1,.029.01,6.064,6.064,0,0,1,1.324.724c.091.077.187.153.273.235l.221.259.144.288.129.374a25.887,25.887,0,0,0,.959,2.465,8.068,8.068,0,0,1-1.18-.129,6.354,6.354,0,0,1-1.252-.369c-.024-.6-.062-1.194-.134-1.8Zm1.28,2.662a10.212,10.212,0,0,0,1.563.216A7.508,7.508,0,0,0,13.8,101.93c.849.647,1.688,1.276,2.58,1.875a18.393,18.393,0,0,0,3.611,1.942c-.2.053-.4.11-.6.153a10.887,10.887,0,0,1-2.2.3c-.355.01-.806,0-1.189.034s-.8.058-1.184.1a28.751,28.751,0,0,1-4.594.254c-.067,0-.134-.014-.2-.019a10.3,10.3,0,0,1-.427-1.151,12.636,12.636,0,0,1-.441-4.321c0-.753.01-1.511-.01-2.268a7.347,7.347,0,0,0,1.127.364Zm.144,8.2a32.181,32.181,0,0,0,4.469-.072c.388-.019.772-.038,1.151-.043s.719.014,1.151.019a12.072,12.072,0,0,0,2.441-.221c1.583-.283,3.093-.772,4.546-1.026a3.177,3.177,0,0,1,1.928.125A9.826,9.826,0,0,1,28,107.191c.628.417,1.242.878,1.894,1.333.326.23.652.46,1.017.681.173.115.374.216.561.321l.484.264a6.339,6.339,0,0,1,1.63,1.247c.355.379.71.82,1.069,1.276a17.581,17.581,0,0,1-1.961,1.113,8.23,8.23,0,0,1-1.319.489c-.225.072-.451.11-.691.163l-.743.153a25.257,25.257,0,0,1-2.9.5,11.258,11.258,0,0,1-2.868-.091,15.253,15.253,0,0,1-2.81-.777c-.954-.326-1.913-.633-2.887-.9a25.318,25.318,0,0,0-4.4-.849,24.4,24.4,0,0,1-3.654-4.738Zm5.836,13.749a14.846,14.846,0,0,1-3.05-1.184,9.557,9.557,0,0,0,1.506-.863,12.829,12.829,0,0,0,2.177-1.961c.129.168.259.336.388.508.23.307.46.619.7.916.47.6.954,1.184,1.439,1.765.532.633,1.084,1.252,1.63,1.875-1.616-.317-3.227-.619-4.791-1.055Zm4.2-1.712c-.494-.561-.983-1.127-1.453-1.7-.24-.283-.465-.575-.691-.863s-.48-.614-.734-.9c-.868-1.017-1.774-1.971-2.666-2.925a25.869,25.869,0,0,1,3.328.758c.95.278,1.889.6,2.825.935a16.375,16.375,0,0,0,2.949.863,12.086,12.086,0,0,0,3.112.153,25.445,25.445,0,0,0,3.021-.465l.729-.139c.249-.053.523-.1.772-.168a9.545,9.545,0,0,0,1.5-.528,24.964,24.964,0,0,0,2.676-1.491,11.751,11.751,0,0,1,1.247-.662,1.657,1.657,0,0,1,1.06.086,14.337,14.337,0,0,1,2.556,1.285c.053.029.106.062.158.1a7.136,7.136,0,0,0-2.383.993,5.972,5.972,0,0,0-.969.8,5.549,5.549,0,0,0-.791.983l-.173.307-.12.293a5.16,5.16,0,0,0-.206.571c-.125.379-.216.743-.321,1.108-.206.762-.412,1.515-.671,2.235a9.673,9.673,0,0,0-1.2-.662,7.737,7.737,0,0,0-3.3-.715,8.61,8.61,0,0,0-3.266.8,24.691,24.691,0,0,0-3.884,2.369q-1.575-1.683-3.1-3.4Zm8.637,15.518c-.35.01-.681.072-1.055.053s-.743-.014-1.113-.058a14.028,14.028,0,0,1-2.192-.364,11.875,11.875,0,0,1-4.009-1.865,11.318,11.318,0,0,1-1.664-1.477c-.129-.134-.245-.278-.364-.417l-.4-.465q-.41-.446-.834-.863c-.4-.388-.815-.762-1.228-1.132.1-.029.192-.058.288-.082a4.564,4.564,0,0,0,.767-.278,17.323,17.323,0,0,0,2.8-1.53c.892-.566,1.741-1.17,2.594-1.765.12-.086.245-.168.364-.254.8.882,1.606,1.765,2.427,2.628,1.045,1.093,2.11,2.177,3.223,3.223.547.518,1.146,1.045,1.7,1.53l1.683,1.487c.12.11.24.216.36.326a8.575,8.575,0,0,1-3.347,1.3Zm6.249-1.161a27.545,27.545,0,0,0,2.393-2.129c.95-.935,1.846-1.923,2.733-2.82.4.528.806,1.055,1.208,1.587l3.63,4.762-.177,7.241q-4.863-4.366-9.788-8.637ZM59.1,136.741a40.269,40.269,0,0,0-6.426,5.251c-.283.283-.551.575-.825.863L51.768,138a20.237,20.237,0,0,1,2.944-3.357,9.11,9.11,0,0,1,2.944-1.861,4.874,4.874,0,0,1,3.227-.086,4.974,4.974,0,0,1,1.5.791,12.891,12.891,0,0,1,1.007.825,38.664,38.664,0,0,0-4.292,2.431Zm2.4-6.656-.014.014h0s.014-.01.019-.014Zm-.369-.422,0,0-.01-.01.019.019Zm-.575-.427h0C60.534,129.221,60.539,129.226,60.558,129.236Zm9.591,1.693-.01.278v.293c0,.034-.062.034-.1.048l-.729.254c-.321.11-.643.235-.964.36-.643.24-1.28.489-1.913.758-.537.221-1.069.46-1.6.7A16.687,16.687,0,0,0,63.4,132.2a6.675,6.675,0,0,0-1.88-1.18c-.034-.014-.067-.024-.1-.038.062-.336.125-.671.192-.978l.014-.067h0c.014-.024.029-.043.043-.067a.422.422,0,0,0,.048-.1,3.4,3.4,0,0,0,.134-.436l.168-.734a23.737,23.737,0,0,1,.7-2.777l.254-.652c.091-.216.206-.408.307-.619s.245-.374.369-.566a2.949,2.949,0,0,1,.46-.456,1.752,1.752,0,0,1,1.175-.4,5.07,5.07,0,0,1,1.367.312.165.165,0,0,0,.2-.129.185.185,0,0,0-.086-.221,5.367,5.367,0,0,0-1.443-.465,2.338,2.338,0,0,0-1.578.379,3.622,3.622,0,0,0-.628.513c-.168.2-.345.4-.494.614s-.288.432-.408.657l-.345.686a24.17,24.17,0,0,0-1,2.82l-.221.676c-.019.058-.043.129-.067.182a.718.718,0,0,0-.053.062,1.139,1.139,0,0,0-.077.12l-.019.043-.038.091-.019.053-.038.11c-.106.331-.2.647-.288.959a7.283,7.283,0,0,0-3.021.177,11.351,11.351,0,0,0-3.846,2c-.528.4-1.021.83-1.5,1.271l-.034-1.937a29.25,29.25,0,0,0,4.268-4.589c.206-.3.436-.571.619-.882l.547-.945a15.269,15.269,0,0,0,.926-1.985,8.769,8.769,0,0,0,.336-1.041c.1-.35.221-.7.288-1.055l.187-1.065.091-.532.043-.532c.038-.422.067-.839.086-1.256,1.122-.307,2.23-.643,3.333-1.007,1.242-.412,2.474-.863,3.688-1.348.916.34,1.822.7,2.714,1.113a28.764,28.764,0,0,0,3.558,1.525,16.3,16.3,0,0,0-1.28,1.755,4.841,4.841,0,0,0-.46.95,2.64,2.64,0,0,0-.129.551l-.048.5c-.058.662-.091,1.333-.086,2a13.407,13.407,0,0,0,.5,3.654c-.043.1-.1.2-.134.3a8.422,8.422,0,0,0-.528,2.153,4.336,4.336,0,0,0-.038.556Zm6.368-8.857a12.835,12.835,0,0,0-3.443,2.532,11.373,11.373,0,0,0-1.63,2.148,13.61,13.61,0,0,1-.331-2.5,18.563,18.563,0,0,1,.019-1.933l.029-.484a1.707,1.707,0,0,1,.082-.408,4.134,4.134,0,0,1,.374-.834,16.374,16.374,0,0,1,1.328-1.923,8.209,8.209,0,0,0,1.487.168,16.98,16.98,0,0,1,1.856.134c1.161.144,2.345.427,3.616.47a11.18,11.18,0,0,1-3.386,2.633Zm11.7,2.882c-1.746,1.3-3.832,2.139-5.731,3.438a9.417,9.417,0,0,0-2.546,2.393A5.719,5.719,0,0,0,78.9,133.9a18.657,18.657,0,0,1-2.249-.379,15.984,15.984,0,0,1-2.733-.892,9.976,9.976,0,0,1-2.263-1.319v-.1l0-.23a2.871,2.871,0,0,1,.024-.456,7.1,7.1,0,0,1,.408-1.789,9.438,9.438,0,0,1,2-3.17,11.448,11.448,0,0,1,3.036-2.311l.93-.527c.177-.115.345-.245.518-.364l.062.1a3.235,3.235,0,0,1,1.7-.667,2.216,2.216,0,0,1,.849.2,8.622,8.622,0,0,1,.887.508,5.336,5.336,0,0,0,2.129.873c.2.029.4.024.595.038.192-.01.379-.029.571-.043a3.69,3.69,0,0,0,.561-.086,4.365,4.365,0,0,0,.551-.125,32.505,32.505,0,0,0,4.014-1.645,8.407,8.407,0,0,1,1.161-.379,13.485,13.485,0,0,1-3.434,3.817Zm-6.009-5.884a8.336,8.336,0,0,0,.9-.48c.283-.173.556-.35.825-.528a15.078,15.078,0,0,1,1.583-.993,4.948,4.948,0,0,1,1.7-.513,7.41,7.41,0,0,1,3.6.456c.58.216,1.151.494,1.75.753.2.086.412.168.628.24a19.878,19.878,0,0,1-.868,1.928c-.1.192-.2.374-.3.561a9.041,9.041,0,0,0-1.75.46,33.175,33.175,0,0,1-3.975,1.491,3.657,3.657,0,0,1-.5.1,3,3,0,0,1-.5.058l-.5.019c-.158-.019-.321-.019-.475-.043a4.545,4.545,0,0,1-1.779-.815,9.493,9.493,0,0,0-.964-.585,3.017,3.017,0,0,0-1.218-.321h-.053l.2-.2c.432-.46.834-.935,1.223-1.419a4.482,4.482,0,0,0,.484-.173Zm-7.155-7.548c.412-.254.825-.5,1.237-.753a32.59,32.59,0,0,0,3.486.043c1.678-.067,3.333-.187,5.007-.312.638-.058,1.266-.158,1.894-.273-1.5,2.187-2.978,4.383-4.546,6.488-.451.595-.911,1.184-1.386,1.755-.192.014-.384.024-.58.019a32.511,32.511,0,0,1-3.726-.575,17.063,17.063,0,0,0-1.966-.2,6.131,6.131,0,0,1-.734-.077l.168-.211c.417-.513.791-1.065,1.189-1.573a7.883,7.883,0,0,0,.59-.825A2.409,2.409,0,0,0,76,114.015c0-.12-.072-.221-.168-.221a.21.21,0,0,0-.2.182,1.966,1.966,0,0,1-.288.844,8.051,8.051,0,0,1-.585.758c-.432.513-.81,1.041-1.237,1.53-.12.139-.235.278-.355.417-.144-.034-.288-.077-.432-.12a27.316,27.316,0,0,1-3.4-1.568c-.5-.245-1-.475-1.511-.7a66.212,66.212,0,0,0,7.236-3.63Zm-5.352-4.45a26.993,26.993,0,0,0-.427,5.194,65.587,65.587,0,0,1-7.591,2.657c-.868.245-1.741.465-2.614.671-.043-1.477-.158-2.935-.264-4.378q-.122-1.475-.24-2.94c.024,0,.048-.01.072-.01a3.628,3.628,0,0,1,.791-.014c.273.024.5.034.873.086a12.983,12.983,0,0,0,3.913-.216,16.284,16.284,0,0,0,3.659-1.2,18.04,18.04,0,0,0,2.144-1.2c-.12.451-.221.906-.307,1.362Zm7.088-11.644A21.433,21.433,0,0,1,73,101.5a16.312,16.312,0,0,1-1.511,1.482c.038-.427.038-.839.038-1.247a11.364,11.364,0,0,1,.187-2.7,4.449,4.449,0,0,1,1.271-2.249,16.337,16.337,0,0,0,1.947-2.033,3.567,3.567,0,0,0,.638-1.314,5.811,5.811,0,0,0,.115-1.429c0-.163-.086-.288-.182-.288s-.182.125-.187.288a5.769,5.769,0,0,1-.139,1.333A3.105,3.105,0,0,1,74.58,94.5a16,16,0,0,1-1.937,1.928A4.986,4.986,0,0,0,71.161,98.9a12.146,12.146,0,0,0-.269,2.825,12.272,12.272,0,0,1-.077,1.348,2.938,2.938,0,0,1-.125.556,16.558,16.558,0,0,1-3.39,2,14.572,14.572,0,0,1-3.362,1,11.478,11.478,0,0,1-3.429.106c-.24-.038-.619-.082-.959-.12a4.8,4.8,0,0,0-1.05-.01c-.024,0-.048,0-.067,0q-.129-1.633-.23-3.266a31.7,31.7,0,0,0,4.772-2.988c1.654-1.328,2.978-2.753,4.5-4.071,1.477-1.348,3.016-2.614,4.551-3.923.384-.326.767-.652,1.146-1l.566-.518.537-.561.269-.283.24-.312c.158-.211.326-.412.475-.633a8.008,8.008,0,0,0,.71-1.419,7.226,7.226,0,0,0,.264-.743l.182-.758c.034-.125.062-.245.086-.369.12-.043.24-.086.355-.134A14.643,14.643,0,0,0,79.366,84.2c-.125,1.424-.3,2.844-.547,4.249A32.235,32.235,0,0,1,76.8,95.418ZM86.564,79.07c.053.393.115.777.177,1.161a13.787,13.787,0,0,1,.23,2.273,4.121,4.121,0,0,1-.139,1.074,3.255,3.255,0,0,1-.48.945,9.965,9.965,0,0,1-1.573,1.611l-.887.772c-.288.259-.571.5-.873.724a9.9,9.9,0,0,1-3.553,1.722c.043-.254.086-.508.125-.762.245-1.621.384-3.247.465-4.877.393-.3.777-.6,1.151-.9l1.937-1.573c.647-.528,1.28-.945,2-1.544a16.61,16.61,0,0,0,1.319-1.348c.053.216.062.456.1.724Z" transform="translate(-0.839 -0.03)"/><path class="a" d="M176.9,89.5a9.039,9.039,0,0,1-1.88-.906l-.225.393a9.709,9.709,0,0,0,2,.882A3.3,3.3,0,0,0,179,89.791c1.29-.513,2.786-.686,4-1.52a.1.1,0,0,0,.038-.139.108.108,0,0,0-.144-.014c-1.194.767-2.647.887-4.019,1.376A2.94,2.94,0,0,1,176.9,89.5Z" transform="translate(-91.372 -45.864)"/></g></g></g></svg>