<?xml version="1.0" encoding="UTF-8"?>
<svg id="Layer_1" data-name="Layer 1" xmlns="http://www.w3.org/2000/svg" version="1.1" viewBox="0 0 231 231">
  <defs>
    <style>
      .cls-1 {
        fill: #1d3b6d;
      }

      .cls-1, .cls-2 {
        stroke-width: 0px;
      }

      .cls-2 {
        fill: #fff;
      }
    </style>
  </defs>
  <rect class="cls-1" x="0" width="231" height="231"/>
  <g>
    <rect class="cls-1" x="45.5" width="140" height="231"/>
    <g>
      <g>
        <path class="cls-2" d="M79.6,182.8c.2,0,.4.1.5.2.2,0,.5,0,.7,0,.5,0,1-.2,1.5-.5.4-.3.8-.7,1-1.2.5-.9.8-2,.8-3,0-.8,0-1.6-.3-2.3-.1-.6-.3-1.1-.5-1.6-.2-.5-.5-1.1-.8-1.8l-1.1-2.4c-.3-.6-.5-1.3-.7-2-.2-.7-.2-1.3-.3-2,0-.4,0-.8.2-1.1.1-.4.3-.7.6-1,.3-.3.6-.4,1-.4.1,0,.3,0,.4.1.1,0,.3.1.4.1,0,0,.3,0,.3-.3s-.2-.4-.5-.6c-.2-.2-.5-.2-.8-.3-.6,0-1.1.2-1.5.6-.4.4-.7.9-.9,1.4-.2.5-.3,1.1-.3,1.6,0,.8.1,1.7.4,2.5.2.5.4,1.1.6,1.6.2.5.5,1.1,1,2,.2.4.3.6.4.8.4.8.7,1.6.9,2.4.2.8.3,1.7.4,2.5,0,.9-.2,1.7-.5,2.5-.1.4-.4.8-.7,1.2-.3.3-.6.4-1,.4-.2,0-.5,0-.7-.2-.2-.1-.5-.2-.7-.2-.2,0-.4.1-.4.3,0,0,0,0,0,0,0,0,0,0,0,0,.1.2.3.4.5.5h0Z"/>
        <path class="cls-2" d="M90.9,182.5c.2,0,.3-.3.3-.6s0-.4-.6-.4h-2.3v-.8c0-1.5,0-2.9,0-4v-3.8q0,0,0,0h1.5c.1,0,.3,0,.4-.1,0-.1.1-.3.1-.4,0-.2,0-.5-.5-.5s-1,0-1.4,0v-5.3c0-.6,0-1.4,0-2.2s0-.2,0-.2,0,0,.2,0h.8c0,0,.4,0,.4,0,.1,0,.3,0,.4-.2.1,0,.2-.2.2-.4,0-.4-.2-.5-.3-.5-.2,0-.4,0-.6,0h-1.6c-.2,0-.3,0-.4.2-.1.2-.2.4-.1.6,0,.8,0,1.7,0,2.8v10.5s0,3.7,0,3.7h0c0,.2,0,.4,0,.5v.5c0,.2,0,.4.3.5.3.1.6.1.9.1h1.1c.4,0,.9,0,1.3-.1h0Z"/>
        <path class="cls-2" d="M99.8,171.5c.3-1.7.6-3.2.8-4.3,0,.1,0,.2,0,.3,0,.4,0,.8,0,1.2s0,1,0,1.4v1.4c0,.7,0,1.7,0,2.9,0,.6,0,1,0,1.3,0,1.6,0,3.1,0,4.2v2.3c0,.2,0,.4.1.6h0c.1.2.3.2.5.2.2,0,.3,0,.4-.2,0-.3,0-.5,0-.8,0-.5,0-1.3,0-2.6,0-.9,0-1.7,0-2.1,0-1.4,0-3.4-.2-5.7-.2-2.6-.2-4.5-.2-5.8v-2.5c0-.1,0-.3-.1-.4-.1-.2-.4-.2-.6,0,0,0,0,0,0,0-.1.1-.2.3-.2.4v.8c-.1,0-.4,1.4-.4,1.4l-.2,1.3-1.2,6.2c0,.2-.2.9-.4,2.3,0,.5-.2,1-.2,1.3v.4c-.4-1.7-.6-3-.7-3.7-.3-1.4-.8-3.3-1.4-5.8-.6-2.5-1-4-1.1-4.5,0-.2-.2-.3-.4-.3-.1,0-.2,0-.3.1,0,0-.1.2-.1.3v5.3c0,.9,0,1.9,0,3s0,1.8,0,2.6v2.6s0,4.3,0,4.3c0,.9.3,1.4.8,1.4,0,0,0,0,0,0,.2-.2.2-.5.2-.7v-1.2c-.1-.5-.1-.9-.1-1.2,0-1.5,0-2.8,0-4s0-2.6,0-4,0-3.1,0-4.5c.2.7.5,2.2,1.1,5.2.7,3.7,1.2,6,1.3,6.8,0,.2,0,.5.2.6.2.2.5.3.7.2,0,0,.1,0,.2-.2.1-.2.2-.4.2-.6,0-.5.2-1.2.5-2.3.2-1.2.5-2.9.9-4.9h0Z"/>
        <path class="cls-2" d="M108.6,182.4c.1,0,.2,0,.3-.2,0,0,.1-.2.1-.4,0-.2-.1-.5-.7-.5h-.8c0-.2,0-.4,0-.6v-.7c0-1.6,0-4.3-.3-8-.2-4-.3-6.7-.3-8h0c0,0,.2,0,.2,0h.5c.1,0,.2,0,.3,0,.1,0,.2,0,.3-.2,0,0,0-.2,0-.3,0-.1,0-.3-.2-.3-.1,0-.3-.1-.4-.1-.4,0-.7,0-1,0h-.7c-.3,0-.7,0-1,0-.2,0-.3.3-.2.4,0,.4.2.5.4.5h.8c0,.3,0,.8,0,1.5v3c0,1.4.1,3.2.2,5.6.1,2.9.2,5.4.2,7.3h-.9c-.5,0-.5.3-.5.4,0,.1,0,.3.2.4.1,0,.2.2.4.2.6,0,1.1,0,1.6,0h1.4Z"/>
        <path class="cls-2" d="M112.6,182c0,.2,0,.3.1.4h0c0,.1.2.2.4.2,1,0,1.7,0,2.1,0h.4c.1,0,.3,0,.3-.2,0-.1,0-.3,0-.4,0-.5-.3-.6-.4-.6h-1.6c0,0-.2,0-.3,0h0s-.2-3.2-.2-3.2c0-1.6-.2-2.8-.2-3.5v-4.6c-.2-1.5-.2-3.9-.2-7.1s0-.5-.6-.5c-.1,0-.2,0-.3.1,0,0-.2.2-.2.3,0,1.2,0,3,.2,5.3,0,2.6.1,4.4.1,5.3s0,2.2,0,3.6c0,1.3.1,2.5.1,3.6v1h0Z"/>
        <path class="cls-2" d="M121.7,182.6h.2c.1,0,.3,0,.3-.2,0-.1,0-.3,0-.4,0-.5-.3-.6-.4-.6h-1.6c0,0-.2,0-.3,0h0s-.2-3.2-.2-3.2c0-1.6-.2-2.8-.2-3.5v-4.6c-.2-1.5-.2-3.9-.2-7.1s0-.5-.6-.5c-.1,0-.2,0-.3.1,0,0-.2.2-.2.3,0,1.2,0,3,.2,5.3,0,2.6.1,4.4.1,5.3s0,2.2,0,3.6c0,1.3.1,2.6.1,3.6v1c0,.2,0,.3.1.4h0c0,.1.2.2.4.2,1,0,1.7,0,2.1,0h.2Z"/>
        <path class="cls-2" d="M128.1,181.5h-2.3v-.8c0-1.5,0-2.9,0-4v-3.8s0,0,0,0h1.5c.1,0,.3,0,.4-.1,0-.1.1-.3.1-.4,0-.2,0-.5-.5-.5s-1,0-1.4,0v-5.3c0-.6,0-1.3,0-2.2s0-.2,0-.2,0,0,.2,0h.8c0,0,.4,0,.4,0,.1,0,.3,0,.4-.2.1,0,.2-.2.2-.4,0-.4-.2-.5-.3-.5-.2,0-.4,0-.6,0h-1.6c-.2,0-.3,0-.4.2-.1.2-.2.4-.1.6,0,.8,0,1.7,0,2.8v10.5s0,3.7,0,3.7h0c0,.2,0,.4,0,.5v.5c0,.2,0,.4.3.5.3.1.6.1.9.1h1.1c.4,0,.9,0,1.3-.1.2,0,.3-.3.3-.6s0-.4-.6-.4h0Z"/>
        <path class="cls-2" d="M134.9,177.2c-.7-2.7-1.2-4.7-1.5-6,.2-.2.3-.4.4-.7.2-.3.3-.6.4-.9.3-.8.5-1.7.5-2.6,0-1-.2-1.9-.7-2.8-.2-.4-.5-.8-.9-1-.4-.2-.8-.4-1.3-.4-.5,0-.6.2-.6.3v3.3c0,2.1,0,4.6-.1,7.6v2.5c0,0-.1,5.1-.1,5.1v.4c0,.1,0,.3.2.4.1.1.3.2.4.2.4,0,.6-.2.6-.6v-10.1c0,0,.2-.1.2-.1h.1c.2.7.4,1.6.6,2.8.2,1.1.4,1.9.5,2.5.2,1.1.6,2.4,1,4l.3,1.1c0,.4.4.6.7.6.1,0,.3,0,.4-.2,0-.1.1-.3.1-.4,0-.1,0-.2,0-.3l-1.2-4.6h0ZM133.6,167.4c0,.4,0,.8-.1,1.3,0,.4-.2.7-.3,1-.2.3-.4.6-.7.8-.2.2-.3.3-.5.4v-7s0,0,0,0h0c.3,0,.5.1.7.4.2.3.4.6.5,1,.2.7.3,1.4.4,2.1h0Z"/>
        <path class="cls-2" d="M143.6,165.7c0-.4-.2-.8-.4-1.1-.1-.3-.3-.7-.5-1-.2-.3-.5-.5-.9-.6-.4-.2-.8-.3-1.2-.3-.4,0-.9.1-1.2.5-.3.3-.6.6-.8,1.1-.2.5-.4,1.1-.4,1.7-.2,1.2-.3,2.5-.3,3.7v1c0,8.3,1.2,12.3,3.6,12.3.7,0,1.3-.4,1.6-1,.2-.3.4-.7.5-1,.1-.4.2-.8.3-1.2.1-.9.2-1.8.3-2.7,0-.7,0-1.5,0-2.3h0c0-2.7-.2-5.3-.6-7.8l-.2-1.2h0ZM143.5,174.1h0c0,1,0,1.9,0,2.8,0,1.2-.2,2.3-.5,3.5,0,.5-.2.9-.5,1.3h0c-.1.2-.4.4-.7.4-.4,0-.8-.3-1.1-.8-.4-.6-.6-1.3-.8-2-.2-.9-.4-1.9-.5-2.9-.2-1.4-.3-2.9-.3-4.3v-1.2c0-.9,0-1.7,0-2.6,0-1.1.2-2.1.5-3.1,0-.4.3-.8.5-1.1.2-.2.4-.4.7-.4.3,0,.6.1.8.3.3.3.5.6.6,1,.4,1,.7,2.1.8,3.2.2,1.4.3,2.6.3,3.6v2.5s0,0,0,0Z"/>
        <path class="cls-2" d="M147.4,182.8c.2,0,.4.1.5.2.2,0,.5,0,.7,0,.5,0,1-.2,1.5-.5.4-.3.8-.7,1-1.2.5-.9.8-2,.8-3,0-.8-.1-1.6-.3-2.3-.1-.6-.3-1.1-.5-1.6-.2-.5-.5-1.1-.8-1.8l-1.1-2.4c-.3-.6-.5-1.3-.7-2-.2-.7-.2-1.3-.3-2,0-.4,0-.8.2-1.1.1-.4.3-.7.6-1,.3-.3.6-.4,1-.4.1,0,.3,0,.4.1.1,0,.3.1.4.1,0,0,.3,0,.3-.3s-.2-.4-.5-.6c-.2-.2-.5-.2-.8-.3-.6,0-1.1.2-1.5.6-.4.4-.7.9-.9,1.4-.2.5-.3,1.1-.3,1.6,0,.8.1,1.7.4,2.5.2.5.4,1.1.6,1.6.2.5.5,1.1,1,2,.2.4.3.6.4.8.4.8.7,1.6.9,2.4.2.8.3,1.7.4,2.5,0,.9-.2,1.7-.5,2.5-.1.4-.4.8-.7,1.2-.3.3-.6.4-1,.4-.2,0-.5,0-.7-.2-.2-.1-.5-.2-.7-.2-.2,0-.4.1-.4.3,0,0,0,0,0,0,0,0,0,0,0,0,.1.2.3.4.5.5h0Z"/>
        <path class="cls-2" d="M85.4,192.8c-.1-.9-.3-1.8-.6-2.6-.3-.8-.7-1.6-1.3-2.2-.6-.6-1.4-.9-2.3-.9h-.1c-1.4,0-2,.2-2,.7,0,.3,0,.5.2.7,0,.2.2.4.2.6,0,.5.1,1.7.1,3.5v3.1c0,0,.2,7,.2,7v2.3c0,.2,0,.3,0,.4-.1.2-.2.4-.2.6,0,.2.1.3.4.4.2.1.4.2.7.2.1,0,.3,0,.9-.5.5-.4,1-.8,1.4-1.3.5-.6.9-1.2,1.2-1.9.5-1.1.9-2.3,1.2-3.5.3-1.1.4-2.3.4-3.4v-.8c0-1-.1-1.8-.2-2.4h0ZM80.8,205v-2.8c0-1.2,0-2.8-.2-4.8-.1-2.3-.2-3.9-.2-4.9s0-1.3-.1-2.1c0-.8-.1-1.5-.1-2.1s.1-.2.4-.2c2.7,0,4,2.5,4,7.3s0,1.1,0,1.7c0,.8-.2,1.5-.4,2.2-.1.7-.4,1.4-.6,2.1-.3.7-.7,1.4-1.2,2-.4.6-1,1-1.6,1.4h0Z"/>
        <path class="cls-2" d="M92.2,205.5h-2.3v-.8c0-1.5,0-2.9,0-4v-3.8q0,0,0,0h1.5c.1,0,.3,0,.4-.1,0-.1.1-.3.1-.4,0-.2,0-.5-.5-.5s-1,0-1.4,0v-5.3c0-.6,0-1.4,0-2.2s0-.2,0-.2,0,0,.2,0h.8c0,0,.4,0,.4,0,.1,0,.3,0,.4-.2.1,0,.2-.2.2-.4,0-.4-.2-.5-.3-.5-.2,0-.4,0-.6,0h-1.6c-.2,0-.3,0-.4.2-.1.2-.2.4-.1.6,0,.8,0,1.7,0,2.8v10.5s0,3.7,0,3.7h0c0,.2,0,.4,0,.5v.5c0,.2,0,.4.3.5.3.1.6.1.9.1h1.1c.4,0,.9,0,1.3-.1.2,0,.3-.3.3-.6s0-.4-.6-.4h0Z"/>
        <path class="cls-2" d="M102.8,198.3c-.2-.5-.5-1.1-.8-1.8l-1.1-2.4c-.3-.6-.5-1.3-.7-2-.2-.7-.2-1.3-.3-2,0-.4,0-.8.2-1.1.1-.4.3-.7.6-1,.3-.3.6-.4,1-.4.1,0,.3,0,.4.1.1,0,.3.1.5.1,0,0,.3,0,.3-.3s-.2-.4-.5-.6c-.2-.2-.5-.2-.8-.3-.6,0-1.1.2-1.5.6-.4.4-.7.9-.9,1.4-.2.5-.3,1.1-.3,1.6,0,.8.1,1.7.4,2.5.2.5.4,1.1.6,1.6.2.5.5,1.1,1,2,.2.4.3.7.4.8.4.8.7,1.6.9,2.4.2.8.4,1.7.4,2.5,0,.9-.2,1.7-.5,2.5-.1.4-.4.8-.7,1.2-.3.3-.6.4-1,.4-.2,0-.5,0-.7-.2-.2-.1-.5-.2-.7-.2-.2,0-.4.1-.4.3,0,0,0,0,0,0,0,0,0,0,0,0,.1.2.3.4.5.5.2,0,.4.1.5.2.2,0,.5,0,.7,0,.5,0,1-.2,1.5-.5.4-.3.8-.7,1-1.2.5-.9.8-2,.8-3,0-1.3-.3-2.7-.8-3.9h0Z"/>
        <path class="cls-2" d="M110.1,205.5h-2.3v-.8c0-1.5,0-2.9,0-4v-3.8q0,0,0,0h1.5c.1,0,.3,0,.4-.1,0-.1.1-.3.1-.4,0-.2,0-.5-.5-.5s-1,0-1.4,0v-5.3c0-.6,0-1.3,0-2.2s0-.2,0-.2,0,0,.2,0h.8c0,0,.4,0,.4,0,.1,0,.3,0,.4-.2.1,0,.2-.2.2-.4,0-.4-.2-.5-.3-.5-.2,0-.4,0-.6,0h-1.6c-.2,0-.3,0-.4.2-.1.2-.2.4-.1.6,0,.8,0,1.7,0,2.8v10.5s0,3.7,0,3.7h0c0,.2,0,.4,0,.5v.5c0,.2,0,.4.3.5h0c.3.1.6.1.9.1h1.1c.4,0,.9,0,1.3-.1.2,0,.3-.3.3-.6s0-.4-.6-.4h0Z"/>
        <path class="cls-2" d="M119,186.4c-.3,0-.5.2-.6.4,0,0,0,0,0,0v3.6s0,2,0,2c0,.6,0,1.3,0,2v4.4c0,1.3-.1,2.8-.1,4.4,0,.3,0,.6,0,.9-.4-1.1-.8-2.6-1.2-4.5-.9-3.2-1.5-5.5-1.8-6.9-.2-.6-.4-1.5-.6-2.7l-.5-2.5c0-.2-.1-.3-.3-.4-.1-.1-.3-.2-.4-.2-.2,0-.4,0-.6.1-.1.1-.2.3-.2.5v.3c0,0,0,.2,0,.3,0,.9,0,1.7,0,2.4v10.2c0,0,0,4.4,0,4.4,0,.3,0,.7,0,1,0,0,0,0,0,0v.2c0,0,.1,0,.2,0h.6s0,0,0,0l.2-.2s0,0,0,0v-7.3c0,0,0-9.4,0-9.4.4,2.3.7,3.7.9,4.2.2.8,1.2,4.7,3.1,11.5,0,.1,0,.3,0,.4v.5c.1.2.2.3.3.5,0,.1.2.2.4.2.3,0,.8-.1.8-.8v-2c.1-.9.1-1.6.1-2,0-2.2,0-4.2,0-6,0-1.8,0-3.8,0-6v-1.6s0,0,0-.1c0,0,0-.2,0-.3,0-.2,0-.4,0-.5,0-.4,0-.8-.3-.8h0Z"/>
        <path class="cls-2" d="M127.7,187h-2.8s-2.5,0-2.5,0c-.3,0-.7,0-1,0-.2,0-.3,0-.5.2,0,0-.1.2-.1.3,0,.2,0,.3.2.4.1,0,.3.1.4.1h2.8c0,.2,0,.8,0,2.7v2.4c0,.9,0,2.3,0,4.1v4.1c0,0,0,4.5,0,4.5,0,.2,0,.4.1.5.1.2.3.2.5.2.1,0,.3,0,.3-.2,0,0,.1-.2.1-.3,0-.1,0-.2,0-.4v-1.9s0-14.4,0-14.4v-1.4s.1,0,.1,0h2.3c.5,0,.6-.3.6-.5,0-.1,0-.3-.1-.4-.1,0-.3-.1-.5-.1h0Z"/>
        <path class="cls-2" d="M133.6,205.4h-.8c0-.2,0-.4,0-.6v-.7c0-1.6-.1-4.3-.3-8-.2-4-.3-6.7-.3-8h0c0,0,.2,0,.2,0h.5c.1,0,.2,0,.3,0,.1,0,.3,0,.3-.2,0,0,0-.2,0-.3,0-.1,0-.3-.2-.3-.1,0-.3-.1-.4-.1-.4,0-.7,0-1,0h-.7c-.3,0-.7,0-1,0-.2,0-.3.3-.2.4,0,.4.2.5.4.5h.8c0,.3,0,.8,0,1.5v3c0,1.3.1,3.2.2,5.6.1,2.9.2,5.4.2,7.3h-.9c-.5,0-.5.3-.5.4,0,.1,0,.3.2.4.1,0,.2.2.4.2.6,0,1.1,0,1.6,0h1.4c.1,0,.2,0,.3-.2,0,0,.1-.2.1-.4,0-.2-.1-.4-.7-.4Z"/>
        <path class="cls-2" d="M143.2,192.8c-.1-.9-.3-1.8-.6-2.6-.3-.8-.7-1.6-1.3-2.2-.6-.6-1.4-.9-2.3-.9h-.1c-1.4,0-2,.2-2,.7,0,.3,0,.5.2.7,0,.2.2.4.2.6,0,.5.1,1.7.1,3.5v3.1c0,0,.2,7,.2,7v2.3c0,0,0,.2,0,.4-.1.2-.2.4-.2.6,0,.2.1.3.4.4.2.1.4.2.7.2.1,0,.3,0,.9-.5.5-.4,1-.8,1.4-1.3.5-.6.9-1.2,1.2-1.9.5-1.1.9-2.3,1.2-3.5.3-1.1.4-2.3.4-3.4v-.8c0-1-.1-1.8-.2-2.4h0ZM138.4,197.4c-.1-2.3-.2-3.9-.2-4.9s0-1.3-.1-2.1c0-.8-.1-1.5-.1-2.1s.1-.2.4-.2c2.7,0,4,2.5,4,7.3s0,1.1,0,1.7c0,.8-.2,1.5-.4,2.2-.1.7-.4,1.4-.6,2.1-.3.7-.7,1.4-1.2,2-.4.6-1,1-1.6,1.4h0v-2.8c0-1.2,0-2.8-.2-4.8h0Z"/>
        <path class="cls-2" d="M151.7,191l-.2-1.2c0-.4-.2-.8-.3-1.1-.1-.4-.3-.7-.5-1-.2-.3-.5-.5-.8-.7-.4-.2-.7-.3-1.2-.3-.4,0-.9.1-1.2.4-.3.3-.6.6-.8,1-.2.5-.4,1.1-.5,1.6-.2,1.2-.4,2.5-.4,3.7v1c-.4,8.3.6,12.4,3.1,12.5h0c.6,0,1.2-.3,1.5-.9.2-.3.4-.7.5-1,.2-.4.3-.8.4-1.2.2-.9.3-1.8.4-2.7,0-.7.1-1.5.1-2.3h0c0-2.7,0-5.3-.3-7.8h0ZM149.6,205.7c-.1.2-.4.4-.7.4-.4,0-.8-.3-1.1-.9-.3-.7-.6-1.3-.7-2.1-.2-1-.3-1.9-.4-2.9-.1-1.4-.2-2.9-.1-4.3v-1.2c0-.9.2-1.7.2-2.6,0-1.1.3-2.1.6-3.1.1-.4.3-.8.6-1.1.2-.2.4-.3.7-.3h0c.3,0,.6.2.8.4.3.3.5.6.6,1,.4,1,.6,2.1.7,3.2.1,1.5.2,2.7.2,3.6v2.5c0,0,0,.1,0,.1,0,.9-.1,1.8-.2,2.7-.1,1.2-.3,2.3-.7,3.5,0,.5-.3.9-.6,1.3h0Z"/>
      </g>
      <g>
        <path class="cls-2" d="M151.5,89c-.5.3-1.1.5-1.6.7,0-.2,0-.4,0-.6.2-.9.3-1.8.4-2.7,0-.2,0-.3,0-.3s-.2,0-.2.3c-.1.9-.3,1.8-.5,2.6,0,.2,0,.5-.1.7-.4.1-.8.2-1.3.3-.9.2-1.9.3-2.8.2.2-.3.4-.6.6-.9.7-1.1,1.4-2.2,2-3.3.3-.5.5-1.1.8-1.6.6,0,1.1,0,1.6-.2.6-.3,1.1-.7,1.4-1.3,0,0,0,0,0-.1s-.1,0-.1,0c-.3.5-.8.8-1.3,1-.4,0-.8,0-1.2,0,.2-.4.3-.9.4-1.3.7-2.5,1.3-4.9,2-7.4,0-.2,0-.4,0-.4s-.2.1-.2.3c-.7,2.1-1.3,4.3-2,6.4,0,0-.2-.2-.2-.2-.2-.2-.4-.4-.6-.7-.2-.2-.4-.5-.6-.7-.2-.2-.4-.3-.6-.6-.2-.5-.4-1-.5-1.6h0c.2-.4.4-.7.6-1.1.1-.4.2-.7,0-.7s-.2.2-.4.6c-.1.2-.2.5-.4.7,0-.4,0-.8,0-1.2,0,0,0,0-.1,0s-.1,0-.1,0c0,.6,0,1.2,0,1.7-.3.5-.7.9-1,1.3-.7.8-1.4,1.5-2.2,2.2-1.6,1.4-3.2,2.7-4.9,4-.8.6-1.7,1.3-2.5,1.9-.4.3-.8.7-1.2,1,0-.7,0-1.3.2-2,0-.4.2-.8.4-1.1,0-.2.2-.3.4-.5.1-.1.3-.3.5-.4.6-.6,1.2-1.2,1.7-1.9.5-.7,1-1.4,1.4-2.1,0,0,0-.1,0-.1s0,0-.1,0c-.4.7-.9,1.4-1.4,2-.5.7-1.1,1.3-1.7,1.8h0c.2-.3.2-.7.3-1,0-.5,0-1,0-1.5.3-.9.8-1.8,1.4-2.6,0,0,0,0,0,0s0,0,0,0c-.6.8-1.1,1.7-1.4,2.6,0,.5,0,1,0,1.5,0,.5-.2.9-.4,1.3,0,0,0,0-.1.1-.2.1-.3.3-.4.5-.2.4-.3.8-.4,1.2-.2.8-.2,1.6-.3,2.4-.3.3-.6.5-.8.8-.8.7-1.5,1.5-2.3,2.3-.7.8-1.4,1.7-1.9,2.7-.1.2-.2.5-.3.7-.2.1-.4.2-.6.3-.6.3-1.2.6-1.9.9,0-.9.3-1.8.5-2.6.2-.6.4-1.3.7-1.9.1-.3.3-.6.5-1s.3-.7.4-1c.4-1.4.5-2.8.3-4.3,0-.2,0-.4,0-.5,1.5-1.2,2.9-2.4,4.2-3.8.8-.8,1.5-1.7,2.1-2.6.6-.9,1.1-1.8,1.6-2.7.7,0,1.3-.1,2-.3,1-.3,1.9-.5,2.9-.8,1-.3,1.9-.7,2.8-1.1.7-.4,1.4-.8,2.1-1.2.6,0,1.1,0,1.7,0,.7,0,1.3-.2,1.9-.4,0,0,0,0,0,0,0,0,0,0,0,0-.6.2-1.2.3-1.8.3-.4,0-.8,0-1.2,0,.9-.5,1.7-1.1,2.4-1.9.6-.8,1-1.7,1.4-2.7,0-.2,0-.3,0-.3s-.2,0-.3.2c-.3.9-.8,1.8-1.4,2.6-.7.7-1.5,1.3-2.4,1.7-.7.4-1.4.8-2.1,1.2,0-.3.2-.6.3-.9.2-.4.5-.9.9-1.2.3-.4.7-.7,1.1-1.2.3-.4.6-.9.8-1.4,0,0,0,0,0-.1s-.1,0-.2,0c-.2.5-.5.9-.9,1.3-.4.4-.7.7-1.1,1.1-.4.4-.7.8-1,1.3-.3.5-.5,1-.5,1.5-.8.4-1.7.7-2.5.9-.9.3-1.9.5-2.9.7-.4,0-.9.2-1.3.2.5-.9,1-1.9,1.5-2.8h0c.6,0,1.3-.2,1.9-.3.2,0,.4,0,.5-.2.2,0,.3-.2.4-.3.2-.2.5-.4.7-.6.5-.4,1-.8,1.5-1.2.5-.4,1-1,1.2-1.6,0,0,0-.1-.1-.1,0,0-.1,0-.2,0-.3.6-.7,1.1-1.2,1.4-.5.4-1,.7-1.6,1.1-.3.2-.5.4-.8.6-.2.2-.5.3-.7.3-.5,0-1,.1-1.5.2.3-.6.6-1.2.9-1.8,1.1-2,2.1-3.9,3.2-5.8.2-.5.6-.9,1-1.3.4-.3.9-.6,1.4-.9,1-.5,2-1,2.9-1.7.3-.3.4-.6.4-.6s-.3.1-.6.4c-.9.6-1.9,1.2-2.9,1.6-.5.3-1,.6-1.4.9-.1,0-.2.2-.3.3l-.2.2v.2c-.3.2-.5.5-.6.7-1.2,1.9-2.3,3.8-3.4,5.8-1,1.8-2.1,3.7-3.1,5.6-.2,0-.5,0-.7,0-1-.1-2-.2-3.1-.2-.3,0-.6,0-1,.1.4-.4.8-.8,1.1-1.2,1-1.1,1.9-2.1,2.8-3.2l5.4-6.6c.2-.2.2-.4.2-.4s-.2,0-.4.2l-1.5,1.7c-.3-.8-.4-1.6-.3-2.5,0-.5.2-1,.2-1.5,0-.3,0-.5.1-.8s0-.5,0-.8c0-.5.3-.9.6-1.3.4-.4.8-.7,1.2-1,.9-.6,1.7-1.3,2.3-2.2,0,0,0-.2,0-.2,0,0-.2,0-.2,0-.6.8-1.4,1.5-2.2,2.1-.4.3-.8.6-1.1.9,0-.5.1-.9.3-1.3.3-.6.5-1.2.7-1.9,0,0,0,0,0,0,0,0,0,0,0,0-.2.6-.5,1.2-.8,1.8-.3.5-.4,1.1-.4,1.8-.3.4-.5.8-.6,1.3,0,.3,0,.6-.1.8s0,.5-.1.8c-.1.5-.2,1-.3,1.6,0,.5-.1,1.1,0,1.6,0,.5.2,1,.4,1.5l-3.1,3.5c-.3-.5-.4-1-.5-1.5,0-.7.1-1.4.4-2,.7-1.3,1.2-2.8,1.3-4.3,0,0,0-.1-.1-.1,0,0-.1,0-.2.1-.2,1.5-.7,2.9-1.5,4.1-.4.7-.6,1.5-.6,2.3,0,.7.2,1.4.6,2h0c-.9,1.2-1.9,2.2-2.9,3.2-.8.8-1.6,1.6-2.4,2.3,0,0-.2,0-.2,0h0c-.2.2-.3.3-.5.4s-.3.2-.5.4c.1-1.1.3-2.1.5-3.2l.8-4.1c0-.2,0-.4,0-.5s-.2.2-.2.4l-.9,4.1c-.3,1.2-.5,2.4-.7,3.7-.8.5-1.7,1-2.5,1.5h0c0-.4,0-.7.2-1.1.1-.6.3-1.2.6-1.8.2-.6.5-1.1.7-1.8.2-.6.4-1.3.5-1.9.2-1.3.2-2.6.4-3.8,0-.3.2-.6.3-.8.1-.3.3-.5.5-.8.4-.5.8-1,1.2-1.4.4-.5.9-.9,1.3-1.3.2-.2.5-.4.7-.6.3-.2.5-.3.8-.5.6-.3,1.1-.7,1.6-1.2.5-.5.8-1,1.1-1.6.5-1,.9-2.1,1.4-3.1.4-.3.9-.5,1.3-.8.7-.5,1.4-1,2.2-1.5.4-.3.7-.5,1.1-.8.2-.1.3-.3.5-.4.2-.1.3-.2.5-.3.8-.3,1.7-.4,2.5-.6.2,0,.3-.1.2-.2s-.1-.1-.3,0c-.9.2-1.7.3-2.6.6-.2,0-.5.2-.6.3-.2.1-.3.3-.5.4-.3.3-.7.5-1.1.8-.7.5-1.4,1-2.2,1.5-.2.1-.5.3-.7.4.2-.4.4-.8.7-1.2.2-.3.3-.5.5-.8,0-.2.1-.3.2-.5,0-.2,0-.3,0-.5,0-.2,0-.4,0-.4s-.2.1-.2.4c0,.2,0,.3,0,.5,0,.1,0,.3-.2.4-.1.3-.3.5-.5.8-.3.5-.6,1.1-.9,1.7,0,0,0,0,0,0-.3.2-.7.4-1,.6-.8.4-1.6.8-2.3,1.2.2-1,.5-2,1-3,.3-.6.7-1.1,1-1.6.2-.3.4-.5.6-.8l.3-.4.2-.2c1-.2,1.9-.4,2.8-.7,1-.3,1.9-.8,2.7-1.5,0,0,0,0,0-.1,0,0,0,0-.1,0-.6.5-1.3.8-2,1.1-.2-.3-.2-.7,0-1.1.2-.4.4-.8.7-1.1.3-.3.5-.7.7-1.1.2-.4.3-.9.3-1.3,0,0,0,0,0,0,0,0,0,0,0,0,0,.4-.1.8-.3,1.2-.2.4-.5.7-.8,1-.3.3-.6.7-.7,1.1-.2.4-.2.9,0,1.3-1,.3-2,.6-3,.7.5-2.6,1.3-5.1,2.5-7.4,0-.1,0-.2,0-.2s-.2,0-.2.1c-1.3,2.4-2.2,4.9-2.7,7.5h0c0,.1,0,.2,0,.2h-.1c0,.1-.3.5-.3.5-.2.3-.4.5-.6.8-.4.5-.8,1.1-1.1,1.7-.6,1.1-1,2.3-1.2,3.6-.5.3-1.1.6-1.6.9-1.3.7-2.7,1.1-4.2,1.2.2-.2.4-.4.6-.5.4-.3.8-.6,1.2-.9.4-.3.7-.7,1-1.1.6-.8,1.1-1.6,1.6-2.5.5-.8,1-1.7,1.4-2.6.9-1.7,1.8-3.5,2.6-5.2.2-.4.4-.9.6-1.4.1-.5.2-1,.3-1.5,0-.4,0-.8.1-1.2.3,0,.5,0,.8,0,.4-.1.7-.3.9-.7,0-.1,0-.2,0-.3s-.2,0-.3,0c-.2.3-.5.5-.8.5-.2,0-.5,0-.7,0,0-.4.2-.9.4-1.3,0-.2,0-.3,0-.3s-.2,0-.2.2c-.2.5-.3.9-.4,1.4h0c-.4,0-.8,0-1.1.2-.3.2-.7.3-1,.5-.6.3-1.3.5-2,.5-.2,0-.5,0-.7,0,.1-.3.2-.7.3-1,.2-.8.4-1.6.6-2.4.2,0,.3,0,.4-.1.4-.1.8-.3,1.2-.6.1-.1.2-.2.1-.3s-.2,0-.3,0c-.4.2-.7.4-1.2.5,0,0-.2,0-.3,0,.1-.6.3-1.2.4-1.8,0-.3,0-.5,0-.5s-.2.2-.3.4c-.2.7-.4,1.4-.5,2-.2,0-.4.1-.6.2-.9.2-1.7.4-2.6.6-.4.1-.9.3-1.3.4-.2,0-.4.2-.6.4-.1,0-.2.2-.3.2h-.1c0,.1,0,.3,0,.3-.3.4-.7.9-1,1.3,0,0,0,0-.1,0,0-.3.2-.7.3-1,.4-1.8.7-3.5.9-5.3.7-.4,1.3-.9,2-1.4.1,0,.2-.2.2-.2s-.1,0-.2,0c-.6.4-1.2.8-1.9,1.2,0-.2,0-.3,0-.5,0-.7,0-1.3-.1-1.3s-.2.5-.3,1.3c0,.3,0,.5-.1.8-.6.4-1.2.7-1.8,1-.2.1-.4.2-.6.4,0-.7,0-1.4.2-2.1.2-.8.5-1.5.9-2.3,0,0,0,0,0,0,0,0,0,0,0,0,0,0,0,0,0,0-.4.7-.8,1.5-1,2.2-.3.8-.4,1.6-.3,2.4-.4.3-.7.7-.9,1.1-.3.7-.6,1.5-.7,2.3,0,.4-.2.7-.4,1.1-.2.3-.4.7-.6,1-.4.7-.9,1.3-1.4,1.9s-1,1.2-1.6,1.8c-.3.3-.7.7-1,1v-6c.7-.9,1.4-1.9,2-2.9.5-.7.9-1.5,1.3-2.3.2-.4.3-.8.5-1.2.1-.4.3-.9.3-1.3,0-.3,0-.5,0-.8,0-.2,0-.3-.2-.3h-.2c0,0-.1.1-.2.3s0,.4-.2.7c0,.4-.2.8-.3,1.2-.2.4-.3.8-.5,1.1-.4.7-.8,1.5-1.2,2.1-.5.7-1,1.4-1.5,2v-3.2c.4-.9.9-1.9,1.4-2.8.3-.5.5-1.1.7-1.6.2-.5.4-1.1.5-1.7,0,0,0-.1-.1-.1s-.1,0-.2,0c-.1.6-.3,1.1-.6,1.6-.2.5-.5,1-.8,1.5-.3.6-.7,1.2-1,1.8v-5.9c0-.2-.2-.3-.4-.3s-.3.2-.3.3l-.2,11.6c-.2.2-.4.4-.6.7-.1.1-.3.3-.4.4-.2.2-.3.2-.5.4-.3.2-.5.4-.6.7-.4-.8-.8-1.6-1.1-2.4-.4-1-.8-2.1-1-3.2,0-.1,0-.2,0-.3.1-.3.3-.6.5-.9.8-1.3,1.9-2.5,2.7-3.9.1-.3.1-.5,0-.6s-.2.1-.4.3c-.8,1.3-1.9,2.5-2.8,3.8,0,0-.1.2-.2.3,0-.7-.2-1.5-.2-2.2-.1-1.1-.2-2.3-.2-3.4,0-.1,0-.2,0-.2s0,0,0,.2c0,1.2,0,2.3,0,3.5,0,.9.1,1.9.2,2.8,0,0,0,0,0,.1-.1.4-.2.8-.3,1.1-.2.8-.4,1.5-.7,2.2-.3.7-.6,1.4-1,2l-.2.2-.2.2c-.2.1-.3.3-.4.5,0,0,0,0,0,0-.1-.7-.2-1.3-.3-1.9,0-.5,0-.9,0-1.4,0-.2.1-.4.2-.7,0-.2,0-.5,0-.7,0-1-.2-1.9-.5-2.9-.2-.9-.6-1.8-1-2.7,0,0-.1-.1-.1,0,0,0,0,0,0,.2.4.9.7,1.8.9,2.7.2.9.4,1.8.4,2.8,0,.2,0,.5,0,.7,0,.2-.1.4-.2.7-.1.5-.2,1-.1,1.5,0,.9.3,1.8.3,2.7,0,0,0,.2,0,.3-.1.8,0,1.7.3,2.5.1.4.3.8.4,1.1.1.4.3.7.4,1.1.2.7.4,1.5.4,2.3.1.7.1,1.5,0,2.2-.3,1.5-.6,3.1-1,4.6,0,.2-.1.4-.1.5-.9-.6-1.6-1.3-2.2-2.2-.3-.5-.6-1.1-.6-1.7,0-.6,0-1.3,0-1.9,0-1.3,0-2.6,0-3.9,0-.6.2-1.3.4-1.9.3-.6.5-1.3.6-1.9,0-.1,0-.2-.1-.2,0,0-.2,0-.2.2-.2,1.2-1.1,2.4-1.1,3.8,0,1.3,0,2.6,0,3.9v1c0,.3,0,.7,0,1,0,.7.3,1.4.7,2,.6,1,1.5,1.9,2.5,2.6-.1.3-.2.7-.3,1,0,.2-.1.4-.2.5l-.2.5c-.2.4-.3.8-.4,1.2-.2.8-.3,1.6-.3,2.5,0,.3,0,.5,0,.8-.6-.6-1.2-1.2-1.8-1.8,0-.3,0-.6,0-.9v-1c0-.3,0-.6,0-.9,0-.6,0-1.3,0-1.9-.1-.6-.3-1.3-.6-1.8,0-.1-.1-.2-.2-.1,0,0,0,.2,0,.2.3.6.4,1.2.5,1.8,0,.6,0,1.2,0,1.9,0,.3,0,.6,0,1v1c0,.2,0,.4,0,.6-.2-.1-.4-.3-.5-.4-.4-.3-.8-.5-1.2-.6l-.6-.2c0-1.5-.1-3-.3-4.4-.1-.8-.4-1.6-.7-2.4,0-.2-.2-.3-.3-.5.4-1.4.6-2.9,1.1-4.2.1-.4.2-.7.4-1.1.1-.4.2-.8.3-1.2,0-.3,0-.6,0-.9.2-.2.4-.5.5-.7.1-.3.3-.5.4-.8.2-.5.4-1.1.5-1.7.1-.6.2-1.1.2-1.7,0-.6,0-1.1,0-1.7,0-1-.2-2-.3-3,.2-.3.3-.6.5-.9.4-.6.7-1.2,1-1.9,0,0,0-.1,0-.1,0,0,0,0,0,0,0,0-.1,0-.2,0-.3.6-.7,1.2-1.1,1.8,0,.1-.2.3-.2.4-.1-1-.2-2-.2-3,0,0,0-.2-.1-.2,0,0-.1,0-.1.2,0,1.2,0,2.4.1,3.5-.2.3-.4.6-.5.9,0,.2-.1.3-.2.5s-.1.3-.2.5c-.1.3-.3.6-.5.9-.2.3-.4.5-.6.8-.1.1-.2.2-.4.3,0,0-.1,0-.2,0,0,0,0,0,0,0,0-.3-.2-.7-.4-1l-.5-1c0,0,0-.1,0-.1l1.4-4c0,0,0-.1-.1-.2,0,0-.1,0-.2,0l-1.5,3.7c-.3-.5-.5-1-.6-1.6,0-.1-.1-.2-.2-.2s-.1.1,0,.3c.2.7.4,1.3.7,1.9-.3.6-.6,1.1-1.1,1.5-.4.3-.8.6-1.3.8,0-.7,0-1.3.2-2,0-.5,0-1,0-1s-.3.4-.4.9c-.2.8-.2,1.6-.2,2.4,0,.5,0,1,.1,1.6-.5-.3-1-.7-1.5-1.1-.6-.5-1.2-1.1-1.9-1.6,0,0,0,0-.1,0s0,.1,0,.1c.6.5,1.2,1.1,1.7,1.7.6.6,1.2,1.1,1.9,1.6.1.8.2,1.6.3,2.4.1.8.3,1.6.5,2.4.4,1.6,1,3.1,1.8,4.5.2.4.4.7.6,1.1l.2.3c0,0-.2,0-.3-.1-.3-.2-.5-.4-.7-.6-.5-.5-.9-1-1.3-1.6-.8-1.2-1.4-2.4-1.9-3.8,0,0-.1,0-.2,0s-.2.1-.2.2c.4,1.4,1,2.7,1.7,4,.4.6.8,1.3,1.3,1.8.3.3.5.6.9.8.2.1.4.2.6.3.1,0,.3,0,.4,0,0,0,.2,0,.2,0,.2.6.4,1.2.5,1.9.2,1.2.2,2.5.2,3.8-.6-.3-1.1-.7-1.7-1.1-.4-.2-.7-.5-1.1-.7-.1,0-.2-.1-.4-.2-.6-1.4-1.1-2.9-1.6-4.4-.3-.8-.5-1.5-.8-2.3s-.6-1.5-1-2.2c-.3-.7-.7-1.5-1.2-2.2-.1-.2-.3-.4-.4-.5h-.1c0-.1,0-.2,0-.2h0c0,0,0-.2,0-.2,0-.4,0-.8,0-1.1.2-.8.2-1.6.2-2.5,0-.8-.4-1.6-.4-2.4,0-.1,0-.2-.2-.2s-.1.1-.1.3c0,.8.3,1.6.4,2.4,0,.8,0,1.6-.2,2.4,0,.4-.1.9,0,1.3v.2c0,0,.1.1.2.2,0,0,.1,0,.2.1h0c.1.2.2.4.3.5.4.7.8,1.4,1.1,2.1.3.7.7,1.5.9,2.2s.5,1.5.7,2.3c.4,1.2.8,2.5,1.3,3.7-.7-.4-1.3-.8-1.8-1.4-.6-.6-1.2-1.2-1.7-1.9-.2-.3-.5-.7-.7-1,0-.2-.2-.4-.2-.6,0-.2-.2-.4-.3-.6-.4-.7-.9-1.3-1.6-1.8,0-.2,0-.4,0-.5,0-.4,0-.7,0-1.1-.3-1.3-.9-2.6-1.7-3.7,0-.1-.2-.1-.2-.1s0,.1,0,.3c.8,1.1,1.3,2.3,1.6,3.6,0,.3,0,.6,0,1,0,0,0,.2,0,.3-.6-.5-1.2-.9-1.8-1.3-.2-.2-.4-.3-.5-.2s0,.3.3.5c.6.5,1.3,1,1.9,1.5,0,.1,0,.2,0,.3-.2.6-.4,1.3-.7,1.9-.2.6-.5,1.2-.7,1.9,0,0,0,.2,0,.3v.2c0,.2-.1.3-.1.5,0,0,0,.1,0,.2-.3-.4-.6-.8-.9-1.2-.7-.9-1.4-1.8-2-2.7-.1-.2-.3-.2-.4-.2s0,.2,0,.4c.6,1,1.3,1.9,2,2.8.4.5.8,1.1,1.2,1.6,0,0,0,0,0,0-.2.6-.4,1.3-.6,1.9-.2.6-.4,1.1-.7,1.7-.1-.1-.2-.2-.4-.3-1-1-2.1-1.8-3.4-2.5-.2-.1-.4-.1-.5,0s0,.3.3.4c1.2.7,2.3,1.5,3.2,2.5.5.5,1.1,1.1,1.6,1.6-.6.3-1.2.5-1.8.7-.3,0-.5.3-.5.4s.3.2.6.1c.7-.2,1.4-.5,2.1-.8.3.3.5.6.7.9.2.3.4.5.5.8l.5.9c.3.6.7,1.2,1,1.8.6,1.2,1.2,2.5,1.7,3.7.1.3.3.7.4,1-.4-.3-.9-.7-1.4-.9-1.1-.6-2.3-.9-3.5-1-.4,0-.9,0-1.3,0,0-.5,0-1.1-.1-1.6,0-.9-.3-1.8-.6-2.6l-.2-.3c0,0-.2-.2-.2-.3-.2-.2-.3-.3-.5-.5-.3-.3-.7-.5-1.1-.7-.4-.2-.7-.4-1.1-.6-.4-.2-.7-.4-1-.7-.2-.2-.2-.4-.3-.4,0,0,0,0,0,.2,0,.1,0,.3.1.4.3.3.6.6,1,.8.4.2.7.4,1.1.7.4.2.7.5,1,.7.2.1.3.3.4.4,0,0,.1.1.2.2v.3c.5.8.6,1.6.7,2.4,0,.5,0,1,0,1.5-.5,0-1.1,0-1.6-.1-1.2-.1-2.3-.3-3.5-.5,0,0-.2,0-.2,0,0,0,0,.2.1.2,1.1.3,2.3.5,3.5.6.6,0,1.1.1,1.7.2v.6c0,.9,0,1.8.2,2.6.2.8.3,1.7.4,2.5.1.7.3,1.4.5,2-.7-.3-1.3-.6-2.1-.7-.3,0-.6-.1-1-.2,0-.2,0-.4-.1-.6-.2-.9-.3-1.8-.2-2.8,0-.2,0-.3-.1-.3s-.1.1-.2.3c0,1,0,1.9.2,2.8,0,.2,0,.3,0,.5h-.8c-.7-.2-1.4-.4-2-.7-.2-.1-.4-.2-.4-.1s0,.2.3.4c.7.3,1.4.5,2.1.6.3,0,.6,0,.9.1.1.7.3,1.3.5,2l.4,1.4c0,.2.1.4.2.7,0,.2,0,.4,0,.7,0,.9-.2,1.8-.4,2.8,0,0,0,0,0,.1-.7-.3-1.4-.6-2.1-.9-.7-.4-1.4-.8-2-1.4-.2-.2-.4-.3-.4-.3s0,.3.2.5c.6.6,1.3,1.1,2,1.5.4.2.8.4,1.2.6-.5.3-.9.7-1.3,1-.3.2-.6.3-.9.3-.3,0-.7,0-1,0,0,0,0,0,0,.1s0,.1,0,.2c.3.1.7.2,1.1.2.4,0,.8-.1,1.1-.3.7-.3,1.2-.7,1.8-1.1h0c0,0,.1,0,.2,0-.2.7-.3,1.5-.5,2.2,0,.2-.1.4-.2.7,0,.2-.2.4-.3.7-.1.5-.1,1,0,1.5.2.9.4,1.9.7,2.8l.4,1.3c0,.3.2.6.3.9,0,0,0,0-.1,0-.6-.1-1.3-.4-1.8-.7-.6-.3-1.2-.7-1.7-1.1-.2-.1-.4-.2-.4-.2s0,.2.2.4c.5.4,1.1.8,1.7,1.2.6.4,1.3.6,1.9.8.6.2,1.2.4,1.8.8.6.4,1.1.7,1.7,1.1s1.1.8,1.7,1.1,1.2.7,1.8,1c.5.3,1,.6,1.6.8-1,1.1-2.3,1.9-3.7,2.1-.3,0-.7,0-1,0-.3-.7-.6-1.3-.9-2v-.3c-.1,0-.2-.2-.3-.3l-.2-.3c0,0-.2-.1-.3-.2-.3-.2-.7-.4-1.1-.6-.1,0-.2,0-.4-.1-.2-.4-.5-.8-.8-1.2-.4-.5-.9-.8-1.4-1.1-.5-.2-1-.5-1.4-.9-.3-.2-.5-.4-.6-.4s0,.4.3.7c.4.4.9.7,1.5,1,.5.3.9.6,1.2,1,.2.2.3.4.5.7-.4-.1-.8-.2-1.3-.3-.8-.2-1.6-.2-2.4-.3-.1,0-.3,0-.3.1s.1.1.2.2c.8,0,1.6.2,2.4.3.5.1,1.1.2,1.6.4.3.6.4,1.2.5,1.9,0,.3,0,.7,0,1-.2-.1-.4-.3-.6-.4,0,0-.1,0-.2,0,0,0,0,.1,0,.2.2.2.5.4.8.6,0,.7,0,1.3,0,2,0,.6,0,1.2,0,1.8,0,.6.1,1.1.3,1.7-.6-.6-1.2-1.3-1.7-1.9-.4-.5-.7-1-1-1.5-.3-.5-.5-1.1-.6-1.7,0,0,0,0-.2,0s-.1,0-.1.1c0,.6.3,1.3.6,1.8.3.6.6,1.1.9,1.7.5.7,1,1.4,1.5,2-.5-.2-.9-.5-1.4-.8-.5-.3-1.1-.6-1.6-.8-.6-.2-1.2-.3-1.8-.3-.2,0-.4.1-.4.2s.2.1.4,0c1.2,0,2.3.4,3.2,1.2.5.3,1,.7,1.5.9.3.2.6.3,1,.4,0,0,0,0,0,0h0s0,0,0,0c0,.2.1.3.2.5.3.5.6,1,.9,1.5.4.6.9,1.1,1.3,1.7-.7,0-1.5-.1-2.2-.3-.7-.1-1.4-.4-2-.8-.6-.5-1.3-.9-2-1.2-.7-.3-1.4-.6-2.2-.7-.3,0-.5,0-.5.1s.2.2.4.3c.7.2,1.4.4,2.1.8.7.3,1.3.7,1.9,1.1.3.3.7.5,1.1.6.4.1.7.3,1.1.3.8.2,1.5.3,2.3.3.2,0,.4,0,.6,0,.1.1.2.3.4.4.7.8,1.4,1.5,2,2.3-.5.6-1,1.1-1.6,1.6-.4.3-.9.6-1.4.8-.4-.2-.7-.5-1-.8-.3-.3-.6-.5-1-.7-.3-.2-.7-.4-1.1-.5-.7-.2-1.5-.4-2.3-.4-.4,0-.7-.1-1.1-.2-.2,0-.4-.1-.5-.2-.1,0-.3-.2-.4-.3-.4-.6-.8-1.3-1.1-2,0-.1-.2-.2-.2-.1s0,.2,0,.3c.4.7.7,1.3,1.1,2,.1.2.3.3.5.4.2,0,.4.1.5.2.4.1.8.2,1.1.3.7,0,1.5.3,2.2.5.7.2,1.3.6,1.8,1.1l.4.4c0,.1.2.2.3.3h-.1c-.8.2-1.6.2-2.4.3h-2.4c0,0-.1.1-.1.2,0,0,0,.1.1.1h2.4c.8,0,1.6,0,2.5,0,.2,0,.3,0,.5-.1h.1c.2.2.3.3.5.4.7.4,1.4.6,2.2.9,1.5.4,3,.7,4.5,1.1h0c.1,0,.2.2.3.3,0,0-.1,0-.2.1-.6.5-1.3.9-1.9,1.4-.6.5-1.3.8-2,1.2-.2,0-.3.2-.5.2-.2,0-.4.1-.5.2,0,0,0,0,0,0-.4-.4-.8-.7-1.3-1-.5-.4-1-.7-1.5-1-.5-.3-1.1-.6-1.6-.9-.2,0-.4,0-.4,0s0,.2.3.3c.5.2,1,.5,1.5.9.5.3.9.7,1.4,1.1.3.2.5.5.8.7-.1,0-.2,0-.3,0-.8.3-1.5.8-2,1.5-.5.7-.8,1.4-1.2,2.1-.3.7-.9,1.2-1.6,1.5-.2,0-.5,0-.5.2s.2.2.5,0c.4,0,.8-.3,1.1-.6.3-.3.5-.6.8-1,.4-.7.8-1.4,1.3-2,.4-.6,1-1.1,1.7-1.3.2,0,.4,0,.5,0,0,0,.1,0,.2,0,.4.4.8.8,1.2,1.2.2.2.4.4.6.7l.3.3c.1.1.2.2.3.4.4.5.9.9,1.3,1.3,1,.8,2.1,1.4,3.3,1.7.6.2,1.2.3,1.8.4.3,0,.6,0,.9,0s.7,0,1,0c1.2-.1,2.4-.6,3.5-1.2,2.9,2.6,5.8,5.3,8.6,7.9l-.3,13.1h5.8l-.2-12.7c.5-.6,1.1-1.2,1.6-1.8,1.4-1.5,2.9-2.8,4.6-3.9,1.1-.8,2.3-1.4,3.5-2,.5.5,1,1,1.5,1.5.7.7,1.5,1.4,2.4,1.9.9.6,1.8,1,2.8,1.2.2,0,.3,0,.4-.1s0-.2-.3-.3c-.9-.3-1.8-.7-2.5-1.3-.8-.6-1.5-1.3-2.1-2-.4-.4-.8-.9-1.1-1.3.3-.1.6-.3.8-.4.5-.2.9-.4,1.4-.6.2,0,.5-.2.7-.3l.6-.2c.6.4,1.3.7,2.1,1,.8.3,1.6.4,2.3.5,1.6.2,3.2.2,4.7,0,.1,0,.2-.2.2-.3v-.2c0-.1-.1-.3-.3-.3-.7,0-1.3,0-2,0,0-.7.2-1.4.6-2,.5-.7,1.1-1.2,1.7-1.7,1.3-1,2.9-1.6,4.3-2.7,1.2-.9,2.2-2.1,2.9-3.5.5,0,1.1,0,1.6.1.2,0,.3,0,.4,0h0c0-.1,0-.2-.3-.3-.5-.1-1-.2-1.4-.2,0,0,0-.1,0-.2.2-.5.5-1,.7-1.6.2,0,.4,0,.6,0,.2,0,.3,0,.3-.2s-.1-.2-.3-.2c-.2,0-.3,0-.5,0,.3-1,.6-1.9.8-2.9,0-.3,0-.5,0-.5h0c0,0-.2.2-.3.5-.2,1-.5,1.9-.9,2.9-.6-.2-1.2-.6-1.8-.8-.9-.4-2-.6-3-.5-.5,0-1,.2-1.5.4-.4.2-.9.5-1.3.8-.1,0-.3.2-.4.3,0,0,0-.1.1-.2,1.2-1.7,2.3-3.4,3.5-5.2l.4-.6c.4,0,.8-.2,1.2-.3,1.2-.3,2.4-.8,3.6-1.4,0,0,.1-.2.1-.2,0,0-.2,0-.2,0-1.1.5-2.3.9-3.6,1.2-.3,0-.5.1-.8.2.9-1.4,1.8-2.7,2.7-4.1.4-.6.6-1.1.5-1.2h-.1c-.1-.2-.5.2-1,.8-1.1,1.6-2.2,3.1-3.3,4.7-.6.1-1.2.2-1.8.2-1.3,0-2.5.1-3.8.1-.6,0-1.1,0-1.7,0,.1,0,.2-.2.4-.2l2.2-1.5,2.1-1.6c.7-.5,1.3-1.2,2-1.7s1.3-1.2,1.9-1.8l.9-.9c.3-.3.6-.7.9-1,.6-.7,1.2-1.3,1.7-2l1.6-2.1c.2-.2.3-.5.2-.5s-.3,0-.5.3l-1.7,2c-.6.7-1.2,1.3-1.8,1.9-.3.3-.6.6-.9.9l-1,.9c-.6.6-1.3,1.2-1.9,1.7s-1.3,1.1-2,1.6l-2.1,1.5-.5.3c0-1.4.5-2.8,1.1-4,.4-.7.9-1.4,1.5-2.1.6-.6,1.2-1.2,1.9-1.8.7-.6,1.3-1.3,1.8-2,.5-.7,1-1.5,1.4-2.3.7-1.7,1-3.4,1.1-5.2,0-.3,0-.6-.1-.6h0c0,0-.1.2-.2.5,0,1.7-.5,3.5-1.1,5.1-.7,1.6-1.8,3-3.1,4.1-.6.6-1.3,1.2-1.9,1.8-1.9,1.9-2.9,4.4-3,7l-.9.5c-.7.4-1.5.8-2.3,1.2-1,.5-2,1-3.1,1.5,0-1.2,0-2.4.2-3.6,0-.6.2-1.1.4-1.6.8-.6,1.6-1.3,2.2-2.1,1.2-1.5,2.2-3.1,2.9-4.9.5-1.4.9-2.8,1.2-4.2,1.2-.3,2.3-.8,3.2-1.6.2-.2.5-.4.7-.6l.7-.6c.5-.4.9-.9,1.2-1.4.2-.3.3-.6.4-.9,0-.3.1-.6,0-.9,0-.6-.1-1.2-.2-1.8,0-.3-.1-.6-.2-.9,0-.2,0-.3,0-.4,0-.1,0-.2-.1-.3,0-.1.2-.2.3-.3,1.1,0,2.2,0,3.3-.4.4-.1.8-.2,1.1-.4-.1.5-.2,1.1-.2,1.6.1.9.3,1.8.7,2.7.1.4.2.8.1,1.2,0,.4-.1.9-.2,1.3-.4.8-.8,1.6-1.3,2.3-.5.8-.9,1.6-1.3,2.4-.1.2-.2.4-.3.6l-.2.3c0,.1-.1.2-.2.3-.2.4-.3.9-.4,1.4-.2,1,0,1.9.3,2.8l.6-.3c-.3-.8-.4-1.6-.3-2.4,0-.4.1-.8.3-1.2,0,0,0-.2.1-.3l.2-.3c.1-.2.2-.4.3-.6.4-.8.8-1.6,1.2-2.4.5-.8.9-1.6,1.3-2.4.1-.4.2-.9.2-1.4,0-.1,0-.2,0-.4,0-.1,0-.2,0-.4,0-.2,0-.5-.2-.7-.4-.8-.6-1.7-.7-2.5,0-.6,0-1.2.2-1.8.6-.2,1.2-.5,1.7-.8,0,0,0,0,0-.1,0,0,0,0-.1,0h0ZM99.9,45.3c.1,0,.2,0,.3-.2.2-.1.3-.2.4-.4.3-.3.5-.6.7-.9.2-.3.4-.6.5-1,0-.2.1-.3.2-.5,0-.2.1-.3.2-.5,0,0,0-.2.1-.3,0,.8.1,1.6.2,2.3,0,.5,0,1.1,0,1.6,0,.5-.1,1.1-.2,1.6-.1.5-.3,1-.5,1.5-.1.2-.2.5-.3.7,0,0-.1.2-.2.3,0-.2-.2-.4-.3-.6-.4-.6-.7-1.3-1-2-.1-.6-.2-1.1-.2-1.7,0,0,.1,0,.2,0h0ZM97,52.1c-.2-.8-.4-1.5-.5-2.3-.1-.8-.2-1.6-.3-2.4-.1-.7-.2-1.3-.3-2,.6-.2,1.2-.6,1.7-1,.4-.4.7-.8,1-1.3l.3.7c.2.3.3.7.3,1,.1.7,0,1.5.2,2.3.3.7.6,1.5,1,2.1.3.6.5,1.4.4,2.1,0,.4-.1.7-.3,1.1-.1.4-.3.7-.4,1.1-.4,1.2-.7,2.4-1,3.6-.1-.3-.3-.5-.4-.8-.8-1.4-1.4-2.8-1.8-4.3h0ZM131.7,92.3c.7-.8,1.4-1.5,2.2-2.3s1.5-1.5,2.3-2.1,1.6-1.3,2.4-2c1.6-1.3,3.3-2.7,4.8-4.1.8-.7,1.5-1.5,2.2-2.3.3-.3.6-.7.8-1.1,0,.5.2.9.4,1.3,0,.2.2.3.3.4.1.1.2.2.3.3.2.2.4.4.5.6.2.2.3.5.5.7.1.2.3.4.5.5,0,0,0,0,0,.1-.2.6-.4,1.2-.7,1.7-.3.6-.6,1.1-.9,1.7-.6,1.1-1.3,2.2-2,3.2-.4.5-.7,1-1.2,1.5,0,0,0,0-.1-.1-.2-.2-.3-.4-.4-.7,0,0,0-.2-.2-.2,0,0-.1,0-.1.2,0,.3.2.6.4.9,0,0,0,0,.1.1-.3.4-.7.7-1.1,1-.4.3-1,.7-1.5,1.1l-1.5,1.1c0,0,0,0-.2.1,0-.2,0-.3,0-.5,0-.9,0-1.8,0-2.7,1.7-1.9,3.4-3.9,5-5.9,0-.1.1-.2,0-.3s-.2,0-.3.1c-1.6,1.8-3.2,3.5-4.9,5.2,0-.7,0-1.4-.2-2.1,0-.3-.1-.6-.2-.6s-.1.3,0,.6c0,.8,0,1.6.1,2.4-.6.6-1.2,1.2-1.9,1.8,0,0,0,0,0,0,0-1,0-2,0-3,0-.3,0-.5-.1-.5s-.1.2-.2.5c0,1.1-.1,2.2-.2,3.3-1.1,1-2.2,1.9-3.4,2.8-.7.5-1.4.9-2.1,1.3-.3.2-.7.3-1.1.3-.2,0-.5,0-.7,0h0c0,0,0-.2,0-.2,0-.2,0-.5,0-.7,0-.5.2-.9.4-1.4,0-.1.1-.2.2-.4,0,0,.1-.2.1-.2h0c.4-.7.9-1.3,1.4-1.9h0ZM104,132.3l-1.3-1.1c-.5-.4-.9-.7-1.3-1.1-.8-.8-1.7-1.6-2.5-2.4-.6-.6-1.2-1.2-1.8-1.8.9-.6,1.8-1.1,2.8-1.6.7-.3,1.4-.4,2.1-.5.7,0,1.4.2,2.1.5.3.2.6.4.9.6,0,.1-.1.3-.2.4-.3.5-.6.8-1.1,1.2-.2.1-.5.3-.7.3-.1,0-.2,0-.4.1h-.4c-.1,0-.2.2-.2.3,0,.1,0,.2.2.2,0,0,0,0,0,0h.5c.2,0,.3-.1.4-.2.3,0,.6-.2.9-.4.5-.3,1-.8,1.3-1.3,0-.1.1-.2.2-.3.1,0,.2.2.3.3.3.2.5.5.8.8.3.3.5.6.8.9.3.4.7.8,1,1.2-.8.8-1.4,1.6-2.1,2.4-.6.6-1.2,1.2-1.8,1.7-.2-.2-.3-.3-.5-.4h0ZM108.4,126.6c-.3-.3-.6-.6-.8-.9-.3-.3-.6-.6-.9-.8-.2-.2-.4-.3-.6-.5.3-.6.5-1.3.7-1.9.1-.5.3-1,.6-1.5.1-.2.3-.4.5-.6.2-.2.4-.3.6-.5.9-.5,1.9-.7,2.9-.6.7.4,1.4.7,2.1,1l-.3,12-1.7-2.1c-1-1.2-2-2.5-3.1-3.7h0ZM102.3,105.9c-.2-.8-.4-1.5-.8-2.3-.4-.8-1-1.6-1.8-2.1,0,0-.1,0-.1,0s0,.1,0,.2c.7.5,1.2,1.2,1.5,2,.2.5.4,1.1.5,1.6-.7-.5-1.5-.9-2.3-1.2-.7-.3-1.3-.5-2-.7-.2,0-.4,0-.6,0-.2,0-.4,0-.6,0-.4,0-.8.2-1.2.4,0,0,0,0-.1,0-.3-.6-.6-1.3-.8-1.9-.3-.8-.5-1.6-.7-2.4-.1-.4-.2-.8-.2-1.2s-.1-.9-.2-1.3c-.1-.6-.3-1.3-.5-1.9.8.7,1.7,1.3,2.5,1.9.3.2.5.3.8.4.3.1.6.2.9.3.6.2,1.1.4,1.7.7,1.1.5,2.3.8,3.6.9.2.3.5.5.8.8.5.5,1.1,1,1.7,1.5.6.5,1.3.8,2,1.1h0c0-.1.2.6.2.6l.6,2.3c.2.8.4,1.6.7,2.4.1.4.2.7.4,1.1-.6-.3-1.1-.6-1.6-.9-1.2-.7-2.4-1.3-3.5-2-.2-.1-.4-.2-.6-.3h0ZM90.3,89.8c-.4-1.7-.8-3.3-1.4-5,0-.2-.1-.3-.2-.5.3.4.6.8.9,1.3l.3.5c0,0,.1.2.2.2,0,0,.1.1.2.2.3.3.6.5.8.7,1.1.9,2.2,1.9,3.2,2.9.2.2.5.5.7.7h0c-1.5,0-3,0-4.6-.2l-.2-.8h0ZM95.9,91.7c.4.5.9,1,1.3,1.5l.6.9.6.9c.4.6.8,1.2,1.2,1.8.5.6.9,1.3,1.5,1.9-.9-.1-1.9-.4-2.7-.7-.6-.2-1.1-.4-1.7-.6-.3,0-.6-.2-.8-.3-.3-.1-.5-.2-.8-.4-1-.6-2-1.3-2.9-2.1h0c-.1-.5-.3-.9-.5-1.3,0-.2-.2-.4-.3-.6,0,0-.1-.2-.2-.3,0,0,0-.1,0-.1h0c-.1-.4-.2-.7-.3-1,1.8.2,3.5.3,5.2.5h0ZM101.6,75.2c0-.3,0-.6,0-.9,0,.1.2.3.3.4,1.1,1.5,2.4,2.7,3.4,4.1l.7,1c0,0,0,.2,0,.3.1.5,0,1.1-.2,1.5v.2c-.2,0-.2.2-.2.2,0,.2-.1.3-.1.5,0,.3,0,.7,0,1,.1,1.2.4,2.5,1,3.6.3.6.6,1.1.9,1.6.3.4.4,1,.4,1.5,0,1.2,0,2.3-.2,3.5-.1.9-.2,1.8-.4,2.6-.1-.1-.2-.2-.3-.4-.1-.2-.3-.3-.4-.5,0,0,0,0,0,0l-.6-2c-.2-.8-.4-1.5-.6-2.3-.2-.8-.4-1.6-.6-2.3-.9-3.1-1.8-6.1-2.4-9.2-.2-.8-.3-1.5-.4-2.3,0-.2,0-.4,0-.5v-.6c0-.4,0-.8,0-1.2h0ZM92.8,65.4c.8.2,1.5.6,2.2,1.2,1.3,1.1,2.6,2.4,3.7,3.8.5.7,1.1,1.3,1.6,2,0,.9,0,1.9.1,2.8v1.8s0,.1,0,.1c-1-1.5-2-3-3.1-4.5-.6-1-1.3-1.9-2.1-2.8-.4-.4-.8-.9-1.2-1.3s-.8-.8-1.2-1.2c-.6-.6-1.1-1.3-1.6-1.9.5-.1,1.1-.1,1.6,0h0ZM108.7,74.7l3,4.1c.9,1.2,1.8,2.4,2.7,3.7v7.2c-.8-.9-1.4-1.7-2.1-2.6-1.1-1.4-2.1-2.9-3.1-4.3l-1.5-2.2c-.5-.7-.9-1.3-1.4-2,0,0,0-.2,0-.2-.1-.5-.2-1.1-.1-1.7,0-.1,0-.2.1-.3,0,0,0,0,.1-.1,0,0,.1,0,.2-.1.2-.2.5-.4.7-.6.4-.4.8-.9,1.1-1.3l.4.5h0ZM116.5,64.3v-4.4c.5-.5,1-1.2,1.3-1.9.2-.4.4-.7.5-1.1,0-.2.1-.4.2-.6s.1-.4.2-.5c.2-.3.4-.6.7-.8.2-.2.4-.3.6-.5h0s0,0,0,0l.2-.2c.7-.5,1.3-1,1.8-1.7,0,0,0-.1,0-.2,0,0-.1,0-.2,0-.5.6-1.1,1.1-1.7,1.5,0-.7.1-1.3.3-2,.1-.4.3-.8.5-1.2.2-.4.4-.7.7-1.1.7-.9,1.4-1.9,2.1-2.8,0,.8-.1,1.6,0,2.4,0,.5.1,1,.2,1.6l.3,1.5.2,1.2c-.4.5-.9,1-1.3,1.5-1,1.3-1.7,2.8-2.3,4.3-.3.8-.5,1.5-.8,2.3s-.5,1.5-.8,2.2c-.8,2-1.7,3.9-2.7,5.7v-5.3c0,0,0,0,0,0ZM124.8,45.5c.1-.2.2-.3.4-.5h0c.7,0,1.5.1,2.2.1.7,0,1.4,0,2.1,0,.2,0,.5,0,.7,0,0,.2-.2.4-.3.5-.2.3-.4.7-.6,1l-.7,1c-.9,1.3-1.8,2.6-2.7,3.9-.4.5-.8,1-1.1,1.5l-.2-.7-.3-1.5c0-.5-.2-1-.2-1.5,0-1,0-2,.1-3,0-.1,0-.2,0-.3.1-.2.3-.4.4-.5h0ZM124.7,55.5c.2,1,.3,2,.4,3,0,.5,0,1,.1,1.5s0,1,0,1.5c.1,4.1-.4,8.1-1.6,12l-.9,2.9c0,.2,0,.3-.1.4,0-.1-.2-.2-.3-.3-.3-.4-.6-.8-.8-1.2,0-.2-.2-.4-.2-.6,0-.2,0-.5,0-.7v-1.5c-.1-.2-.2-.5-.2-.7.9-2.2,1.6-4.4,2.1-6.7,0-.2,0-.4,0-.4s-.2.1-.2.4c-.5,2-1.1,4-1.9,6-.1-1.5-.2-3-.3-4.5,0,0,0-.1-.1-.2,0,0-.1,0-.2.1,0,0,0,0,0,0,0,1.8,0,3.6.2,5.4,0,.2-.2.4-.3.6-.3.6-.6,1.2-1,1.7-.4.6-.7,1.2-.8,1.9,0,.7,0,1.4,0,2,0,.7,0,1.3,0,2,0,1,0,1.9,0,2.9-.7.5-1.3,1.1-1.9,1.7l-.2-12.2c1.5-2.6,2.8-5.3,3.8-8.2.3-.7.5-1.5.7-2.3s.4-1.5.7-2.2c.4-1.5,1.1-2.8,2-4.1.2-.3.5-.6.8-1v.7c.1,0,.1,0,.1,0ZM118.1,120.9c-.1,0-.2,0-.3,0l-.2-6.8c.4-.4.8-.8,1.2-1.1.9-.6,1.8-1.1,2.7-1.6,0,.7,0,1.4.1,2.1-.9.5-1.7,1.2-2.3,2.1-1,1.6-1.4,3.5-1.2,5.4h0ZM108.5,90.3c0-.3,0-.6-.2-1,0-.2-.1-.3-.2-.5,0-.2-.2-.3-.3-.5-.3-.5-.6-1-.9-1.5-.5-1-.9-2.2-1-3.3,0-.5,0-1.1.3-1.5.2-.3.3-.7.3-1h0c0,0,1.6,2.3,1.6,2.3,1,1.5,2,3,3.1,4.4,1,1.3,1.9,2.7,3,4v3.4c0,0-.2,6.3-.2,6.3-1-.7-2-1.4-3-2.1l-2-1.4c-.3-.2-.7-.5-1-.7h0c.1-1.1.3-2.2.4-3.3.2-1.2.2-2.5.1-3.7h0ZM121.3,105.3c-1.3,1-2.5,2-3.6,3.2-.1.1-.2.3-.4.4l-.2-6.1,2-1.8c.7-.6,1.4-1.2,2.1-1.8,0,2,0,4.1,0,6.1h0ZM118.8,100.5l-1.7,1.4v-2c0,0,0-1.4,0-1.4.1-.2.2-.4.3-.6.5-1,1.1-2,1.6-3,.3-.6.6-1.2,1-1.8.2.2.3.5.5.7.3.4.6.7,1,1.1,0,1,0,2.1,0,3.1,0,.2,0,.3,0,.5-.9.6-1.7,1.3-2.5,2h0ZM121.4,94.1c-.4-.4-.8-.9-1.2-1.5,0-.1.2-.3.3-.4.3-.5.7-.9,1-1.3,0,1.1,0,2.1-.1,3.2h0ZM119.7,91.1c0-.4-.1-.7-.2-1.1,0-.6,0-1.3,0-2,0-1.3,0-2.5-.2-3.8.9-.8,1.8-1.5,2.8-2.2,0,1.2-.2,2.5-.3,3.7,0,1.1-.1,2.1-.2,3.2-.7.6-1.4,1.4-2,2.1h0ZM118.9,88.1c0,1.2,0,2.5.3,3.7-.6.8-1.1,1.7-1.5,2.5-.2.4-.5.9-.7,1.3l-.2-8.8c.6-.7,1.3-1.4,1.9-2,0,1.1,0,2.2,0,3.3h0ZM121.4,110c-1.2.5-2.3,1.2-3.4,1.9-.2.1-.3.2-.5.4v-.8c.3-.7.8-1.4,1.3-2,.8-.9,1.6-1.7,2.6-2.5,0,1,0,2,0,3.1h0ZM122.7,98.2c.2-.1.5-.3.8-.4.2,0,.3-.1.5-.2s.3-.1.5-.2c.3-.1.6-.2.9-.4-.1,1.5,0,3,.2,4.5-.9.9-1.8,1.7-2.8,2.5,0-2,0-3.9,0-5.9h0ZM121.9,80.7c-.9.6-1.8,1.3-2.7,2,0-.8,0-1.6,0-2.5,0-.7,0-1.3,0-2,0-.6-.1-1.3,0-1.9.1-.6.4-1.2.7-1.7.3-.5.6-1.1.9-1.6v1.3c0,.3,0,.5.1.8,0,.3.1.5.2.8.4.8.9,1.5,1.4,2.1,0,0,0,.2,0,.3,0,.5-.1,1-.2,1.5,0,.3,0,.6,0,.8l-.3.2h0ZM104.4,95.4l.9,3.4.8,3.2c-.5-.2-1.1-.5-1.5-.8-.6-.4-1.1-.9-1.6-1.4-1-1-1.9-2.1-2.8-3.3-.4-.6-.8-1.2-1.2-1.8l-.6-.9c-.2-.3-.4-.6-.7-.9-.3-.4-.6-.8-.9-1.1.7,0,1.4.1,2,.2.4,0,.8.1,1.2.2.4,0,.7.2,1,.4.7.4,1.3.9,1.9,1.4.5.4,1,.9,1.5,1.4h0ZM89.6,91.3c.1.4.2.9.4,1.3v.2c0,0,.2.1.2.1,0,0,0,.2.1.3,0,0,0,.1,0,.2-.4-.3-.9-.4-1.4-.5-.1,0-.2,0-.2.1s0,.2.2.2c.6.1,1.1.4,1.6.7,0,0,0,0,0,0,.1.3.3.7.4,1.1.3.8.5,1.6.6,2.4,0,.3.1.6.1.9-.7-.4-1.3-.9-2-1.4-.9-.6-1.7-1.4-2.5-2.1-.6-.9-.9-1.9-.8-3,0-.4,0-.9,0-1.3h.2c.8.3,1.6.5,2.4.6.2,0,.4,0,.6,0h0c0,.1,0,.1,0,.1ZM109.6,107.4c-.3-.7-.5-1.5-.7-2.2l-.6-2.3-1.3-4.6v-.2c0,0,.2.2.3.3.3.3.7.5,1,.8l2,1.5c1.3.9,2.6,1.8,3.7,2.8l-.2,9.5c-.7-.5-1.4-1.1-2-1.7-1-1.1-1.7-2.4-2.1-3.8h0ZM117.9,125.5v-2.4c1.3-.2,2.6-.5,3.9-.8,0,0,0,.2,0,.3v.4s-.1.4-.1.4v.7c-.2.2-.3.4-.3.7,0,.2-.1.4-.2.7-.2.4-.4.9-.6,1.3l-.4.6c-.1.2-.3.4-.4.6-.5.7-1.1,1.4-1.8,2v-4.4c0,0,0,0,0,0ZM119.6,120.7c-.2-1.5.2-3.1.9-4.4.3-.5.7-1,1.2-1.3,0,.6,0,1.2.1,1.7,0,1.2.1,2.4.1,3.6-.8.2-1.6.3-2.4.4h0ZM123,109.2c0-1.2-.1-2.4-.2-3.5.2-.2.4-.3.6-.5,1.7-1.4,3.2-2.9,4.5-4.6.3-.4.6-.9.9-1.3l.4-.7.2-.3c.1,0,.3,0,.4,0,.3,0,.5,0,.8,0,.5-.1.9-.3,1.3-.5.4-.2.8-.4,1.1-.7h0c.7.3,1.4.4,2.1.4.4,0,.8,0,1.2-.2,0,.3-.2.7-.3,1-.1.3-.3.7-.5.9-.1.1-.2.3-.3.4l-.2.2-.2.2-.4.4-.4.4c-.3.2-.6.5-.9.7-1.2.9-2.4,1.9-3.6,2.9-1.2,1-2.3,2.1-3.5,2.9-1,.7-2,1.3-3.1,1.8h0ZM134.4,96.1c.9-.7,1.7-1.5,2.5-2.3,0,0,0,0,0,0,0,.7-.1,1.3-.2,2-.5.2-1,.3-1.5.3-.3,0-.5,0-.8,0h0ZM137.3,94c0-.2,0-.4,0-.6.2-.2.4-.4.6-.6.5-.5.9-1,1.4-1.5,0,.8,0,1.5,0,2.3,0,.3,0,.6,0,.8-.7.5-1.4.9-2.1,1.3,0-.6.1-1.2.1-1.8h0ZM126.5,96.6c.7-.3,1.3-.6,1.9-1l.4-.2c0,.2-.1.4-.1.6,0,.3,0,.6,0,.9,0,0,0,.2,0,.2v.2s0,0,0,.1l-.3.6-.4.6c-.3.4-.6.8-.9,1.2-.2.2-.4.4-.5.7-.2-1.3-.2-2.6-.1-3.9,0,0,0,0,.1,0h0ZM128.2,85.7c.1,1.3,0,2.7-.4,4-.1.3-.2.6-.4.9s-.3.6-.5.9c-.3.6-.6,1.3-.8,2-.4,1.1-.6,2.2-.7,3.3-.3.1-.7.3-1,.4-.2,0-.3.1-.5.2s-.3,0-.5.2c-.2,0-.4.2-.6.3,0-2.7,0-5.5.2-8.2.3-.3.7-.5,1-.8l1.3-1c.9-.7,1.8-1.3,2.7-2,0,0,.2-.1.2-.2,0,0,0,0,0,0h0ZM129.7,76.8c0,0,.2-.2.3-.2h0c.8-.3,1.7-.6,2.7-.7,1,0,1.9,0,2.9,0,0,0,.2,0,.3,0-.4.8-.9,1.5-1.4,2.2-.7.9-1.4,1.7-2.1,2.5-1.1,1.1-2.4,2.2-3.6,3.2,0-.8-.1-1.6-.2-2.4-.1-1.3-.1-2.5,0-3.8.4-.3.8-.6,1.2-.9h0ZM126.1,79.3c.6-.4,1.2-.8,1.8-1.2,0,1.1,0,2.3,0,3.4,0,.9,0,1.9.1,2.8-.3.2-.5.4-.8.6-.9.6-1.8,1.3-2.7,1.9l-1.4,1c0,0-.2.1-.2.2,0-.7,0-1.4,0-2.1,0-1.5.2-3.1.2-4.6.4-.3.7-.5,1.1-.8.6-.4,1.2-.8,1.8-1.2h0ZM131.2,59.8c.6-.4,1.2-.7,1.9-1.1h0s0,0,0,0c.9-.5,1.8-.9,2.6-1.4.2,0,.3-.2.5-.3-.4.9-.8,1.8-1.2,2.7-.3.6-.6,1.1-1,1.5-.5.4-1,.8-1.5,1.1-.3.2-.6.3-.8.5-.3.2-.5.4-.8.6-.5.4-.9.9-1.4,1.3-.4.5-.9,1-1.2,1.5-.2.3-.4.5-.5.8-.2.3-.3.6-.3,1-.3,1.3-.3,2.6-.5,3.8,0,.6-.2,1.2-.5,1.8-.2.6-.5,1.2-.8,1.7-.3.6-.5,1.2-.6,1.9-.1.6-.2,1.1-.2,1.7-.4.2-.7.4-1.1.7-.1,0-.2.2-.4.2,0-.5,0-1,.1-1.5,0-.2,0-.5,0-.7s.1-.5.2-.7l.9-3c1.1-3.9,1.6-7.9,1.4-12,0-.2,0-.4.1-.6,1.8,0,3.5-.6,5-1.4h0ZM131.8,45.1c.8,0,1.5-.3,2.1-.6.3-.2.6-.4.9-.5.3-.1.7-.2,1-.2,0,.4-.1.8-.1,1.1,0,.5-.1.9-.3,1.4-.2.4-.4.9-.6,1.3-.9,1.7-1.8,3.4-2.7,5.1-.5.8-1,1.7-1.5,2.5-.5.8-1,1.6-1.6,2.4-.3.4-.6.7-1,1-.4.3-.7.6-1.1.9-.4.2-.7.5-1,.8,0-.1,0-.2,0-.4,0-.5,0-1-.1-1.5-.1-1-.2-2.1-.4-3.1l-.2-1.3v-.2c.6-.6,1.1-1.3,1.5-1.9.9-1.3,1.7-2.6,2.6-4l.6-1c.2-.3.4-.7.6-1.1.1-.2.2-.5.3-.8.3,0,.6,0,1,0h0ZM126.4,43.4c.6-.6,1.3-1.1,2.1-1.2.8-.2,1.7-.4,2.6-.6h.4c-.2.6-.4,1.3-.6,2-.1.4-.3.8-.4,1.1-.3,0-.6,0-.9,0-.7,0-1.5,0-2.2,0-.6,0-1.2,0-1.8-.1.3-.4.5-.7.8-1.1h0ZM121.3,44.4c.2-.4.3-.8.4-1.2.1-.8.3-1.5.6-2.3.4-.7,1-1.2,1.7-1.6.6-.3,1.1-.7,1.6-1-.2,1.7-.5,3.3-.9,4.9,0,.4-.2.7-.3,1.1-1.1-.1-2.1-.1-3.2,0,0,0,0,0,0,0h0ZM117.7,49.3c.5-.6,1-1.2,1.5-1.9s1-1.3,1.4-2c0-.2.2-.3.3-.5v.2c1.1-.3,2.2-.3,3.3-.2-.1.3-.2.6-.3.9-.9,1.2-1.8,2.3-2.7,3.5-.3.4-.5.7-.8,1.1-.2.4-.4.8-.5,1.3-.2.9-.3,1.8-.4,2.6-.1,0-.2.1-.3.2-.4.2-.7.6-.9.9-.1.2-.2.4-.2.6l-.2.5c-.2.4-.3.7-.5,1.1-.2.4-.5.9-.9,1.2v-8.2c.4-.5.9-1,1.4-1.5h0ZM113.5,46.7c.1-.3.3-.6.6-.8.1-.1.4-.3.5-.4.1-.1.3-.3.4-.4l-.3,19.8v6.1c-.5-.7-.9-1.3-1.2-2-.6-1.5-.9-3.1-.9-4.7,0-3.4,0-6.7.3-10.1,0-.8.2-1.7.2-2.5s0-1.8,0-2.6c0-.8,0-1.6.3-2.3h0ZM106.8,65.7c0-.4.2-.7.4-1l.2-.5c0-.2.1-.4.2-.6.3-.8.5-1.5.7-2.3.4-1.6.6-3.1.9-4.7,0-.8,0-1.6,0-2.5-.1-.8-.3-1.6-.5-2.4-.1-.4-.2-.8-.4-1.1-.2-.4-.3-.7-.4-1.1-.3-.7-.4-1.4-.3-2.1,0-.3.2-.7.4-.9.1-.1.2-.3.4-.4l.2-.2.2-.2c.5-.7.8-1.4,1.1-2.2.3-.8.5-1.5.7-2.3,0,0,0,0,0,0,.2.9.4,1.8.7,2.6.4,1,.8,2.1,1.3,3.1-.2.7-.3,1.5-.3,2.2,0,.9,0,1.7,0,2.5,0,.3,0,.6,0,.9-.1-.1-.2-.2-.3-.3-.3-.3-.5-.7-.7-1.1-.4-.8-.6-1.6-.9-2.5,0,0,0,0-.2,0s-.1,0-.1.1c.2.9.4,1.7.7,2.6.2.4.4.8.7,1.2.2.3.5.6.7.8,0,.3,0,.5,0,.8-.4,3.4-.6,6.8-.5,10.2,0,.9,0,1.8.2,2.6.1.9.4,1.8.7,2.6.6,1.5,1.4,2.9,2.3,4.2v6.3c-.6-.7-1.2-1.4-1.7-2.1l-3.2-4-.7-.8c.4-.7.8-1.5,1-2.4,0-.2,0-.4-.2-.4s-.2.1-.3.3c-.2.7-.5,1.4-.8,2l-.6-.8c-.3-.3-.5-.7-.7-1l-.4-.5c-.1-.1-.2-.3-.3-.4,0-.7,0-1.4,0-2.1,0-.7,0-1.5.2-2.2h0ZM105.7,70.5c.1.2.2.3.4.5l.3.5c.2.4.5.7.7,1.1l.8,1.1h0c-.4.5-.7,1-1.2,1.4-.2.2-.4.4-.7.6h-.2c0,.2-.2.3-.2.3-.1.2-.2.3-.2.5,0,.3,0,.7,0,1-.6-.8-1.3-1.5-1.9-2.2,0-1.2-.2-2.4-.2-3.6,0-.3,0-.6,0-.9,0-.2,0-.3,0-.4v-.5c.2-.6.2-1.1.3-1.7.7.7,1.4,1.5,2,2.3h0ZM102.3,66.9c.3.2.7.5,1,.8,0,0,0,.1,0,.2,0,.6-.2,1.2-.3,1.9v.5c-.1.2-.2.3-.2.5,0,.3,0,.7,0,1,0,.9,0,1.9,0,2.8,0,0-.2-.2-.2-.3-.3-.3-.5-.7-.7-1.1-.1-.2-.3-.4-.4-.6,0-.7-.1-1.4-.2-2.1,0-.8-.1-1.6-.2-2.4,0-.6,0-1.2,0-1.9,0,0,.1,0,.2,0,.4.2.7.4,1,.6h0ZM88.2,60.3c0-.2,0-.3,0-.5v-.3c0,0,0-.1,0-.2.2-.6.4-1.3.7-1.9.2-.6.4-1.3.6-2,0,0,0,0,0,0,.5.5,1,1,1.3,1.6,0,.2.2.4.2.6,0,.2.2.4.3.6.2.4.4.8.7,1.1.5.7,1.1,1.4,1.7,2,.6.6,1.3,1.2,2.1,1.6.2.1.4.2.6.3s.4.2.5.3c.3.2.7.5,1,.7.7.5,1.4,1,2.1,1.4,0,.8,0,1.6,0,2.4,0,.8,0,1.6.1,2.4,0,.1,0,.2,0,.3-.3-.3-.5-.7-.8-1-1.2-1.4-2.5-2.7-3.9-3.8l-.6-.4c-.2-.1-.4-.3-.6-.4-.2-.1-.4-.2-.6-.3-.2,0-.5-.2-.7-.2-.3,0-.7,0-1,0,0-.8,0-1.7-.2-2.5-.2-.9-.5-1.8-.9-2.7,0,0,0,0-.2,0s-.1,0-.1.1c.3.9.6,1.8.7,2.7,0,.8,0,1.7,0,2.5-.2,0-.4,0-.5.1-.7-.9-1.4-1.9-2-2.9-.2-.3-.4-.6-.7-1,0-.2.1-.5.1-.7h0ZM86.6,65.2h0c.3-.6.6-1.2.8-1.9.2-.5.3-1,.4-1.6.1.2.2.4.4.5.6,1,1.2,1.9,1.9,2.8-.9.3-1.7.7-2.5,1.1-.3-.3-.6-.7-.9-1h0ZM88.7,67.5c-.2-.3-.4-.5-.7-.8.8-.3,1.6-.7,2.4-1h.1c.6.7,1.1,1.5,1.7,2.2.4.4.8.9,1.1,1.3.4.4.8.8,1.1,1.2.7.9,1.4,1.8,2,2.7,1.3,1.9,2.4,3.9,3.8,5.7h.1c0,.4.1.8.2,1.3.4,2,.9,3.9,1.4,5.9-1-.2-2.1-.6-3-1.1-1.1-.7-2.1-1.6-2.8-2.7-.8-1.1-1.4-2.3-1.9-3.6-.5-1.3-1.1-2.5-1.7-3.8-1.1-2.6-2.4-5-3.9-7.4h0ZM86.3,75.1c0-.2,0-.3,0-.5.4,0,.8,0,1.2.1,1.1.1,2.2.5,3.2,1.1.5.3,1,.6,1.4,1,.4.4.7.8.9,1.3h.1c.1.3.3.6.4.9.5,1.3,1.2,2.6,2,3.7.8,1.2,1.8,2.2,3.1,3,1.2.7,2.4,1.1,3.8,1.4.2.8.4,1.6.6,2.3.2.8.4,1.5.6,2.3.1.6.3,1.1.4,1.7-.1,0-.2-.2-.4-.3-.7-.5-1.4-1-2.1-1.4-.4-.2-.8-.4-1.3-.5-.4,0-.9-.1-1.3-.2-1,0-2-.1-2.9-.2,0,0,0,0-.1-.1-.1-1,0-2,0-3.1,0-.6-.1-1.1-.4-1.6-.3-.5-.6-.9-.9-1.3,0,0-.1,0-.2,0s-.1,0,0,.1c.2.5.6.9.8,1.4.2.4.3.9.3,1.4,0,.8-.1,1.6-.1,2.4-.1-.1-.3-.3-.4-.4-1.1-1-2.2-1.9-3.3-2.9-.3-.2-.6-.5-.8-.7-.1-.1-.2-.2-.3-.4l-.3-.4c-.4-.6-.8-1.2-1.3-1.8-.2-.2-.3-.3-.5-.5h0c0-.3-.2-.5-.3-.6-.3-.8-.5-1.6-.7-2.4-.2-.8-.3-1.7-.5-2.5-.2-.8-.3-1.6-.3-2.5h0ZM84.3,83.5c-.2-.6-.3-1.2-.5-1.8.3,0,.6,0,.8.2.7.1,1.4.4,2,.7.1,0,.2.1.3.2h0c0,.2.2.4.3.6.1.2.2.4.3.6.2.4.3.7.5,1.1.5,1.6.9,3.3,1.2,4.9v.5s-.2,0-.3,0c-.8,0-1.6-.3-2.4-.5-.1,0-.2,0-.3,0,0-.5,0-1,0-1.5,0,0,0-.2-.2-.2,0,0-.1,0-.1.2,0,.5,0,.9,0,1.4-.5-.1-.9-.3-1.4-.5,0,0,0-.1,0-.2.2-.9.3-1.9.3-2.8,0-.2,0-.5,0-.7,0-.2-.1-.5-.2-.7l-.4-1.3h0ZM89.7,102.5c-.6-.3-1.2-.7-1.7-1s-1.2-.7-1.8-1.1c-.3-.2-.7-.4-1.1-.5,0-.5-.2-.9-.4-1.4l-.5-1.3c-.3-.9-.6-1.8-.7-2.7,0-.4,0-.8,0-1.3,0-.2.2-.4.2-.7,0-.2.1-.5.2-.7.2-.7.3-1.4.5-2.1.5.2,1,.4,1.5.5v1.4c0,.6,0,1.1.1,1.7,0,.6.3,1.2.7,1.6.8.8,1.6,1.6,2.5,2.3.8.6,1.6,1.2,2.5,1.8,0,.3,0,.5.1.8.2.9.4,1.7.7,2.6.2.6.4,1.2.7,1.7-.6-.2-1.1-.5-1.7-.8-.6-.3-1.2-.6-1.8-.9h0ZM89.1,107.5c1.7-.2,3.3-1.1,4.4-2.4.3,0,.6,0,.8,0,.4-.1.7-.3,1.1-.5.5-.2,1.1-.3,1.6,0,.6.2,1.2.4,1.8.7,1.2.6,2.3,1.3,3.4,2.1,1.2.7,2.3,1.5,3.5,2.2,1.1.7,2.3,1.4,3.5,2,.3.4.6.8.9,1.2.6.6,1.2,1.2,1.9,1.8.6.5,1.1.9,1.7,1.4v3.6c-.8-.3-1.5-.6-2.1-1h0c0,0-.1,0-.2,0-.4-.2-.8-.5-1.2-.7-.7-.4-1.4-.8-2.2-1-.2,0-.4-.1-.7-.1-.3,0-.5,0-.8.1,0,0-.1,0-.2,0-.3-.4-.7-.8-1.1-1.2-.5-.5-1-.8-1.6-1.1l-.4-.2s0,0-.1,0c.1-.4.2-.9,0-1.3,0-.4-.2-.9-.3-1.3-.1-.4-.3-.8-.5-1.2,0-.1-.1-.2-.2-.3,0-.1-.2-.2-.3-.3-.2-.1-.5-.2-.7-.2-.9,0-1.7,0-2.6,0-.8,0-1.6-.4-2-1.1,0,0-.1,0-.2,0,0,0,0,.1,0,.2,0,0,0,0,0,0,.5.8,1.3,1.3,2.3,1.4.5,0,.9,0,1.3,0,.4,0,.8,0,1.2,0,.2,0,.3,0,.5.2,0,0,.1,0,.1.2,0,0,0,.2.1.3.2.4.3.8.4,1.2.1.4.2.8.3,1.2,0,.2,0,.4,0,.6,0,0,0,.2,0,.3l-.4-.2c-.5-.3-1-.7-1.5-1-.5-.3-1.1-.6-1.7-.8-.3-.1-.7-.2-1-.2h-.3s-.2,0-.2,0c-.2,0-.3,0-.5,0-.6.1-1.2.3-1.8.5-1.3-.3-2.5-.9-3.6-1.6-.7-.4-1.3-.9-2-1.4-.5-.4-.9-.9-1.2-1.5.3,0,.6,0,.8,0h0ZM85.5,105.3c0-.5-.2-1.1-.4-1.6,0,0,0,0,0,0,.4.1.7.3,1,.6,0,0,.1.1.2.2l.2.2v.2c.1,0,.2.3.2.3.2.6.5,1.3.7,1.9-.3,0-.6,0-.9,0-.3,0-.6-.2-1-.3,0-.5,0-.9,0-1.4h0ZM86.5,107.4c.4,0,.8.1,1.2.2.4.7.9,1.4,1.5,1.9.6.5,1.3,1,2,1.4.9.6,1.8,1.1,2.8,1.5-.2,0-.3,0-.5.1-.5.1-1.1.2-1.7.2-.3,0-.6,0-.9,0s-.6,0-.9,0c-1.2.2-2.3.2-3.5.2,0,0,0,0-.2,0-.1-.3-.2-.6-.3-.9-.3-1.1-.4-2.2-.3-3.3,0-.6,0-1.2,0-1.7.3.1.6.2.9.3h0ZM86.6,113.6c1.1,0,2.3,0,3.4,0,.3,0,.6,0,.9,0s.5,0,.9,0c.6,0,1.2,0,1.9-.2,1.2-.2,2.4-.6,3.5-.8.5-.1,1,0,1.5,0,.5.2,1,.5,1.4.8.5.3.9.7,1.4,1,.2.2.5.4.8.5.1,0,.3.2.4.2l.4.2c.5.2.9.6,1.2.9.3.3.5.6.8,1-.5.3-1,.6-1.5.8-.3.2-.7.3-1,.4-.2,0-.3,0-.5.1h-.6c-.7.3-1.5.4-2.2.5-.7,0-1.5,0-2.2,0-.7-.1-1.4-.3-2.1-.6-.7-.2-1.5-.5-2.2-.7-1.1-.3-2.2-.5-3.4-.6-1.1-1.1-2-2.3-2.8-3.6h0ZM91.1,124.1c-.8-.2-1.6-.5-2.3-.9.4-.2.8-.4,1.1-.7.6-.4,1.2-.9,1.7-1.5.1.1.2.3.3.4.2.2.4.5.5.7.4.5.7.9,1.1,1.3.4.5.8,1,1.2,1.4-1.2-.2-2.5-.5-3.7-.8h0ZM94.3,122.8c-.4-.4-.7-.9-1.1-1.3-.2-.2-.4-.4-.5-.7s-.4-.5-.6-.7c-.7-.8-1.4-1.5-2-2.2.9.1,1.7.3,2.5.6.7.2,1.4.5,2.2.7.7.3,1.5.5,2.2.7.8.1,1.6.2,2.4.1.8,0,1.5-.2,2.3-.4h.6c.2-.1.4-.2.6-.2.4-.1.8-.2,1.1-.4.7-.3,1.4-.7,2-1.1.3-.2.6-.4,1-.5.3,0,.6,0,.8,0,.7.3,1.3.6,1.9,1,0,0,0,0,.1,0-.6.1-1.3.4-1.8.8-.3.2-.5.4-.7.6-.2.2-.4.5-.6.7v.2c-.1,0-.2.2-.2.2,0,.1-.1.3-.2.4-.1.3-.2.6-.2.8-.2.6-.3,1.2-.5,1.7-.3-.2-.6-.4-.9-.5-.8-.4-1.7-.6-2.5-.6-.9,0-1.7.2-2.5.6-1,.5-2,1.1-3,1.8-.8-.9-1.6-1.7-2.4-2.6h0ZM100.8,134.6c-.3,0-.5,0-.8,0s-.6,0-.8,0c-.6,0-1.1-.1-1.7-.3-1.1-.3-2.1-.8-3.1-1.4-.5-.3-.9-.7-1.3-1.1-.1,0-.2-.2-.3-.3l-.3-.4c-.2-.2-.4-.4-.6-.7-.3-.3-.6-.6-.9-.9,0,0,.1,0,.2,0,.2,0,.4-.1.6-.2.7-.3,1.5-.7,2.1-1.2.7-.4,1.3-.9,2-1.3,0,0,.2-.1.3-.2.6.7,1.2,1.3,1.9,2,.8.8,1.6,1.7,2.5,2.5.4.4.9.8,1.3,1.2l1.3,1.1c0,0,.2.2.3.2-.8.5-1.6.8-2.6,1h0ZM105.6,133.7c.6-.5,1.2-1,1.8-1.6.7-.7,1.4-1.5,2.1-2.1.3.4.6.8.9,1.2l2.8,3.6v5.5c-2.6-2.2-5.1-4.4-7.6-6.6h0ZM123.7,136c-1.8,1.2-3.4,2.5-4.9,4-.2.2-.4.4-.6.7v-3.7c.6-.9,1.3-1.8,2.2-2.6.6-.6,1.4-1.1,2.2-1.4.8-.3,1.7-.3,2.5,0,.4.1.8.3,1.1.6.3.2.5.4.8.6-1.1.5-2.2,1.2-3.3,1.9h0ZM125.6,130.9h0s0,0,0,0h0ZM125.3,130.6h0s0,0,0,0h0ZM124.8,130.3h0s0,0,0,0h0ZM132.1,131.6v.2s0,.2,0,.2c0,0,0,0,0,0l-.6.2c-.2,0-.5.2-.7.3-.5.2-1,.4-1.5.6-.4.2-.8.4-1.2.5-.3-.4-.7-.7-1.1-1.1-.4-.4-.9-.7-1.4-.9,0,0,0,0,0,0,0-.3,0-.5.1-.7h0c0,0,0,0,0-.1,0,0,0,0,0,0,0-.1,0-.2,0-.3v-.6c.3-.7.4-1.4.7-2.1l.2-.5c0-.2.2-.3.2-.5s.2-.3.3-.4c.1-.1.2-.2.4-.3.3-.2.6-.3.9-.3.4,0,.7.1,1,.2,0,0,.1,0,.2,0,0,0,0,0,0,0,0,0,0-.1,0-.2-.3-.2-.7-.3-1.1-.4-.4,0-.8,0-1.2.3-.2.1-.3.2-.5.4-.1.2-.3.3-.4.5s-.2.3-.3.5l-.3.5c-.3.7-.6,1.4-.8,2.1l-.2.5s0,0,0,.1c0,0,0,0,0,0,0,0,0,0,0,0h0s0,.1,0,.1h0s0,.1,0,.1c0,.3-.2.5-.2.7-.8-.1-1.6,0-2.3.1-1.1.3-2.1.8-2.9,1.5-.4.3-.8.6-1.1,1v-1.5c1.2-1,2.3-2.2,3.2-3.5.2-.2.3-.4.5-.7l.4-.7c.3-.5.5-1,.7-1.5.1-.3.2-.5.3-.8,0-.3.2-.5.2-.8v-.8c.1,0,.2-.4.2-.4v-.4c0-.3,0-.6,0-1,.9-.2,1.7-.5,2.5-.8.9-.3,1.9-.7,2.8-1,.7.3,1.4.5,2.1.8.9.4,1.8.8,2.7,1.2-.4.4-.7.9-1,1.3-.1.2-.3.5-.4.7,0,.1,0,.3,0,.4v.4c0,.5-.1,1-.1,1.5,0,.9.1,1.9.4,2.8,0,0,0,.2,0,.2-.2.5-.3,1.1-.4,1.6,0,.1,0,.3,0,.4h0ZM137,124.8c-1,.5-1.9,1.1-2.6,1.9-.5.5-.9,1-1.2,1.6-.1-.6-.2-1.3-.3-1.9,0-.5,0-1,0-1.5v-.4c0-.1,0-.2,0-.3,0-.2.2-.4.3-.6.3-.5.6-1,1-1.5.4,0,.8.1,1.1.1.5,0,.9,0,1.4,0,.9.1,1.8.3,2.8.4-.7.8-1.6,1.5-2.6,2h0ZM145.9,127c-1.3,1-2.9,1.6-4.4,2.6-.8.5-1.4,1.1-1.9,1.8-.5.7-.8,1.5-.8,2.4-.6,0-1.1-.2-1.7-.3-.7-.2-1.4-.4-2.1-.7-.6-.3-1.2-.6-1.7-1h0v-.3c0-.1,0-.2,0-.3,0-.5.1-.9.3-1.4.3-.9.9-1.7,1.5-2.4.7-.7,1.4-1.3,2.3-1.8l.7-.4c.1,0,.3-.2.4-.3h0c.4-.2.8-.4,1.3-.4.2,0,.4,0,.6.2.2.1.5.2.7.4.5.3,1,.6,1.6.7.2,0,.3,0,.5,0,.1,0,.3,0,.4,0,.1,0,.3,0,.4,0,.1,0,.3,0,.4,0,1-.3,2.1-.8,3.1-1.3.3-.1.6-.2.9-.3-.7,1.1-1.6,2.1-2.6,2.9h0ZM141.3,122.5c.2-.1.5-.2.7-.4.2-.1.4-.3.6-.4.4-.3.8-.5,1.2-.8.4-.2.8-.3,1.3-.4.9-.1,1.9,0,2.7.3.4.2.9.4,1.3.6.2,0,.3.1.5.2-.2.5-.4,1-.7,1.5,0,.1-.2.3-.2.4-.5,0-.9.2-1.3.4-1,.4-2,.8-3,1.1-.1,0-.3,0-.4,0-.1,0-.3,0-.4,0h-.4c-.1,0-.2,0-.4,0-.5-.1-1-.3-1.4-.6-.2-.2-.5-.3-.7-.4-.3-.1-.6-.2-.9-.2h0l.2-.2c.3-.4.6-.7.9-1.1.1,0,.2,0,.4-.1h0ZM135.9,116.8c.3-.2.6-.4.9-.6.9,0,1.8,0,2.7,0,1.3,0,2.5-.1,3.8-.2.5,0,1-.1,1.4-.2-1.1,1.7-2.3,3.3-3.5,4.9-.3.5-.7.9-1.1,1.3-.1,0-.3,0-.4,0-1,0-1.9-.2-2.8-.4-.5,0-1-.1-1.5-.2-.2,0-.4,0-.6,0v-.2c.4-.4.7-.8,1-1.2.2-.2.3-.4.5-.6.1-.2.2-.5.2-.8,0,0,0-.2-.1-.2,0,0-.1,0-.2.1,0,.2,0,.4-.2.6-.1.2-.3.4-.4.6-.3.4-.6.8-.9,1.2,0,.1-.2.2-.3.3-.1,0-.2,0-.3,0-.9-.3-1.8-.7-2.6-1.2-.4-.2-.8-.4-1.2-.5,1.9-.8,3.7-1.7,5.5-2.8h0ZM131.8,113.4c-.2,1.3-.3,2.6-.3,4-1.9.8-3.8,1.5-5.8,2-.7.2-1.3.4-2,.5,0-1.1-.1-2.2-.2-3.3,0-.7-.1-1.5-.2-2.2,0,0,0,0,0,0,.2,0,.4,0,.6,0,.2,0,.4,0,.7,0,1,0,2,0,3-.2,1-.2,1.9-.5,2.8-.9.6-.3,1.1-.6,1.6-.9,0,.3-.2.7-.2,1h0ZM137.2,104.5c-.7,1.7-1.7,3.3-2.9,4.6-.4.4-.7.8-1.1,1.1,0-.3,0-.6,0-.9,0-.7,0-1.4.1-2.1.1-.7.5-1.3,1-1.7.5-.5,1-1,1.5-1.6.2-.3.4-.6.5-1,0-.4.1-.7,0-1.1,0-.1,0-.2-.1-.2s-.1,0-.1.2c0,.3,0,.7-.1,1,0,.3-.2.6-.5.9-.4.5-.9,1-1.5,1.5-.6.5-.9,1.2-1.1,1.9-.2.7-.2,1.4-.2,2.2,0,.3,0,.7,0,1,0,.1,0,.3,0,.4-.8.6-1.7,1.1-2.6,1.5-.8.4-1.7.6-2.6.8-.9.2-1.7.2-2.6,0-.2,0-.5,0-.7,0-.3,0-.5,0-.8,0h0c0-.8-.1-1.7-.2-2.5,1.3-.6,2.5-1.4,3.6-2.3,1.3-1,2.3-2.1,3.4-3.1,1.1-1,2.3-2,3.5-3,.3-.2.6-.5.9-.8l.4-.4.4-.4.2-.2.2-.2c.1-.2.2-.3.4-.5.2-.3.4-.7.5-1.1,0-.2.1-.4.2-.6v-.6c.2,0,.2-.2.2-.3,0,0,.2,0,.3,0,.7-.3,1.3-.7,1.9-1.1,0,1.1-.2,2.2-.4,3.2-.3,1.8-.8,3.6-1.5,5.3h0ZM144.7,92c0,.3,0,.6.1.9.1.6.2,1.2.2,1.7,0,.3,0,.6-.1.8,0,.3-.2.5-.4.7-.4.5-.8.9-1.2,1.2l-.7.6c-.2.2-.4.4-.7.6-.8.6-1.7,1.1-2.7,1.3,0-.2,0-.4,0-.6.2-1.2.3-2.5.4-3.7.3-.2.6-.5.9-.7l1.5-1.2c.5-.4,1-.7,1.5-1.2.4-.3.7-.7,1-1,0,.2,0,.3,0,.6h0Z"/>
        <path class="cls-2" d="M144.5,65c-.5-.2-1-.4-1.4-.7l-.2.3c.5.3,1,.5,1.5.7.6.2,1.1.2,1.7,0,1.1-.3,2.1-.7,3.1-1.2,0,0,0,0,0-.1,0,0,0,0-.1,0-1,.5-2,.8-3.1,1-.5.2-1,.2-1.5,0Z"/>
      </g>
    </g>
  </g>
</svg>